<svg width="215" height="198" viewBox="0 0 215 198" fill="none" xmlns="http://www.w3.org/2000/svg">
<path d="M147.674 158.056L105.217 143.493L62.4769 111.871L47.8711 97.743L13.4959 83.0462L17.7912 71.2985L53.0045 82.3886L62.0435 85.8309L50.1165 70.7605L49.5934 39.3332L52.0032 22.2278L68.1496 74.9512L72.445 63.2034L71.6229 13.8177L79.7042 13.6832L84.4916 85.4572L97.8558 78.9476L93.2628 18.8465L100.551 25.0124L104.067 74.3533L107.778 81.4769L113.346 38.272L118.823 43.5699L119.331 74.0993L119.854 105.527L146.971 115.853L183.936 124.22L147.674 158.056Z" fill="#D9D9D9"/>
<path d="M187.657 115.212C189.146 118.78 188.66 122.749 187.497 126.463C186.101 130.855 184.212 135.132 182.22 139.309C181.451 140.914 180.049 142.571 178.511 143.372C171.287 147.187 164.043 151.064 156.523 154.251C149.833 157.098 143.022 156.293 136.573 152.726C130.372 149.297 123.781 147.059 116.629 146.607C111.929 146.318 107.917 144.425 105.263 140.754C110.374 139.954 115.586 139.132 120.819 138.31C120.813 137.963 120.766 137.617 120.761 137.27C119.94 137.019 119.14 136.787 118.319 136.535C118.316 136.331 118.272 136.148 118.248 135.944C118.959 135.708 119.69 135.492 120.603 135.191C120.289 134.726 120.052 133.955 119.663 133.859C118.023 133.478 116.346 133.302 114.688 133.044L114.457 133.844C113.978 133.28 113.499 132.737 112.771 131.891C112.016 133.17 111.361 134.283 110.547 135.664C109.991 135.347 108.775 134.653 107.971 134.196L107.917 130.972C107.005 131.334 106.114 131.757 105.179 132.018C103.98 132.364 102.739 132.61 101.519 132.895C101.372 132.673 101.246 132.43 101.099 132.208C103.197 130.704 105.316 129.219 107.495 127.672C106.137 127.021 104.227 126.318 102.616 125.201C101.356 124.345 98.7474 124.592 99.3747 121.805C100.041 118.936 102.444 119.774 104.617 119.105C104.328 120.131 104.155 120.766 103.846 121.833C105.043 121.405 105.895 121.105 107.174 120.655C106.071 119.408 104.996 118.568 104.447 117.454C104.004 116.604 104.045 115.399 104.171 114.417C104.425 112.494 105.474 110.497 105.138 108.726C104.736 106.651 105.233 105.805 106.998 105.164C109.473 104.265 111.928 103.306 114.768 102.238C113.581 102.074 112.783 101.964 111.699 101.819C112.813 98.8611 113.829 96.1495 114.983 93.0886C111.937 91.5879 113.864 88.4325 113.904 85.9413C114.006 79.7542 114.762 73.6787 116.949 67.7018C118.043 64.744 116.898 60.9865 116.862 57.578C116.847 56.7004 117.282 55.8358 117.247 54.9586C117.238 54.4279 116.719 53.9058 116.445 53.3592C116.058 53.4473 115.651 53.5357 115.265 53.6238C115.568 50.965 116.278 48.2381 116.03 45.6292C115.787 43.2857 117.244 40.0565 112.732 38.8251C116.421 38.437 119.04 40.047 119.433 42.7963C120.22 48.3562 121.109 53.9348 121.161 59.5274C121.262 68.0791 120.303 76.6689 120.568 85.218C120.698 89.3394 122.582 93.4112 123.692 97.5164C124.496 100.463 125.219 103.431 126.226 106.293C126.59 107.328 127.533 108.741 128.413 108.91C136.542 110.367 144.518 112.501 153.017 111.685C155.218 111.465 157.765 114.852 160.142 116.589C161.919 117.886 163.597 119.369 165.514 120.46C166.338 120.915 167.663 120.832 168.659 120.571C174.959 118.873 181.237 117.034 187.718 115.211L187.657 115.212ZM144.237 126.244C140.846 139.61 124.239 147.562 108.788 142.798C117.037 146.621 125.313 145.87 132.936 141.497C138.719 138.176 143.396 133.403 144.237 126.244Z" fill="#712222"/>
<path d="M78.7112 59.9497C78.454 60.444 78.2176 60.9582 77.9401 61.4528C77.2268 62.7507 76.5206 64.4773 74.6625 63.2221C73.2169 62.2255 71.7295 61.1683 73.3418 58.6918C74.7157 56.6071 76.4483 56.4558 78.4259 56.3004C77.8287 51.0844 77.2343 46.0316 76.6806 40.9782C76.6089 40.3466 76.7813 39.67 76.8317 39.0159C77.0045 37.135 77.2821 35.4156 74.7172 34.6213C73.4451 34.2342 72.5029 32.8209 71.322 31.779C73.7921 29.3291 72.6558 26.0614 71.4936 24.9171C68.6082 22.0459 69.2103 18.9738 69.1403 15.9946C69.6546 17.4558 69.91 19.3092 70.8916 20.6402C71.4555 21.4065 73.1695 21.3576 74.3586 21.6644C74.5685 20.7831 74.8396 19.9008 74.9678 19.0209C75.0981 18.2634 74.9417 17.4495 75.1335 16.7114C75.5921 14.8257 76.0329 13.1035 73.8071 11.8341C73.2095 11.497 73.1476 10.2324 72.8262 9.31911C78.2807 8.33011 80.9874 10.2856 80.8479 15.3914C80.3499 33.3027 83.6835 50.844 85.6719 68.5098C85.8141 69.6914 87.1171 70.7109 87.8096 71.8425C88.1246 72.368 88.4412 72.9956 88.4922 73.6072C88.7309 76.9103 88.1686 79.9205 86.3815 82.9306C84.5947 85.9612 83.2633 89.3721 84.2258 93.2347C84.5754 94.617 83.8067 96.263 83.4716 98.2079C83.9434 98.3429 84.8257 98.614 85.5645 98.8467C86.7855 102.297 87.9854 105.706 89.2918 109.379C90.9558 107.555 88.7783 104.285 92.1137 103.535C92.6559 104.22 93.2191 104.946 93.8654 105.751C96.6304 102.623 97.8189 99.2143 97.7935 95.234C97.7963 92.9476 98.4116 90.6714 98.5365 88.3626C98.5848 87.586 97.9382 86.7598 97.6593 85.9479C97.2944 84.872 96.6022 83.7608 96.7074 82.7179C96.9891 80.0186 97.7412 77.3727 98.0841 74.6724C98.1749 73.9972 97.7086 72.9638 97.1505 72.5444C94.8549 70.7658 94.2366 67.959 95.4809 65.4478C96.3496 63.6777 96.497 61.491 97.5313 59.861C100.177 55.7138 97.3237 51.0661 99.0075 46.7511C99.4973 45.5182 97.8307 43.5045 97.2715 41.7991C96.9056 40.662 96.5389 39.4841 96.4988 38.3007C96.4427 36.1582 96.6925 33.9901 96.6772 31.8469C96.6657 28.7034 96.7154 25.5588 96.3982 22.4408C96.2499 20.8918 95.3883 19.4159 94.8527 17.8938C98.8609 17.0922 101.731 19.0654 102.003 23.1028C102.296 27.2419 102.222 31.4076 102.373 35.5491C102.874 48.4832 103.375 61.3969 104.039 74.3079C104.1 75.5317 105.385 76.6739 106.565 77.6953C107.012 82.4648 106.334 87.11 102.314 90.8514C100.726 92.3273 99.9894 94.7075 98.7795 96.8303L100.473 96.8021C101.009 101.999 101.521 107.012 102.083 112.535C101.842 112.804 101.1 113.613 100.339 114.462C96.789 113.378 93.2598 112.294 88.9713 110.977C89.7594 112.944 90.3345 114.384 91.0151 116.026L84.1375 116.141C83.8069 115.901 82.7746 115.204 81.742 114.486C81.7791 114.261 81.8165 114.056 81.8536 113.831C83.3277 114.092 84.8053 114.558 86.2753 114.574C88.7662 114.594 88.7165 112.839 88.3557 110.783C87.8111 111.18 87.3676 111.514 86.5002 112.141C86.5659 111.18 86.6173 110.588 86.6669 109.893C85.1091 109.51 83.4285 109.11 81.7683 108.709C82.4496 107.942 83.5605 107.229 83.6486 106.391C83.7201 105.777 82.2595 105.108 81.8579 104.277C81.1392 102.799 80.214 101.181 80.1879 99.6098C80.156 94.0169 80.5119 88.4176 80.6229 82.8223C80.6311 82.0873 80.1495 81.3604 79.9124 80.6091C78.8118 77.0345 77.2228 73.5498 79.6096 69.7743C80.0872 69.0315 79.328 67.5743 79.2685 66.4525C79.172 64.3311 79.1982 62.228 79.1629 60.1055C78.9989 60.0674 78.8346 60.0089 78.6707 59.9708L78.7112 59.9497Z" fill="#712222"/>
<path d="M53.4702 101.095C50.3464 98.6154 48.7373 95.1514 43.5076 96.1571C38.4205 97.1399 33.8549 93.8885 29.9363 90.2588C27.5312 88.0329 24.6244 86.3256 21.8384 84.5144C20.1462 83.4198 17.9939 82.884 16.5833 81.5397C15.7119 80.6969 15.3521 78.7023 15.6161 77.3914C16.0481 75.1387 17.6366 73.6833 20.1648 73.4983C24.8546 73.1753 29.1414 74.39 33.2407 76.6081C39.8325 80.1729 46.4838 83.6346 53.0558 87.2406C53.9004 87.696 54.6123 88.7661 54.934 89.6998C56.2656 93.6583 55.7165 97.4645 53.4906 101.094L53.4702 101.095Z" fill="#712222"/>
<path d="M54.504 19.7899C55.626 20.9756 57.2964 21.9889 57.7689 23.3896C58.7147 26.2523 59.3368 29.2836 59.5503 32.3013C59.8451 36.5221 59.794 40.8098 59.6398 45.0381C59.3131 53.6174 62.9908 61.1706 65.6727 68.9853C65.9733 69.8785 67.7352 70.2574 69.3634 71.1898C70.5368 76.682 70.2863 82.4837 64.8284 88.168C63.1662 85.1948 61.675 82.6883 60.3462 80.1179C59.354 78.1542 57.9524 76.1157 57.8361 74.0355C57.6328 70.4052 56.2723 69.6113 52.9579 70.4013C52.0834 70.5996 50.6379 69.603 49.8889 68.7581C49.4937 68.3155 49.7954 66.8203 50.274 66.1387C51.2706 64.6931 52.8043 63.6265 53.6775 62.1217C54.6303 60.4932 55.6194 58.5986 55.6916 56.801C55.8321 52.9812 55.421 49.1299 55.1126 45.3176C55.0378 44.5023 54.6096 43.305 54.013 43.0291C51.7086 41.9447 52.1671 40.059 52.2386 38.2205C52.2678 37.526 52.6209 36.6627 52.3274 36.1981C50.8189 33.8756 51.1465 32.7066 53.5228 30.7481C55.2344 29.3315 55.4219 25.8784 55.8682 23.258C55.9978 22.4597 54.7352 21.4192 54.0869 20.4909C54.2261 20.2641 54.3655 20.0576 54.5046 19.8307L54.504 19.7899Z" fill="#712222"/>
<path d="M93.6308 129.759C92.8567 129.854 92.1027 129.928 91.0025 130.048C91.4837 130.754 91.8813 131.34 92.2584 131.925C92.0166 132.113 91.7748 132.301 91.553 132.468C90.427 131.037 89.3216 129.627 88.1956 128.196C88.2326 127.971 88.2898 127.725 88.3269 127.5C90.1305 127.94 91.9344 128.399 93.738 128.839C93.7023 129.146 93.6461 129.453 93.6104 129.76L93.6308 129.759Z" fill="#712222"/>
<path d="M72.5405 117.414C70.2713 115.982 68.0018 114.53 65.7326 113.098C65.851 112.851 65.9894 112.584 66.1078 112.337C67.4019 112.826 68.696 113.314 70.4628 113.999C71.025 114.664 71.9824 115.77 72.9194 116.877C72.8 117.063 72.6602 117.249 72.5408 117.435L72.5405 117.414Z" fill="#712222"/>
<path d="M74.5762 107.255C75.8693 105.233 76.923 103.542 77.9971 101.85C80.3445 104.301 79.8289 105.208 74.5762 107.255Z" fill="#712222"/>
</svg>
