<svg width="816" height="986" viewBox="0 0 816 986" fill="none" xmlns="http://www.w3.org/2000/svg">
<g clip-path="url(#clip0_470_23)">
<path d="M639.765 853.241C637.801 854.946 635.644 856.841 633.454 858.698C633.1 859.002 632.714 859.419 632.327 859.457C628.464 859.987 624.568 860.48 620.865 860.935C623.054 856.159 634.163 851.763 639.733 853.203L639.765 853.241Z" fill="#0C081E"/>
<path d="M55.2446 925.012L52.71 623.663C96.2868 313.012 200.024 125.612 245 70.5L993.71 70.0117V925.012H55.2446Z" fill="#86857D"/>
<path d="M112.71 378.512L74.21 491.012V610.512L112.71 572.512L160.71 418.012L202.21 333.512L112.71 378.512Z" fill="#D9D9D9"/>
<path d="M99.225 60C96.8607 63.671 94.4964 67.3419 92.1322 71.0128C91.7381 70.9005 91.3137 70.8256 90.9197 70.7132C91.5562 63.2214 86.2821 62.9218 83.16 60C88.5251 60 93.8902 60 99.225 60Z" fill="#0C081E"/>
<path d="M250.21 359.512L188.71 459.512L158.21 581.012L319.21 432.012L541.71 404.012L667.71 441.512L752.71 514.512L871.71 555.012L861.71 504.512L781.71 365.512L512.21 253.012L250.21 359.512Z" fill="#D9D9D9"/>
<path d="M223.231 744.257C217.933 742.32 213.053 743.693 208.141 746.194C206.118 747.216 203.582 746.969 201.302 746.476C211.769 741.968 222.235 737.459 232.67 732.916C227.212 732.775 221.625 731.014 216.97 735.839C215.782 737.072 213.085 736.367 211.416 737.283C204.77 740.911 197.739 744.116 191.767 748.871C183.741 755.246 176.517 762.889 169.1 769.828C174.655 756.55 187.144 750.28 197.129 740.77C182.777 733.655 170.545 741.651 157.96 745.278C157.767 744.785 157.575 744.292 157.382 743.834C158.409 742.813 159.437 741.756 160.464 740.735C150.897 741.087 146.081 750.104 138.6 754.718C139.178 753.697 139.627 752.534 140.398 751.724C144.54 747.462 148.424 742.743 153.112 739.361C156.354 737.037 160.817 736.931 164.606 735.381C173.98 731.507 183.259 727.35 192.762 723.229C191.735 720.975 189.712 720.095 186.983 721.398C180.048 724.674 173.146 728.055 166.211 731.366C164.862 732 163.514 732.599 162.166 733.197C161.941 732.739 161.748 732.317 161.523 731.859C168.266 727.386 175.008 722.912 181.75 718.404C181.622 717.981 181.461 717.559 181.333 717.171C180.402 717.101 179.471 717.101 178.572 716.925C175.008 716.255 171.348 715.974 167.945 714.776C164.156 713.402 160.785 712.698 156.708 714.283C153.786 715.41 150.03 716.889 147.012 713.473C146.851 713.297 146.434 713.297 146.177 713.367C137.669 716.15 128.615 717.77 120.781 722.102C109.673 728.231 99.4312 736.332 88.5795 743.2C98.9175 730.274 112.627 722.208 125.983 713.579L125.276 711.888C116.672 715.657 108.068 719.461 99.4633 723.229C99.367 722.983 99.2706 722.736 99.1422 722.525C102.289 719.531 105.435 716.502 108.196 713.86C117.41 713.719 124.795 708.718 132.404 704.245C118.309 701.991 106.302 708.19 94.3264 715.234C105.082 705.794 117.186 699.067 129.771 692.974C124.506 692.164 119.529 689.804 114.2 693.255C110.315 695.756 106.623 696.496 101.518 693.854C95.5464 690.755 88.1621 689.029 81.2594 693.502C81.3557 692.868 81.4199 692.234 81.5162 691.6C79.5899 690.966 77.6636 689.839 75.7051 689.768C68.1603 689.451 60.8723 690.719 54.2585 695.228C53.3275 695.862 52.0111 695.756 50.759 695.58C59.6202 687.197 71.435 687.338 81.9657 683.781L81.3878 681.667C78.8836 682.477 76.3793 683.323 72.8798 684.45C76.0904 680.118 87.6484 678.039 105.531 677.617C104.215 675.222 92.4643 672.686 88.4832 673.461C82.8647 674.553 77.182 675.222 71.2745 676.067C73.9072 671.488 77.6957 670.572 83.5068 672.615C80.0394 668.776 78.0488 666.98 73.9393 667.191C67.165 667.543 60.3265 665.43 53.5843 668.036C53.0385 668.248 52.1717 667.367 51.4653 666.24C65.4313 662.225 79.6541 663.387 93.8769 664.409C93.909 663.775 93.9411 663.141 93.9732 662.507C91.3084 661.767 88.6758 661.062 85.4973 660.182C86.9742 657.963 90.9232 657.294 86.8779 654.159C88.2905 653.736 88.8363 653.419 89.3821 653.419C91.4048 653.349 93.4274 653.384 95.4501 653.349C94.808 650.249 94.7116 646.903 93.4274 644.156C91.79 640.634 89.2537 637.605 86.9742 634.505C86.1715 633.413 85.0157 632.533 83.892 631.899C78.7551 629.046 78.5304 624.96 82.4152 620.698C85.1442 617.704 86.8779 613.477 88.5795 609.568C88.8684 608.934 86.7816 606.081 85.5615 605.834C79.5899 604.637 73.554 603.545 67.4861 603.263C61.5465 602.981 55.5749 603.967 49.6032 603.897C35.5088 603.756 21.8639 601.114 8.92537 594.704C7.32009 593.894 5.39375 593.823 3.82057 593.013C2.31161 592.203 1.02738 590.865 0 588.892C14.8649 594.81 29.9546 600.269 45.5258 600.234C60.9686 600.234 76.8288 599.318 91.1158 589.949H65.3992C63.9544 588.258 63.0876 586.392 61.8034 585.863C54.3227 582.729 46.5853 580.263 39.201 576.811C34.3851 574.557 30.083 571.07 25.524 568.147C25.7808 567.548 26.0698 566.949 26.3266 566.385C28.6703 567.618 31.0462 568.816 33.3578 570.119C45.59 577.128 58.2075 582.834 72.1414 584.067C73.843 584.208 75.6088 583.785 77.4709 582.799C69.4124 578.537 60.9365 575.684 54.2906 567.724C62.1886 567.336 67.4861 575.825 75.7693 573.007C72.8477 571.352 70.1829 570.33 68.0319 568.534C57.0196 559.376 45.7505 550.5 35.4125 540.497C31.8809 537.081 28.3172 532.924 25.9414 527.606C23.5655 522.287 18.3323 518.589 14.6723 513.869C13.2917 512.108 12.778 509.502 11.8791 507.283C12.457 506.719 13.0028 506.156 13.5807 505.592C19.9697 516.722 29.3446 521.231 40.0999 522.604C40.3247 522.146 40.5494 521.689 40.7742 521.231C38.6873 519.716 35.7978 518.765 34.7062 516.652C29.794 507.177 22.6666 499.886 15.8602 492.278C15.4107 491.75 15.5391 490.588 16.2455 489.073C17.1123 489.918 18.0434 490.728 18.846 491.644C31.7525 506.437 45.7505 519.751 62.6381 528.874C65.5597 530.459 69.0913 530.706 72.334 531.586C72.5266 531.023 72.7193 530.459 72.9119 529.895C70.1829 527.042 67.6145 524.049 64.725 521.407C51.4011 509.22 43.2784 492.525 33.0046 477.731C30.4683 474.068 28.9914 469.489 27.0329 465.298L28.253 464.488C31.1746 467.94 34.2246 471.251 36.9536 474.843C39.811 478.542 42.4115 482.486 45.0442 486.396C46.3605 488.333 48.0943 489.813 46.8742 493.194C46.3284 494.708 48.8969 497.914 50.5022 499.921C53.0385 503.127 55.2859 507.529 60.4228 504.395C61.0007 504.042 62.4455 504.817 63.216 505.451C67.0687 508.586 71.403 508.797 75.9298 508.304C76.3793 508.269 76.8609 508.093 77.2462 508.199C84.5663 510.312 91.8864 512.46 99.2064 514.539C102.16 515.384 105.146 516.018 108.132 516.722C108.421 516.124 108.742 515.525 109.031 514.891C107.49 513.728 106.045 511.826 104.343 511.474C90.0563 508.48 79.1083 498.689 67.5503 490.094C64.9818 488.192 62.1244 486.678 59.6844 484.6C56.6665 482.029 52.3964 481.571 51.6901 475.266C51.2406 471.391 46.0395 468.116 42.8931 464.664C41.32 462.938 39.6505 461.212 37.7883 459.944C34.5778 457.761 32.9725 454.908 33.1009 450.751C33.1009 449.836 32.9404 448.744 32.4588 448.004C25.0424 435.782 17.5618 423.63 10.1454 411.408C9.6638 410.633 9.56749 409.577 9.31064 408.626C9.69591 408.414 10.0812 408.168 10.4664 407.956C11.4938 409.682 12.457 411.514 13.5807 413.169C21.1897 424.194 26.1019 437.261 35.5088 446.983C39.9715 451.597 43.2142 457.655 47.0027 463.044C47.2916 462.621 47.6127 462.198 47.9016 461.811C49.9564 463.079 52.1075 464.206 54.0338 465.685C66.2339 475.055 78.4983 484.353 90.57 493.898C99.078 500.661 109.32 500.661 118.887 503.303C119.626 503.514 120.525 503.091 122.515 502.774C120.653 500.872 119.337 499.816 118.341 498.442C112.819 490.834 107.458 483.12 101.903 475.548C98.8533 471.391 95.3859 467.658 92.4 463.431C91.0837 461.565 91.0195 458.43 89.5426 456.88C83.7636 450.892 77.6957 445.186 71.5635 439.656C69.0592 437.402 65.3671 436.522 63.3765 433.95C57.5333 426.448 52.2038 418.417 46.7458 410.528C45.6221 408.907 44.7232 407.041 43.15 404.293C45.6863 405.702 47.4521 406.688 49.1858 407.71L49.9564 406.583C48.5437 404.822 47.1311 403.061 45.5579 401.088C51.8827 399.081 57.2444 401.123 61.2897 406.794C64.2755 410.95 67.0687 415.001 72.2698 416.586C74.5172 417.255 76.4114 420.249 77.8883 422.644C81.3557 428.174 85.5615 432.33 91.18 435.289C99.4633 439.692 107.072 445.609 115.516 449.554C122.355 452.759 128.872 458.148 138.696 456.246C121.584 440.466 105.435 425.215 93.2348 405.702C105.563 418.594 118.149 431.097 133.078 441.594C133.142 440.114 133.431 439.269 133.174 438.987C126.464 431.767 119.979 424.3 112.916 417.572C106.719 411.69 99.8164 406.653 93.2669 401.194C92.4 400.454 91.7579 399.398 91.0195 398.517C91.2763 398.13 91.5011 397.742 91.7579 397.39C97.2801 401.37 102.77 405.35 108.292 409.33C108.421 409.119 108.581 408.943 108.71 408.731C104.825 404.047 100.94 399.397 97.0554 394.713C97.4727 394.255 97.8901 393.762 98.2754 393.304C101.679 396.474 104.985 399.715 108.485 402.779C116.255 409.577 123.96 416.48 131.986 422.891C134.523 424.898 137.926 425.885 141.072 426.624C142.485 426.941 144.604 425.92 145.695 424.757C146.209 424.194 145.503 421.447 144.668 420.319C139.563 413.768 134.105 407.534 129.065 400.912C125.95 396.826 123.671 391.93 120.46 387.915C116.094 382.491 111.503 377.243 106.494 372.558C96.8948 363.612 86.9742 355.088 77.182 346.423C77.5672 345.895 77.9204 345.367 78.3057 344.838C87.6163 352.552 96.9269 360.231 106.238 367.944C106.494 367.662 106.783 367.345 107.04 367.064C103.637 360.195 100.234 353.362 96.8306 346.494C97.248 346.212 97.6333 345.966 98.0506 345.684C102.545 352.693 107.04 359.667 111.471 366.571C116.832 363.541 115.195 360.125 114.136 356.708C111.118 347.163 107.65 337.9 100.33 330.996C100.619 330.503 100.908 330.01 101.165 329.517C103.509 330.503 106.27 330.891 108.132 332.546C116.865 340.365 125.276 348.642 133.977 356.497C141.136 362.943 148.553 369.071 155.937 375.376C152.694 382.068 146.016 374.39 142.677 380.131C147.044 383.688 151.442 387.246 155.841 390.803C156.258 390.345 156.643 389.888 157.061 389.394C155.102 387.211 153.144 385.027 150.897 382.526C152.566 379.849 154.942 378.511 158.955 378.933C163.225 379.391 167.656 378.229 172.921 377.701C168.105 373.721 164.477 370.727 159.693 366.782C161.01 369.247 161.845 370.515 162.358 371.924C162.776 373.087 162.808 374.46 163.032 375.728C161.78 375.763 160.464 376.116 159.34 375.728C158.506 375.446 157.703 374.284 157.35 373.298C156.001 369.459 155.07 365.443 153.561 361.71C152.823 359.878 151.218 358.364 149.837 356.92C141.939 348.748 134.009 340.612 126.079 332.44C125.79 332.123 125.661 331.63 126.111 330.292C128.808 332.511 131.569 334.695 134.234 336.984C136.353 338.78 138.247 340.929 140.494 342.514C141.361 343.113 142.934 342.584 144.154 342.584C143.994 341.246 143.93 339.872 143.641 338.604C143.512 338.041 142.934 337.371 142.453 337.195C137.605 335.469 138.311 330.503 137.316 326.417C145.31 331.208 148.103 341.281 155.07 347.163C147.397 333.814 138.375 321.275 135.133 305.284C144.411 322.437 153.625 339.626 167.174 353.433C159.629 340.647 152.117 327.897 144.572 315.111C145.053 314.759 145.535 314.407 146.016 314.054C155.231 327.474 164.445 340.894 173.724 354.419C176.035 352.869 177.384 352.129 178.507 351.143C179.117 350.615 179.92 349.276 179.727 348.924C177.063 344.169 177.287 337.935 172.439 334.131C168.779 331.243 166.115 326.84 163.097 323.071C162.776 322.684 162.872 321.909 162.808 321.31C163.129 320.958 163.45 320.606 163.771 320.253C171.091 327.192 178.443 334.096 186.534 341.774C186.855 334.483 178.283 333.039 179.888 325.713C181.654 326.805 182.97 327.65 185.089 328.953C175.104 308.313 160.592 291.442 154.621 269.287C163.899 285.63 173.37 301.727 185.667 314.97C187.786 313.737 189.423 312.751 191.093 311.765C191.414 312.223 191.703 312.681 192.024 313.139C190.964 315.005 189.873 316.872 188.813 318.739L190.515 316.978C191.735 318.175 192.923 319.338 194.143 320.535C193.565 321.31 192.955 322.085 192.377 322.86C193.693 320.923 195.042 318.985 196.711 316.555C193.212 307.327 189.487 297.57 185.86 287.779C185.057 285.63 183.708 283.658 186.084 281.157C186.887 280.276 185.795 276.965 185.185 274.852C184.222 271.436 182.938 268.09 182.521 264.391C190.386 276.684 193.725 291.724 203.004 304.263C204.385 301.586 205.669 300.142 205.829 298.557C206.343 293.943 209.168 292.815 212.636 292.181C214.241 291.9 216.167 291.935 217.323 290.913C218.607 289.822 219.153 287.743 220.052 286.088C218.479 285.665 216.938 285.067 215.365 284.855C214.466 284.75 213.535 285.348 211.833 285.877C213.535 283.129 214.626 281.051 216.039 279.255C218.222 276.508 219.731 278.022 221.272 280.417C222.267 281.932 223.905 282.918 225.253 284.151C225.831 282.037 226.345 279.854 227.019 277.776C227.565 276.191 227.982 273.936 229.074 273.302C232.092 271.647 235.431 270.696 238.641 269.428C243.425 267.526 244.228 265.448 242.815 260.024C240.535 251.218 238.352 242.342 236.201 233.501C236.073 232.973 236.362 232.304 236.619 230.508C243.425 238.89 243.521 249.739 248.947 257.84C249.525 252.38 252.96 247.027 248.177 241.145C252.447 241.497 252.671 239.172 252.415 235.72C251.676 225.858 246.828 217.933 242.751 209.621C242.141 208.353 241.659 206.979 241.113 205.641L240.985 205.746C244.773 210.361 249.172 214.059 251.965 220.047C255.786 228.112 261.565 235.086 266.766 242.342C267.793 243.786 269.848 244.385 271.774 245.547C272.352 246.639 273.219 248.259 274.086 249.844C274.696 249.563 275.306 249.281 275.916 248.964C275.306 247.344 274.953 245.547 274.086 244.139C269.687 237.129 265.161 230.226 260.666 223.287C261.051 222.935 261.468 222.618 261.854 222.266L274.054 237.165C274.439 237.024 274.824 236.883 275.21 236.777C274.15 231.353 273.123 225.929 272.063 220.469C272.577 220.293 273.123 220.117 273.636 219.906C276.526 227.408 277.425 236.037 284.231 241.603C281.053 230.648 277.874 219.73 274.664 208.776C275.177 208.564 275.691 208.318 276.237 208.106C277.007 209.515 277.939 210.854 278.516 212.368C281.278 219.377 283.878 226.457 286.607 233.466C288.277 237.763 289.689 242.659 295.565 238.75C295.982 238.468 297.78 239.63 298.133 240.511C299 242.554 299.449 244.843 299.899 247.062C300.862 251.57 301.729 256.079 302.628 260.587C303.238 260.482 303.88 260.411 304.49 260.305C304.105 254.987 303.751 249.704 303.334 244.033C305.614 244.667 307.508 245.195 310.686 246.076C309.531 243.61 308.824 242.589 308.535 241.462C308.278 240.37 308.471 239.137 308.471 237.939C309.627 238.292 310.911 238.362 311.874 239.067C313.03 239.912 313.865 241.25 315.631 243.364C316.176 240.546 316.818 238.926 316.722 237.341C316.048 226.175 315.245 215.01 314.411 203.844C314.346 202.823 313.833 201.696 313.255 200.851C309.98 196.236 310.205 192.221 314.796 187.466C315.663 191.235 316.658 194.511 317.204 197.892C318.392 205.57 319.13 213.354 320.511 220.962C321.056 224.027 322.212 228.5 324.171 229.345C326.418 230.331 329.982 228.289 332.711 226.95C335.119 225.753 337.302 223.851 339.389 222.019C341.668 220.011 343.723 217.757 346.195 215.256C346.388 215.609 346.934 216.419 347.351 217.299C347.865 218.462 348.282 219.73 348.731 220.927C349.695 220.082 350.658 219.236 351.621 218.356C351.942 218.039 352.231 217.651 352.713 217.088C353.451 217.475 354.222 217.828 354.928 218.285C357.817 220.047 358.973 218.99 359.23 215.538C359.358 213.848 360.129 212.192 360.611 210.537C362.023 211.206 363.404 211.875 365.587 212.932C365.651 211.382 365.747 209.48 365.876 206.627C367.128 208.459 368.091 209.832 369.279 211.593C370.082 208.177 370.82 204.972 371.591 201.802C371.976 201.731 372.329 201.661 372.714 201.59C373.742 203.88 374.769 206.134 376.439 209.867C377.081 205.782 377.53 203.14 377.948 200.463C378.333 200.393 378.718 200.322 379.103 200.252C380.452 203.985 381.8 207.754 383.149 211.488C381.126 190.178 383.919 169.327 385.846 147.102C388.992 166.016 391.914 183.556 394.867 201.485C396.055 200.604 396.505 200.287 397.275 199.688C397.468 201.449 397.628 202.893 397.757 204.161C399.137 200.991 400.55 197.857 401.866 194.651C403.889 189.72 402.059 185.141 400.967 180.351C399.555 174.047 398.784 167.566 397.725 161.12C398.335 160.944 398.945 160.803 399.555 160.627C401.931 167.918 404.21 175.209 406.682 182.429C407.549 184.93 409.186 187.079 409.989 189.579C410.824 192.151 411.305 194.898 411.562 197.645C411.819 200.463 411.98 202.964 416.025 202.612V167.671C420.905 175.737 419.203 184.824 420.552 193.63L427.166 178.766C427.583 178.942 428.032 179.119 428.45 179.295C427.005 185.916 425.56 192.538 424.019 199.512C428.161 199.512 431.821 199.723 435.417 199.336C436.219 199.266 437.086 197.223 437.504 195.955C438.146 193.841 438.081 191.376 439.045 189.509C439.687 188.241 442.448 186.726 442.833 187.114C447.713 191.869 453.46 187.36 458.693 189.051C460.844 189.756 464.023 188.206 466.238 186.726C467.972 185.564 468.935 182.993 469.994 181.443C471.15 184.86 472.402 188.452 473.622 192.045C474.2 191.869 474.81 191.728 475.388 191.552C474.939 183.627 474.521 175.702 474.072 167.777C474.682 167.671 475.292 167.53 475.902 167.425C477.026 172.779 478.181 178.132 479.209 183.521C479.562 185.282 479.401 187.114 479.819 188.84C480.332 191.129 481.424 191.728 483.8 190.847C486.433 189.861 489.418 189.826 492.244 189.756C493.111 189.756 494.042 190.918 494.908 191.587C494.042 192.327 493.271 193.207 492.308 193.736C491.441 194.229 490.382 194.299 489.065 194.687C490.157 198.209 492.244 198.033 494.395 197.047C497.766 195.532 500.72 194.44 500.174 200.604C500.11 201.238 501.265 202.647 501.586 202.576C502.485 202.33 503.609 201.696 503.994 200.851C506.274 195.814 509.163 191.834 514.525 190.46C515.617 190.178 516.13 187.501 516.997 185.987C517.832 184.543 518.827 183.169 519.758 181.76C520.24 183.416 521.075 185.036 521.139 186.726C521.331 191.27 521.203 195.814 521.203 200.357C521.685 200.357 522.198 200.357 522.68 200.357C523.033 198.878 523.386 197.399 523.771 195.919C523.996 196.272 524.253 196.624 524.478 196.976C526.854 195.638 529.197 194.229 531.573 192.961C532.825 192.292 534.174 191.834 535.458 191.305C535.49 192.749 535.458 194.194 535.618 195.602C535.747 196.906 536.1 198.174 536.357 199.477C537.384 198.843 538.444 198.244 539.471 197.54C540.531 196.835 541.462 195.638 542.585 195.356C543.966 195.039 545.475 195.462 546.92 195.567C545.86 196.413 544.576 197.082 543.773 198.174C542.971 199.266 542.168 200.851 542.264 202.154C542.328 203.105 543.773 204.655 544.704 204.725C549.295 205.112 551.864 202.295 552.763 196.236C556.23 200.851 559.987 201.661 564.995 198.279C564.128 201.872 563.647 203.985 563.133 206.099C563.422 206.24 563.711 206.38 564 206.521C567.146 200.78 570.325 195.039 573.471 189.298C574.017 189.615 574.563 189.896 575.108 190.213C575.847 194.123 573.31 197.117 571.866 200.357C569.971 204.584 570.806 206.803 575.429 207.93C575.173 206.451 574.948 205.112 574.723 203.774C575.14 203.563 575.558 203.351 575.975 203.105C576.97 205.112 577.966 207.12 578.993 209.163C583.456 202.259 591.161 206.486 597.133 203.809C598.834 203.07 600.568 202.4 602.848 201.52C603.393 203.105 604.036 204.936 604.742 207.05C611.291 205.993 617.68 204.549 624.102 204.267C625.964 204.197 627.954 207.402 630.651 209.797C628.211 210.783 627.28 211.135 625.996 211.664C626.831 214.024 627.665 216.313 628.821 219.624C631.133 216.348 632.802 213.953 634.504 211.558C634.889 211.84 635.242 212.086 635.628 212.368C635.403 213.848 635.146 215.362 634.696 218.215C638.549 218.673 642.241 219.096 645.901 219.483C646.929 219.589 648.117 219.096 648.983 219.483C655.116 222.301 661.152 225.295 667.669 228.429C666.577 229.733 665.871 230.578 664.94 231.67C665.71 231.916 666.16 232.269 666.449 232.128C668.151 231.494 670.269 230.331 670.494 233.431C670.558 234.488 668.568 236.354 667.219 236.777C660.092 239.067 652.772 240.722 646.543 245.512C645.901 246.005 645.42 246.78 644.521 247.837C645.677 248.224 646.415 248.823 646.961 248.647C653.029 246.569 658.968 243.927 665.1 242.272C670.751 240.757 676.851 238.75 682.341 239.701C685.937 240.335 689.115 243.364 693.032 240.687C693.225 240.581 693.771 241.109 694.541 241.603C691.812 243.61 689.629 245.266 687.414 246.921C687.671 247.379 687.895 247.872 688.152 248.33C689.18 247.978 690.303 247.168 691.234 247.379C692.776 247.696 694.509 248.33 695.537 249.492C697.399 251.535 698.811 254.106 700.641 256.255C701.733 258.192 702.921 260.094 703.884 262.137C704.237 262.877 704.301 264.004 704.045 264.779C703.756 265.659 703.081 266.434 702.407 267.068C695.119 273.795 687.799 280.417 680.543 287.18C679.323 288.307 678.424 289.857 677.397 291.23C677.686 291.618 678.007 292.005 678.296 292.393C684.203 288.694 690.271 285.207 696.018 281.192C700.706 277.952 705.136 275.345 711.012 277.318C712.649 277.881 714.896 276.155 716.116 275.733C718.653 276.402 720.964 276.472 722.698 277.599C724.175 278.586 725.042 280.734 726.165 282.39C725.074 282.918 723.95 283.341 722.923 283.939C721.414 284.82 719.937 285.841 718.46 286.792C718.653 287.215 718.845 287.673 719.038 288.096C722.152 288.906 725.266 289.751 728.959 290.702C728.702 292.992 728.413 295.598 728.124 298.204C728.541 298.275 728.991 298.381 729.408 298.451C729.793 297.359 730.018 296.126 730.628 295.246C731.142 294.471 732.105 294.048 732.875 293.485C733.389 294.365 734.031 295.211 734.352 296.162C734.545 296.69 734.32 297.5 734.031 298.064C731.399 303.347 732.298 307.82 736.76 311.589C736.953 311.518 737.595 311.554 737.723 311.272C740.998 304.368 746.681 304.72 752.46 305.39C752.909 305.425 753.712 305.39 753.744 305.495C754.258 308.102 755.285 310.814 754.9 313.279C754.515 315.78 752.685 317.999 751.497 320.324C750.951 319.126 749.827 317.858 749.988 316.766C750.213 314.829 751.24 313.033 752.139 310.567C749.956 310.426 748.671 310.321 747.387 310.25C746.103 310.145 744.851 310.039 742.636 309.828C743.47 311.765 744.048 312.786 744.337 313.878C744.819 315.78 745.589 317.823 745.365 319.655C744.787 324.515 746.071 326.03 750.277 324.903C751.593 324.551 753.038 324.656 754.868 324.515C754.45 326.593 754.162 327.967 753.905 329.235C760.668 334.471 762.851 338.44 760.454 341.14C763.023 344.381 762.124 345.719 758.367 346.881C755.478 347.797 752.877 350.227 750.469 352.446C749.635 353.221 749.763 355.229 749.281 357.483C753.873 355.898 757.565 354.665 762.156 353.08C761.353 355.123 760.583 357.025 759.844 358.892C764.789 359.667 766.747 357.307 769.347 346.67C770.311 348.466 770.76 349.629 771.434 350.58C772.462 351.989 773.457 353.679 774.838 354.454C775.512 354.842 777.92 353.433 777.952 352.763C778.048 350.861 777.374 348.889 776.828 346.987C776.635 346.283 775.993 345.754 775.03 344.451C776.957 343.641 778.465 343.007 779.814 342.443C784.533 348.854 779.493 354.56 779.557 360.477C779.557 364.563 778.401 368.684 778.819 372.664C779.3 377.489 782.992 375.869 786.524 374.953C785.625 376.538 785.208 377.384 784.694 378.088C782.671 380.976 782.382 382.667 786.62 382.737C788.193 382.737 789.991 383.97 791.276 385.203C792.175 386.084 792.399 387.845 792.913 389.183C791.661 389.218 790.28 389.606 789.125 389.218C786.267 388.267 786.171 388.338 785.143 395.03C784.052 394.114 783.121 393.304 782.158 392.494C781.837 392.635 781.483 392.776 781.162 392.917C781.548 394.678 781.933 396.404 782.318 398.235C776.154 404.293 775.544 404.329 768.128 399.996C767.164 399.433 765.431 399.468 764.5 400.031C763.825 400.489 763.376 402.567 763.761 403.448C764.211 404.469 765.591 405.174 766.715 405.597C768.449 406.231 770.279 406.759 772.076 406.865C773.971 406.935 775.993 406.794 777.759 406.125C780.296 405.139 782.671 403.554 785.657 401.933C786.428 405.702 787.038 408.626 788.033 413.381C782.992 407.005 778.819 406.865 775.287 412.676C778.947 416.128 782.639 419.58 786.556 423.243C785.144 424.934 784.116 426.202 783.795 426.554C784.244 430.006 784.758 432.506 784.822 435.042C784.887 438.459 786.074 439.903 789.317 440.29C791.629 440.572 793.78 442.263 796.027 443.249C797.472 443.883 798.917 444.447 800.426 444.799C802.737 445.362 805.113 445.715 807.457 446.137C807.457 446.877 807.521 447.581 807.553 448.321C805.081 448.92 802.641 449.554 799.463 450.329C804.214 456.704 798.917 463.889 801.549 471.391C802.577 470.617 803.765 469.278 805.209 468.82C806.751 468.327 809.64 467.975 809.993 468.679C812.401 473.646 814.97 474.632 818.951 468.82C819.143 471.11 819.368 472.096 819.304 473.082C819.079 476.463 818.79 479.845 818.469 483.226C818.405 484.001 818.405 485.058 817.988 485.516C811.823 492.102 815.226 500.379 813.685 508.797C812.819 507.142 811.566 505.663 811.245 503.972C810.154 498.407 809.351 492.771 808.645 487.136C808.484 485.903 809.319 484.529 809.544 483.226C809.736 482.169 809.929 481.042 809.704 480.056C809.608 479.563 808.131 478.929 807.938 479.105C807.264 479.774 806.622 480.761 806.43 481.712C805.563 486.326 804.856 491.01 804.118 495.659C800.297 493.088 800.201 492.208 803.476 486.854C801.678 485.621 799.88 484.424 797.729 482.944C796.509 485.973 795.193 488.509 794.55 491.257C794.294 492.349 795.578 493.863 796.252 495.166C797.344 497.209 798.467 499.217 799.591 501.26C799.077 501.753 798.532 502.246 798.018 502.739C796.316 501.33 794.647 499.921 792.11 497.773C792.785 500.203 793.523 501.859 793.619 503.584C793.716 504.888 793.009 506.226 792.656 507.565C791.757 506.966 790.73 506.508 789.991 505.698C787.905 503.373 785.978 500.872 783.891 498.548C783.474 498.055 782.511 497.632 782.029 497.843C781.516 498.09 780.938 499.146 781.034 499.745C781.323 501.506 781.869 503.197 782.414 504.888C784.309 510.735 786.235 516.581 787.359 523.027C783.859 518.695 780.392 514.362 776.668 509.713C778.305 508.621 779.397 507.882 780.809 506.895C779.525 504.606 778.273 502.352 777.502 500.943C775.094 501.154 773.329 501.295 771.563 501.471C771.98 499.393 772.365 497.28 772.943 494.462C770.985 494.568 768.641 494.673 767.036 494.744C760.807 486.924 754.836 479.176 748.543 471.744C747.708 470.757 744.562 470.652 743.599 471.568C734.802 479.81 726.679 488.686 720.804 499.851C717.689 505.768 713.676 511.122 710.305 516.898C709.535 518.202 710.08 520.315 709.631 521.935C709.117 523.696 708.539 525.95 707.319 526.796C703.691 529.332 701.155 531.762 704.815 536.376C704.911 536.482 704.944 536.658 705.008 536.834C706.26 540.251 711.044 545.041 713.997 545.921C714.222 545.992 714.383 546.379 714.8 546.872C713.997 547.823 713.163 548.81 712.328 549.831C712.456 550.324 712.585 550.817 712.713 551.346C714.511 551.099 716.277 550.817 717.978 550.606C717.176 555.924 720.611 559.447 726.711 559.094C736.375 558.566 746.007 557.932 755.638 557.369C756.184 557.369 756.73 557.615 757.276 557.756L757.757 559.306C754.515 560.574 751.336 562.441 747.965 563.004C742.989 563.814 737.82 563.356 732.811 564.026C727.995 564.66 723.212 565.963 718.428 566.984C718.46 567.653 718.492 568.287 718.524 568.957C720.9 568.957 723.308 569.203 725.652 568.886C728.894 568.428 732.041 567.513 735.283 566.914C736.503 566.702 737.788 566.667 738.976 566.914C739.264 566.984 739.553 569.238 739.361 569.344C738.237 569.872 737.017 570.119 735.797 570.401C735.38 570.471 734.93 570.295 734.481 570.26C736.311 579.382 729.665 570.401 729.087 572.831C730.532 576.283 732.041 579.136 732.811 582.235C733.132 583.539 731.976 585.3 730.885 586.99C728.22 582.094 728.798 574.099 720.515 575.578C726.23 577.34 726.39 581.496 726.005 586.99C725.459 594.317 727.45 601.361 731.912 607.877C731.688 603.615 731.495 599.776 731.334 596.747C734.513 598.367 737.499 599.811 740.388 601.431C741.255 601.889 742.218 602.629 742.636 603.545C743.952 606.433 745.044 609.427 746.328 612.632C745.332 612.949 744.145 612.984 743.502 613.654C742.796 614.393 742.122 615.943 742.379 616.753C742.668 617.634 744.112 618.69 744.979 618.585C750.02 618.056 752.267 619.113 753.166 624.15C753.776 627.496 755.028 629.257 757.789 630.56C758.72 630.983 758.913 633.378 759.459 634.857C758.078 634.892 756.666 635.174 755.349 634.928C754.194 634.681 753.134 633.836 751.754 633.765C755.125 641.127 763.087 641.373 768.93 646.375C769.155 646.269 770.311 645.776 772.879 644.649C771.531 647.608 770.728 649.333 769.701 651.552C771.145 651.623 772.141 651.517 773.04 651.764C774.517 652.186 776.924 652.539 777.181 653.49C777.727 655.603 777.92 658.562 776.957 660.288C775.415 663.07 775.865 664.021 777.952 666.205C783.378 671.911 791.211 675.046 793.651 684.098C794.229 686.281 796.958 687.69 798.564 689.628C804.471 696.672 810.635 703.47 815.997 710.972C817.955 713.719 818.18 718.157 818.694 721.891C818.854 722.948 817.57 724.814 816.511 725.484C810.988 728.935 805.37 732.105 799.752 735.346C799.238 735.628 798.628 735.804 798.05 735.839C797.665 735.839 797.247 735.592 796.316 735.311C797.536 734.289 798.532 733.655 799.302 732.775C801.293 730.52 804.535 729.429 804.118 724.92C803.957 723.229 806.173 721.257 807.971 718.334C805.563 717.876 803.733 717.312 801.87 717.206C798.885 717.066 795.931 717.77 795.128 712.909C794.904 711.43 792.431 710.373 790.73 708.894C790.345 711.677 790.409 714.424 789.831 714.635C787.134 715.516 783.795 716.819 781.516 715.762C778.498 714.389 776.7 714.706 774.292 716.678C771.916 718.58 769.123 719.883 766.522 721.433C764.949 722.384 763.151 723.018 761.899 724.321C757.083 729.288 751.497 732.141 744.241 732.176C743.663 726.611 743.47 720.588 742.282 714.776C741.801 712.381 739.297 710.479 737.723 708.366C737.242 708.718 736.792 709.035 736.311 709.387C736.6 710.444 736.889 711.5 736.889 711.5C733.55 715.199 730.243 718.263 727.578 721.926C725.555 724.674 724.239 728.09 722.859 731.366C722.345 732.598 722.056 734.501 722.57 735.592C723.79 738.305 723.822 740.664 721.061 741.51C718.043 742.425 714.832 742.496 711.654 742.672C711.461 742.672 710.723 740.242 711.044 739.255C711.686 737.142 712.874 735.24 713.773 733.373C713.612 731.612 713.419 729.746 713.163 727.139C715.924 729.217 717.593 730.485 719.263 731.753C719.584 731.436 719.873 731.119 720.194 730.802C719.616 729.429 719.038 728.055 718.428 726.576C720.804 723.3 723.533 720.236 725.523 716.643C730.628 707.344 735.476 697.869 731.206 686.317C729.825 682.583 728.702 678.744 727.706 674.87C725.588 666.768 723.918 658.526 721.478 650.531C716.63 634.787 711.076 619.324 702.792 605.271C697.656 596.536 693.064 587.307 687.221 579.171C674.764 561.842 663.11 543.667 647.828 528.909C637.586 519.012 627.762 508.621 617.552 498.724C599.926 481.606 580.663 467.2 559.088 456.704C548.429 451.491 537.673 446.489 526.886 441.558C524.317 440.396 521.396 440.149 518.763 439.058C511.186 435.923 503.673 432.471 496.096 429.371C494.459 428.702 492.565 428.667 490.799 428.667C479.594 428.561 468.421 428.526 457.216 428.491C456.318 428.491 455.354 428.738 454.552 428.421C443.411 424.335 432.399 428.773 421.354 429.195C412.558 429.548 403.728 429.829 395.028 431.097C377.723 433.633 361.124 438.741 345.778 448.427C337.077 453.921 327.927 458.535 318.777 463.079C312.998 465.967 306.577 467.376 300.99 470.581C292.996 475.125 285.451 480.655 277.746 485.797C271.421 489.989 265.096 494.18 258.771 498.442C257.648 499.182 255.914 499.921 255.657 501.013C253.667 509.467 246.892 513.975 242.333 520.104C229.427 537.362 216.52 554.551 207.467 574.698C201.816 587.237 196.904 600.128 191.606 612.843C191.061 614.147 190.386 615.415 189.584 616.542C185.346 622.494 182.296 628.905 180.305 636.337C178.443 643.346 173.788 649.369 171.412 656.272C169.518 661.767 166.211 667.614 169.839 673.883C170.545 675.081 171.187 676.595 172.215 677.229C181.846 682.971 191.51 688.571 201.206 694.171C203.293 695.369 207.499 693.572 206.439 697.905C210.838 700.899 214.594 703.752 218.607 706.112C224.836 709.775 230.422 714.741 238.128 715.305C242.012 715.586 245.737 718.545 249.589 720.165C250.52 720.553 251.644 720.834 252.575 720.658C261.982 718.968 271.004 720.834 279.833 724.286C280.475 724.533 281.213 725.026 281.502 725.625C284.295 731.295 289.111 730.732 293.542 729.851C298.904 728.795 303.719 730.732 307.765 733.585C311.425 736.156 314.09 738.939 318.36 735.17C319.515 734.148 321.506 733.866 323.079 734.007C329.532 734.5 335.986 735.768 342.439 735.768C347.319 735.768 351.46 736.86 355.185 740.277C355.731 740.77 357.175 740.981 357.721 740.559C360.899 738.058 363.917 737.741 367.128 740.488C367.481 740.77 368.605 739.925 369.375 739.678C370.339 739.361 371.366 738.762 372.265 738.903C379.2 740.066 386.135 741.369 393.037 742.602C393.455 742.672 393.968 742.672 394.354 742.496C401.417 739.396 408.544 740.7 415.768 741.686C420.552 742.355 425.464 741.686 430.28 742.214C435.834 742.813 441.388 743.905 446.846 745.208C448.002 745.49 448.837 747.568 449.8 748.836L449.928 748.695C448.997 749.047 448.034 749.435 447.521 749.646C448.419 753.203 449.254 756.444 450.089 759.72C449.511 760.248 448.901 760.811 448.323 761.34C447.649 759.896 447.296 758.029 446.236 757.078C443.475 754.577 440.425 752.429 437.439 750.21C437.118 749.963 436.316 749.893 436.187 750.104C433.105 754.753 430.472 751.301 427.551 748.942C427.23 750.703 427.037 751.865 426.78 753.45C424.597 752.182 422.703 751.09 420.712 749.963C419.364 752.957 418.144 755.739 416.506 759.438C415.319 757.007 414.709 755.81 414.002 754.366C413.264 754.507 412.525 754.542 411.883 754.824C408.523 756.28 406.425 754.988 405.591 750.949C404.916 747.674 402.38 746.124 399.94 748.096C397.018 750.456 391.946 752.217 395.734 758.24C396.087 758.769 395.253 760.213 394.771 761.938C392.331 758.346 389.923 758.346 387.066 761.727V754.366C385.139 755.458 383.791 756.233 382.763 756.831C380.933 753.661 379.168 750.632 376.856 746.617C374.737 749.364 372.939 751.689 371.591 753.45C368.83 749.963 366.55 746.793 363.95 743.975C363.147 743.095 360.835 742.461 360.257 742.989C355.281 747.885 351.268 742.249 348.025 741.932C345.81 743.799 344.301 745.102 342.439 746.687C341.347 741.263 340.545 741.122 336.563 744.75C338.779 750.28 345.585 752.217 345.874 759.543C339.806 752.675 333.706 746.124 324.042 744.327C325.005 746.159 325.647 747.357 326.29 748.519C326.097 749.012 325.936 749.505 325.744 750.033C323.817 749.329 321.377 749.188 320.093 747.779C317.91 745.384 315.695 744.539 312.741 743.658C310.237 742.883 307.476 741.686 304.779 740.841C302.853 740.242 300.862 739.079 299 739.291C291.616 740.101 284.263 741.157 276.943 742.566C274.728 742.989 272.77 744.926 269.431 746.899C274.503 748.836 279.062 750.597 283.621 752.323C283.493 752.851 283.364 753.344 283.236 753.873C281.92 753.556 280.603 753.274 279.287 752.957C274.15 751.759 268.435 751.689 263.973 749.082C257.487 745.278 250.841 748.906 244.517 746.828C243.618 746.546 242.333 747.603 241.21 748.026C242.173 749.082 243.04 750.879 244.099 750.984C247.47 751.407 250.873 751.161 254.277 751.301C256.01 751.372 257.712 751.654 259.381 752.992C248.273 754.718 237.229 753.027 226.152 753.873C226.088 753.309 226.024 752.781 225.992 752.217C230.037 751.055 234.114 749.857 238.16 748.695C238.095 748.167 238.031 747.603 237.967 747.075C231.899 747.674 225.863 748.308 219.795 748.906C219.667 748.484 219.538 748.026 219.41 747.603C220.63 746.406 221.85 745.173 223.07 743.975C227.34 744.151 231.45 743.764 236.041 740.383C233.183 739.643 231.417 739.15 229.587 738.727C225.542 737.776 223.808 739.255 223.198 744.151L223.231 744.257ZM508.65 363.401C506.306 367.698 506.659 373.016 509.677 375.975C510.191 376.503 511.635 376.75 512.021 376.362C512.599 375.799 513.016 374.355 512.727 373.615C511.475 370.163 509.966 366.817 508.553 363.436C507.719 356.849 506.852 350.227 506.017 343.641C505.375 343.711 504.765 343.782 504.123 343.852C504.123 348.114 503.609 352.517 504.315 356.638C504.733 359.103 507.141 361.146 508.585 363.401H508.65ZM735.572 437.719C735.283 429.865 732.105 425.356 727.45 427.857C730.275 431.203 733.004 434.408 735.701 437.613C736.696 438.776 737.756 439.868 738.655 441.136C741.448 445.045 744.626 448.744 746.809 453.041C748.928 457.232 753.68 459.345 757.115 456.281C758.239 455.295 759.427 453.146 759.17 451.843C758.849 450.258 757.308 448.462 755.863 447.757C753.263 446.489 750.212 446.349 747.644 445.045C745.75 444.094 743.438 442.439 742.764 440.502C740.709 434.549 740.549 434.267 735.604 437.719H735.572ZM204.32 734.219C210.26 734.606 215.91 733.726 221.529 728.654C219.249 728.407 217.869 728.02 216.52 728.125C211.961 728.513 207.435 729.252 202.876 729.569C200.468 729.746 197.995 729.041 195.588 729.217C190.804 729.534 185.956 729.886 181.236 730.873C178.443 731.436 175.875 733.197 173.21 734.43C173.37 734.923 173.531 735.381 173.692 735.874C180.016 735.099 186.341 734.043 192.666 733.655C196.551 733.409 200.468 734.113 204.385 734.395C201.046 734.958 197.707 735.522 194.079 736.156C199.44 740.876 203.068 740.066 204.288 734.289L204.32 734.219ZM680.8 494.568C682.213 495.871 683.272 496.857 684.364 497.808C687.189 500.379 690.079 502.598 694.06 500.908C697.623 499.358 701.187 497.738 704.783 496.399C719.199 490.975 730.564 480.408 741.993 470.018C744.466 467.764 745.011 465.016 741.993 461.776C737.081 456.457 733.036 450.188 728.188 444.799C724.913 441.171 720.804 438.459 717.272 435.042C711.943 429.935 706.838 424.511 701.54 419.368C695.472 413.486 694.894 413.345 690.785 421.2C682.662 436.698 674.764 452.336 667.252 468.151C665.518 471.779 663.367 476.745 667.476 480.479C670.783 483.473 674.315 486.467 678.2 488.298C685.391 491.679 693.032 490.447 700.577 489.284C704.269 488.721 707.994 488.298 711.718 487.805C711.846 488.369 711.975 488.967 712.135 489.531C711.076 490.059 710.048 490.764 708.925 491.045C701.605 492.877 694.285 494.603 686.964 496.364C686.451 492.243 683.369 494.708 680.8 494.568ZM672.677 397.531C670.719 396.509 669.114 395.77 667.573 394.854C666.609 394.29 665.775 393.445 664.908 392.705C663.656 391.613 662.596 390.205 661.184 389.465C657.459 387.528 653.542 386.013 649.85 384.041C648.887 383.512 648.502 381.786 647.667 380.8C646.832 379.814 645.259 378.053 644.874 378.299C641.695 380.307 639.833 377.947 637.811 376.08C636.109 374.531 634.504 372.84 632.738 371.326C630.362 369.318 628.564 369.741 627.89 373.157C626.798 378.652 625.257 384.146 624.808 389.711C624.134 398.411 623.235 407.217 626.124 415.811C626.574 417.114 625.289 419.087 625.033 420.777C624.712 422.855 624.102 425.11 624.487 427.082C625.097 430.182 626.317 433.211 627.537 436.134C627.89 436.979 629.11 437.402 630.747 438.635C629.206 434.126 628.051 430.851 626.927 427.575C627.28 427.399 627.633 427.258 627.986 427.082C630.747 431.767 633.22 436.698 636.398 440.995C638.71 444.094 642.241 446.067 644.81 448.99C647.089 451.597 648.213 450.646 649.529 448.18C658.294 431.872 667.059 415.564 675.92 399.362C677.686 396.122 677.172 393.727 674.283 390.662C673.608 393.586 673.095 395.875 672.742 397.46L672.677 397.531ZM27.5145 522.675C28.1566 524.295 28.3172 525.457 28.9272 526.162C38.7836 537.433 47.8374 549.831 61.1291 556.699C68.3529 560.433 75.5125 564.589 83.0573 567.336C93.3953 571.105 103.765 570.401 114.007 564.272C104.279 560.644 95.0648 557.228 85.8505 553.776C85.9468 553.353 86.0431 552.895 86.1394 552.473C87.2952 552.367 88.5795 551.803 89.5747 552.191C98.757 555.572 108.035 557.862 117.731 559.13C123.125 559.834 126.079 556.911 130.092 555.15C129.257 554.34 128.487 553.811 127.716 553.776C116.897 553.388 106.205 552.543 95.9959 547.823C90.4416 545.252 84.4699 543.773 78.7872 541.483C69.0592 537.609 60.1981 531.339 49.7316 529.261C42.5079 527.852 35.5088 525.07 27.5145 522.604V522.675ZM658.069 471.004C657.588 470.793 657.074 470.617 656.592 470.405C656.753 468.855 656.4 466.883 657.138 465.791C662.821 457.267 668.889 449.025 674.507 440.431C680.383 431.414 685.969 422.186 691.491 412.888C692.23 411.655 692.487 408.731 691.812 408.062C689.18 405.561 686.258 403.166 683.08 401.793C681.667 401.194 678.488 402.427 677.557 403.941C668.183 419.228 659.193 434.796 653.671 452.301C652.419 456.281 651.712 461.001 652.387 465.051C653.061 469.102 655.758 472.73 658.005 477.555C662.115 469.56 665.999 462.093 669.852 454.591C669.306 454.238 668.761 453.851 668.215 453.499C664.844 459.346 661.473 465.192 658.069 471.039V471.004ZM580.342 410.457C581.915 408.59 583.071 407.639 583.681 406.407C590.808 391.895 597.839 377.348 604.935 362.802C606.572 359.456 606.122 356.884 602.527 356.286C599.252 355.722 597.711 353.538 595.592 351.073C593.601 348.748 589.684 348.114 586.474 347.656C585.703 347.551 584.034 350.967 583.616 352.975C581.883 361.217 579.539 369.459 579.154 377.806C578.64 388.197 579.828 398.728 580.342 410.457ZM227.18 364.211L227.308 365.197C235.848 363.823 244.388 362.45 252.928 361.076C253.121 361.639 253.281 362.238 253.474 362.802C250.552 364.809 247.631 366.782 243.521 369.6C248.755 374.038 253.121 377.806 257.551 381.54C262.207 385.485 267.183 384.358 270.008 378.828C270.49 377.877 271.485 377.243 272.962 375.728C273.476 379.286 273.893 381.646 274.15 384.041C274.535 387.387 276.076 388.197 278.805 386.929C281.502 385.696 284.231 384.569 286.896 383.336C287.699 382.984 288.405 382.385 289.721 381.505C281.984 380.378 281.727 380.025 284.938 374.495C281.599 368.79 278.163 362.837 274.664 356.884C272.834 353.785 270.297 352.94 266.991 353.961C259.606 356.18 252.222 358.329 244.773 360.266C238.962 361.78 233.087 362.943 227.212 364.246L227.18 364.211ZM213.663 391.825C214.369 392.459 215.204 393.691 216.296 394.149C221.144 396.157 225.992 398.94 231.032 399.538C236.522 400.172 242.847 401.793 247.342 395.805C251.837 397.777 255.85 396.474 259.638 391.754C259.189 391.367 258.771 390.839 258.258 390.627C251.516 387.669 244.709 384.886 237.999 381.751C233.151 379.497 228.56 379.074 224.162 382.702C220.726 385.555 217.419 388.549 213.631 391.825H213.663ZM526.725 328.108C523.45 326.629 520.914 325.502 518.41 324.304C517.19 323.74 516.066 322.86 514.782 322.472C509.838 320.958 508.585 321.768 508.874 327.298C509.195 333.814 509.998 340.295 510.993 346.74C512.278 355.194 516.323 362.062 522.905 368.684C524.253 354.348 525.505 340.929 526.725 328.108ZM499.211 371.924C499.211 370.621 499.275 369.67 499.211 368.719C499.114 367.768 498.986 366.747 498.601 365.866C494.17 355.757 494.716 344.979 494.908 334.201C494.973 329.799 495.422 325.325 494.748 321.064C493.849 315.463 489.033 317.541 485.887 317.154C482.773 316.766 483.415 320.113 483.511 322.261C484.025 333.92 483.768 345.684 488.616 355.898C487.428 357.061 485.983 357.765 485.919 358.646C485.213 365.972 491.858 372.77 499.243 371.889L499.211 371.924ZM402.412 353.257C403.472 346.67 400.357 336.279 396.119 333.497C389.474 329.165 383.052 324.48 376.471 320.042C374.833 318.95 373.1 317.964 371.27 317.33C370.274 316.978 368.605 317.083 368.027 317.753C367.513 318.351 367.834 320.183 368.188 321.275C371.173 330.01 377.948 335.434 383.662 341.598C387.098 345.296 393.487 344.451 396.986 349.312C398.142 350.932 400.261 351.742 402.412 353.257ZM452.946 311.835C452.047 319.584 462.193 342.831 467.651 345.578C467.811 341.915 467.522 338.287 468.229 334.941C469.449 329.446 471.343 324.093 472.948 318.704C473.976 315.287 473.655 313.139 469.577 313.033C464.119 312.892 458.661 312.258 452.946 311.835ZM543.163 377.877C543.613 377.665 544.03 377.489 544.48 377.278C546.149 367.204 550.804 357.554 548.075 346.811C547.048 342.76 545.956 338.675 544.512 334.765C543.902 333.11 542.264 331.947 541.076 330.574C540.049 332.159 538.251 333.673 538.123 335.364C537.192 348.572 537.545 361.745 541.494 374.46C541.879 375.658 542.585 376.75 543.131 377.877H543.163ZM608.273 425.92L610.136 425.849C610.136 421.764 609.879 417.643 610.232 413.592C610.457 411.091 611.516 408.696 612.351 406.301C612.64 405.456 613.571 404.892 613.796 404.047C616.974 392.353 620.088 380.624 623.138 368.895C623.427 367.733 623.171 366.394 623.171 365.126C622.496 364.986 621.854 364.845 621.18 364.739C617.713 377.348 614.245 389.958 610.746 402.708C608.53 393.656 613.86 385.52 613.796 376.714C609.237 386.26 605.833 396.016 603.747 406.583C602.206 414.508 605.352 419.897 608.241 425.92H608.273ZM328.184 328.038C329.468 330.644 330.463 333.532 332.133 335.857C334.926 339.802 337.623 344.486 341.379 346.74C343.916 348.29 345.617 349.875 347.319 352.2C353.034 360.09 361.253 363.471 369.568 366.571C369.825 366.676 370.242 366.359 371.141 366.042C367.224 363.718 363.853 361.675 360.45 359.632C360.643 359.209 360.835 358.822 361.028 358.399C362.794 359.139 364.56 359.843 366.293 360.618C367.995 361.358 369.696 362.133 371.43 362.907C371.559 362.555 371.655 362.238 371.783 361.886C360.675 353.362 349.534 344.838 338.393 336.28C338.297 336.42 337.816 337.266 336.981 338.569C335.279 333.532 334.573 328.319 328.216 328.002L328.184 328.038ZM563.229 390.134C563.775 388.197 564.257 387.14 564.417 385.978C566.44 372.382 568.495 358.786 570.389 345.155C570.646 343.324 570.228 341.387 570.132 339.485C568.559 340.541 566.408 341.211 565.541 342.725C564.096 345.296 563.165 348.325 562.491 351.284C561.078 357.448 560.179 363.753 558.638 369.846C556.84 377.102 558.189 383.371 563.197 390.099L563.229 390.134ZM449.158 351.108C449.607 350.721 450.025 350.333 450.474 349.946C449.254 346.494 448.034 343.042 446.782 339.626C443.636 331.031 440.586 322.402 437.183 313.913C436.605 312.505 434.614 311.765 433.266 310.708C432.88 312.469 431.885 314.371 432.174 316.027C433.234 322.085 435.064 328.002 435.962 334.061C437.311 343.042 444.406 345.789 449.126 351.108H449.158ZM573.953 401.898C574.402 401.757 574.884 401.616 575.333 401.476C575.333 400.137 575.333 398.799 575.333 397.425C575.397 392.881 575.173 388.338 575.654 383.865C577.035 371.079 578.768 358.293 580.213 345.508C580.342 344.416 579.378 343.183 578.929 341.985C578.255 342.901 577.259 343.747 576.938 344.803C573.182 357.342 570.1 370.093 570.421 383.407C570.517 387.845 571.416 392.283 572.155 396.685C572.444 398.482 573.343 400.137 573.953 401.898ZM561.207 334.765C560.661 334.518 560.083 334.272 559.537 333.99C558.317 336.28 556.712 338.463 555.941 340.929C554.464 345.508 553.662 350.368 552.121 354.947C550.772 359.033 553.084 362.978 550.162 367.768C546.021 374.531 548.621 383.548 549.392 391.613C549.456 392.318 550.034 392.987 550.387 393.656C550.804 393.727 551.19 393.832 551.607 393.903C552.538 390.662 554.24 387.422 554.272 384.182C554.304 377.243 553.373 370.551 555.941 363.541C558.413 356.849 558.991 349.312 560.34 342.126C560.789 339.696 560.918 337.231 561.207 334.765ZM619.896 399.609C619.318 399.609 618.708 399.609 618.13 399.609C617.841 400.771 617.391 401.898 617.295 403.096C616.685 409.224 616.428 415.424 615.497 421.482C614.277 429.583 614.502 437.05 619.96 443.531C622.239 446.208 624.391 447.722 628.757 445.679C619.414 431.872 618.772 415.917 619.896 399.609ZM152.727 447.018C158.794 458.923 176.581 465.932 182.521 459.416C174.655 449.941 164.798 446.454 152.727 447.018ZM98.1148 532.431C98.2112 531.938 98.3396 531.41 98.4359 530.917C96.8627 530.107 95.3217 529.261 93.7485 528.486C86.6531 524.999 79.5257 521.548 72.4624 517.955C71.7561 517.603 71.2745 516.581 70.8251 515.771C68.1603 511.016 64.1471 509.29 58.9781 509.607C60.1981 511.545 61.6749 513.165 63.3444 514.468C64.6608 515.49 67.1971 515.736 67.5182 516.898C69.1234 522.534 74.0677 524.154 77.4067 527.676C83.4747 534.052 90.859 532.925 98.1148 532.431ZM266.124 743.553C271.004 741.756 274.985 740.277 278.87 738.868C278.741 737.001 278.613 735.346 278.484 733.761C274.418 735.076 271.689 735.228 270.297 734.219C271.068 733.233 271.838 732.281 273.219 730.52C270.233 730.239 268.211 730.063 266.156 729.886L265.931 731.331C266.798 732.317 267.633 733.303 268.467 734.254C265.674 738.586 257.969 738.058 255.015 733.479C251.805 736.614 248.626 739.713 245.062 743.2C249.589 745.948 251.965 743.729 253.924 740.911C256.364 742.214 258.707 743.024 260.569 744.574C264.101 747.533 265.931 746.723 266.092 743.623L266.124 743.553ZM87.4558 520.421C87.231 520.702 86.9742 521.019 86.7494 521.301C91.5332 523.731 96.3811 525.951 101.036 528.592C107.425 532.255 112.98 531.058 117.924 525.669C118.662 524.859 119.016 523.626 119.561 522.604C118.502 522.146 117.507 521.442 116.415 521.336C114.521 521.125 112.562 521.442 110.668 521.266C105.531 520.808 100.426 519.998 95.2574 519.681C92.689 519.54 90.0563 520.139 87.4558 520.385V520.421ZM119.369 358.047C122.515 375.27 136.898 392.071 144.861 388.584C136.224 378.264 127.813 368.155 119.369 358.047ZM119.722 479.986C124.859 489.425 132.468 495.483 140.558 500.872C143.673 502.95 146.819 503.232 150.447 500.485C146.081 496.822 142.356 493.018 138.086 490.271C132.179 486.431 125.854 483.367 119.69 479.986H119.722ZM379.264 314.794C378.943 315.428 378.622 316.027 378.301 316.661C384.593 321.979 390.886 327.333 397.5 332.933C398.046 331.595 398.656 330.82 398.527 330.221C397.564 325.466 396.601 320.711 395.253 316.097C394.932 315.005 393.037 313.773 391.914 313.808C387.708 313.878 383.47 314.442 379.264 314.829V314.794ZM475.035 328.002C467.587 339.943 468.807 354.208 478.695 361.322C477.539 350.192 479.08 339.273 475.035 328.002ZM112.948 340.964C112.498 341.316 112.049 341.669 111.599 342.021C112.594 343.887 113.429 345.895 114.681 347.551C116.929 350.544 119.401 353.362 121.873 356.145C125.918 360.688 129.964 365.232 134.169 369.6C135.711 371.185 137.733 372.206 139.435 373.58C140.302 374.284 141.008 375.235 141.779 376.08C142.26 375.517 143.191 374.848 143.127 374.39C142.902 373.122 142.549 371.607 141.746 370.727C139.05 367.698 136.16 364.95 133.367 362.062C126.56 355.018 119.786 347.973 112.98 340.929L112.948 340.964ZM145.182 541.695C145.118 541.166 145.053 540.638 144.989 540.11C143.095 540.11 141.201 540.039 139.338 540.11C132.853 540.356 126.368 540.814 119.882 540.814C117.635 540.814 115.388 539.264 113.108 539.159C105.339 538.807 97.6975 543.28 89.7995 540.039C89.5747 539.934 89.1253 540.462 88.6758 540.779C90.7626 545.006 94.0695 544.724 97.569 544.372C101.197 544.019 104.825 543.914 108.453 543.808C110.219 543.773 111.984 544.125 113.75 544.09C120.396 543.984 127.01 544.019 133.656 543.597C137.541 543.35 141.393 542.329 145.278 541.66L145.182 541.695ZM763.89 454.731C761.771 456.95 760.037 458.359 758.721 460.156C755.574 464.523 755.767 466.002 759.941 469.208C762.348 471.074 764.949 472.695 767.582 474.174C768.577 474.738 769.925 474.526 771.113 474.667C771.145 473.188 771.434 471.673 771.21 470.264C770.76 467.693 770.022 465.192 769.38 462.692C769.251 462.234 769.123 461.776 768.93 461.142H765.077C764.724 459.24 764.403 457.584 763.857 454.731H763.89ZM608.177 372.946C607.503 372.593 606.861 372.276 606.187 371.924C603.971 376.609 601.66 381.258 599.541 386.048C598.513 388.373 595.656 390.557 598.77 393.586C599.059 393.868 598.224 395.558 597.903 396.58C596.298 402.145 594.661 407.675 593.12 413.275C592.959 413.839 593.409 414.649 593.601 415.318C594.115 415.459 594.661 415.564 595.174 415.705C596.972 410.352 598.899 405.033 600.568 399.644C601.21 397.566 602.366 394.572 601.563 393.234C599.926 390.451 601.531 389.218 602.398 387.246C604.485 382.561 606.251 377.736 608.145 372.946H608.177ZM428.675 362.661C423.088 351.39 417.823 340.189 408.994 331.525C410.856 337.442 413.521 342.831 416.314 348.149C418.369 352.024 421.515 355.546 422.542 359.667C423.698 364.281 425.336 364.175 428.642 362.661H428.675ZM314.571 358.54C310.815 351.672 308.31 345.508 303.976 340.541C301.472 337.653 299.417 338.851 297.427 340.401C296.72 340.964 296.335 343.535 296.881 344.24C301.504 350.227 306.962 355.053 314.571 358.54ZM157.189 524.788C157.574 525.457 158.056 526.267 158.891 527.712C156.611 527.958 154.749 528.24 152.887 528.31C150.19 528.416 147.461 528.099 144.829 528.486C143.512 528.698 142.324 530.107 141.072 530.987C142.517 531.797 143.93 533.241 145.406 533.312C154.492 533.805 162.294 528.205 170.93 526.373C171.059 526.373 171.091 525.81 171.348 524.788H157.189ZM193.115 433.492C192.634 431.696 192.666 430.957 192.377 430.78C187.818 428.068 183.259 425.286 178.507 422.996C178.122 422.82 176.132 425.779 175.425 427.505C175.2 428.033 176.645 429.865 177.608 430.358C180.819 432.013 184.094 433.669 187.529 434.62C189.166 435.077 191.157 433.915 193.083 433.457L193.115 433.492ZM722.377 493.053C722.088 492.771 721.767 492.489 721.478 492.172C714.543 496.012 710.53 504.43 702.504 506.649C701.894 506.825 701.316 508.48 701.251 509.502C701.059 511.826 701.187 514.221 701.187 516.546C701.669 516.793 702.118 517.074 702.6 517.321C709.214 509.22 715.795 501.119 722.409 493.018L722.377 493.053ZM53.2633 467.799C52.9101 468.292 52.5569 468.82 52.2038 469.313C60.1981 478.26 68.4813 486.819 79.3652 491.538L80.2641 490.2C71.2424 482.733 62.2528 475.266 53.2312 467.764L53.2633 467.799ZM540.242 384.604C537.834 372.065 535.618 360.724 533.307 348.642C530.546 355.722 534.944 379.638 540.242 384.604ZM278.709 349.558C278.227 349.77 277.746 349.981 277.264 350.192C277.457 351.46 277.264 353.08 277.906 353.961C281.952 359.491 286.125 364.88 290.363 370.198C290.877 370.832 292.161 370.691 293.092 370.938C292.932 369.811 293.092 368.402 292.579 367.627C289.818 363.647 286.896 359.808 283.942 355.969C282.273 353.785 280.443 351.742 278.709 349.629V349.558ZM511.025 359.878C512.245 362.907 513.177 365.479 514.3 367.944C515.456 370.515 517.19 372.875 517.928 375.587C518.57 377.982 518.41 381.012 521.364 380.624C522.23 380.483 522.905 376.996 523.322 374.989C523.515 374.002 523.226 372.453 522.616 371.783C518.956 367.839 515.135 364.07 511.058 359.914L511.025 359.878ZM365.683 355.123C366.293 349.136 353.387 337.9 344.461 337.054C351.364 342.936 358.235 348.783 365.683 355.123ZM340.448 324.797C345.681 329.517 350.305 334.131 356.694 337.935C354.222 326.77 347.158 321.204 340.448 324.797ZM127.427 510.312C120.621 505.24 112.594 506.05 104.921 505.24C111.439 511.615 119.497 510.594 127.427 510.312ZM50.149 408.872C49.8601 409.365 49.5711 409.858 49.2822 410.352C55.2217 418.312 61.1612 426.237 68.995 432.224C64.3076 424.511 59.0744 417.29 53.6806 410.246C52.9743 409.33 51.369 409.295 50.149 408.872ZM172.118 637.569C171.99 636.759 171.894 635.949 171.765 635.174C167.88 634.822 163.996 634.082 160.143 634.294C158.506 634.399 156.964 636.548 155.391 637.745C156.836 638.45 158.217 639.33 159.726 639.859C161.106 640.352 162.743 641.056 164.06 640.739C166.821 640.035 169.421 638.661 172.118 637.569ZM442.833 349.558C442.416 349.981 441.966 350.404 441.549 350.861C444.406 355.476 447.167 360.195 450.25 364.669C450.699 365.303 453.332 365.267 453.589 364.739C454.231 363.365 454.808 360.794 454.134 360.125C450.571 356.391 446.622 353.045 442.833 349.593V349.558ZM302.21 358.117C302.467 357.976 302.692 357.835 302.949 357.695C300.637 355.088 298.486 352.27 295.95 349.946C294.441 348.572 292.29 348.079 290.62 346.917C289.24 345.966 288.116 344.557 286.864 343.359L285.451 344.557C286.768 346.6 287.891 348.889 289.464 350.615C291.294 352.587 293.381 354.419 295.629 355.757C297.619 356.955 300.027 357.378 302.242 358.117H302.21ZM774.195 478.26C774.324 480.937 774.709 483.614 778.658 481.641C779.364 481.289 780.392 481.641 781.227 481.535C782.286 481.465 783.313 481.254 784.373 481.113C784.084 479.915 784.052 478.471 783.41 477.591C782.382 476.252 781.002 475.125 779.621 474.209C776.25 471.99 774.292 473.329 774.195 478.26ZM192.024 370.586C192.12 371.22 192.249 371.854 192.345 372.453C202.651 370.445 212.925 368.437 223.231 366.465C223.134 365.796 223.006 365.126 222.909 364.457C212.604 366.5 202.298 368.543 192.024 370.586ZM202.522 714.6C196.968 712.24 191.414 709.88 185.892 707.52C190.354 716.22 193.886 717.664 202.522 714.6ZM257.712 236.988C257.648 245.195 264.294 256.713 269.944 258.932C265.642 251.218 261.693 244.103 257.712 236.988ZM143.769 472.131C143.673 472.836 143.544 473.54 143.448 474.244C151.089 476.78 158.827 477.872 166.949 475.372L143.769 472.131ZM433.972 354.912C433.555 350.051 433.587 345.684 432.656 341.563C432.11 339.203 429.959 337.266 428.546 335.152C428.032 335.505 427.519 335.857 427.005 336.209C428.899 342.443 428.482 349.699 433.972 354.877V354.912ZM398.174 362.59C398.463 362.238 398.784 361.886 399.073 361.569C395.22 355.018 391.592 348.185 384.208 345.578C383.823 346.036 383.438 346.459 383.052 346.917C388.093 352.165 393.134 357.378 398.174 362.626V362.59ZM400.486 315.463C397.885 322.86 402.027 337.16 406.425 337.301C404.403 329.904 402.444 322.684 400.486 315.463ZM331.972 345.226C328.858 339.978 326.354 335.61 323.657 331.384C323.175 330.644 321.955 330.503 321.089 330.08C320.767 330.891 320.125 331.736 320.157 332.546C320.318 335.434 327.959 344.169 331.972 345.191V345.226ZM129.803 464.911C129.932 464.382 130.06 463.889 130.188 463.361C123.478 460.966 116.8 458.571 110.09 456.211C115.837 461.811 122.226 465.228 129.771 464.911H129.803ZM616.846 220.434L617.616 221.878C618.836 221.209 621.052 220.61 621.116 219.8C621.308 217.264 621.469 214.129 620.281 212.192C617.969 208.318 614.662 211.03 611.548 212.262C612.929 213.46 614.502 214.129 616.043 214.129C618.997 214.129 619.543 215.327 618.194 218.004C617.777 218.814 617.327 219.624 616.878 220.434H616.846ZM140.302 396.791C140.013 397.178 139.724 397.531 139.467 397.918C143.32 401.264 147.204 404.61 151.153 408.027C153.69 403.201 149.741 399.362 140.334 396.791H140.302ZM187.69 485.199H167.206C174.109 487.171 181.044 490.517 187.69 485.199ZM107.49 451.139C107.682 450.646 107.907 450.153 108.1 449.695C102.931 446.454 97.7938 443.179 92.6248 439.938C95.8354 447.053 101.229 449.906 107.49 451.174V451.139ZM370.916 330.891C368.252 326.629 365.619 322.332 362.665 317.577C360.546 323.529 363.404 328.39 370.916 330.891ZM771.916 363.506C768.609 365.091 766.618 366.077 764.628 367.028C766.008 368.754 767.229 370.656 768.802 372.136C769.476 372.77 770.856 372.417 771.916 372.523V363.506ZM336.467 345.613C337.559 352.693 344.205 358.963 350.915 360.336C345.874 355.194 341.155 350.404 336.467 345.613ZM118.727 491.433C118.341 491.891 117.956 492.349 117.603 492.806C120.814 496.399 123.96 500.062 127.299 503.479C127.78 504.007 129.161 503.479 130.092 503.479C130.092 502.598 130.381 501.295 129.964 500.943C126.304 497.667 122.483 494.568 118.727 491.398V491.433ZM341.219 363.647C341.668 363.084 342.118 362.52 342.567 361.956C339.935 356.391 334.894 354.208 330.207 351.46C329.853 351.953 329.5 352.446 329.147 352.904C333.16 356.497 337.206 360.054 341.219 363.647ZM682.02 242.659C681.057 242.73 680.062 242.8 679.099 242.906C678.97 245.442 678.842 247.942 678.713 250.478C680.286 250.549 681.892 250.619 683.465 250.655C682.983 247.978 682.534 245.336 682.052 242.659H682.02ZM549.52 331.665C549.071 336.103 548.685 339.837 548.204 344.698C553.405 340.682 553.887 334.554 549.52 331.665ZM388.864 188.03C388.125 188.135 387.387 188.241 386.648 188.347C387.676 195.285 388.735 202.189 389.762 209.128C390.148 209.057 390.501 208.987 390.886 208.952L388.864 188.03ZM235.11 506.649C235.27 507.424 235.431 508.163 235.591 508.938C241.242 507.001 246.924 505.064 252.575 503.162C252.415 502.598 252.286 502.035 252.126 501.471C246.443 503.197 240.792 504.923 235.11 506.649ZM150.222 464.277C152.052 468.961 158.184 470.581 161.78 467.517C157.928 466.425 154.075 465.368 150.222 464.277ZM125.533 534.721C125.565 535.32 125.629 535.918 125.661 536.482C129.257 536.059 132.821 535.637 136.417 535.179L136.256 533.453C132.372 530.001 129 532.924 125.533 534.686V534.721ZM322.212 355.511C322.886 354.982 323.561 354.454 324.203 353.926C321.442 350.122 318.681 346.318 315.92 342.549C315.438 342.972 314.956 343.394 314.443 343.817C317.043 347.727 319.612 351.636 322.212 355.546V355.511ZM318.713 336.632C318.231 337.125 317.717 337.583 317.236 338.076C320.318 341.845 323.4 345.613 326.45 349.382C326.964 348.889 327.478 348.361 328.023 347.868C324.941 344.134 321.827 340.401 318.745 336.632H318.713ZM408.673 312.998C407.87 313.35 407.035 313.667 406.233 314.019L412.461 328.495C412.814 328.319 413.167 328.143 413.553 328.002C411.915 323.001 410.31 317.999 408.673 313.033V312.998ZM151.763 453.675C151.539 454.097 151.346 454.52 151.121 454.943C153.658 459.839 158.506 460.05 162.583 461.776C162.808 461.283 163.032 460.825 163.289 460.332C159.437 458.113 155.584 455.859 151.763 453.64V453.675ZM590.07 406.442C592.092 401.616 593.826 397.46 595.977 392.283C590.712 395.946 588.689 400.912 590.07 406.442ZM331.138 366.747C333.61 373.227 336.981 375.904 341.797 374.707C338.554 372.276 335.311 369.846 331.138 366.747ZM323.143 738.41C327.349 740.559 330.688 742.285 334.027 744.01C334.22 743.553 334.38 743.13 334.573 742.672C331.17 741.122 329.404 735.346 323.143 738.41ZM247.47 727.914C247.47 727.456 247.406 727.033 247.374 726.576H235.11C235.11 727.28 235.174 727.984 235.206 728.724L247.502 727.949L247.47 727.914ZM362.601 372.84C362.922 372.241 363.243 371.607 363.596 371.008C360.161 368.86 356.726 366.747 353.323 364.598C353.034 365.126 352.745 365.62 352.488 366.148C355.859 368.367 359.262 370.621 362.633 372.84H362.601ZM375.989 347.797L374.544 349.875C377.916 352.693 381.319 355.476 384.69 358.293C385.075 357.765 385.428 357.201 385.813 356.673C382.539 353.714 379.264 350.756 375.989 347.797ZM255.657 251.218C253.41 256.713 254.084 258.016 260.601 260.341C258.643 256.748 257.295 254.282 255.657 251.218ZM244.484 382.103C244.709 381.399 244.966 380.695 245.191 379.99C241.755 378.264 238.352 376.538 234.917 374.812C234.66 375.446 234.371 376.08 234.114 376.714C237.582 378.511 241.017 380.307 244.484 382.103ZM769.347 706.816C766.426 701.075 765.976 700.863 762.573 703.998C764.243 706.323 765.431 709.352 769.347 706.816ZM382.121 742.637C381.479 743.024 380.837 743.447 380.163 743.834C380.548 747.251 382.763 749.364 384.947 751.478L386.488 750.421C385.043 747.814 383.566 745.208 382.121 742.602V742.637ZM313.062 371.431C312.773 372.241 312.484 373.051 312.195 373.861C315.085 374.918 317.974 376.01 320.864 377.067C321.056 376.503 321.249 375.94 321.41 375.341C318.616 374.038 315.855 372.734 313.062 371.431ZM387.258 173.166C386.648 173.236 386.006 173.307 385.396 173.377C385.557 176.547 385.749 179.682 385.91 182.852C386.552 182.817 387.162 182.746 387.804 182.711C387.611 179.541 387.451 176.336 387.258 173.166ZM640.251 250.408C639.962 249.527 639.641 248.647 639.352 247.766C636.719 248.893 634.119 250.056 631.486 251.183C631.678 251.782 631.871 252.416 632.064 253.014C634.793 252.134 637.49 251.253 640.219 250.408H640.251ZM788.097 483.508C787.583 483.79 787.07 484.071 786.556 484.353C787.648 486.537 788.771 488.686 790.312 491.715C792.785 486.784 790.537 485.093 788.129 483.508H788.097ZM720.707 299.226C721.574 299.226 722.473 299.261 723.34 299.296C723.34 297.359 723.436 295.422 723.244 293.52C723.244 293.238 721.799 293.132 721.029 292.921C720.9 295.034 720.804 297.113 720.675 299.226H720.707ZM124.281 573.113L125.051 575.367C127.427 574.31 129.803 573.289 132.179 572.232C131.954 571.563 131.729 570.929 131.473 570.26C129.065 571.211 126.689 572.162 124.281 573.113ZM420.456 312.469L418.465 312.927C418.979 315.675 419.492 318.387 420.006 321.134C420.648 320.993 421.29 320.852 421.964 320.711L420.488 312.469H420.456ZM633.284 443.425C632.866 443.989 632.417 444.517 632 445.081C634.054 446.947 636.109 448.779 638.164 450.646C638.517 450.188 638.87 449.73 639.223 449.237C637.233 447.3 635.274 445.362 633.284 443.425ZM148.071 634.399C147.044 636.196 145.984 637.323 145.952 638.45C145.952 639.189 147.429 639.964 148.264 640.739C148.938 639.612 149.869 638.556 150.126 637.358C150.254 636.794 149.131 635.879 148.071 634.435V634.399ZM150.929 460.332C148.328 459.557 146.209 458.958 144.122 458.324C144.026 458.747 143.93 459.134 143.833 459.557C146.744 461.905 149.109 462.163 150.929 460.332ZM400.486 353.714C399.779 354.419 399.073 355.159 398.399 355.863C400.646 357.835 402.926 359.773 405.173 361.745C405.398 361.534 405.623 361.322 405.88 361.111L400.518 353.714H400.486ZM531.22 379.286C530.61 379.673 529.968 380.025 529.358 380.413C530.257 382.456 531.188 384.534 532.087 386.577C532.761 386.189 533.435 385.802 534.109 385.45C533.146 383.407 532.183 381.329 531.22 379.286Z" fill="#0C081E"/>
<path d="M490.629 832.851C494.266 833.415 497.222 833.274 499.658 834.366C505.536 837.01 509.564 833.274 514.11 830.525C513.428 828.656 512.811 827 512.194 825.343C512.454 825.096 512.746 824.85 513.006 824.603C514.955 825.978 516.936 827.352 519.697 829.291C519.502 826.683 519.404 825.202 519.144 821.889C522.457 824.603 524.861 826.436 527.069 828.48C530.284 831.441 531.746 836.763 536.91 837.045C537.722 837.08 538.534 836.763 540.45 836.446C538.826 835.318 538.047 834.789 537.3 834.226C535.253 832.675 533.11 831.3 531.291 829.502C530.479 828.692 530.414 827.035 530.024 825.766C531.551 825.942 533.662 825.484 534.441 826.401C536.78 829.044 539.281 828.727 542.269 828.586C545.322 828.445 548.374 830.031 551.492 830.454C553.441 830.736 555.812 830.877 557.436 829.961C560.359 828.304 561.366 829.573 562.275 831.335C559.709 833.344 557.696 835.107 555.487 836.552C554.74 837.045 553.538 836.622 552.564 836.693C549.803 836.869 546.913 836.693 544.315 837.539C543.113 837.926 542.529 840.464 541.424 842.473C534.636 840.746 528.108 843.566 522.23 848.183C521.093 846.456 520.216 845.082 519.339 843.742C518.203 844.905 517.261 846.527 515.929 847.091C512.389 848.571 508.719 849.699 505.049 850.792C503.36 851.285 501.347 850.792 499.853 851.567C494.656 854.246 489.784 856.079 483.874 853.047C481.827 852.025 478.32 854.422 475.462 855.233C473.87 855.691 472.246 856.361 470.655 856.361C467.57 856.361 464.809 856.537 462.503 859.427C461.561 860.59 459.515 861.225 457.956 861.225C445.907 861.225 434.54 864.679 423.14 868.38C420.867 869.12 418.333 868.803 415.897 868.944C415.897 868.415 415.832 867.851 415.8 867.323C416.807 867.217 417.846 867.182 418.853 867.041C420.314 866.829 422.361 867.076 423.172 866.124C426.94 861.718 432.169 862.247 436.813 860.837C441.62 859.392 446.459 858.194 451.266 856.784C451.85 856.607 452.63 855.797 452.727 855.162C453.637 848.36 458.021 846.773 463.413 846.28C464.647 846.174 466.076 845.011 466.92 843.918C470.46 839.195 475.202 837.856 479.944 840.605C483.094 842.438 484.913 841.169 485.562 837.75C485.92 835.847 485.562 833.803 485.855 831.899C486.082 830.666 486.959 829.573 487.576 828.445C488.453 829.397 489.427 830.278 490.174 831.335C490.596 831.934 490.629 832.851 490.629 832.851Z" fill="#0C081E"/>
<path d="M624.677 742.183C633.365 742.054 642.085 741.828 650.774 741.796C654.14 741.796 657.538 741.957 660.873 742.474C662.123 742.668 663.181 744.155 664.335 745.06C663.021 745.545 661.738 746.417 660.424 746.482C656.929 746.643 653.435 746.643 649.972 746.352C648.081 746.191 646.253 745.318 643.688 745.544C645.452 747.678 647.183 749.778 648.978 751.976C644.233 753.915 639.873 752.461 637.822 747.677C636.411 744.413 634.712 744.026 631.602 744.64C629.39 745.092 626.953 744.51 624.645 744.413C624.645 743.67 624.645 742.927 624.677 742.183Z" fill="#0C081E"/>
<path d="M219.24 767.69C229.021 764.404 238.639 759.854 248.584 758.169C258.365 756.526 268.407 751.513 278.775 758.169C258.854 761.75 239.194 765.288 219.533 768.827C219.436 768.448 219.338 768.069 219.24 767.69Z" fill="#0C081E"/>
<path d="M638.788 814.323C632.147 817.958 626.275 821.899 619.891 824.447C614.79 826.451 609.079 826.723 603.657 827.776C601.732 828.15 599.807 828.524 597.914 828.897C597.689 828.388 597.465 827.878 597.24 827.368C599.069 826.417 600.93 824.65 602.758 824.684C607.41 824.786 610.972 822.884 614.34 819.826C616.105 818.23 617.87 816.225 620.436 819.011C620.821 819.453 623.26 818.569 624.03 817.618C625.826 815.512 635.644 812.76 638.82 814.357L638.788 814.323Z" fill="#0C081E"/>
<path d="M377.21 766.012L398.21 796.012L605.71 805.012L593.71 766.012H377.21Z" fill="#D9D9D9"/>
<path d="M591.271 825.763C584.54 827.757 577.81 829.859 571.047 831.707C569.469 832.142 567.73 831.707 566.055 831.707C566.28 830.294 566.055 828.409 566.828 827.612C567.923 826.452 569.63 825.836 571.176 825.437C573.913 824.712 576.682 824.168 579.484 823.842C582.544 823.48 585.635 823.48 588.727 823.298C590.176 823.19 591.625 822.827 593.075 822.9C594.137 822.936 595.2 823.516 596.295 823.878C595.425 824.784 594.653 825.872 593.622 826.524C593.075 826.887 592.173 826.488 591.432 826.415C591.368 826.198 591.335 825.981 591.271 825.763Z" fill="#0C081E"/>
<path d="M478.831 761.819C477.245 760.115 475.428 758.198 473.643 756.281C473.346 756.707 473.049 757.175 472.718 757.601C471.496 754.576 470.24 751.552 468.72 747.803C474.833 748.229 480.483 748.612 487.62 749.081C484.25 753.98 481.573 757.857 478.831 761.776V761.819Z" fill="#0C081E"/>
<path d="M516.915 749.301C520.774 747.113 524.695 746.087 529.136 747.352C533.455 748.583 537.958 749.096 542.43 750.806H516.946C516.946 750.293 516.946 749.78 516.915 749.267V749.301Z" fill="#0C081E"/>
<path d="M458.325 834.539C454.602 836.65 452.239 838.364 449.584 839.354C447.124 840.277 444.404 840.64 441.782 840.903C440.714 841.002 439.581 840.145 438.48 839.716C439.257 838.727 439.872 837.21 440.843 836.881C445.311 835.364 449.843 834.078 454.408 832.924C455.088 832.759 456.026 833.55 458.325 834.539Z" fill="#0C081E"/>
<path d="M682.29 744.686C680.336 745.466 678.132 746.668 675.751 747.188C673.335 747.708 670.492 748.13 668.289 747.448C667.401 747.188 666.69 742.769 667.578 742.086C669.142 740.916 672.198 740.494 674.259 741.014C677.244 741.729 679.909 743.548 682.29 744.686Z" fill="#0C081E"/>
<path d="M561.987 746.879C565.502 746.879 569.016 746.606 572.474 747.083C573.274 747.186 573.874 749.707 574.56 751.104C573.503 751.717 572.446 752.842 571.388 752.808C569.159 752.705 566.902 752.228 564.788 751.411C563.502 750.9 562.473 749.468 561.33 748.446C561.53 747.935 561.759 747.424 561.959 746.913L561.987 746.879Z" fill="#0C081E"/>
<path d="M25.7816 461.468C20.979 451.128 16.1426 440.824 11.34 430.483C11.9826 430.12 12.5914 429.794 13.234 429.431C17.9689 439.772 22.6701 450.148 27.405 460.489C26.8639 460.815 26.3227 461.142 25.7816 461.432V461.468Z" fill="#0C081E"/>
<path d="M596.295 747.918C590.332 756.276 584.075 748.326 578.34 749.855C579.904 746.525 584.857 745.981 596.295 747.918Z" fill="#0C081E"/>
<path d="M303.172 762.82C306.325 763.282 309.51 763.678 312.63 764.338C312.791 764.371 312.984 766.979 312.405 767.573C310.121 769.883 307.547 771.897 304.105 774.834C304.974 770.411 307.418 766.517 302.4 764.173C302.657 763.711 302.915 763.282 303.172 762.82Z" fill="#0C081E"/>
<path d="M547.941 748.847H554.697C556.735 750.711 558.236 751.968 559.594 753.354C560.559 754.308 561.381 755.435 562.275 756.475C560.881 757.298 559.022 759.249 558.164 758.729C554.34 756.432 550.801 753.441 547.155 750.711C547.405 750.061 547.655 749.454 547.941 748.804V748.847Z" fill="#0C081E"/>
<path d="M15.12 496.737C13.16 499.247 12.005 500.767 10.605 502.516C7.665 497.916 4.76 493.392 1.89 488.867L3.08 487.499C7 490.502 10.955 493.506 15.12 496.699V496.737Z" fill="#0C081E"/>
<path d="M498.96 756.754C502.229 750.592 507.549 752.047 511.861 750.822C512.626 750.592 513.947 752.889 515.025 753.999C514.051 754.917 513.147 756.563 512.139 756.639C507.931 756.945 503.689 756.754 498.995 756.754H498.96Z" fill="#0C081E"/>
<path d="M449.82 747.903C452.793 749.704 455.797 751.439 458.645 753.374C459.146 753.707 459.427 755.142 459.177 755.776C458.958 756.343 457.863 756.71 457.112 756.776C452.449 757.177 450.195 754.308 449.945 747.803L449.82 747.936V747.903Z" fill="#0C081E"/>
<path d="M452.655 742.797C456.859 744.128 461.063 745.495 465.885 747.037C459.394 750.296 454.726 749.139 452.655 742.797Z" fill="#0C081E"/>
<path d="M48.195 595.198C45.4553 597.273 41.6753 597.087 36.855 594.64C39.2342 591.768 45.8776 591.967 48.195 595.198Z" fill="#0C081E"/>
<path d="M129.617 288.266C131.467 292.605 133.317 296.943 135.135 301.282C128.277 299.668 130.988 292.784 127.575 289.27C128.245 288.948 128.915 288.589 129.585 288.266H129.617Z" fill="#0C081E"/>
<path d="M49.14 491.504C53.0343 495.584 56.07 498.775 59.535 502.411C55.0274 503.259 50.8265 498.937 49.14 491.504Z" fill="#0C081E"/>
<path d="M294.84 761.819C291.328 761.498 287.815 761.176 283.5 760.809C289.354 755.301 291.16 755.347 294.84 761.819Z" fill="#0C081E"/>
<path d="M51.03 396.93C46.431 398.512 44.5095 396.138 43.47 388.383C45.9585 391.192 48.384 393.923 51.03 396.93Z" fill="#0C081E"/>
<path d="M92.61 701.735C95.5485 699.578 98.4536 697.388 102.06 694.741C101.025 700.101 98.654 701.931 92.61 701.735Z" fill="#0C081E"/>
<path d="M599.978 868.944C599.978 870.001 600.217 871.556 599.944 871.649C596.728 872.551 593.443 873.235 590.193 873.95C590.022 873.359 589.851 872.737 589.68 872.146C592.93 871.12 596.215 870.125 599.978 868.944Z" fill="#0C081E"/>
<path d="M46.0518 474.484C42.9754 472.285 39.9314 470.087 36.855 467.852C37.3084 467.059 37.7617 466.266 38.2475 465.473L47.25 472.321C46.8614 473.042 46.4728 473.763 46.0842 474.484H46.0518Z" fill="#0C081E"/>
<path d="M567.327 838.039C569.205 837.652 571.083 837.294 572.962 836.906L573.615 838.069C572.417 839.053 571.301 840.395 569.94 840.872C569.178 841.14 568.007 839.977 567 839.441L567.299 838.039H567.327Z" fill="#0C081E"/>
<path d="M582.427 858.932C583.459 860.099 584.492 861.225 585.9 862.794C584.774 864.684 583.835 866.294 582.865 867.943C582.427 867.822 582.02 867.701 581.582 867.621L581.175 859.656C581.582 859.415 581.989 859.214 582.427 858.972V858.932Z" fill="#0C081E"/>
<path d="M301.87 748.804C299.632 747.807 297.335 746.847 295.156 745.666C294.861 745.518 294.773 743.561 294.891 743.487C295.715 743.118 296.834 742.528 297.453 742.934C299.19 744.041 300.751 745.629 302.4 747.032L301.899 748.804H301.87Z" fill="#0C081E"/>
<path d="M240.975 207.046C238.77 202.528 236.565 198.011 234.36 193.493C234.847 193.033 235.334 192.614 235.82 192.154C238.226 196.588 240.173 201.399 240.86 207.172L240.975 207.046Z" fill="#0C081E"/>
<path d="M59.535 722.425C56.491 725.221 53.4793 727.986 50.4353 730.783C50.0143 730.317 49.5934 729.851 49.14 729.385C52.3783 726.837 55.6166 724.32 58.855 721.772C59.0816 721.99 59.2759 722.207 59.5026 722.425H59.535Z" fill="#0C081E"/>
<path d="M86.3994 461.468C83.9849 460.503 81.5343 459.537 78.435 458.285C82.6515 455.46 83.9128 455.853 86.94 459.93C86.7598 460.431 86.5796 460.968 86.3994 461.468Z" fill="#0C081E"/>
<path d="M427.14 845.698C425.034 846.117 422.957 846.499 420.851 846.918C420.733 846.27 420.644 845.66 420.525 845.011C422.572 844.325 424.589 843.6 426.636 842.914C426.784 843.829 426.962 844.782 427.11 845.698H427.14Z" fill="#0C081E"/>
<path d="M243.783 70.0117C166.134 172.092 134.047 267.212 127.71 302.012L182.244 269.229L277.805 224.846L335.842 183.994L549.477 144.655L727.589 174.916H819.647L918.71 70.0117H243.783Z" fill="#D9D9D9"/>
<path d="M837.21 584.512L904.71 695.012H921.71L896.21 637.012L837.21 584.512Z" fill="#D9D9D9"/>
<path d="M53.71 709.012V922.512H496.21L380.21 875.012L195.71 846.012L121.71 782.512L74.21 709.012H53.71Z" fill="#D9D9D9"/>
<path d="M698.71 765.012L681.21 805.512L796.21 793.012L865.71 760.512L871.21 734.512L827.71 748.012L745.71 765.012H698.71Z" fill="#D9D9D9"/>
<path d="M281.71 497.012L234.71 588.012V658.012L260.21 720.012L418.71 747.012H492.21L571.21 672.012L565.71 584.512L532.71 455.012L463.21 423.012L389.21 431.012L305.71 469.012L281.71 497.012Z" fill="#D9D9D9"/>
<path d="M426.21 548.012L353.71 568.012V612.512L389.71 636.512L426.21 612.512V548.012Z" fill="#0C081E"/>
<path d="M238.5 80L243.783 70.0117L253.5 58L340.451 23.0115L433.361 11.9483L654.836 0L820.566 11.9483L919 33.1897V77L238.5 80Z" fill="#D9D9D9"/>
<path d="M54 913L53.71 922.512L60.7757 934.023L166.568 965.368L283.065 975.287L560.77 986L768.576 975.287L892 956.242V916.961L54 913Z" fill="#D9D9D9"/>
</g>
<defs>
<clipPath id="clip0_470_23">
<rect width="816" height="986" fill="white"/>
</clipPath>
</defs>
</svg>
