<svg width="1341" height="590" viewBox="0 0 1341 590" fill="none" xmlns="http://www.w3.org/2000/svg">
<path d="M2.97109 134.598C23.6411 121.391 21.052 108.872 1.35822 96.4581C22.4526 83.1991 23.3439 69.676 1.35822 56.3641C16.171 43.9503 24.0655 32.2232 5.3904 18.2246C3.1409 16.5342 4.7113 7.07852 4.45664 0L930.233 0C929.172 1.74322 928.154 3.53926 927.093 5.28248C935.199 13.8401 942.5 25.4088 951.837 29.4763C955.19 30.9554 963.594 14.4212 969.706 6.12769C968.39 4.12035 967.032 2.06022 965.716 0.0528764L1333.83 0.0528764C1348.73 18.0661 1299.45 39.3545 1340.7 54.1983C1323.43 68.6723 1312.99 81.6143 1338.75 93.764C1326.23 108.238 1312.22 121.338 1336.71 133.33C1280.14 194.923 1279.88 401.521 1336.25 455.878C1323.05 468.186 1315.2 481.762 1339.43 494.017C1323.05 507.329 1315.03 520.588 1339.9 534.798C1305.39 551.385 1344.61 571.089 1334.13 590H973.568C963.679 577.058 957.609 562.69 949.375 560.524C943.943 559.045 935.496 574.998 928.408 583.133L932.186 589.63H0C6.32408 577.956 13.2848 570.402 14.3034 561.792C15.2372 553.762 9.80451 544.571 6.70614 534.323C16.9209 520.94 15.6334 507.998 2.84377 495.496C18.5478 483.399 26.6121 469.824 3.26823 457.198C61.4582 402.63 61.9675 184.57 2.97109 134.545V134.598ZM972.465 340.456C961.684 331.845 954.129 321.28 949.248 322.971C942.797 325.137 938.425 336.916 933.162 344.576C939.062 350.651 944.919 361.374 950.861 361.427C956.676 361.48 962.575 350.704 972.465 340.456ZM972.635 293.917C961.727 284.884 954.171 274.161 949.333 275.798C942.839 277.964 938.425 289.744 933.12 297.351C938.977 303.373 944.749 313.938 950.734 314.149C956.548 314.307 962.575 303.848 972.635 293.917ZM972.422 201.104C962.363 191.12 955.614 179.604 950.649 180.661C944.07 182.034 938.849 193.339 933.035 200.364C938.383 206.967 943.391 218.219 949.248 218.906C955.105 219.645 961.769 209.873 972.422 201.104ZM972.507 388.051C961.939 379.388 955.317 369.615 949.375 370.249C943.561 370.883 938.425 381.976 933.035 388.526C938.807 395.71 943.985 407.068 950.606 408.6C955.53 409.762 962.363 398.087 972.507 388.051ZM972.507 155.146C962.618 144.581 956.251 132.749 951.158 133.541C944.579 134.545 939.062 145.691 933.035 152.505C938.213 159.267 942.924 170.518 948.739 171.522C954.596 172.526 961.557 163.281 972.507 155.146ZM972.507 106.706C962.193 96.6694 955.318 85.1535 950.352 86.3157C943.773 87.8476 938.722 99.3106 933.035 106.495C938.51 112.781 943.688 123.557 949.587 124.191C955.445 124.825 961.981 115.317 972.55 106.706H972.507ZM972.465 247.379C962.151 237.764 955.233 226.618 950.224 227.833C943.688 229.365 938.68 240.723 933.035 247.854C938.552 254.351 943.773 265.497 949.63 266.078C955.445 266.659 961.939 256.57 972.465 247.379ZM972.422 435.171C961.811 426.507 955.275 416.893 949.418 417.58C943.561 418.214 938.467 429.096 933.035 435.54C938.765 442.672 943.9 454.029 950.479 455.561C955.402 456.723 962.236 445.154 972.38 435.171H972.422ZM948.399 511.819C956.336 499.458 964.782 492.01 964.825 484.614C964.825 477.694 955.19 464.541 950.988 465.228C944.494 466.284 935.581 475.846 934.138 483.664C932.992 489.897 941.438 498.93 948.399 511.872V511.819ZM973.016 58.9525C961.769 49.1271 955.105 38.7734 949.248 39.4601C943.433 40.094 938.425 51.8739 933.077 58.7411C938.51 65.1329 943.603 76.0149 949.46 76.7544C955.318 77.4411 961.896 67.9327 973.016 58.9525ZM949.375 559.097C957.185 545.31 965.504 536.964 964.825 530.044C964.103 522.86 954.766 512.295 948.951 512.031C943.815 511.819 934.563 523.335 934.053 530.467C933.544 537.545 941.651 545.574 949.375 559.15V559.097Z" fill="#712222"/>
<path d="M663.743 312.504L812.957 312.816" stroke="#D9D9D9" stroke-width="15"/>
<path d="M124.184 312.686L273.398 312.997" stroke="#D9D9D9" stroke-width="15"/>
</svg>
