<svg width="1539" height="482" viewBox="0 0 1539 482" fill="none" xmlns="http://www.w3.org/2000/svg">
<rect y="15.3779" width="359" height="466" fill="#0C081E"/>
<rect x="398" y="15.3779" width="359" height="466" fill="#0C081E"/>
<rect x="1180" y="4.37793" width="359" height="466" fill="#0C081E"/>
<rect x="796" y="13.3779" width="359" height="466" fill="#0C081E"/>
<path d="M1069.1 70.1158L1064.48 40.8515L1060.86 20.6947L1069.37 4.27816L1077.01 8.53799L1077.94 18.5412L1075.19 50.7865L1087.33 75.2783L1096.04 66.9983L1107.52 67.9762L1112.36 73.8018L1115.01 74.0275L1114.71 77.6103L1119.24 87.0187L1110.53 95.2987L1126.96 90.3828L1143.27 76.4346L1145.09 34.1862L1144.69 17.9131L1145.53 8.06034L1154.36 8.81258L1163.19 9.56482L1156.52 25.2361L1154.23 52.1072L1148.11 82.2602L1153.02 87.1901L1163.3 70.924L1181.8 62.5757L1191.74 60.7161L1192.89 47.2805L1193.65 38.3235L1195.95 32.204L1200.37 32.5802L1203.36 39.151L1203.41 49.0789L1201.23 64.2306L1208.49 72.969L1207.95 79.2389L1227.03 74.5487L1234.98 75.2257L1248.13 56.4982L1249.12 44.854L1255.46 43.5892L1257.95 45.6063L1263.75 50.6114L1263.14 57.777L1254.52 85.9129L1248.61 92.6272L1239.78 91.8749L1181.79 114.903L1135.56 166.901L1115.13 156.138L1069.1 70.1158Z" fill="#D9D9D9"/>
<path d="M1142.25 100.41C1142.73 99.996 1143.28 99.1794 1143.7 99.2391C1151.73 100.571 1151.01 94.3259 1152.04 89.4998C1152.28 88.3934 1152.88 87.3666 1154.31 86.4811C1154.49 87.9586 1154.69 89.4381 1154.99 91.812C1157.91 82.4023 1163.31 75.6714 1170.71 70.6452C1174.72 67.9191 1178.9 65.4232 1183.16 63.1018C1184.38 62.4383 1186.14 62.8519 1188.49 62.6928C1187.38 64.9231 1186.81 66.5766 1185.83 67.8828C1183.38 71.0779 1184.24 74.3386 1186.47 76.6384C1189.6 79.8292 1193.48 82.2927 1197.07 85.0912C1196.81 85.8843 1196.58 86.7031 1196.19 87.8927C1197.02 87.6037 1197.48 87.5465 1197.8 87.3107C1198.71 86.5974 1200.08 85.0119 1200.37 85.2044C1205.82 88.6407 1209.46 83.3661 1213.88 82.2565C1217.18 81.4357 1220.19 79.3912 1223.28 77.8087C1226.69 76.0619 1229.79 75.7268 1231.94 79.3612C1234.29 76.398 1236.55 73.5221 1238.82 70.6481C1239.29 70.9756 1239.74 71.3012 1240.2 71.6287C1239.18 73.9621 1238.18 76.2975 1237 79.0016C1241.01 80.4935 1243.16 82.4264 1242.19 86.9214C1241.92 88.1209 1245.06 90.0664 1246.62 91.6856L1246.51 91.6042C1237.89 95.7829 1229.4 100.261 1220.6 104.017C1214.4 106.653 1207.22 107.36 1201.46 110.656C1196.62 113.431 1192.79 118.402 1189.24 122.965C1185.07 128.314 1181.66 134.255 1177.94 139.954C1175.33 143.95 1172.54 147.859 1170.18 152.02C1165.48 160.32 1159.13 166.035 1149.3 166.588C1143.94 166.874 1138.47 167.558 1133.21 166.847C1129.54 166.343 1125.64 164.428 1122.75 162.025C1119.93 159.699 1118.07 156.521 1113.78 158.696C1113.26 158.963 1111.68 158.302 1111.71 158.232C1112.21 154.56 1108.41 153.972 1107.13 151.586C1105.21 147.995 1102.63 144.731 1101.13 140.985C1099.22 136.291 1098.11 131.283 1096.75 126.71C1095.61 125.894 1093.64 125.151 1092.8 123.736C1086.93 113.817 1081.04 103.92 1075.7 93.6857C1072.47 87.4904 1069.94 80.8753 1067.76 74.2187C1066.82 71.3823 1067.83 67.9443 1067.53 64.8029C1066.44 53.6852 1068.55 42.1927 1063.85 31.4375C1063.53 30.7392 1065.1 29.1717 1066.12 27.4847C1065.11 25.7449 1063.66 23.3207 1061.87 20.2438C1063.9 19.4102 1065.64 18.6955 1067.7 17.8639C1066.65 17.1751 1065.62 16.5121 1064.29 15.6565C1066.55 14.7458 1068.5 13.9301 1070.49 13.1163C1070.49 12.7812 1070.5 12.4461 1070.5 12.1109C1069.32 11.7948 1068.17 11.4808 1067.15 11.2263C1068.27 9.71591 1069.58 8.00537 1070.8 6.36023C1071.4 9.57517 1072.14 13.4486 1072.87 17.322C1073.3 17.2866 1073.75 17.2532 1074.18 17.2177L1074.81 9.76976C1075.36 9.72054 1075.93 9.67333 1076.48 9.62411C1077.06 14.1558 1078.72 18.8746 1077.97 23.1734C1076.59 31.3248 1077.71 39.0179 1079.41 46.8085C1080.93 53.6728 1082.47 60.563 1084.3 67.3344C1085 69.9108 1086.55 72.2479 1088.33 74.6288C1090.99 66.4186 1098.69 67.2903 1104.03 64.4858C1104.88 64.0302 1107.02 66.0821 1108.54 67.5783C1103.43 66.8551 1101.23 69.7113 1100.13 73.7163C1092.56 73.2394 1091.38 74.8648 1093.73 82.3028C1094.32 84.2228 1094.64 86.3349 1095.68 87.9578C1099.28 93.6337 1104.39 93.8294 1110.41 90.8905C1109.44 88.9147 1108.36 86.689 1106.71 83.3127C1111.11 84.3111 1114.84 85.1564 1119.62 86.2343C1117.46 88.8783 1115.92 90.7612 1114.37 92.6183C1118.47 96.6823 1118.61 96.6705 1122.07 92.1712C1122.62 91.4517 1123.28 90.645 1124.09 90.3065C1135.44 85.4494 1141.25 75.4943 1143.59 64.4522C1145.78 54.0207 1144.79 42.9109 1145.4 32.1294C1145.49 30.5073 1146.57 28.9216 1147.66 26.1381C1147.83 25.458 1148.34 23.4158 1148.91 21.1634C1145.22 19.5547 1144.96 18.4301 1147.32 8.46876C1148.07 10.4741 1148.59 11.8606 1148.96 12.8028L1154.45 13.2705C1154.33 11.8465 1154.18 10.0359 1154.03 8.20146C1154.39 8.13626 1154.75 8.07106 1155.08 8.00386C1155.52 10.0784 1155.89 12.1708 1156.42 14.2058C1156.67 15.138 1157.29 15.9812 1157.73 16.8818C1158.41 16.3409 1159.23 15.9071 1159.74 15.2312C1160.92 13.5821 1161.94 11.8476 1163.3 9.73451C1163.54 10.5457 1163.88 11.0298 1163.74 11.234C1156.82 22.5329 1157.18 34.9789 1157.67 47.5796C1158.13 59.627 1158.06 71.7732 1150.54 82.1337C1148.53 84.9107 1145.41 86.8501 1143.23 89.5159C1140.51 92.8556 1138.7 96.6083 1142.52 100.529C1141.13 101.897 1138.88 103.071 1138.53 104.671C1137.05 111.256 1136.17 117.988 1135.06 124.676C1135.5 124.762 1135.94 124.847 1136.38 124.933C1136.8 122.284 1137.05 119.573 1137.65 116.964C1138.72 112.405 1140.03 107.915 1141.26 103.418C1141.54 102.411 1141.92 101.461 1142.27 100.484L1142.25 100.41ZM1126.01 118.753C1127.09 117.502 1128.19 116.277 1129.71 114.513L1128.95 123.365C1132.07 115.098 1134.73 108.014 1137.41 100.933C1136.93 100.7 1136.46 100.444 1135.98 100.212C1132.66 106.424 1129.35 112.637 1126.07 118.925C1123.05 124.133 1121.12 129.625 1121.32 135.634L1122.84 136.003L1126.01 118.777L1126.01 118.753ZM1116.98 155.973C1117.59 153.891 1118.55 151.984 1118.52 150.112C1118.49 147.952 1117.54 145.834 1116.89 143.261C1116.11 147.941 1109.92 152.375 1116.98 155.973ZM1152.24 27.559C1152.91 27.9282 1153.59 28.3213 1154.27 28.6906C1155.47 26.4446 1156.75 24.2284 1157.82 21.899C1157.94 21.669 1156.91 20.4547 1156.39 20.4346C1155.61 20.4162 1154.37 20.8616 1154.13 21.4405C1153.3 23.3833 1152.84 25.5009 1152.22 27.5332L1152.24 27.559ZM1159.27 113.605C1164.91 111.209 1167.09 105.331 1173.89 105.91C1172.65 104.989 1171.64 103.729 1171.13 103.925C1166.52 105.594 1163.06 108.751 1159.27 113.605Z" fill="#712222"/>
<path d="M1246.62 91.733C1248.13 88.4341 1250.31 85.2884 1250.91 81.8403C1251.39 79.0286 1250.76 75.3318 1249.23 72.9967C1246.49 68.8087 1246.09 56.5987 1249.97 53.5493C1251.61 52.2514 1254.5 52.2097 1256.82 52.1914C1258.85 52.1729 1260.86 52.9912 1264.15 53.7271C1262.76 59.5287 1261.44 65.8161 1259.71 71.9962C1258.42 76.6079 1256.65 81.0587 1255.06 85.5731C1253.63 89.6216 1251.69 92.9559 1246.53 91.6774L1246.64 91.7587L1246.62 91.733Z" fill="#712222"/>
<path d="M1197.93 64.1212C1199.84 67.2319 1201.73 70.6519 1203.91 73.858C1206.22 77.2664 1205.41 80.6014 1201.01 83.9895C1200.57 83.3765 1199.86 82.8128 1199.68 82.1265C1197.18 72.1104 1194.59 62.0863 1192.4 52.001C1191.55 48.0938 1195.68 42.0462 1199.41 41.2852C1202.29 40.6921 1204.51 42.1036 1204.22 45.4825C1203.99 48.1714 1203.34 50.8243 1202.74 53.4812C1202.13 56.1381 1201.51 58.793 1200.6 61.3526C1200.29 62.2844 1199.15 62.9063 1197.91 64.143L1197.93 64.1212Z" fill="#712222"/>
<path d="M1200.6 37.2878C1195.49 36.8839 1193.55 34.9689 1194.78 31.543C1197.3 32.7404 1201.23 32.1164 1200.6 37.2878Z" fill="#712222"/>
<path d="M1248.86 46.5764C1251.02 45.3225 1253.19 44.0687 1255.97 42.4603C1256.48 44.2771 1256.82 45.5048 1257.16 46.7564C1254.65 47.3814 1252.16 48.0084 1249.65 48.6334C1249.38 47.9391 1249.11 47.2687 1248.84 46.5744L1248.86 46.5764Z" fill="#712222"/>
<path d="M1147.69 444.777L1132.97 445.878L1122.81 446.845L1114.93 442.136L1117.3 438.634L1122.31 438.571L1138.27 441.117L1150.87 436.227L1147.04 431.734L1147.92 426.265L1150.98 424.166L1151.18 422.904L1152.95 423.187L1157.79 421.371L1161.62 425.864L1159.72 417.797L1153.33 409.444L1132.36 406.96L1124.24 406.528L1119.37 405.75L1120.04 401.544L1120.71 397.337L1128.29 401.134L1141.59 403.257L1156.39 407.345L1159.01 405.175L1151.26 399.624L1147.73 390.433L1147.13 385.594L1140.48 384.533L1136.05 383.826L1133.08 382.489L1133.42 380.386L1136.79 379.199L1141.73 379.556L1149.2 381.18L1153.8 378.031L1156.9 378.526L1155.21 369.197L1155.81 365.412L1146.93 358.387L1141.17 357.467L1140.75 354.381L1141.84 353.261L1144.52 350.67L1148.07 351.236L1161.79 356.445L1164.93 359.534L1164.26 363.741L1173.77 392.434L1198.1 416.59L1192.06 425.977L1147.69 444.777Z" fill="#D9D9D9"/>
<path d="M1165.23 410.845C1165.04 410.597 1164.65 410.306 1164.7 410.107C1165.63 406.302 1162.5 406.41 1160.13 405.734C1159.59 405.579 1159.09 405.248 1158.7 404.532C1159.44 404.502 1160.19 404.46 1161.38 404.409C1156.79 402.646 1153.62 399.803 1151.37 396.063C1150.15 394.034 1149.05 391.933 1148.03 389.801C1147.74 389.193 1148.01 388.364 1148.01 387.23C1149.08 387.848 1149.89 388.183 1150.5 388.705C1152.01 390 1153.66 389.714 1154.88 388.728C1156.58 387.348 1157.93 385.582 1159.45 383.968C1159.83 384.121 1160.23 384.265 1160.81 384.495C1160.7 384.087 1160.68 383.867 1160.58 383.701C1160.25 383.237 1159.51 382.522 1159.61 382.39C1161.51 379.908 1159 377.961 1158.6 375.8C1158.3 374.182 1157.39 372.661 1156.7 371.119C1155.95 369.417 1155.89 367.918 1157.77 367.026C1156.37 365.784 1155.02 364.593 1153.66 363.392C1153.84 363.18 1154.02 362.979 1154.2 362.767C1155.32 363.347 1156.45 363.917 1157.76 364.584C1158.64 362.719 1159.67 361.761 1161.87 362.399C1162.46 362.573 1163.54 361.14 1164.4 360.452L1164.35 360.503C1166.14 364.799 1168.09 369.04 1169.66 373.405C1170.76 376.48 1170.87 379.947 1172.32 382.836C1173.54 385.265 1175.89 387.29 1178.04 389.169C1180.56 391.37 1183.4 393.234 1186.11 395.236C1188.02 396.64 1189.87 398.127 1191.86 399.419C1195.83 401.99 1198.47 405.252 1198.41 409.987C1198.37 412.571 1198.53 415.22 1198 417.713C1197.62 419.453 1196.54 421.251 1195.25 422.545C1193.99 423.812 1192.35 424.581 1193.29 426.725C1193.4 426.984 1193.02 427.714 1192.99 427.697C1191.18 427.316 1190.76 429.117 1189.53 429.642C1187.67 430.424 1185.96 431.537 1184.05 432.114C1181.65 432.854 1179.12 433.195 1176.79 433.672C1176.35 434.186 1175.91 435.102 1175.18 435.455C1170.04 437.889 1164.92 440.337 1159.65 442.51C1156.45 443.822 1153.08 444.784 1149.69 445.573C1148.24 445.916 1146.57 445.304 1144.99 445.328C1139.42 445.424 1133.77 443.973 1128.26 445.82C1127.9 445.946 1127.17 445.131 1126.37 444.579C1125.47 444.997 1124.21 445.598 1122.62 446.341C1122.27 445.335 1121.98 444.474 1121.63 443.456C1121.25 443.934 1120.89 444.403 1120.42 445.004C1120.04 443.89 1119.7 442.919 1119.36 441.937C1119.2 441.922 1119.03 441.906 1118.86 441.891C1118.67 442.444 1118.47 442.986 1118.31 443.465C1117.6 442.869 1116.79 442.179 1116.01 441.528C1117.63 441.362 1119.58 441.158 1121.54 440.954C1121.53 440.748 1121.53 440.53 1121.53 440.323L1117.84 439.735C1117.84 439.47 1117.83 439.194 1117.83 438.93C1120.1 438.823 1122.51 438.21 1124.62 438.731C1128.63 439.703 1132.5 439.461 1136.43 438.943C1139.9 438.477 1143.38 438.001 1146.82 437.38C1148.12 437.141 1149.34 436.487 1150.58 435.723C1146.59 434.134 1147.28 430.475 1146.06 427.806C1145.86 427.384 1146.96 426.436 1147.75 425.761C1147.22 428.185 1148.57 429.352 1150.53 430.031C1150.03 433.642 1150.8 434.269 1154.59 433.429C1155.56 433.218 1156.62 433.146 1157.47 432.708C1160.41 431.196 1160.68 428.752 1159.42 425.755C1158.41 426.143 1157.26 426.579 1155.52 427.241C1156.17 425.167 1156.72 423.409 1157.41 421.16C1158.66 422.298 1159.54 423.104 1160.41 423.919C1162.58 422.11 1162.57 422.041 1160.45 420.212C1160.11 419.918 1159.73 419.571 1159.59 419.17C1157.55 413.539 1152.79 410.373 1147.38 408.832C1142.26 407.385 1136.69 407.437 1131.35 406.733C1130.54 406.627 1129.79 406.049 1128.44 405.421C1128.11 405.311 1127.11 404.991 1126 404.631C1125.08 406.34 1124.51 406.421 1119.63 404.909C1120.66 404.626 1121.36 404.429 1121.84 404.288L1122.26 401.674C1121.55 401.674 1120.64 401.679 1119.72 401.681C1119.7 401.506 1119.68 401.331 1119.66 401.167C1120.71 401.036 1121.76 400.941 1122.79 400.761C1123.27 400.676 1123.71 400.414 1124.17 400.236C1123.92 399.888 1123.74 399.479 1123.42 399.211C1122.63 398.582 1121.81 398.025 1120.8 397.292C1121.21 397.209 1121.46 397.066 1121.56 397.138C1126.95 400.887 1133.16 401.19 1139.45 401.437C1145.46 401.675 1151.51 402.169 1156.41 406.172C1157.73 407.241 1158.59 408.811 1159.84 409.962C1161.41 411.393 1163.22 412.404 1165.3 410.719C1165.93 411.439 1166.44 412.563 1167.23 412.791C1170.45 413.753 1173.78 414.432 1177.07 415.221C1177.13 415.013 1177.18 414.804 1177.24 414.595C1175.94 414.296 1174.59 414.07 1173.32 413.683C1171.08 412.994 1168.89 412.197 1166.69 411.434C1166.2 411.264 1165.74 411.042 1165.27 410.84L1165.23 410.845ZM1173.82 419.332C1173.23 418.768 1172.66 418.195 1171.83 417.399L1176.21 418.098C1172.2 416.289 1168.76 414.744 1165.33 413.187C1165.2 413.407 1165.05 413.624 1164.92 413.844C1167.9 415.672 1170.88 417.5 1173.9 419.311C1176.39 420.958 1179.06 422.094 1182.06 422.229L1182.3 421.51L1173.83 419.333L1173.82 419.332ZM1192.04 425.082C1191.02 424.713 1190.11 424.177 1189.17 424.12C1188.1 424.052 1187.01 424.428 1185.71 424.644C1188.01 425.195 1190.01 428.333 1192.04 425.082ZM1129.3 403.278C1129.51 402.967 1129.73 402.658 1129.93 402.348C1128.85 401.683 1127.79 400.986 1126.67 400.383C1126.56 400.32 1125.92 400.768 1125.89 401.015C1125.86 401.388 1126.04 402.001 1126.32 402.137C1127.26 402.608 1128.3 402.912 1129.29 403.287L1129.3 403.278ZM1172.37 403.184C1171.37 400.389 1168.51 399.12 1169.03 395.879C1168.53 396.441 1167.87 396.874 1167.95 397.127C1168.63 399.401 1170.08 401.18 1172.37 403.184Z" fill="#712222"/>
<path d="M1164.42 360.455C1162.83 359.605 1161.33 358.439 1159.64 358.019C1158.25 357.684 1156.39 357.845 1155.18 358.488C1153 359.642 1146.91 359.369 1145.52 357.394C1144.93 356.555 1145.01 355.169 1145.08 354.057C1145.14 353.081 1145.61 352.148 1146.09 350.597C1148.93 351.486 1152.01 352.357 1155.03 353.423C1157.29 354.218 1159.44 355.238 1161.64 356.172C1163.6 357.013 1165.2 358.07 1164.39 360.496L1164.43 360.446L1164.42 360.455Z" fill="#712222"/>
<path d="M1149.04 382.755C1150.65 381.958 1152.42 381.185 1154.09 380.26C1155.86 379.283 1157.49 379.795 1159.03 382.035C1158.71 382.224 1158.41 382.542 1158.06 382.602C1152.99 383.42 1147.91 384.282 1142.82 384.948C1140.85 385.206 1137.97 382.994 1137.72 381.178C1137.52 379.771 1138.3 378.76 1139.97 379.027C1141.3 379.24 1142.6 379.653 1143.9 380.044C1145.21 380.436 1146.51 380.838 1147.75 381.369C1148.2 381.556 1148.47 382.126 1149.05 382.768L1149.04 382.755Z" fill="#712222"/>
<path d="M1135.77 380.452C1135.4 382.891 1134.38 383.748 1132.71 383.024C1133.39 381.861 1133.22 379.953 1135.77 380.452Z" fill="#712222"/>
<path d="M1142.02 357.659C1141.46 356.574 1140.91 355.489 1140.21 354.093C1141.13 353.919 1141.75 353.801 1142.38 353.684C1142.61 354.912 1142.84 356.129 1143.07 357.357C1142.71 357.461 1142.37 357.566 1142.01 357.67L1142.02 357.659Z" fill="#712222"/>
<path d="M1052.44 301.52L1037.5 294.025L1027.02 289.093L1023.49 279.023L1028.71 276.434L1033.53 279.341L1046.57 291.74L1062.69 293.643L1062.84 286.232L1068.29 280.503L1072.98 279.925L1074.24 278.603L1075.68 279.98L1081.82 280.78L1081.67 288.191L1086.68 277.847L1087.65 264.499L1069.79 249.193L1062.43 243.876L1058.44 240.087L1062.64 235.68L1066.83 231.272L1070.83 240.116L1081.7 250.448L1092.33 263.921L1096.66 262.999L1093.97 252.048L1098.37 239.445L1101.89 233.563L1096.46 228.397L1092.84 224.953L1091.14 221.661L1093.23 219.457L1097.45 220.105L1101.85 223.453L1107.59 229.749L1114.62 228.882L1117.15 231.293L1123.42 219.626L1127.19 215.66L1124.67 202.353L1119.96 197.876L1122.17 194.102L1124.15 193.469L1128.9 192.106L1131.8 194.861L1140.45 208.967L1140.84 214.367L1136.64 218.774L1121.47 257.217L1124.23 299.284L1110.55 306.418L1052.44 301.52Z" fill="#D9D9D9"/>
<path d="M1097.79 273.176C1097.82 272.779 1097.7 272.216 1097.91 272.014C1102.01 268.222 1098.93 266.482 1097.25 264.302C1096.87 263.801 1096.68 263.132 1096.91 262.08C1097.64 262.486 1098.38 262.881 1099.56 263.531C1096.68 258.79 1096.07 253.657 1097.08 248.044C1097.63 244.999 1098.36 241.943 1099.19 238.905C1099.43 238.038 1100.38 237.249 1101.34 235.953C1101.84 237.297 1102.32 238.157 1102.47 239.121C1102.81 241.497 1104.63 242.152 1106.62 241.751C1109.4 241.182 1112.18 239.97 1114.98 239.025C1115.22 239.43 1115.48 239.832 1115.84 240.439C1116.07 239.904 1116.25 239.645 1116.28 239.392C1116.37 238.669 1116.26 237.41 1116.48 237.322C1120.37 235.611 1119.63 231.899 1121.08 229.189C1122.16 227.164 1122.57 224.881 1123.22 222.712C1123.94 220.319 1125.15 218.568 1127.69 218.668C1127.41 216.418 1127.13 214.252 1126.85 212.074C1127.2 211.938 1127.54 211.813 1127.89 211.677C1128.47 213.011 1129.06 214.333 1129.74 215.872C1132.16 214.262 1133.95 213.783 1135.51 215.823C1135.92 216.372 1138.15 215.373 1139.55 215.097L1139.47 215.128C1137.54 221.102 1135.81 227.103 1133.62 233.027C1132.08 237.197 1129.25 241.224 1128.19 245.386C1127.3 248.887 1127.82 252.595 1128.28 256.021C1128.83 260.037 1129.96 263.856 1130.85 267.756C1131.47 270.491 1131.98 273.291 1132.78 275.952C1134.4 281.252 1134.15 286.544 1130.09 291.922C1127.88 294.851 1125.79 297.972 1123.18 300.506C1121.35 302.271 1118.8 303.681 1116.48 304.391C1114.22 305.094 1112 304.995 1111.08 308.002C1110.98 308.367 1110 308.973 1109.98 308.934C1108.58 307.422 1106.65 309.23 1105.04 309.098C1102.62 308.891 1100.05 309.145 1097.74 308.665C1094.83 308.084 1092.13 306.969 1089.52 306.133C1088.66 306.456 1087.47 307.243 1086.48 307.211C1079.53 306.941 1072.59 306.691 1065.74 306.037C1061.59 305.639 1057.56 304.73 1053.67 303.617C1052.01 303.151 1050.93 301.454 1049.41 300.546C1044.03 297.344 1039.87 292.326 1033.07 291.16C1032.62 291.091 1032.62 289.727 1032.32 288.617C1031.11 288.56 1029.4 288.501 1027.26 288.403C1027.78 287.047 1028.23 285.886 1028.76 284.519C1027.99 284.84 1027.25 285.159 1026.29 285.566C1026.88 284.068 1027.37 282.756 1027.88 281.433C1027.73 281.317 1027.59 281.2 1027.44 281.084C1026.79 281.599 1026.14 282.102 1025.59 282.553C1025.41 281.448 1025.22 280.179 1025.03 278.972C1026.72 279.747 1028.75 280.675 1030.78 281.603C1030.95 281.365 1031.13 281.115 1031.3 280.876L1028.29 278.013C1028.51 277.707 1028.74 277.389 1028.96 277.083C1031.21 278.314 1034.02 279.043 1035.59 280.896C1038.59 284.392 1042.47 286.414 1046.66 288.162C1050.35 289.691 1054.07 291.217 1057.86 292.548C1059.3 293.053 1061.01 293.028 1062.84 292.895C1060.38 288.703 1064.13 284.933 1065.22 281.16C1065.39 280.56 1067.23 280.126 1068.56 279.828C1066.01 282.283 1066.31 284.417 1067.59 286.356C1064.08 290.19 1064.28 291.364 1068.59 292.652C1069.69 292.991 1070.77 293.541 1071.94 293.541C1076.02 293.565 1078.34 290.933 1079.67 286.758C1078.38 286.598 1076.92 286.416 1074.71 286.141C1077.07 284.154 1079.08 282.47 1081.64 280.314C1081.86 282.354 1082.02 283.802 1082.17 285.252C1085.75 284.469 1085.81 284.389 1085.33 281.037C1085.26 280.499 1085.19 279.877 1085.39 279.335C1088.21 271.69 1086.35 265.242 1082.5 260.26C1078.85 255.563 1073.51 252.314 1069.01 248.331C1068.34 247.732 1068.11 246.623 1067.35 245.104C1067.13 244.78 1066.45 243.82 1065.7 242.754C1063.38 244.157 1062.77 243.912 1059.4 239.283C1060.62 239.567 1061.46 239.764 1062.03 239.889L1064.64 237.149C1063.96 236.726 1063.09 236.192 1062.22 235.649C1062.35 235.437 1062.48 235.225 1062.59 235.024C1063.7 235.498 1064.78 236.015 1065.92 236.423C1066.44 236.607 1067.08 236.569 1067.67 236.641C1067.73 236.096 1067.9 235.518 1067.82 235.021C1067.61 233.838 1067.29 232.709 1066.95 231.273C1067.41 231.423 1067.77 231.409 1067.8 231.55C1069.77 239.039 1075.42 243.076 1081.2 247.097C1086.72 250.944 1092.05 255.103 1093.34 262.592C1093.69 264.596 1093.18 266.901 1093.41 268.962C1093.69 271.531 1094.56 273.76 1097.96 273.072C1097.96 274.271 1097.49 275.858 1098.05 276.586C1100.31 279.605 1102.89 282.355 1105.36 285.214C1105.59 285.01 1105.82 284.806 1106.05 284.601C1105.07 283.483 1103.98 282.428 1103.09 281.225C1101.55 279.111 1100.13 276.897 1098.69 274.719C1098.36 274.232 1098.11 273.705 1097.83 273.192L1097.79 273.176ZM1098.79 287.977C1098.71 286.985 1098.65 285.99 1098.54 284.588L1102.12 287.991C1099.83 283.54 1097.86 279.73 1095.91 275.909C1095.59 276.082 1095.27 276.246 1094.96 276.418C1096.26 280.28 1097.55 284.141 1098.9 288.006C1099.88 291.368 1101.46 294.253 1104.2 296.19L1105.03 295.508L1098.8 287.986L1098.79 287.977ZM1111.28 305.383C1110.63 304.358 1110.21 303.2 1109.37 302.58C1108.4 301.862 1107.05 301.646 1105.63 301.119C1107.36 303.118 1106.61 307.892 1111.28 305.383ZM1069.98 243.167C1070.44 242.935 1070.91 242.712 1071.37 242.48C1070.91 241.079 1070.49 239.653 1069.93 238.296C1069.87 238.158 1068.89 238.29 1068.65 238.556C1068.3 238.961 1067.96 239.769 1068.11 240.091C1068.61 241.187 1069.34 242.151 1069.96 243.17L1069.98 243.167ZM1111.06 268.667C1112.46 264.876 1110.82 261.73 1114.05 258.334C1113.1 258.679 1112.1 258.781 1111.96 259.118C1110.69 262.118 1110.57 265.016 1111.06 268.667Z" fill="#712222"/>
<path d="M1139.57 215.116C1138.77 213.198 1138.34 210.978 1137.08 209.49C1136.04 208.284 1134.14 207.362 1132.44 207.375C1129.39 207.399 1123.83 203.465 1124.17 200.384C1124.32 199.074 1125.56 197.535 1126.57 196.306C1127.45 195.225 1128.69 194.442 1130.45 192.953C1132.4 195.658 1134.61 198.488 1136.58 201.5C1138.05 203.748 1139.24 206.195 1140.54 208.567C1141.7 210.698 1142.33 212.853 1139.51 215.144L1139.59 215.113L1139.57 215.116Z" fill="#712222"/>
<path d="M1106.1 231.45C1108.31 231.498 1110.64 231.665 1113.01 231.6C1115.53 231.538 1116.65 233.095 1116.22 236.569C1115.76 236.595 1115.2 236.778 1114.82 236.639C1109.3 234.559 1103.74 232.526 1098.33 230.258C1096.23 229.38 1095.37 225.145 1096.66 222.919C1097.66 221.193 1099.25 220.501 1100.62 221.8C1101.71 222.834 1102.59 224.079 1103.5 225.3C1104.41 226.521 1105.31 227.754 1106.05 229.1C1106.32 229.583 1106.1 230.396 1106.1 231.471L1106.1 231.45Z" fill="#712222"/>
<path d="M1095.42 220.931C1093 223.495 1091.31 223.87 1090.34 222.053C1091.97 221.129 1093.41 218.843 1095.42 220.931Z" fill="#712222"/>
<path d="M1120.61 198.6C1121 197.033 1121.39 195.465 1121.9 193.449C1122.92 193.798 1123.61 194.033 1124.32 194.278C1123.5 195.816 1122.69 197.342 1121.86 198.88C1121.44 198.787 1121.02 198.704 1120.6 198.612L1120.61 198.6Z" fill="#712222"/>
</svg>
