<svg width="169" height="439" viewBox="0 0 169 439" fill="none" xmlns="http://www.w3.org/2000/svg">
<path d="M0.0234375 271.987C52.4903 272.064 104.957 272.16 157.424 272.236C159.822 272.236 162.231 272.236 165.112 272.236V291.067L0.0234375 291.067L0.0234375 271.987Z" fill="#D9D9D9"/>
<path d="M0.0234375 239.549C19.3735 239.683 38.7236 239.875 58.0736 239.913C91.5732 239.97 125.062 239.913 158.561 239.913H165.349V254.113H158.527C108.098 254.113 57.6684 254.113 7.2389 254.151C4.83 254.151 2.43235 254.572 0.0234375 254.802C0.0234375 249.711 0.0234375 244.621 0.0234375 239.549Z" fill="#D9D9D9"/>
<path d="M0.0234375 86.9652C2.42109 87.2523 4.81874 87.7881 7.20513 87.7881C57.4545 87.8455 107.693 87.8264 157.942 87.8264C160.328 87.8264 162.703 87.8264 165.349 87.8264V101.95C162.929 101.95 160.756 101.95 158.572 101.95C107.952 101.95 57.3419 101.95 6.7211 101.95C4.4923 101.95 2.2635 102.122 0.0346941 102.218C0.0346941 97.1272 0.0346941 92.0366 0.0346941 86.9652H0.0234375Z" fill="#D9D9D9"/>
<path d="M0.0234375 359.714C52.7605 359.79 105.486 359.848 158.223 359.905C160.43 359.905 162.636 359.905 165.214 359.905V373.072C163.795 373.34 162.377 373.818 160.959 373.818C108.593 373.856 56.2388 373.856 3.87319 373.818C2.58994 373.818 1.30669 373.32 0.0234375 373.052C0.0234375 368.593 0.0234375 364.154 0.0234375 359.695L0.0234375 359.714Z" fill="#D9D9D9"/>
<path d="M0.0234375 50.7191L165.202 50.7191V63.79C163.998 64.0387 162.76 64.5172 161.51 64.5172C108.604 64.5555 55.6985 64.5555 2.79256 64.5172C1.86952 64.5172 0.946477 64.2301 0.0234375 64.077L0.0234375 50.7191Z" fill="#D9D9D9"/>
<path d="M0.0234375 392.152L165.157 392.152C165.315 395.348 165.45 397.97 165.63 401.683L0.0234375 401.683L0.0234375 392.152Z" fill="#D9D9D9"/>
<path d="M0.0234375 346.375L165.191 346.375C165.326 349.399 165.45 352.001 165.619 355.905L0.0234375 355.905L0.0234375 346.375Z" fill="#D9D9D9"/>
<path d="M0.0234375 327.295C44.8696 327.39 89.7271 327.505 134.573 327.582C144.603 327.601 154.633 327.582 165.124 327.582C165.292 330.663 165.428 333.266 165.619 336.825L0.0234375 336.825L0.0234375 327.295Z" fill="#D9D9D9"/>
<path d="M0.0234375 294.875C5.04387 295.028 10.053 295.277 15.0735 295.296C62.7113 295.334 110.349 295.296 157.987 295.296H165.112C165.281 298.358 165.428 300.941 165.619 304.405L0.0234375 304.405L0.0234375 294.875Z" fill="#D9D9D9"/>
<path d="M0.0234375 180.413L165.349 180.413V189.599H158.572C107.952 189.599 57.3307 189.599 6.70984 189.599C4.48104 189.599 2.25224 189.81 0.0234375 189.925L0.0234375 180.394L0.0234375 180.413Z" fill="#D9D9D9"/>
<path d="M0.0234375 151.805C5.04387 151.958 10.053 152.206 15.0735 152.226C62.7113 152.264 110.349 152.226 157.987 152.226H165.112C165.281 155.288 165.428 157.871 165.619 161.335L0.0234375 161.335L0.0234375 151.805Z" fill="#D9D9D9"/>
<path d="M0.0234375 199.495C1.49805 199.246 2.97266 198.806 4.43602 198.806C56.3964 198.767 108.345 198.767 160.306 198.787C163.255 198.787 166.778 197.772 165.101 206.939C163.953 207.15 162.703 207.571 161.454 207.571C108.571 207.609 55.676 207.59 2.79256 207.571C1.86952 207.571 0.946477 207.284 0.0234375 207.13C0.0234375 204.585 0.0234375 202.04 0.0234375 199.495Z" fill="#D9D9D9"/>
<path d="M0.0234375 167.076C0.946477 166.904 1.86952 166.598 2.79256 166.598C55.8673 166.578 108.942 166.578 162.017 166.598C162.929 166.598 163.852 166.827 164.876 166.961C166.553 173.315 165.293 175.592 161.443 175.439C155.297 175.19 149.151 175.382 143.004 175.382C97.5617 175.382 52.1301 175.382 6.68733 175.363C4.46979 175.363 2.25224 174.942 0.0234375 174.712C0.0234375 172.167 0.0234375 169.621 0.0234375 167.076Z" fill="#D9D9D9"/>
<path d="M0.0234375 424.57L167.533 424.57C167.589 425.776 167.645 426.982 167.69 428.206C165.574 428.589 163.446 429.316 161.33 429.316C109.955 429.374 58.5802 429.355 7.19388 429.412C4.80748 429.412 2.40983 429.986 0.0234375 430.312L0.0234375 424.589L0.0234375 424.57Z" fill="#D9D9D9"/>
<path d="M0.0234375 8.75154C4.85251 8.90464 9.69284 9.17257 14.5219 9.17257C63.488 9.21085 112.465 9.17259 161.432 9.24914C163.525 9.24914 165.619 10.0337 167.713 10.4548L167.533 14.4736L0.0234375 14.4736C0.0234375 12.579 0.0234375 10.6653 0.0234375 8.75154Z" fill="#D9D9D9"/>
<path d="M0.0234375 405.49C2.24098 405.7 4.46979 406.083 6.68733 406.083C57.5333 406.121 108.368 406.083 159.214 406.16C161.319 406.16 163.435 406.963 165.54 407.404C165.484 408.667 165.416 409.949 165.36 411.212L0.0234375 411.212L0.0234375 405.49Z" fill="#D9D9D9"/>
<path d="M0.0234375 382.601C22.3677 382.716 44.7121 382.907 67.0564 382.946C97.7868 383.003 128.517 382.946 159.248 382.984C161.319 382.984 163.379 383.405 165.45 383.615C165.484 384.687 165.518 385.759 165.54 386.831C163.627 387.232 161.724 387.979 159.811 387.998C108.784 388.055 57.7472 388.036 6.7211 388.055C4.4923 388.055 2.25224 388.228 0.0234375 388.323L0.0234375 382.601Z" fill="#D9D9D9"/>
<path d="M0.0234375 262.437C2.24098 262.647 4.46979 263.03 6.68733 263.03C57.5333 263.068 108.368 263.03 159.214 263.106C161.319 263.106 163.435 263.91 165.54 264.331C165.484 265.594 165.416 266.877 165.36 268.14L0.0234375 268.14L0.0234375 262.418L0.0234375 262.437Z" fill="#D9D9D9"/>
<path d="M0.0234375 230.019C2.42109 230.307 4.81874 230.842 7.21639 230.842C57.8597 230.9 108.503 230.862 159.158 230.938C161.285 230.938 163.401 231.704 165.529 232.125C165.473 233.33 165.416 234.555 165.36 235.761L0.0234375 235.761C0.0234375 233.828 0.0234375 231.933 0.0234375 230.019Z" fill="#D9D9D9"/>
<path d="M0.0234375 138.465L165.349 138.465C165.405 139.67 165.461 140.857 165.518 142.063C163.39 142.465 161.263 143.211 159.135 143.211C108.492 143.268 57.8485 143.249 7.20513 143.307C4.80748 143.307 2.42109 143.881 0.0234375 144.206C0.0234375 142.292 0.0234375 140.398 0.0234375 138.484L0.0234375 138.465Z" fill="#D9D9D9"/>
<path d="M0.0234375 106.027L165.225 106.027C165.371 106.792 165.518 107.577 165.675 108.343C164.82 109.223 164.021 110.658 163.109 110.888C161.465 111.328 159.766 111.06 158.088 111.06C107.805 111.06 57.5333 111.06 7.25016 111.098C4.84125 111.098 2.4436 111.519 0.0346941 111.749C0.0346941 109.835 0.0346941 107.941 0.0346941 106.027H0.0234375Z" fill="#D9D9D9"/>
<path d="M0.0234375 73.609C53.0982 73.6855 106.173 73.7429 159.248 73.8386C161.319 73.8386 163.39 74.1831 165.461 74.3553C165.484 75.427 165.506 76.4987 165.54 77.5704C163.435 77.9914 161.341 78.7952 159.236 78.7952C108.391 78.8718 57.5558 78.8526 6.70984 78.8718C4.48104 78.8718 2.25224 79.178 0.0346941 79.3311C0.0346941 77.4173 0.0346941 75.5227 0.0346941 73.609H0.0234375Z" fill="#D9D9D9"/>
<path d="M0.0229753 41.1894C40.0626 41.2851 80.1023 41.3999 120.142 41.4765C133.368 41.4956 146.584 41.4573 159.81 41.5148C161.679 41.5148 163.559 41.9167 165.427 42.1272C165.461 43.1797 165.506 44.2323 165.54 45.304C163.626 45.725 161.712 46.5096 159.799 46.5288C111.193 46.6053 62.587 46.5671 13.9699 46.6053C9.32091 46.6053 4.67194 46.8158 0.0117188 46.9307L0.0117188 41.2085L0.0229753 41.1894Z" fill="#D9D9D9"/>
<path d="M0.0234375 222.384C3.73811 222.231 7.46404 221.963 11.1787 221.963C61.2705 221.943 111.374 221.943 161.465 221.963C163.514 221.963 165.551 222.422 167.6 222.671C167.566 223.838 167.521 225.005 167.488 226.173L0.0234375 226.173L0.0234375 222.364L0.0234375 222.384Z" fill="#D9D9D9"/>
<path d="M0.0234375 434.101L167.465 434.101C167.533 435.077 167.6 436.053 167.668 437.029C165.788 437.45 163.897 438.254 162.017 438.254C123.654 438.33 85.292 438.349 46.9296 438.292C31.2942 438.273 15.6588 438.043 0.0234375 437.909L0.0234375 434.101Z" fill="#D9D9D9"/>
<path d="M0.0234375 1.13442C1.85826 0.847356 3.70434 0.330677 5.53916 0.330677C57.5108 0.292402 109.494 0.292402 161.465 0.330677C163.503 0.330677 165.54 0.904785 167.578 1.21098C167.533 2.45492 167.499 3.71798 167.454 4.96191L0.0234375 4.96191C0.0234375 3.6797 0.0234375 2.39749 0.0234375 1.13442Z" fill="#D9D9D9"/>
<path d="M0.0234375 212.853L167.476 212.853C167.476 214.116 167.476 215.398 167.476 216.661L0.0234375 216.661L0.0234375 212.853Z" fill="#D9D9D9"/>
<path d="M0.0234375 313.937L165.293 313.937C165.36 314.951 165.439 315.966 165.506 316.961C163.615 317.439 161.735 318.339 159.844 318.358C133.391 318.454 106.927 318.415 80.4742 318.415C55.8786 318.415 31.283 318.415 6.68733 318.377C4.46979 318.377 2.24098 317.956 0.0234375 317.726L0.0234375 313.918L0.0234375 313.937Z" fill="#D9D9D9"/>
<path d="M0.0234375 115.576L165.281 115.576C165.349 116.571 165.428 117.566 165.495 118.561C163.604 119.021 161.724 119.882 159.833 119.901C129.091 119.977 98.3496 120.035 67.6192 119.939C45.0835 119.863 22.5591 119.576 0.0234375 119.384L0.0234375 115.576Z" fill="#D9D9D9"/>
<path d="M0.0234375 24.0223C1.88077 23.85 3.72685 23.5247 5.58419 23.5247C56.8129 23.5056 108.042 23.4865 159.281 23.5247C161.319 23.5247 163.368 24.0032 165.405 24.2711L165.293 27.8115L0.0234375 27.8115C0.0234375 26.5676 0.0234375 25.2854 0.0234375 24.0223Z" fill="#D9D9D9"/>
</svg>
