<svg width="274" height="164" viewBox="0 0 274 164" fill="none" xmlns="http://www.w3.org/2000/svg">
<path d="M26.0631 27.8105C31.0587 27.0195 34.3186 24.6489 35.9251 20.1404C37.538 20.2472 39.1232 20.35 40.9607 20.4703C41.3038 19.2 41.6029 17.9875 41.9566 16.7893C43.9881 9.83038 51.2898 5.26082 59.2425 5.97732C60.6332 6.10303 62.0229 6.33113 63.4093 6.53314C118.632 14.5791 173.848 22.624 229.07 30.6699C241.063 32.4172 246.453 38.3169 246.035 49.2728C246.026 49.5727 246.122 49.8815 246.196 50.3859C247.623 50.6963 249.071 51.0098 250.512 51.3223C252.816 58.3169 253.365 58.9672 258.862 61.1589C258.892 62.1117 258.919 63.1283 258.949 64.0811C267.193 66.9486 268.584 69.0931 267.43 76.917C265.118 92.6023 262.806 108.281 260.494 123.967C259.431 131.176 257.018 133.131 249.026 133.261C249.17 133.532 249.313 133.81 249.45 134.079C247.84 134.864 246.197 135.586 244.634 136.441C242.794 137.442 240.466 138.199 239.36 139.698C237.635 142.029 236.668 144.747 233.474 142.878C231.141 146.595 229.572 150.275 226.894 153.07C223.103 157.024 217.737 157.876 211.915 157.021C175.534 151.676 139.136 146.398 102.748 141.096C83.3379 138.268 63.9344 135.441 44.5231 132.619C32.2529 130.832 27.2201 125.439 27.3659 114.219C27.3697 113.81 27.2389 113.4 27.1586 112.888C25.6473 112.572 24.1846 112.262 22.5921 111.921C22.0953 107.606 20.3209 104.175 15.4689 102.456C14.6819 102.175 14.5171 100.363 13.9816 99.0476C6.18152 96.2384 4.78048 94.2141 5.89697 86.449C8.21504 70.3415 10.5895 54.2358 13.0046 38.1425C13.8473 32.5229 16.6681 30.4408 22.8601 30.0356C24.0044 29.9587 25.0061 28.5922 26.0751 27.8251L26.0631 27.8105Z" fill="#0C081E"/>
<g clip-path="url(#clip0_563_2166)">
<path d="M225.128 59.66C225.019 60.4187 224.915 61.1786 224.796 61.936C224.766 62.1226 224.824 62.1836 225.001 62.1999C225.255 62.2241 225.509 62.2594 225.76 62.3085C225.935 62.3424 226.015 62.3045 226.031 62.1135C226.053 61.8515 226.112 61.593 226.136 61.3307C226.154 61.1311 226.245 61.0859 226.428 61.1187C226.695 61.1667 226.963 61.2056 227.233 61.2347C227.403 61.2529 227.454 61.3217 227.427 61.4928C227.322 62.1662 227.239 62.843 227.129 63.5155C227.093 63.7332 227.158 63.8041 227.367 63.8213C227.629 63.8428 227.888 63.8972 228.149 63.928C228.301 63.9459 228.346 64.0177 228.322 64.1629C228.276 64.4459 228.245 64.7311 228.196 65.0132C228.17 65.1642 228.221 65.2199 228.369 65.2401C229.068 65.3344 229.766 65.4342 230.462 65.5395C230.614 65.5626 230.674 65.513 230.692 65.3655C230.726 65.0812 230.768 64.7971 230.813 64.5145C230.834 64.3863 230.789 64.3287 230.661 64.3122C230.377 64.2763 230.095 64.2255 229.81 64.1942C229.642 64.1759 229.58 64.1101 229.612 63.9375C229.659 63.6865 229.671 63.4282 229.728 63.1802C229.784 62.9391 229.698 62.8632 229.469 62.8479C229.222 62.8309 228.979 62.7745 228.732 62.7486C228.568 62.7312 228.5 62.6726 228.533 62.4958C228.584 62.2221 228.623 61.945 228.652 61.6681C228.671 61.493 228.751 61.4518 228.916 61.4759C230.855 61.7565 232.795 62.0354 234.735 62.3068C234.935 62.335 234.967 62.4186 234.939 62.6002C234.834 63.2735 234.75 63.9502 234.642 64.6231C234.612 64.8092 234.664 64.8734 234.844 64.8907C235.106 64.916 235.367 64.9529 235.626 65.0025C235.811 65.038 235.874 64.9685 235.892 64.792C235.92 64.5149 235.972 64.2401 236.006 63.9635C236.024 63.8268 236.083 63.777 236.223 63.8003C236.498 63.8462 236.777 63.871 237.05 63.9238C237.227 63.958 237.303 63.9195 237.32 63.7296C237.344 63.4524 237.398 63.1777 237.432 62.9008C237.447 62.769 237.496 62.7022 237.64 62.7246C237.946 62.7717 238.252 62.8151 238.56 62.8567C238.696 62.8752 238.745 62.9438 238.718 63.0801C238.694 63.2012 238.682 63.325 238.664 63.4481C237.809 69.4285 236.954 75.4086 236.097 81.3889C236.05 81.7197 236.049 81.7205 235.723 81.6744C235.071 81.5811 234.421 81.4815 233.767 81.3984C233.573 81.3738 233.518 81.2968 233.552 81.11C233.602 80.8434 233.638 80.5746 233.668 80.3051C233.686 80.1371 233.753 80.08 233.926 80.1107C234.252 80.1687 234.582 80.2079 234.922 80.2566C234.944 80.1896 234.966 80.1415 234.974 80.0914C235.076 79.3862 235.173 78.6803 235.28 77.9759C235.304 77.8185 235.267 77.7572 235.102 77.7355C234.411 77.6451 233.72 77.5464 233.032 77.4395C232.857 77.4125 232.798 77.4686 232.782 77.6369C232.755 77.9063 232.701 78.173 232.673 78.4426C232.655 78.6117 232.589 78.6708 232.416 78.6396C232.142 78.5901 231.864 78.563 231.589 78.517C231.44 78.492 231.377 78.5418 231.36 78.6911C231.327 78.9755 231.286 79.2597 231.238 79.542C231.214 79.6839 231.265 79.7376 231.401 79.7539C231.678 79.7869 231.953 79.8412 232.23 79.8673C232.418 79.8847 232.458 79.9624 232.43 80.1399C232.328 80.798 232.238 81.458 232.144 82.1173C232.132 82.2002 232.12 82.2836 232.103 82.4052C232.437 82.453 232.754 82.5125 233.074 82.5395C233.309 82.5594 233.383 82.6461 233.331 82.8795C233.276 83.1283 233.248 83.3837 233.221 83.638C233.203 83.8042 233.138 83.8701 232.965 83.8392C232.683 83.7895 232.398 83.7497 232.114 83.7175C231.948 83.6989 231.911 83.6208 231.937 83.467C231.985 83.1848 232.015 82.899 232.063 82.6167C232.088 82.467 232.037 82.4076 231.888 82.3909C231.611 82.3603 231.334 82.323 231.06 82.272C230.892 82.2405 230.839 82.3077 230.822 82.4594C230.79 82.7285 230.737 82.9954 230.711 83.2649C230.692 83.4616 230.606 83.5118 230.42 83.4757C230.162 83.426 229.9 83.3895 229.638 83.3638C229.46 83.3464 229.395 83.2802 229.43 83.0953C229.482 82.8215 229.507 82.5431 229.553 82.2681C229.577 82.1267 229.548 82.0543 229.39 82.0332C228.684 81.9383 227.979 81.8365 227.274 81.731C227.136 81.7103 227.074 81.7513 227.058 81.8905C227.023 82.1746 226.971 82.4573 226.94 82.742C226.923 82.9082 226.863 82.9665 226.687 82.9414C223.483 82.4793 220.279 82.0209 217.073 81.5662C216.913 81.5433 216.861 81.4776 216.888 81.3202C216.934 81.0452 216.962 80.767 217.011 80.4929C217.041 80.3265 216.996 80.2576 216.821 80.2349C216.137 80.1461 215.457 80.0374 214.773 79.949C214.581 79.9244 214.533 79.854 214.561 79.6634C214.783 78.1541 215 76.6436 215.208 75.1322C215.237 74.922 215.32 74.8784 215.514 74.9164C215.787 74.9696 216.064 75.0065 216.341 75.0324C216.397 75.0376 216.506 74.97 216.513 74.9235C216.634 74.1514 216.742 73.3779 216.858 72.5661C216.521 72.518 216.203 72.4584 215.882 72.4313C215.652 72.412 215.595 72.3174 215.642 72.1022C215.689 71.8833 215.709 71.6581 215.741 71.436C215.769 71.2376 215.68 71.1236 215.474 71.0942C214.83 71.002 214.187 70.9007 213.542 70.8225C213.322 70.7957 213.27 70.7112 213.311 70.5051C213.364 70.2475 213.395 69.9849 213.425 69.7235C213.443 69.5657 213.508 69.5098 213.67 69.5381C213.952 69.5873 214.238 69.6156 214.52 69.6644C214.672 69.6909 214.73 69.637 214.747 69.4895C214.779 69.2125 214.817 68.9359 214.866 68.6617C214.894 68.5036 214.848 68.4339 214.685 68.4159C214.409 68.3852 214.134 68.3313 213.857 68.302C213.681 68.2835 213.637 68.2029 213.665 68.0386C213.712 67.7638 213.742 67.4864 213.788 67.2113C213.809 67.0822 213.788 67.0102 213.638 66.9897C212.924 66.8932 212.212 66.7908 211.499 66.6837C211.351 66.6615 211.309 66.7256 211.293 66.8555C211.263 67.1093 211.209 67.3605 211.191 67.6152C211.175 67.8446 211.098 67.914 210.857 67.8763C209.809 67.7131 208.757 67.5707 207.707 67.4205C207.495 67.3902 207.373 67.4844 207.342 67.7031C207.312 67.9178 207.292 68.1351 207.247 68.3462C207.203 68.5469 207.245 68.6318 207.47 68.6588C208.139 68.738 208.804 68.8506 209.472 68.9353C209.667 68.96 209.717 69.0352 209.681 69.2215C209.629 69.4951 209.595 69.7723 209.561 70.0492C209.545 70.1869 209.482 70.2372 209.346 70.2172C208.212 70.0531 207.077 69.8903 205.942 69.7303C205.791 69.7088 205.754 69.6353 205.776 69.4908C205.881 68.7861 205.983 68.0809 206.079 67.3747C206.101 67.2091 206.179 67.1719 206.331 67.1969C206.613 67.2438 206.899 67.2739 207.181 67.3223C207.332 67.3482 207.386 67.2956 207.406 67.148C207.5 66.4497 207.599 65.7516 207.705 65.055C207.728 64.9023 207.676 64.844 207.531 64.8265C207.247 64.7915 206.964 64.7417 206.68 64.7076C206.524 64.6886 206.466 64.6258 206.495 64.4631C206.547 64.1813 206.585 63.8967 206.618 63.6123C206.635 63.4713 206.699 63.4264 206.834 63.4471C207.117 63.4909 207.402 63.5223 207.684 63.5711C207.847 63.5991 207.926 63.5615 207.945 63.3828C207.981 63.0461 208.038 62.712 208.09 62.3462C207.742 62.2964 207.417 62.24 207.088 62.2066C206.892 62.187 206.815 62.1238 206.859 61.9143C206.914 61.6495 206.944 61.3788 206.976 61.1097C206.993 60.9622 207.057 60.9103 207.206 60.932C207.919 61.0377 208.631 61.1401 209.345 61.238C209.5 61.2592 209.533 61.3367 209.509 61.4772C209.464 61.7523 209.436 62.0304 209.386 62.3045C209.357 62.463 209.403 62.5302 209.565 62.5496C209.911 62.5915 210.254 62.6477 210.599 62.698C210.555 63.0354 210.501 63.3717 210.47 63.7106C210.451 63.926 210.367 63.9774 210.156 63.943C209.484 63.8341 208.807 63.75 208.134 63.6462C207.973 63.6214 207.911 63.6632 207.895 63.8259C207.869 64.0879 207.836 64.3501 207.782 64.6071C207.74 64.8062 207.815 64.8586 207.998 64.8821C208.666 64.9678 209.332 65.0766 210 65.1599C210.208 65.186 210.258 65.2674 210.22 65.4631C210.168 65.7288 210.145 65.9997 210.099 66.2667C210.075 66.4094 210.107 66.4836 210.264 66.5013C210.548 66.5336 210.832 66.5737 211.114 66.623C211.269 66.6503 211.321 66.5906 211.338 66.4458C211.369 66.1766 211.422 65.9102 211.448 65.6407C211.467 65.444 211.538 65.3682 211.745 65.4101C212.01 65.464 212.282 65.4845 212.549 65.5307C212.699 65.5563 212.76 65.5073 212.777 65.3578C212.808 65.0811 212.847 64.8046 212.895 64.5304C212.921 64.3799 212.871 64.3196 212.723 64.3031C212.469 64.2748 212.218 64.2191 211.964 64.2006C211.734 64.1837 211.65 64.1021 211.701 63.8641C211.757 63.6074 211.775 63.3429 211.82 63.0836C211.845 62.9377 211.803 62.8706 211.65 62.8525C211.296 62.8099 210.944 62.7544 210.592 62.704C210.705 61.9304 210.815 61.1563 210.935 60.384C210.961 60.2139 210.873 60.1895 210.744 60.1715C210.054 60.0751 209.365 59.9705 208.674 59.8797C208.507 59.8577 208.444 59.804 208.477 59.6282C208.528 59.3544 208.566 59.0776 208.596 58.8008C208.614 58.636 208.673 58.5767 208.849 58.6025C210.374 58.8266 211.899 59.0442 213.425 59.2578C213.603 59.2828 213.664 59.3475 213.629 59.5297C213.576 59.8107 213.538 60.0953 213.51 60.38C213.505 60.438 213.567 60.5494 213.612 60.5572C213.968 60.6218 214.328 60.6672 214.716 60.7227C214.767 60.3689 214.823 60.0421 214.857 59.7133C214.878 59.5188 214.957 59.4652 215.147 59.5027C215.412 59.5553 215.682 59.5877 215.951 59.6196C216.105 59.6378 216.168 59.6976 216.138 59.8618C216.087 60.1511 216.048 60.443 216.013 60.7352C215.996 60.8748 215.936 60.9193 215.799 60.8968C215.516 60.8498 215.231 60.8208 214.949 60.7706C214.793 60.7427 214.718 60.7822 214.699 60.946C214.667 61.2304 214.624 61.514 214.579 61.7967C214.557 61.9345 214.606 61.9928 214.744 62.012C215.442 62.1077 216.139 62.2051 216.836 62.3127C217.022 62.3416 217.059 62.2544 217.08 62.1013C217.179 61.3801 217.284 60.6603 217.387 59.9398C217.677 57.9168 217.966 55.8933 218.256 53.8704C218.285 53.668 218.4 53.581 218.602 53.6092C219.759 53.7714 220.917 53.9333 222.074 54.0955C222.024 54.4405 221.963 54.7844 221.928 55.1305C221.908 55.3293 221.827 55.3737 221.642 55.3374C221.384 55.2868 221.12 55.2674 220.861 55.2201C220.698 55.1902 220.638 55.2468 220.62 55.4046C220.591 55.674 220.537 55.9405 220.511 56.2103C220.493 56.3892 220.423 56.4522 220.241 56.418C219.967 56.3671 219.688 56.3409 219.414 56.2946C219.272 56.2705 219.201 56.3051 219.179 56.4599C218.963 58.0011 218.742 59.5417 218.518 61.0822C218.498 61.225 218.547 61.2772 218.682 61.2938C218.967 61.3283 219.251 61.3653 219.533 61.4164C219.701 61.4471 219.751 61.3776 219.768 61.2257C219.796 60.9721 219.852 60.7207 219.87 60.4665C219.887 60.2324 219.992 60.183 220.204 60.2269C220.431 60.274 220.666 60.2846 220.892 60.3324C221.094 60.3755 221.188 60.3301 221.207 60.1072C221.236 59.7761 221.295 59.4475 221.342 59.1176C221.701 59.1689 222.061 59.2176 222.419 59.2744C222.553 59.296 222.619 59.2594 222.636 59.1179C222.671 58.8268 222.711 58.5363 222.761 58.2473C222.786 58.1055 222.734 58.0488 222.601 58.0311C222.31 57.9928 222.019 57.955 221.73 57.9047C221.567 57.8766 221.514 57.9396 221.496 58.095C221.456 58.4395 221.399 58.7825 221.349 59.1256C220.996 59.0771 220.644 59.0243 220.291 58.9818C220.14 58.964 220.094 58.8964 220.119 58.7499C220.166 58.4674 220.21 58.1842 220.239 57.8993C220.258 57.7204 220.344 57.6829 220.505 57.7106C220.756 57.7541 221.013 57.7702 221.262 57.8259C221.482 57.8753 221.548 57.794 221.566 57.5892C221.588 57.3273 221.643 57.0685 221.672 56.8071C221.689 56.6585 221.751 56.6073 221.901 56.6324C222.175 56.6792 222.453 56.7058 222.727 56.7558C222.9 56.7871 222.979 56.7467 223.004 56.5589C223.092 55.8757 223.19 55.1939 223.296 54.5133C223.324 54.3349 223.261 54.2817 223.098 54.2602C222.753 54.2156 222.411 54.1549 222.067 54.1006C222.173 53.3489 222.273 52.5969 222.388 51.8465C222.415 51.6699 222.384 51.5926 222.193 51.577C221.923 51.5549 221.654 51.5113 221.388 51.4632C221.239 51.4368 221.176 51.4763 221.16 51.6305C221.129 51.9152 221.076 52.1977 221.043 52.4821C221.025 52.6324 220.956 52.6812 220.81 52.6585C220.512 52.6116 220.213 52.5684 219.913 52.5302C219.773 52.512 219.734 52.4435 219.757 52.308C219.804 52.0177 219.835 51.7245 219.886 51.4346C219.91 51.2915 219.863 51.2414 219.724 51.2258C219.44 51.1936 219.157 51.1409 218.873 51.1087C218.715 51.0909 218.656 51.0279 218.683 50.8667C218.73 50.5919 218.776 50.3159 218.8 50.0386C218.819 49.818 218.927 49.8021 219.113 49.8291C221.083 50.1155 223.054 50.395 225.024 50.6769C225.783 50.7855 226.542 50.894 227.301 51.0026C227.523 51.0344 227.62 51.1578 227.59 51.3729C227.556 51.6186 227.527 51.8652 227.482 52.1083C227.451 52.2718 227.509 52.3266 227.667 52.3478C228.35 52.4385 229.031 52.5448 229.715 52.6346C229.898 52.6584 229.975 52.7146 229.935 52.9143C229.881 53.1798 229.847 53.4494 229.819 53.719C229.8 53.8931 229.722 53.9398 229.556 53.9108C229.274 53.8615 228.99 53.819 228.705 53.7942C228.643 53.7888 228.527 53.8633 228.517 53.916C228.452 54.2649 228.409 54.6175 228.354 55.0036C228.694 55.0522 229.012 55.1085 229.333 55.1398C229.539 55.1599 229.607 55.2274 229.574 55.4474C229.35 56.949 229.137 58.4516 228.927 59.9552C228.902 60.1373 228.846 60.2163 228.648 60.1776C228.374 60.1244 228.097 60.0899 227.82 60.0582C227.672 60.0414 227.619 59.9829 227.645 59.8315C227.693 59.5493 227.721 59.2632 227.77 58.9811C227.795 58.8357 227.761 58.7635 227.607 58.7448C227.323 58.7107 227.039 58.6692 226.756 58.6236C226.612 58.6006 226.542 58.6414 226.526 58.7965C226.495 59.0812 226.442 59.3633 226.408 59.648C226.39 59.7945 226.329 59.8487 226.178 59.8234C225.827 59.7647 225.474 59.7166 225.121 59.6643C225.228 58.9057 225.342 58.1476 225.439 57.3878C225.464 57.1948 225.534 57.1479 225.723 57.1778C226.404 57.2854 227.087 57.3728 227.768 57.4768C227.927 57.5009 227.99 57.4564 228.012 57.2955C228.105 56.5975 228.206 55.9001 228.31 55.2037C228.331 55.0679 228.297 55.0024 228.155 54.985C227.863 54.9493 227.572 54.9077 227.281 54.86C227.144 54.8376 227.082 54.8804 227.066 55.021C227.035 55.2823 226.976 55.5413 226.96 55.8028C226.945 56.0498 226.84 56.0869 226.617 56.0503C225.975 55.9449 225.329 55.8689 224.687 55.7654C224.474 55.7312 224.371 55.7676 224.355 56.0037C224.337 56.2654 224.279 56.5242 224.25 56.7855C224.233 56.934 224.172 56.9832 224.021 56.9568C223.739 56.9071 223.453 56.8775 223.171 56.8306C223.037 56.8082 222.97 56.8395 222.953 56.9847C222.919 57.277 222.877 57.568 222.828 57.8582C222.805 57.9996 222.858 58.0537 222.993 58.0703C223.278 58.1049 223.56 58.1556 223.844 58.1883C223.996 58.2057 224.041 58.2705 224.016 58.4188C223.967 58.7089 223.935 59.0015 223.888 59.2918C223.865 59.4296 223.91 59.4892 224.049 59.5067C224.41 59.5517 224.77 59.6069 225.13 59.658L225.128 59.66ZM224.405 64.6792C224.511 63.9206 224.614 63.1614 224.727 62.4038C224.752 62.2385 224.717 62.1616 224.54 62.1442C224.262 62.1168 223.987 62.0727 223.712 62.0273C223.571 62.0038 223.493 62.0354 223.472 62.1904C223.375 62.8959 223.274 63.6011 223.169 64.3055C223.149 64.444 223.196 64.5021 223.334 64.5199C223.695 64.5659 224.054 64.6216 224.414 64.673C224.361 65.0331 224.311 65.3935 224.254 65.7526C224.234 65.8744 224.266 65.9433 224.397 65.9621C225.532 66.1225 226.666 66.2838 227.8 66.4488C227.935 66.468 227.981 66.4102 227.996 66.2887C228.034 65.997 228.072 65.7054 228.121 65.4152C228.146 65.2679 228.101 65.2027 227.95 65.1858C227.673 65.1547 227.399 65.1008 227.122 65.0729C226.95 65.056 226.897 64.9929 226.928 64.8197C226.987 64.4938 227.026 64.1641 227.077 63.8039C226.688 63.7481 226.323 63.6898 225.956 63.6514C225.913 63.6472 225.827 63.7477 225.815 63.81C225.763 64.0836 225.722 64.3599 225.694 64.6369C225.676 64.806 225.613 64.8633 225.439 64.8328C225.097 64.7725 224.751 64.7296 224.406 64.6798L224.405 64.6792ZM220.093 67.9086C219.779 67.866 219.462 67.8376 219.151 67.7763C218.928 67.7321 218.824 67.7733 218.811 68.0215C218.797 68.2832 218.739 68.5429 218.705 68.8037C218.689 68.9274 218.631 68.9835 218.504 68.9649C218.19 68.919 217.874 68.8827 217.563 68.8218C217.506 68.8108 217.423 68.6987 217.428 68.6398C217.456 68.3316 217.512 68.0261 217.55 67.7189C217.566 67.5876 217.626 67.5497 217.752 67.5696C218.042 67.6154 218.336 67.6469 218.625 67.6983C218.787 67.7266 218.846 67.672 218.867 67.5138C218.959 66.8306 219.055 66.1481 219.161 65.467C219.189 65.2876 219.141 65.2188 218.958 65.195C218.29 65.1083 217.625 65.0004 216.957 64.9161C216.749 64.8902 216.67 64.823 216.715 64.6061C216.767 64.3564 216.78 64.0987 216.831 63.8483C216.869 63.6615 216.821 63.5884 216.624 63.5635C215.941 63.4765 215.26 63.3679 214.576 63.2781C214.407 63.2558 214.35 63.1973 214.382 63.0242C214.434 62.7505 214.472 62.4733 214.498 62.196C214.505 62.1316 214.455 62.0088 214.415 62.0017C214.052 61.9356 213.685 61.8888 213.308 61.8348C213.288 61.9298 213.272 61.9961 213.262 62.0634C213.166 62.7304 213.078 63.3986 212.971 64.0635C212.938 64.2648 212.987 64.3362 213.192 64.3622C213.869 64.4472 214.542 64.5543 215.217 64.6453C215.379 64.667 215.452 64.7155 215.417 64.8958C215.364 65.1768 215.328 65.4617 215.294 65.7465C215.278 65.8871 215.217 65.932 215.08 65.9096C214.805 65.8651 214.526 65.8393 214.253 65.787C214.075 65.7532 213.995 65.7996 213.976 65.9849C213.949 66.2546 213.91 66.5231 213.861 66.7898C213.83 66.9593 213.883 67.0232 214.054 67.0459C214.738 67.1357 215.419 67.2443 216.102 67.3318C216.297 67.3567 216.343 67.4296 216.313 67.6186C216.208 68.2843 216.127 68.9534 216.019 69.6183C215.986 69.8237 216.042 69.8878 216.243 69.9132C216.912 69.997 217.577 70.1068 218.245 70.1906C218.452 70.2169 218.505 70.2955 218.465 70.4929C218.413 70.7506 218.38 71.0129 218.353 71.2746C218.335 71.4484 218.256 71.4982 218.091 71.4704C217.809 71.4229 217.523 71.3906 217.241 71.345C217.104 71.3231 217.041 71.3663 217.025 71.5073C216.991 71.7917 216.951 72.076 216.902 72.3582C216.877 72.5059 216.92 72.5703 217.072 72.5874C217.357 72.6192 217.639 72.6714 217.924 72.7045C218.078 72.7224 218.138 72.7818 218.114 72.9461C218.007 73.6506 217.907 74.356 217.81 75.062C217.79 75.2133 217.722 75.2572 217.577 75.2336C217.286 75.1859 216.994 75.1525 216.703 75.1049C216.566 75.0825 216.506 75.1247 216.487 75.2649C216.391 75.9709 216.29 76.6762 216.184 77.3809C216.164 77.5185 216.202 77.5814 216.342 77.599C216.634 77.6352 216.926 77.6773 217.216 77.7241C217.356 77.7464 217.413 77.6949 217.43 77.5571C217.462 77.2802 217.516 77.0058 217.542 76.7284C217.56 76.5424 217.637 76.4979 217.815 76.5258C218.488 76.6301 219.165 76.7151 219.838 76.8231C220.042 76.856 220.11 76.7976 220.136 76.5968C220.222 75.9208 220.329 75.2474 220.418 74.5719C220.441 74.403 220.504 74.3453 220.676 74.3764C220.95 74.4265 221.228 74.4549 221.503 74.4981C221.637 74.5192 221.704 74.4779 221.721 74.336C221.755 74.0438 221.807 73.7535 221.842 73.4615C221.859 73.3229 221.921 73.2748 222.058 73.2968C222.341 73.342 222.625 73.3896 222.909 73.4162C223.106 73.4345 223.149 73.5168 223.12 73.7035C223.016 74.3693 222.932 75.0382 222.826 75.7033C222.795 75.9019 222.839 75.9764 223.046 76.0022C223.722 76.0862 224.395 76.1961 225.071 76.2829C225.254 76.3063 225.307 76.3726 225.272 76.5529C225.219 76.8265 225.196 77.1052 225.147 77.3799C225.121 77.5307 225.171 77.5868 225.32 77.6053C225.734 77.6566 226.148 77.7209 226.562 77.7801C228.08 77.9973 229.599 78.2112 231.116 78.4357C231.317 78.4654 231.399 78.4179 231.415 78.2119C231.433 77.9729 231.491 77.7372 231.51 77.4982C231.526 77.2801 231.604 77.2018 231.832 77.2486C232.141 77.3121 232.458 77.3427 232.807 77.3928C232.857 77.044 232.895 76.7152 232.954 76.3898C232.986 76.2092 232.935 76.1435 232.752 76.1197C232.084 76.0335 231.418 75.9266 230.75 75.84C230.549 75.814 230.46 75.7543 230.51 75.5315C230.567 75.275 230.582 75.0096 230.629 74.7507C230.657 74.594 230.616 74.5228 230.451 74.5063C230.198 74.4808 229.943 74.4485 229.693 74.3968C229.487 74.3543 229.404 74.4035 229.377 74.6244C229.295 75.3008 229.186 75.974 229.095 76.6493C229.073 76.8167 229.007 76.8751 228.836 76.8435C228.554 76.7919 228.269 76.754 227.985 76.7218C227.831 76.7041 227.791 76.6339 227.817 76.489C227.859 76.245 227.889 75.9986 227.924 75.7531C227.954 75.5443 227.865 75.425 227.657 75.3952C226.592 75.2428 225.526 75.0885 224.46 74.9393C224.291 74.9156 224.183 74.8758 224.228 74.6636C224.282 74.4066 224.318 74.1438 224.34 73.8822C224.357 73.6703 224.45 73.6334 224.645 73.6639C225.318 73.7701 225.994 73.856 226.667 73.9603C226.838 73.9865 226.908 73.9421 226.926 73.7692C226.952 73.5074 227.009 73.2484 227.032 72.9866C227.05 72.7777 227.141 72.7338 227.338 72.7648C228.019 72.8716 228.703 72.9604 229.384 73.0626C229.515 73.0822 229.59 73.0653 229.611 72.9174C229.77 71.7901 229.93 70.6626 230.094 69.5361C230.113 69.3983 230.069 69.3374 229.929 69.3207C229.645 69.2871 229.362 69.2349 229.077 69.2031C228.918 69.1855 228.864 69.1233 228.893 68.9614C228.943 68.6794 228.972 68.3935 229.019 68.1111C229.044 67.9675 229.008 67.8937 228.853 67.8758C228.569 67.8431 228.285 67.8006 228.002 67.755C227.853 67.7308 227.796 67.7862 227.776 67.9347C227.684 68.6258 227.586 69.316 227.48 70.0048C227.457 70.1617 227.495 70.2339 227.659 70.2517C227.935 70.2823 228.21 70.3343 228.487 70.366C228.643 70.3841 228.703 70.4466 228.674 70.6089C228.625 70.8831 228.581 71.1593 228.556 71.4369C228.539 71.6319 228.462 71.6788 228.273 71.6489C227.6 71.5427 226.923 71.4573 226.25 71.352C226.075 71.3246 225.996 71.3575 225.98 71.5475C225.957 71.8173 225.899 72.0836 225.871 72.3533C225.854 72.5281 225.778 72.575 225.612 72.5456C225.353 72.4991 225.091 72.4594 224.83 72.4352C224.622 72.4162 224.547 72.3387 224.59 72.1216C224.652 71.8051 224.685 71.4827 224.734 71.139C224.374 71.0875 224.047 71.0322 223.717 70.9968C223.544 70.9781 223.499 70.9125 223.526 70.7414C223.633 70.0524 223.733 69.3625 223.821 68.6713C223.845 68.4825 223.915 68.4422 224.092 68.4745C224.416 68.5331 224.744 68.5715 225.094 68.6215C225.15 68.2249 225.209 67.867 225.245 67.5068C225.249 67.4567 225.149 67.3587 225.085 67.3458C224.804 67.2901 224.52 67.2522 224.235 67.2196C224.087 67.2026 224.034 67.1457 224.063 66.9932C224.106 66.7573 224.133 66.5181 224.167 66.2808C224.198 66.0606 224.101 65.9342 223.873 65.9017C223.651 65.8699 223.429 65.8274 223.206 65.8091C223.007 65.7929 222.935 65.72 222.976 65.513C223.031 65.2401 223.054 64.9608 223.099 64.6857C223.122 64.5488 223.081 64.4856 222.94 64.4692C222.686 64.4399 222.435 64.3838 222.18 64.3667C221.95 64.3512 221.883 64.2763 221.921 64.0348C222.087 62.9712 222.226 61.9036 222.389 60.839C222.422 60.6228 222.363 60.5466 222.153 60.5289C221.907 60.5086 221.66 60.4743 221.418 60.4236C221.209 60.3798 221.128 60.4532 221.129 60.6536C221.129 60.6997 221.119 60.7461 221.11 60.7915C221.059 61.0625 221.007 61.333 220.956 61.6039C220.689 61.5756 220.421 61.5485 220.154 61.5183C220.032 61.5046 219.911 61.4841 219.752 61.4614C219.703 61.8102 219.646 62.1363 219.613 62.4649C219.592 62.6669 219.513 62.7253 219.311 62.693C218.653 62.5886 217.991 62.5099 217.335 62.4014C217.108 62.3638 217.03 62.4302 217.015 62.65C216.999 62.8809 216.964 63.1129 216.916 63.3397C216.873 63.5418 216.939 63.6085 217.141 63.6355C218.231 63.782 219.318 63.9455 220.408 64.0953C220.575 64.1183 220.63 64.1751 220.604 64.3486C220.426 65.5356 220.257 66.7239 220.085 67.9117L220.09 67.9074L220.093 67.9086ZM233.716 71.1172C234.086 71.17 234.42 71.2235 234.757 71.2637C234.927 71.2838 234.982 71.3588 234.953 71.5263C234.904 71.8085 234.865 72.0925 234.831 72.3767C234.813 72.5237 234.749 72.5775 234.6 72.5529C234.309 72.5048 234.018 72.4613 233.726 72.4288C233.559 72.4102 233.523 72.3331 233.551 72.1795C233.598 71.9126 233.621 71.6419 233.671 71.3758C233.703 71.2018 233.664 71.1191 233.473 71.1026C233.211 71.0802 232.953 71.0207 232.691 70.9978C232.493 70.9808 232.45 70.8985 232.48 70.7105C232.586 70.0378 232.671 69.3617 232.777 68.6885C232.807 68.4968 232.75 68.4219 232.559 68.4045C232.305 68.3814 232.052 68.3423 231.801 68.297C231.64 68.2684 231.561 68.3013 231.536 68.4805C231.323 70.0062 231.105 71.5307 230.881 73.0548C230.854 73.2348 230.921 73.2875 231.083 73.3055C231.352 73.3351 231.619 73.3869 231.888 73.4164C232.06 73.4355 232.11 73.5131 232.08 73.6799C232.034 73.9311 232.017 74.1876 231.966 74.4376C231.926 74.6391 231.969 74.7233 232.192 74.7529C233.267 74.8939 234.339 75.0492 235.411 75.2123C235.609 75.2426 235.679 75.2036 235.707 74.9961C235.861 73.8451 236.03 72.6969 236.195 71.5474C236.366 70.3518 236.534 69.1564 236.711 67.9617C236.736 67.7932 236.7 67.7237 236.524 67.7075C236.263 67.6832 236.001 67.6471 235.743 67.5948C235.558 67.557 235.501 67.6166 235.478 67.7971C235.391 68.4804 235.283 69.1608 235.193 69.8437C235.171 70.0126 235.107 70.0708 234.937 70.0407C234.647 69.9899 234.356 69.9468 234.063 69.9205C234.003 69.9151 233.887 69.9888 233.877 70.041C233.813 70.3825 233.771 70.7277 233.715 71.1161L233.716 71.1172ZM224.942 78.8403C224.89 79.2015 224.834 79.5287 224.8 79.8586C224.78 80.0499 224.706 80.1047 224.515 80.0745C223.85 79.97 223.183 79.8722 222.515 79.7893C222.304 79.763 222.242 79.6949 222.277 79.4798C222.386 78.8071 222.47 78.1308 222.574 77.4576C222.601 77.287 222.555 77.2221 222.384 77.1995C221.701 77.1088 221.019 77.0122 220.338 76.9059C220.154 76.8773 220.094 76.9355 220.071 77.1136C219.985 77.7815 219.892 78.449 219.784 79.1139C219.75 79.3248 219.818 79.3891 220.015 79.4054C220.254 79.425 220.489 79.4841 220.728 79.4999C220.952 79.5145 220.995 79.611 220.956 79.816C220.896 80.1318 220.861 80.4526 220.814 80.776L227.079 81.6721C227.129 81.3233 227.183 80.9892 227.222 80.6531C227.24 80.4954 227.301 80.4369 227.463 80.4656C227.722 80.5111 227.986 80.5315 228.244 80.5829C228.438 80.6215 228.531 80.5784 228.548 80.3665C228.569 80.1123 228.608 79.8584 228.657 79.6082C228.692 79.4275 228.636 79.3645 228.453 79.3397C227.417 79.2 226.383 79.0474 225.347 78.8993C225.226 78.882 225.105 78.8646 224.942 78.8414L224.942 78.8403ZM232.022 65.1096C231.942 65.6694 231.867 66.2293 231.779 66.788C231.753 66.9563 231.798 67.0291 231.971 67.0472C232.24 67.0749 232.507 67.1299 232.776 67.1568C232.961 67.1752 233.01 67.2541 232.975 67.4325C232.925 67.6905 232.906 67.9548 232.857 68.2135C232.825 68.3857 232.883 68.4498 233.053 68.4671C233.33 68.495 233.606 68.5373 233.881 68.5846C234.023 68.6087 234.075 68.5559 234.093 68.4204C234.25 67.3008 234.41 66.1817 234.574 65.0627C234.593 64.9245 234.557 64.8648 234.415 64.8487C234.139 64.8171 233.864 64.76 233.587 64.7363C233.385 64.7192 233.345 64.6288 233.378 64.4465C233.428 64.1725 233.456 63.8944 233.501 63.6192C233.523 63.4814 233.477 63.4206 233.337 63.404C233.06 63.3714 232.783 63.3346 232.509 63.2846C232.341 63.2539 232.274 63.3036 232.252 63.4763C232.183 64.0217 232.099 64.5654 232.022 65.1095L232.022 65.1096ZM226.183 70.0486C226.234 69.6962 226.28 69.3428 226.336 68.9911C226.356 68.8651 226.322 68.8038 226.191 68.7869C225.891 68.7492 225.592 68.7074 225.294 68.6582C225.146 68.6337 225.106 68.7037 225.089 68.8324C224.992 69.5304 224.893 70.228 224.789 70.9249C224.767 71.0699 224.803 71.1399 224.957 71.1573C225.242 71.1895 225.526 71.2301 225.808 71.2789C225.959 71.3053 226.016 71.2541 226.034 71.1062C226.076 70.7527 226.132 70.4006 226.183 70.0482L226.183 70.0486ZM229.6 82.0453C229.989 82.1009 230.345 82.1571 230.705 82.1967C230.751 82.2019 230.845 82.127 230.852 82.0787C230.964 81.3529 231.069 80.6255 231.162 79.897C231.169 79.8415 231.084 79.7288 231.028 79.7179C230.724 79.6585 230.417 79.6155 230.11 79.5861C230.056 79.5807 229.949 79.658 229.941 79.7091C229.822 80.4725 229.716 81.2377 229.6 82.0449L229.6 82.0453ZM219.557 80.6094C219.612 80.2233 219.669 79.8727 219.705 79.5206C219.71 79.4733 219.62 79.3781 219.563 79.3691C218.844 79.2573 218.123 79.1542 217.401 79.0598C217.347 79.0526 217.238 79.1239 217.229 79.1729C217.17 79.4847 217.126 79.7995 217.093 80.1154C217.088 80.1635 217.157 80.26 217.203 80.267C217.975 80.3858 218.749 80.4942 219.557 80.6098L219.557 80.6094ZM230.295 68.0684C230.654 68.1198 231.014 68.1666 231.372 68.2248C231.511 68.2475 231.569 68.2054 231.585 68.0653C231.618 67.7818 231.659 67.4986 231.706 67.2171C231.728 67.0853 231.7 67.0188 231.554 66.9989C230.843 66.9023 230.132 66.7997 229.422 66.6939C229.284 66.6732 229.224 66.715 229.207 66.8546C229.174 67.1385 229.135 67.4216 229.086 67.7027C229.058 67.8586 229.12 67.9064 229.263 67.9241C229.608 67.9659 229.951 68.0201 230.295 68.0689L230.295 68.0684ZM226.647 53.4953C226.502 53.4744 226.355 53.4591 226.211 53.4314C226.077 53.4057 226.01 53.4441 225.993 53.5878C225.958 53.88 225.915 54.171 225.868 54.4613C225.846 54.5974 225.887 54.6601 226.029 54.6762C226.313 54.7089 226.597 54.749 226.879 54.7974C227.015 54.8206 227.083 54.7865 227.097 54.6432C227.111 54.4892 227.139 54.3366 227.161 54.1831C227.218 53.7817 227.047 53.5524 226.646 53.4951L226.647 53.4953ZM224.927 78.8208C224.982 78.4375 225.039 78.0878 225.075 77.7363C225.081 77.6858 224.999 77.5857 224.945 77.5756C224.642 77.5182 224.336 77.473 224.029 77.4446C223.97 77.439 223.858 77.5203 223.847 77.5766C223.787 77.8788 223.747 78.1857 223.713 78.4921C223.707 78.5439 223.756 78.6448 223.792 78.6514C224.161 78.7151 224.534 78.7641 224.928 78.8204L224.927 78.8208ZM212.848 60.4752C212.71 60.4555 212.571 60.4431 212.435 60.4143C212.28 60.3809 212.202 60.4261 212.189 60.5911C212.178 60.7372 212.15 60.8817 212.129 61.0273C212.072 61.4269 212.244 61.6553 212.647 61.7125C213.07 61.7731 213.312 61.5927 213.372 61.1713C213.43 60.7656 213.256 60.5335 212.848 60.4752ZM224.934 51.9771C224.88 52.3581 224.823 52.7078 224.786 53.0589C224.781 53.1085 224.865 53.2065 224.919 53.2166C225.231 53.2743 225.545 53.3198 225.861 53.3489C225.915 53.3539 226.02 53.2668 226.031 53.2087C226.089 52.9133 226.13 52.6136 226.159 52.314C226.164 52.2593 226.097 52.1528 226.049 52.1441C225.692 52.0798 225.332 52.0344 224.933 51.9774L224.934 51.9771ZM222.535 59.9116C222.474 60.3382 222.652 60.5815 223.069 60.6414C223.467 60.6984 223.695 60.5268 223.752 60.1266C223.813 59.7021 223.634 59.4602 223.217 59.4009C222.819 59.3439 222.592 59.5142 222.535 59.9116ZM236.501 65.1494C236.355 65.1286 236.209 65.1132 236.065 65.0855C235.93 65.0598 235.86 65.0972 235.848 65.2416C235.834 65.3958 235.806 65.5483 235.784 65.7017C235.7 66.2868 235.7 66.2901 236.291 66.3694C236.495 66.3967 236.755 66.4866 236.89 66.3973C237.005 66.3202 236.983 66.0293 237.012 65.8313C237.101 65.2347 237.099 65.2344 236.501 65.1489L236.501 65.1494Z" fill="white"/>
<path d="M216.967 54.0294C216.771 55.4013 216.571 56.7728 216.383 58.146C216.355 58.354 216.292 58.4146 216.075 58.3831C213.317 57.9815 210.557 57.5873 207.797 57.1981C207.595 57.1692 207.545 57.1015 207.575 56.8993C207.976 54.141 208.37 51.3813 208.759 48.6213C208.787 48.4237 208.85 48.3625 209.056 48.3925C211.814 48.7931 214.574 49.1883 217.334 49.5756C217.552 49.6063 217.594 49.6847 217.563 49.8913C217.358 51.27 217.164 52.6499 216.967 54.0297L216.967 54.0294ZM212.118 56.5153C213.084 56.6535 214.05 56.7879 215.015 56.9335C215.194 56.9604 215.261 56.9198 215.287 56.7345C215.557 54.8092 215.832 52.8853 216.113 50.9619C216.141 50.7698 216.094 50.7071 215.903 50.6802C213.978 50.4115 212.054 50.1358 210.13 49.8546C209.952 49.8286 209.889 49.8614 209.862 50.0499C209.594 51.9753 209.32 53.8993 209.037 55.8226C209.005 56.0344 209.072 56.0853 209.266 56.1112C210.218 56.2379 211.168 56.379 212.119 56.5149L212.118 56.5153Z" fill="white"/>
<path d="M208.707 80.3666C207.335 80.1704 205.963 79.9695 204.59 79.7825C204.365 79.7517 204.316 79.6719 204.348 79.4531C204.748 76.7022 205.142 73.9508 205.529 71.1981C205.557 70.9972 205.622 70.9425 205.825 70.9721C208.584 71.3727 211.343 71.7674 214.103 72.1556C214.318 72.1859 214.364 72.2587 214.334 72.4683C213.936 75.2035 213.547 77.9405 213.155 80.6766C213.125 80.8891 213.006 80.9809 212.8 80.952C211.435 80.7569 210.071 80.5617 208.707 80.3666ZM208.914 79.0874C209.872 79.2244 210.831 79.3583 211.788 79.5018C211.961 79.528 212.033 79.4954 212.059 79.3059C212.328 77.3732 212.606 75.4416 212.887 73.51C212.911 73.3409 212.87 73.2772 212.696 73.2529C210.764 72.9817 208.832 72.7062 206.901 72.4235C206.715 72.3964 206.659 72.4476 206.634 72.6251C206.363 74.5576 206.086 76.4898 205.805 78.4207C205.78 78.5916 205.819 78.6503 205.992 78.6736C206.966 78.8051 207.939 78.9484 208.913 79.0877L208.914 79.0874Z" fill="white"/>
<path d="M230.749 56.0069C230.947 54.6197 231.15 53.2327 231.34 51.8443C231.368 51.6395 231.439 51.5924 231.639 51.6215C234.398 52.0217 237.157 52.4164 239.917 52.8055C240.115 52.8338 240.176 52.8961 240.146 53.1025C239.744 55.8686 239.348 58.6356 238.959 61.4035C238.93 61.6016 238.854 61.6387 238.67 61.6119C235.904 61.212 233.137 60.8153 230.369 60.426C230.157 60.3961 230.127 60.3139 230.156 60.1214C230.359 58.7504 230.552 57.3779 230.749 56.006L230.749 56.0069ZM232.019 56.1887C231.882 57.147 231.749 58.1058 231.604 59.063C231.577 59.242 231.62 59.3087 231.804 59.3342C233.73 59.6034 235.654 59.8782 237.577 60.1599C237.77 60.1879 237.832 60.1394 237.858 59.949C238.127 58.0237 238.402 56.0998 238.684 54.1763C238.71 53.9957 238.673 53.935 238.487 53.9093C236.561 53.6409 234.637 53.3662 232.714 53.0831C232.501 53.0518 232.452 53.1199 232.426 53.3132C232.297 54.2727 232.156 55.2303 232.019 56.1886L232.019 56.1887Z" fill="white"/>
<path d="M235.24 82.8533C235.665 82.9139 235.846 83.1563 235.785 83.5805C235.763 83.7334 235.737 83.8857 235.72 84.0395C235.706 84.1789 235.636 84.2225 235.501 84.2013C235.196 84.1534 234.89 84.1101 234.583 84.07C234.455 84.0531 234.414 83.9894 234.433 83.8648C234.482 83.552 234.516 83.2363 234.577 82.9257C234.588 82.869 234.695 82.7922 234.758 82.7923C234.919 82.7923 235.08 82.8307 235.24 82.8537L235.24 82.8533Z" fill="white"/>
<path d="M220.086 67.9128C220.408 67.9561 220.73 67.9988 221.052 68.0435C221.35 68.0847 221.35 68.0856 221.393 67.7759C221.43 67.523 221.47 67.2707 221.501 67.017C221.518 66.8732 221.575 66.8137 221.729 66.8408C222.011 66.8901 222.295 66.9321 222.579 66.9625C222.748 66.9801 222.778 67.0595 222.756 67.2111C222.534 68.7434 222.313 70.2755 222.1 71.8092C222.074 71.9982 221.993 72.0364 221.821 72.0043C221.578 71.9588 221.329 71.9429 221.087 71.8932C220.891 71.853 220.802 71.8981 220.785 72.1101C220.765 72.3719 220.708 72.6308 220.679 72.8923C220.663 73.0469 220.606 73.1108 220.441 73.0815C220.152 73.0302 219.86 72.9903 219.567 72.9556C219.421 72.9385 219.366 72.8816 219.392 72.7292C219.442 72.4393 219.482 72.148 219.517 71.8558C219.535 71.7069 219.599 71.656 219.748 71.6805C220.03 71.727 220.315 71.7579 220.597 71.8058C220.75 71.8315 220.823 71.7939 220.845 71.6278C220.937 70.9371 221.036 70.2475 221.14 69.5587C221.165 69.3971 221.113 69.3318 220.955 69.3131C220.671 69.2794 220.388 69.2296 220.104 69.1946C219.957 69.1764 219.905 69.1131 219.93 68.9634C219.99 68.6127 220.038 68.26 220.091 67.9079L220.085 67.9122L220.086 67.9128Z" fill="white"/>
<path d="M214.463 53.6538C214.383 54.2131 214.298 54.7711 214.226 55.3312C214.205 55.5044 214.136 55.5463 213.968 55.5214C212.859 55.3566 211.748 55.1972 210.637 55.0449C210.451 55.0192 210.412 54.9441 210.438 54.7691C210.601 53.6749 210.758 52.5799 210.908 51.4837C210.935 51.2813 211.013 51.2285 211.212 51.2584C212.298 51.4213 213.386 51.5773 214.474 51.7245C214.675 51.7517 214.734 51.82 214.701 52.0234C214.611 52.5654 214.541 53.1101 214.463 53.6542L214.463 53.6538Z" fill="white"/>
<path d="M211.235 76.2335C211.156 76.785 211.07 77.3355 211.002 77.8885C210.978 78.0834 210.9 78.1273 210.714 78.0997C209.62 77.9366 208.525 77.7795 207.428 77.6297C207.238 77.6034 207.183 77.5298 207.211 77.3401C207.375 76.2381 207.532 75.135 207.685 74.0318C207.707 73.8649 207.767 73.8095 207.94 73.8347C209.058 74.0002 210.176 74.1596 211.295 74.3145C211.454 74.3364 211.502 74.3968 211.477 74.5569C211.39 75.1147 211.315 75.6746 211.235 76.2339L211.235 76.2335Z" fill="white"/>
<path d="M237.04 56.904C236.961 57.4555 236.878 58.0062 236.806 58.5588C236.784 58.7315 236.714 58.7751 236.546 58.7501C235.437 58.5862 234.326 58.426 233.215 58.275C233.027 58.2495 232.992 58.1754 233.018 58.0009C233.181 56.8988 233.339 55.7959 233.491 54.6926C233.515 54.5164 233.575 54.4559 233.759 54.4837C234.861 54.6479 235.964 54.8061 237.068 54.9569C237.263 54.9835 237.309 55.0661 237.28 55.2505C237.193 55.8008 237.119 56.353 237.04 56.9044L237.04 56.904Z" fill="white"/>
</g>
<path d="M201.998 92.998L240.998 97.998" stroke="#712222" stroke-width="3"/>
<path d="M40.998 69.998L79.998 74.998" stroke="#712222" stroke-width="3"/>
<defs>
<clipPath id="clip0_563_2166">
<rect width="32.2987" height="32.2987" fill="white" transform="translate(208.572 48) rotate(8.13991)"/>
</clipPath>
</defs>
</svg>
