<svg width="1512" height="308" viewBox="0 0 1512 308" fill="none" xmlns="http://www.w3.org/2000/svg">
<path d="M-65 179.939L1587 179.939" stroke="#FFCD45" stroke-width="2"/>
<path d="M-13 277.064L1663 275.939" stroke="#FFCD45" stroke-width="2"/>
<path d="M-3 48.0645L1527 47.0645" stroke="#FFCD45" stroke-width="2"/>
<path d="M-18.7574 86.5137L1640.05 81.3686" stroke="#FFCD45" stroke-width="2"/>
<path d="M562.181 28.5944C557.026 37.092 561.378 40.2238 567.752 41.5614C566.224 44.8952 563.416 48.1817 563.837 50.9955C564.205 53.4264 568.238 55.32 570.704 57.5021C569.69 60.1247 567.326 63.5249 567.465 66.8527C567.538 68.7583 571.688 70.5533 574.307 72.6463C568.183 79.3541 562.741 87.3606 565.312 98.7714C567.805 109.769 575.268 115.24 584.84 118.771C578.436 127.358 579.361 130.02 589.384 132.944C581.722 142.485 582.292 144.887 592.99 148.25C585.612 156.683 585.696 157.652 594.615 164.316C586.548 175.045 578.625 185.868 570.318 196.384C568.73 198.402 565.812 199.845 563.253 200.433C449.117 226.778 334.967 252.983 220.8 279.192C220.272 279.313 219.684 279.251 219.977 277.728C216.342 275.222 212.694 272.737 209.059 270.23C207.253 273.718 205.435 277.226 203.629 280.713C204.322 281.381 205.014 282.048 205.69 282.719C181.867 288.196 158.057 293.723 134.203 299.063C132.453 299.465 130.182 298.963 128.496 298.129C116.486 292.158 104.569 285.986 92.6342 279.89C96.6846 269.382 96.5401 269.056 86.3098 264.778C94.6885 257.372 93.9283 253.99 83.5501 250.051C85.1392 247.134 88.1709 244.066 87.9481 241.206C87.7652 238.823 83.813 236.677 81.4928 234.372C97.4847 213.735 93.4537 197.863 69.8028 188.585C71.2646 185.644 74.3906 182.23 73.755 179.843C73.0243 177.118 68.9534 175.287 66.6903 173.382C67.759 170.621 70.3271 167.048 69.9693 163.752C69.7297 161.652 65.1626 160.006 62.5898 158.19C63.8036 156.061 66.9091 153.011 66.8947 149.924C66.8934 147.499 63.0436 145.042 60.6583 142.303C65.2303 136.257 70.9398 130.093 75.0508 122.95C81.6477 111.498 91.4055 106.991 103.694 104.723C122.822 101.206 141.683 96.2236 158.34 92.3944C163.439 95.8219 166.932 98.1631 170.404 100.491C172.435 97.0776 174.47 93.6812 176.501 90.2678C175.969 89.6895 175.436 89.1113 174.907 88.5501L186.348 85.9201C295.554 60.8159 404.756 35.7667 513.923 10.4919C520.048 9.08392 525.323 9.34473 530.931 12.4213C540.938 17.9186 551.201 22.9437 562.14 28.5679L562.181 28.5944ZM174.151 118.531C176.276 113.784 178.946 110.655 178.38 108.27C177.843 105.932 174.036 104.345 171.667 102.429C169.755 105.078 166.457 107.669 166.356 110.405C166.292 112.468 170.329 114.756 174.135 118.534L174.151 118.531ZM197.982 221.518C196.155 226.573 193.528 230.267 194.453 232.175C195.615 234.585 199.692 235.534 202.502 237.098C203.842 234.382 206.593 231.378 206.126 229.042C205.65 226.672 201.94 224.974 197.982 221.518ZM174.314 114.397C171.914 119.764 169.148 123.077 169.844 125.198C170.652 127.654 174.538 129.06 177.069 130.922C178.77 128.339 181.858 125.742 181.776 123.192C181.707 120.926 178.155 118.706 174.297 114.401L174.314 114.397ZM205.392 251.633C203.301 256.678 200.49 260.252 201.345 262.158C202.473 264.719 206.435 266.001 209.168 267.834C210.668 265.135 213.57 262.258 213.248 259.799C212.946 257.425 209.28 255.465 205.392 251.633ZM201.301 236.709C199.559 241.835 196.984 245.607 197.955 247.486C199.208 249.911 203.26 250.83 206.124 252.399C207.415 249.623 210.118 246.558 209.618 244.158C209.13 241.809 205.378 240.156 201.301 236.709ZM199.374 183.414C194.133 181.259 190.87 178.631 188.782 179.38C186.455 180.221 185.193 184.104 183.472 186.674C186.078 188.41 188.776 191.599 191.267 191.476C193.45 191.369 195.428 187.573 199.374 183.414ZM183.902 160.344C182.052 165.602 179.571 169.101 180.394 171.319C181.221 173.555 185.728 176.076 187.957 175.564C189.955 175.104 192.502 170.458 192.113 168.086C191.736 165.765 187.965 163.955 183.902 160.344ZM199.125 225.279C201.096 219.94 203.571 216.568 202.784 214.431C201.917 212.097 197.547 209.113 195.589 209.671C193.384 210.285 190.762 214.607 190.96 217.131C191.124 219.357 194.934 221.338 199.129 225.297L199.125 225.279ZM177.196 129.886C175.16 135.242 172.597 138.687 173.414 140.727C174.33 143.05 178.577 145.721 180.825 145.294C182.826 144.924 185.437 140.407 185.202 137.946C184.988 135.731 181.293 133.796 177.192 129.869L177.196 129.886ZM184.655 163.997C186.817 158.883 189.443 155.638 188.747 153.517C187.983 151.177 183.712 148.098 181.751 148.567C179.51 149.1 176.692 153.251 176.8 155.76C176.886 157.95 180.666 160.027 184.655 163.997ZM191.184 191.189C189.185 196.482 186.606 199.932 187.414 202.01C188.302 204.285 192.686 206.871 194.902 206.379C196.937 205.929 199.54 201.45 199.258 199.017C199.008 196.793 195.258 194.924 191.168 191.193L191.184 191.189Z" fill="#D9D9D9"/>
<g clip-path="url(#clip0_552_2158)">
<path d="M158.698 172.754C139.229 177.439 119.758 182.118 100.289 186.803C99.3992 187.018 98.5056 187.235 97.4367 187.494L95.7837 180.668L157.023 165.838L158.698 172.754Z" fill="#712222"/>
<path d="M161.546 184.512C154.356 186.202 147.161 187.871 139.98 189.595C127.549 192.583 115.131 195.612 102.704 198.622L100.187 199.231L98.9401 194.084L101.471 193.472C120.177 188.941 138.884 184.411 157.588 179.867C158.481 179.651 159.334 179.283 160.207 178.983C160.654 180.829 161.101 182.674 161.546 184.512Z" fill="#712222"/>
<path d="M174.938 239.819C174.024 239.93 173.087 239.951 172.202 240.165C153.557 244.659 134.923 249.178 116.283 253.692C115.398 253.907 114.517 254.12 113.535 254.358L112.296 249.238C113.193 249.021 113.999 248.826 114.809 248.63C133.587 244.082 152.361 239.536 171.139 234.989C171.965 234.789 172.777 234.526 173.595 234.291C174.042 236.136 174.489 237.981 174.934 239.82L174.938 239.819Z" fill="#712222"/>
<path d="M150.998 140.956C131.429 145.665 111.865 150.381 92.2974 155.098C91.4789 155.296 90.6605 155.494 89.7043 155.725L88.5486 150.953C89.0512 150.728 89.5353 150.428 90.0614 150.3C109.483 145.582 128.904 140.879 148.332 136.189C148.808 136.074 149.328 136.139 149.828 136.121C150.219 137.737 150.609 139.346 151 140.963L150.998 140.956Z" fill="#712222"/>
<path d="M178.12 252.957L116.847 267.795L115.699 263.057C116.124 262.859 116.542 262.574 117.005 262.462C136.627 257.696 156.253 252.943 175.882 248.204C176.224 248.122 176.592 248.143 176.947 248.115L178.12 252.957Z" fill="#712222"/>
<path d="M148.151 129.199L86.8946 144.033C86.5556 142.888 86.2754 141.95 85.8827 140.621L147.314 125.744L148.151 129.199Z" fill="#712222"/>
<path d="M152.169 145.791L90.8997 160.628C90.5841 159.545 90.3097 158.612 89.9044 157.212L151.332 142.337L152.169 145.791Z" fill="#712222"/>
<path d="M153.842 152.707C137.198 156.701 120.548 160.689 103.906 164.69C100.184 165.584 96.465 166.492 92.5733 167.434C92.2402 166.333 91.9617 165.401 91.5783 164.128L153.006 149.253L153.842 152.707Z" fill="#712222"/>
<path d="M156.688 164.457C154.812 164.853 152.932 165.213 151.068 165.657C133.394 169.922 115.726 174.215 98.0546 178.495L95.4115 179.135C95.08 178.04 94.799 177.117 94.424 175.878L155.852 161.003L156.688 164.457Z" fill="#712222"/>
<path d="M166.735 205.947L105.408 220.798L104.602 217.468L107.115 216.859C125.893 212.312 144.671 207.765 163.449 203.218C164.275 203.017 165.084 202.741 165.9 202.499L166.737 205.954L166.735 205.947Z" fill="#712222"/>
<path d="M169.247 216.317C167.371 216.712 165.491 217.072 163.627 217.516C145.952 221.782 128.284 226.075 110.613 230.354L107.97 230.994C107.639 229.899 107.358 228.976 106.983 227.738L168.41 212.862L169.247 216.317Z" fill="#712222"/>
<path d="M165.06 199.031C164.535 199.254 164.027 199.546 163.484 199.677C144.213 204.359 124.942 209.025 105.666 213.686C104.572 213.951 103.354 214.635 103.171 211.162C103.579 210.982 104.005 210.717 104.469 210.605C124.083 205.841 143.706 201.096 163.324 196.352C163.667 196.27 164.034 196.291 164.39 196.263C164.614 197.186 164.837 198.108 165.06 199.031Z" fill="#712222"/>
<path d="M167.907 210.782C167.579 210.927 167.264 211.121 166.921 211.204C147.235 215.979 127.547 220.747 107.857 225.507C107.519 225.589 107.156 225.589 106.765 225.632C105.585 223.48 105.853 222.541 107.294 222.251C109.596 221.789 111.859 221.168 114.139 220.615C130.996 216.533 147.849 212.452 164.707 208.377C165.53 208.178 166.389 208.131 167.236 208.014C167.46 208.937 167.683 209.859 167.907 210.782Z" fill="#712222"/>
<path d="M145.305 117.447L83.1673 132.495C83.0406 132.063 82.9138 131.631 82.7896 131.191C83.5411 130.862 84.2664 130.407 85.0514 130.217C104.104 125.581 123.163 120.973 142.22 116.336C143.105 116.122 143.944 115.699 144.801 115.366L145.303 117.44L145.305 117.447Z" fill="#712222"/>
<path d="M181.803 268.17C179.998 268.548 178.179 268.886 176.388 269.32C158.221 273.704 140.056 278.118 121.885 282.489C121.108 282.677 120.263 282.58 119.449 282.616L119.163 281.143L181.301 266.096C181.467 266.782 181.635 267.476 181.803 268.17Z" fill="#712222"/>
<path d="M146.979 124.363C146.138 124.486 145.277 124.548 144.455 124.747C125.59 129.3 106.736 133.881 87.8683 138.42C87.0875 138.61 86.2319 138.508 85.4125 138.538C85.3225 138.075 85.235 137.604 85.145 137.141L146.477 122.289L146.979 124.363Z" fill="#712222"/>
<path d="M148.989 132.66C140.69 134.626 132.384 136.563 124.093 138.557C112.688 141.296 101.294 144.078 89.8908 146.824C89.1225 147.01 88.3214 147.043 87.5346 147.153C87.428 146.767 87.3214 146.382 87.219 145.995C87.8935 145.678 88.5337 145.236 89.2419 145.058C108.165 140.453 127.099 135.875 146.025 131.285C146.852 131.084 147.668 130.821 148.486 130.586L148.989 132.66Z" fill="#712222"/>
<path d="M159.536 176.216C158.695 176.338 157.834 176.4 157.012 176.599C138.147 181.153 119.293 185.733 100.425 190.273C99.6444 190.462 98.7889 190.361 97.9711 190.397C97.8811 189.934 97.7936 189.464 97.7036 189.001L159.035 174.148L159.537 176.223L159.536 176.216Z" fill="#712222"/>
<path d="M162.381 187.967C161.466 188.078 160.53 188.099 159.64 188.315C140.849 192.843 122.066 197.406 103.269 201.929C102.48 202.12 101.628 202.033 100.802 202.071C100.717 201.629 100.63 201.18 100.545 200.738L161.877 185.886C162.047 186.586 162.213 187.273 162.381 187.967Z" fill="#712222"/>
<path d="M170.418 221.152L109.091 236.003C108.964 235.572 108.839 235.147 108.712 234.715C109.466 234.378 110.19 233.916 110.979 233.725C129.76 229.155 148.548 224.613 167.329 220.042C168.218 219.827 169.053 219.405 169.914 219.071C170.082 219.765 170.248 220.452 170.416 221.145L170.418 221.152Z" fill="#712222"/>
<path d="M173.266 232.91L111.984 247.75C111.863 247.486 111.74 247.214 111.614 246.951C111.854 246.555 112.025 245.963 112.343 245.798C112.914 245.491 113.568 245.435 114.19 245.285C132.843 240.768 151.491 236.252 170.14 231.721C171.034 231.505 171.886 231.137 172.759 230.837C172.927 231.531 173.094 232.217 173.262 232.911L173.266 232.91Z" fill="#712222"/>
<path d="M176.112 244.661C156.417 249.401 136.724 254.148 117.027 258.881C116.259 259.067 115.46 259.128 114.677 259.252C114.575 258.865 114.472 258.479 114.366 258.093C115.109 257.752 115.816 257.272 116.596 257.083C135.451 252.488 154.31 247.928 173.169 243.354C173.996 243.154 174.796 242.843 175.605 242.588C175.773 243.282 175.939 243.968 176.107 244.662L176.112 244.661Z" fill="#712222"/>
<path d="M178.957 256.411C164.096 259.973 149.233 263.528 134.374 267.097C129.465 268.279 124.567 269.48 119.655 270.647C118.962 270.815 118.23 270.838 117.518 270.929C117.413 270.551 117.304 270.174 117.197 269.788C117.87 269.464 118.511 269.007 119.219 268.828C137.243 264.434 155.277 260.082 173.308 255.701C175.032 255.283 176.738 254.789 178.457 254.329L178.959 256.403L178.957 256.411Z" fill="#712222"/>
<path d="M163.051 190.734C161.687 191.123 160.328 191.555 158.95 191.889C140.37 196.395 121.785 200.896 103.202 205.389C102.442 205.573 101.645 205.589 100.864 205.683C100.774 205.257 100.688 204.83 100.598 204.404L162.719 189.36L163.053 190.741L163.051 190.734Z" fill="#712222"/>
<path d="M144.468 113.993L82.3561 129.034C82.2453 128.687 82.1346 128.339 82.0239 127.991C82.6843 127.67 83.3152 127.209 84.0125 127.04C98.2363 123.566 112.465 120.113 126.701 116.688C132.502 115.29 138.322 113.969 144.134 112.613L144.468 113.993Z" fill="#712222"/>
<path d="M182.473 270.93C181.817 271.199 181.178 271.552 180.497 271.717C161.222 276.4 141.939 281.069 122.656 285.724C121.901 285.907 121.094 285.882 120.312 285.954C120.219 285.499 120.121 285.038 120.028 284.583L182.137 269.543C182.249 270.008 182.362 270.472 182.473 270.93Z" fill="#712222"/>
<path d="M163.889 194.189L101.772 209.231C101.662 208.773 101.549 208.309 101.438 207.851L163.555 192.809L163.889 194.189Z" fill="#712222"/>
<path d="M155.015 157.549L93.7083 172.395C93.5942 172.033 93.476 171.673 93.3636 171.318C94.0231 170.975 94.6415 170.48 95.3413 170.303C105.146 167.892 114.966 165.529 124.779 163.152C133.902 160.943 143.026 158.734 152.153 156.538C152.976 156.339 153.839 156.291 154.682 156.175L155.017 157.556L155.015 157.549Z" fill="#712222"/>
<path d="M172.426 229.448L111.124 244.293C111.012 243.939 110.895 243.585 110.783 243.231C111.444 242.894 112.066 242.413 112.765 242.236C124.162 239.447 135.561 236.665 146.969 233.939C155.335 231.942 163.716 230.023 172.092 228.068L172.426 229.448Z" fill="#712222"/>
<path d="M180.463 262.634C179.79 262.864 179.133 263.147 178.444 263.314C159.443 267.923 140.441 272.532 121.43 277.121C120.675 277.304 119.873 277.314 119.093 277.4L118.824 276.107L180.131 261.261C180.24 261.712 180.353 262.176 180.463 262.634Z" fill="#712222"/>
</g>
<defs>
<clipPath id="clip0_552_2158">
<rect width="214.118" height="64.4447" fill="white" transform="translate(141.635 83.5938) rotate(76.3872)"/>
</clipPath>
</defs>
</svg>
