<svg width="994" height="866" viewBox="0 0 994 866" fill="none" xmlns="http://www.w3.org/2000/svg">
<path d="M639.765 793.241C637.801 794.947 635.644 796.842 633.454 798.699C633.1 799.002 632.714 799.419 632.328 799.457C628.464 799.988 624.568 800.48 620.865 800.935C623.055 796.16 634.163 791.763 639.733 793.204L639.765 793.241Z" fill="#0C081E"/>
<path d="M52.7109 865.012V563.663C96.2878 253.012 197.134 65.1241 242.11 10.0117H993.711V865.012H52.7109Z" fill="#86857D"/>
<path d="M112.711 318.512L74.2109 431.012V550.512L112.711 512.512L160.711 358.012L202.211 273.512L112.711 318.512Z" fill="#D9D9D9"/>
<path d="M99.2252 0C96.8609 3.67095 94.4966 7.3419 92.1323 11.0129C91.7383 10.9005 91.3139 10.8256 90.9199 10.7132C91.5564 3.22145 86.2822 2.92178 83.1602 0C88.5253 0 93.8904 0 99.2252 0Z" fill="#0C081E"/>
<path d="M250.211 299.512L188.711 399.512L158.211 521.012L319.211 372.012L541.711 344.012L667.711 381.512L752.711 454.512L871.711 495.012L861.711 444.512L781.711 305.512L512.211 193.012L250.211 299.512Z" fill="#D9D9D9"/>
<path d="M223.231 684.257C217.933 682.32 213.053 683.693 208.141 686.194C206.118 687.216 203.582 686.969 201.302 686.476C211.769 681.968 222.235 677.459 232.67 672.915C227.212 672.775 221.625 671.013 216.97 675.839C215.782 677.072 213.085 676.367 211.416 677.283C204.77 680.911 197.739 684.116 191.767 688.871C183.741 695.246 176.517 702.889 169.1 709.828C174.655 696.549 187.144 690.28 197.129 680.77C182.777 673.655 170.545 681.651 157.96 685.278C157.767 684.785 157.575 684.292 157.382 683.834C158.409 682.813 159.437 681.756 160.464 680.735C150.897 681.087 146.081 690.104 138.6 694.718C139.178 693.696 139.627 692.534 140.398 691.724C144.54 687.462 148.424 682.742 153.112 679.361C156.354 677.036 160.817 676.931 164.606 675.381C173.98 671.507 183.259 667.35 192.762 663.229C191.735 660.975 189.712 660.095 186.983 661.398C180.048 664.673 173.146 668.055 166.211 671.366C164.862 672 163.514 672.598 162.166 673.197C161.941 672.739 161.748 672.317 161.523 671.859C168.266 667.386 175.008 662.912 181.75 658.404C181.622 657.981 181.461 657.559 181.333 657.171C180.402 657.101 179.471 657.101 178.572 656.925C175.008 656.255 171.348 655.974 167.945 654.776C164.156 653.402 160.785 652.698 156.708 654.283C153.786 655.41 150.03 656.889 147.012 653.473C146.851 653.297 146.434 653.297 146.177 653.367C137.669 656.15 128.615 657.77 120.781 662.102C109.673 668.231 99.4312 676.332 88.5795 683.2C98.9175 670.274 112.627 662.208 125.983 653.579L125.276 651.888C116.672 655.657 108.068 659.461 99.4633 663.229C99.367 662.983 99.2706 662.736 99.1422 662.525C102.289 659.531 105.435 656.502 108.196 653.86C117.41 653.719 124.795 648.718 132.404 644.245C118.309 641.99 106.302 648.19 94.3264 655.234C105.082 645.794 117.186 639.067 129.771 632.974C124.506 632.163 119.529 629.804 114.2 633.255C110.315 635.756 106.623 636.496 101.518 633.854C95.5464 630.755 88.1621 629.029 81.2594 633.502C81.3557 632.868 81.4199 632.234 81.5162 631.6C79.5899 630.966 77.6636 629.839 75.7051 629.768C68.1603 629.451 60.8723 630.719 54.2585 635.228C53.3275 635.862 52.0111 635.756 50.759 635.58C59.6202 627.197 71.435 627.338 81.9657 623.781L81.3878 621.667C78.8836 622.477 76.3793 623.323 72.8798 624.45C76.0904 620.118 87.6484 618.039 105.531 617.617C104.215 615.222 92.4643 612.686 88.4832 613.461C82.8647 614.552 77.182 615.222 71.2745 616.067C73.9072 611.488 77.6957 610.572 83.5068 612.615C80.0394 608.776 78.0488 606.98 73.9393 607.191C67.165 607.543 60.3265 605.43 53.5843 608.036C53.0385 608.248 52.1717 607.367 51.4653 606.24C65.4313 602.225 79.6541 603.387 93.8769 604.408C93.909 603.774 93.9411 603.14 93.9732 602.506C91.3084 601.767 88.6758 601.062 85.4973 600.182C86.9742 597.963 90.9232 597.294 86.8779 594.159C88.2905 593.736 88.8363 593.419 89.3821 593.419C91.4048 593.349 93.4274 593.384 95.4501 593.349C94.808 590.249 94.7116 586.903 93.4274 584.156C91.79 580.634 89.2537 577.604 86.9742 574.505C86.1715 573.413 85.0157 572.532 83.892 571.898C78.7551 569.045 78.5304 564.96 82.4152 560.698C85.1442 557.704 86.8779 553.477 88.5795 549.568C88.8684 548.934 86.7816 546.081 85.5615 545.834C79.5899 544.637 73.554 543.545 67.4861 543.263C61.5465 542.981 55.5749 543.967 49.6032 543.897C35.5088 543.756 21.8639 541.114 8.92537 534.704C7.32009 533.894 5.39375 533.823 3.82057 533.013C2.31161 532.203 1.02738 530.865 0 528.892C14.8649 534.81 29.9546 540.269 45.5258 540.234C60.9686 540.234 76.8288 539.318 91.1158 529.949H65.3992C63.9544 528.258 63.0876 526.392 61.8034 525.863C54.3227 522.728 46.5853 520.263 39.201 516.811C34.3851 514.557 30.083 511.07 25.524 508.147C25.7808 507.548 26.0698 506.949 26.3266 506.385C28.6703 507.618 31.0462 508.816 33.3578 510.119C45.59 517.128 58.2075 522.834 72.1414 524.067C73.843 524.208 75.6088 523.785 77.4709 522.799C69.4124 518.537 60.9365 515.684 54.2906 507.724C62.1886 507.336 67.4861 515.825 75.7693 513.007C72.8477 511.352 70.1829 510.33 68.0319 508.534C57.0196 499.376 45.7505 490.5 35.4125 480.497C31.8809 477.081 28.3172 472.924 25.9414 467.606C23.5655 462.287 18.3323 458.589 14.6723 453.869C13.2917 452.108 12.778 449.502 11.8791 447.283C12.457 446.719 13.0028 446.156 13.5807 445.592C19.9697 456.722 29.3446 461.231 40.0999 462.604C40.3247 462.146 40.5494 461.689 40.7742 461.231C38.6873 459.716 35.7978 458.765 34.7062 456.652C29.794 447.177 22.6666 439.886 15.8602 432.278C15.4107 431.75 15.5391 430.587 16.2455 429.073C17.1123 429.918 18.0434 430.728 18.846 431.644C31.7525 446.437 45.7505 459.751 62.6381 468.874C65.5597 470.459 69.0913 470.705 72.334 471.586C72.5266 471.022 72.7193 470.459 72.9119 469.895C70.1829 467.042 67.6145 464.048 64.725 461.407C51.4011 449.22 43.2784 432.525 33.0046 417.731C30.4683 414.068 28.9914 409.489 27.033 405.298L28.253 404.488C31.1746 407.94 34.2246 411.251 36.9536 414.843C39.811 418.541 42.4115 422.486 45.0442 426.396C46.3605 428.333 48.0943 429.813 46.8742 433.194C46.3284 434.708 48.8969 437.914 50.5022 439.921C53.0385 443.126 55.2859 447.529 60.4228 444.394C61.0007 444.042 62.4455 444.817 63.216 445.451C67.0687 448.586 71.403 448.797 75.9298 448.304C76.3793 448.269 76.8609 448.093 77.2462 448.198C84.5663 450.312 91.8864 452.46 99.2064 454.538C102.16 455.384 105.146 456.018 108.132 456.722C108.421 456.123 108.742 455.525 109.031 454.891C107.49 453.728 106.045 451.826 104.343 451.474C90.0563 448.48 79.1083 438.689 67.5503 430.094C64.9818 428.192 62.1244 426.678 59.6844 424.6C56.6665 422.028 52.3964 421.571 51.6901 415.266C51.2406 411.391 46.0395 408.116 42.8931 404.664C41.32 402.938 39.6505 401.212 37.7883 399.944C34.5778 397.76 32.9725 394.907 33.1009 390.751C33.1009 389.835 32.9404 388.744 32.4588 388.004C25.0424 375.782 17.5618 363.63 10.1454 351.408C9.6638 350.633 9.56749 349.577 9.31064 348.626C9.69591 348.414 10.0812 348.168 10.4664 347.956C11.4938 349.682 12.457 351.514 13.5807 353.169C21.1897 364.194 26.1019 377.261 35.5088 386.982C39.9715 391.597 43.2142 397.655 47.0027 403.044C47.2916 402.621 47.6127 402.198 47.9016 401.811C49.9564 403.079 52.1075 404.206 54.0338 405.685C66.2339 415.054 78.4983 424.353 90.57 433.898C99.078 440.661 109.32 440.661 118.887 443.303C119.626 443.514 120.525 443.091 122.515 442.774C120.653 440.872 119.337 439.816 118.341 438.442C112.819 430.834 107.458 423.12 101.903 415.548C98.8533 411.391 95.3859 407.658 92.4 403.431C91.0837 401.564 91.0195 398.43 89.5426 396.88C83.7636 390.892 77.6957 385.186 71.5635 379.656C69.0592 377.402 65.3671 376.522 63.3765 373.95C57.5333 366.448 52.2038 358.417 46.7458 350.528C45.6221 348.907 44.7232 347.041 43.15 344.293C45.6863 345.702 47.4521 346.688 49.1858 347.71L49.9564 346.583C48.5437 344.822 47.1311 343.061 45.5579 341.088C51.8827 339.08 57.2444 341.123 61.2897 346.794C64.2755 350.95 67.0687 355.001 72.2698 356.586C74.5172 357.255 76.4114 360.249 77.8883 362.644C81.3557 368.174 85.5615 372.33 91.18 375.289C99.4633 379.691 107.072 385.609 115.516 389.554C122.355 392.759 128.872 398.148 138.696 396.246C121.584 380.466 105.435 365.215 93.2348 345.702C105.563 358.593 118.149 371.097 133.078 381.593C133.142 380.114 133.431 379.269 133.174 378.987C126.464 371.767 119.979 364.299 112.916 357.572C106.719 351.69 99.8164 346.653 93.2669 341.194C92.4 340.454 91.7579 339.397 91.0195 338.517C91.2763 338.129 91.5011 337.742 91.7579 337.39C97.2801 341.37 102.77 345.35 108.292 349.33C108.421 349.119 108.581 348.943 108.71 348.731C104.825 344.047 100.94 339.397 97.0554 334.713C97.4727 334.255 97.8901 333.762 98.2754 333.304C101.679 336.474 104.985 339.714 108.485 342.779C116.255 349.577 123.96 356.48 131.986 362.891C134.523 364.898 137.926 365.884 141.072 366.624C142.485 366.941 144.604 365.92 145.695 364.757C146.209 364.194 145.503 361.446 144.668 360.319C139.563 353.768 134.105 347.534 129.065 340.912C125.95 336.826 123.671 331.93 120.46 327.915C116.094 322.491 111.503 317.243 106.494 312.558C96.8948 303.612 86.9742 295.088 77.182 286.423C77.5672 285.895 77.9204 285.367 78.3057 284.838C87.6163 292.552 96.9269 300.23 106.238 307.944C106.494 307.662 106.783 307.345 107.04 307.064C103.637 300.195 100.234 293.362 96.8306 286.494C97.248 286.212 97.6333 285.966 98.0506 285.684C102.545 292.693 107.04 299.667 111.471 306.57C116.832 303.541 115.195 300.125 114.136 296.708C111.118 287.163 107.65 277.9 100.33 270.996C100.619 270.503 100.908 270.01 101.165 269.517C103.509 270.503 106.27 270.89 108.132 272.546C116.865 280.365 125.276 288.642 133.977 296.497C141.136 302.943 148.553 309.071 155.937 315.376C152.694 322.068 146.016 314.39 142.677 320.131C147.044 323.688 151.442 327.246 155.841 330.803C156.258 330.345 156.643 329.887 157.061 329.394C155.102 327.211 153.144 325.027 150.897 322.526C152.566 319.849 154.942 318.511 158.955 318.933C163.225 319.391 167.656 318.229 172.921 317.701C168.105 313.721 164.477 310.727 159.693 306.782C161.01 309.247 161.845 310.515 162.358 311.924C162.776 313.087 162.808 314.46 163.032 315.728C161.78 315.763 160.464 316.116 159.34 315.728C158.506 315.446 157.703 314.284 157.35 313.298C156.001 309.459 155.07 305.443 153.561 301.71C152.823 299.878 151.218 298.364 149.837 296.92C141.939 288.748 134.009 280.612 126.079 272.44C125.79 272.123 125.661 271.63 126.111 270.292C128.808 272.511 131.569 274.694 134.234 276.984C136.353 278.78 138.247 280.929 140.494 282.514C141.361 283.113 142.934 282.584 144.154 282.584C143.994 281.246 143.93 279.872 143.641 278.604C143.512 278.041 142.934 277.371 142.453 277.195C137.605 275.469 138.311 270.503 137.316 266.417C145.31 271.207 148.103 281.281 155.07 287.163C147.397 273.814 138.375 261.275 135.133 245.284C144.411 262.437 153.625 279.626 167.174 293.433C159.629 280.647 152.117 267.897 144.572 255.111C145.053 254.759 145.535 254.407 146.016 254.054C155.231 267.474 164.445 280.894 173.724 294.419C176.035 292.869 177.384 292.129 178.507 291.143C179.117 290.615 179.92 289.276 179.727 288.924C177.063 284.169 177.287 277.935 172.439 274.131C168.779 271.243 166.115 266.84 163.097 263.071C162.776 262.684 162.872 261.909 162.808 261.31C163.129 260.958 163.45 260.606 163.771 260.253C171.091 267.192 178.443 274.096 186.534 281.774C186.855 274.483 178.283 273.039 179.888 265.713C181.654 266.805 182.97 267.65 185.089 268.953C175.104 248.313 160.592 231.442 154.621 209.287C163.899 225.63 173.37 241.727 185.667 254.97C187.786 253.737 189.423 252.751 191.093 251.765C191.414 252.223 191.703 252.681 192.024 253.139C190.964 255.005 189.873 256.872 188.813 258.739L190.515 256.978C191.735 258.175 192.923 259.338 194.143 260.535C193.565 261.31 192.955 262.085 192.377 262.86C193.693 260.923 195.042 258.985 196.711 256.555C193.212 247.327 189.487 237.57 185.86 227.779C185.057 225.63 183.708 223.658 186.084 221.157C186.887 220.276 185.795 216.965 185.185 214.852C184.222 211.436 182.938 208.089 182.521 204.391C190.386 216.684 193.725 231.723 203.004 244.263C204.385 241.586 205.669 240.142 205.829 238.557C206.343 233.942 209.168 232.815 212.636 232.181C214.241 231.9 216.167 231.935 217.323 230.913C218.607 229.821 219.153 227.743 220.052 226.088C218.479 225.665 216.938 225.067 215.365 224.855C214.466 224.75 213.535 225.348 211.833 225.877C213.535 223.129 214.626 221.051 216.039 219.255C218.222 216.508 219.731 218.022 221.272 220.417C222.267 221.932 223.905 222.918 225.253 224.151C225.831 222.037 226.345 219.854 227.019 217.776C227.565 216.191 227.982 213.936 229.074 213.302C232.092 211.647 235.431 210.696 238.641 209.428C243.425 207.526 244.228 205.448 242.815 200.024C240.535 191.218 238.352 182.342 236.201 173.501C236.073 172.973 236.362 172.304 236.619 170.507C243.425 178.89 243.521 189.739 248.947 197.84C249.525 192.38 252.96 187.027 248.177 181.145C252.447 181.497 252.671 179.172 252.415 175.72C251.676 165.858 246.828 157.933 242.751 149.621C242.141 148.353 241.659 146.979 241.113 145.641L240.985 145.746C244.773 150.36 249.172 154.059 251.965 160.047C255.786 168.112 261.565 175.086 266.766 182.342C267.793 183.786 269.848 184.385 271.774 185.547C272.352 186.639 273.219 188.259 274.086 189.844C274.696 189.563 275.306 189.281 275.916 188.964C275.306 187.344 274.953 185.547 274.086 184.138C269.687 177.129 265.16 170.226 260.666 163.287C261.051 162.935 261.468 162.618 261.854 162.266L274.054 177.164C274.439 177.024 274.824 176.883 275.21 176.777C274.15 171.353 273.123 165.929 272.063 160.469C272.577 160.293 273.123 160.117 273.636 159.906C276.526 167.408 277.425 176.037 284.231 181.602C281.053 170.648 277.874 159.73 274.664 148.775C275.177 148.564 275.691 148.318 276.237 148.106C277.007 149.515 277.939 150.854 278.516 152.368C281.278 159.377 283.878 166.457 286.607 173.466C288.277 177.763 289.689 182.659 295.565 178.749C295.982 178.468 297.78 179.63 298.133 180.511C299 182.553 299.449 184.843 299.899 187.062C300.862 191.57 301.729 196.079 302.628 200.587C303.238 200.481 303.88 200.411 304.49 200.305C304.105 194.987 303.751 189.704 303.334 184.033C305.614 184.667 307.508 185.195 310.686 186.076C309.531 183.61 308.824 182.589 308.535 181.462C308.278 180.37 308.471 179.137 308.471 177.939C309.627 178.292 310.911 178.362 311.874 179.066C313.03 179.912 313.865 181.25 315.631 183.364C316.176 180.546 316.818 178.926 316.722 177.341C316.048 166.175 315.245 155.01 314.411 143.844C314.346 142.823 313.833 141.696 313.255 140.85C309.98 136.236 310.205 132.221 314.796 127.466C315.663 131.235 316.658 134.511 317.204 137.892C318.392 145.57 319.13 153.354 320.511 160.962C321.056 164.027 322.212 168.5 324.171 169.345C326.418 170.331 329.982 168.288 332.711 166.95C335.119 165.752 337.302 163.851 339.389 162.019C341.668 160.011 343.723 157.757 346.195 155.256C346.388 155.609 346.934 156.419 347.351 157.299C347.865 158.462 348.282 159.73 348.731 160.927C349.695 160.082 350.658 159.236 351.621 158.356C351.942 158.039 352.231 157.651 352.713 157.088C353.451 157.475 354.222 157.828 354.928 158.285C357.817 160.047 358.973 158.99 359.23 155.538C359.358 153.847 360.129 152.192 360.611 150.537C362.023 151.206 363.404 151.875 365.587 152.932C365.651 151.382 365.747 149.48 365.876 146.627C367.128 148.458 368.091 149.832 369.279 151.593C370.082 148.177 370.82 144.971 371.591 141.801C371.976 141.731 372.329 141.661 372.714 141.59C373.742 143.88 374.769 146.134 376.439 149.867C377.081 145.782 377.53 143.14 377.948 140.463C378.333 140.393 378.718 140.322 379.103 140.252C380.452 143.985 381.8 147.754 383.149 151.488C381.126 130.178 383.919 109.327 385.846 87.1016C388.992 106.016 391.914 123.556 394.867 141.484C396.055 140.604 396.505 140.287 397.275 139.688C397.468 141.449 397.628 142.893 397.757 144.161C399.137 140.991 400.55 137.857 401.866 134.651C403.889 129.72 402.059 125.141 400.967 120.351C399.555 114.046 398.784 107.566 397.725 101.12C398.335 100.944 398.945 100.803 399.555 100.627C401.931 107.918 404.21 115.209 406.682 122.429C407.549 124.93 409.186 127.079 409.989 129.579C410.824 132.151 411.305 134.898 411.562 137.645C411.819 140.463 411.98 142.964 416.025 142.612V107.671C420.905 115.737 419.203 124.824 420.552 133.63L427.166 118.766C427.583 118.942 428.032 119.118 428.45 119.295C427.005 125.916 425.56 132.538 424.019 139.512C428.161 139.512 431.821 139.723 435.417 139.336C436.219 139.265 437.086 137.223 437.504 135.955C438.146 133.841 438.081 131.376 439.045 129.509C439.687 128.241 442.448 126.726 442.833 127.114C447.713 131.869 453.46 127.36 458.693 129.051C460.844 129.756 464.023 128.206 466.238 126.726C467.972 125.564 468.935 122.993 469.994 121.443C471.15 124.86 472.402 128.452 473.622 132.045C474.2 131.869 474.81 131.728 475.388 131.552C474.939 123.627 474.521 115.702 474.072 107.777C474.682 107.671 475.292 107.53 475.902 107.425C477.026 112.778 478.181 118.132 479.209 123.521C479.562 125.282 479.401 127.114 479.819 128.84C480.332 131.129 481.424 131.728 483.8 130.847C486.433 129.861 489.418 129.826 492.244 129.756C493.111 129.756 494.042 130.918 494.908 131.587C494.042 132.327 493.271 133.207 492.308 133.736C491.441 134.229 490.382 134.299 489.065 134.687C490.157 138.209 492.244 138.033 494.395 137.046C497.766 135.532 500.72 134.44 500.174 140.604C500.11 141.238 501.265 142.647 501.586 142.576C502.485 142.33 503.609 141.696 503.994 140.85C506.274 135.814 509.163 131.834 514.525 130.46C515.617 130.178 516.13 127.501 516.997 125.987C517.832 124.543 518.827 123.169 519.758 121.76C520.24 123.416 521.075 125.036 521.139 126.726C521.331 131.27 521.203 135.814 521.203 140.357C521.685 140.357 522.198 140.357 522.68 140.357C523.033 138.878 523.386 137.399 523.771 135.919C523.996 136.272 524.253 136.624 524.478 136.976C526.854 135.638 529.197 134.229 531.573 132.961C532.825 132.292 534.174 131.834 535.458 131.305C535.49 132.749 535.458 134.193 535.618 135.602C535.747 136.906 536.1 138.174 536.357 139.477C537.384 138.843 538.444 138.244 539.471 137.54C540.531 136.835 541.462 135.638 542.585 135.356C543.966 135.039 545.475 135.461 546.92 135.567C545.86 136.412 544.576 137.082 543.773 138.174C542.971 139.265 542.168 140.85 542.264 142.154C542.328 143.105 543.773 144.654 544.704 144.725C549.295 145.112 551.864 142.295 552.763 136.236C556.23 140.85 559.987 141.661 564.995 138.279C564.128 141.872 563.647 143.985 563.133 146.099C563.422 146.239 563.711 146.38 564 146.521C567.146 140.78 570.325 135.039 573.471 129.298C574.017 129.615 574.563 129.896 575.108 130.213C575.847 134.123 573.31 137.117 571.866 140.357C569.971 144.584 570.806 146.803 575.429 147.93C575.173 146.451 574.948 145.112 574.723 143.774C575.14 143.563 575.558 143.351 575.975 143.105C576.97 145.112 577.966 147.12 578.993 149.163C583.456 142.259 591.161 146.486 597.133 143.809C598.834 143.069 600.568 142.4 602.848 141.52C603.393 143.105 604.036 144.936 604.742 147.05C611.291 145.993 617.68 144.549 624.102 144.267C625.964 144.197 627.954 147.402 630.651 149.797C628.211 150.783 627.28 151.135 625.996 151.664C626.831 154.024 627.665 156.313 628.821 159.624C631.133 156.348 632.802 153.953 634.504 151.558C634.889 151.84 635.242 152.086 635.627 152.368C635.403 153.847 635.146 155.362 634.696 158.215C638.549 158.673 642.241 159.096 645.901 159.483C646.929 159.589 648.117 159.096 648.983 159.483C655.116 162.301 661.151 165.295 667.669 168.429C666.577 169.733 665.871 170.578 664.94 171.67C665.71 171.916 666.16 172.269 666.449 172.128C668.151 171.494 670.269 170.331 670.494 173.431C670.558 174.488 668.568 176.354 667.219 176.777C660.092 179.066 652.772 180.722 646.543 185.512C645.901 186.005 645.42 186.78 644.521 187.837C645.677 188.224 646.415 188.823 646.961 188.647C653.029 186.569 658.968 183.927 665.1 182.272C670.751 180.757 676.851 178.749 682.341 179.7C685.937 180.334 689.115 183.364 693.032 180.687C693.225 180.581 693.771 181.109 694.541 181.602C691.812 183.61 689.629 185.266 687.414 186.921C687.671 187.379 687.895 187.872 688.152 188.33C689.18 187.978 690.303 187.168 691.234 187.379C692.776 187.696 694.509 188.33 695.537 189.492C697.399 191.535 698.811 194.106 700.641 196.255C701.733 198.192 702.921 200.094 703.884 202.137C704.237 202.877 704.301 204.004 704.045 204.779C703.756 205.659 703.081 206.434 702.407 207.068C695.119 213.795 687.799 220.417 680.543 227.18C679.323 228.307 678.424 229.857 677.397 231.23C677.686 231.618 678.007 232.005 678.296 232.393C684.203 228.694 690.271 225.207 696.018 221.192C700.706 217.952 705.136 215.345 711.012 217.318C712.649 217.881 714.896 216.155 716.116 215.733C718.653 216.402 720.964 216.472 722.698 217.599C724.175 218.586 725.042 220.734 726.165 222.39C725.074 222.918 723.95 223.341 722.923 223.939C721.414 224.82 719.937 225.841 718.46 226.792C718.653 227.215 718.845 227.673 719.038 228.096C722.152 228.906 725.266 229.751 728.959 230.702C728.702 232.991 728.413 235.598 728.124 238.204C728.541 238.275 728.991 238.38 729.408 238.451C729.793 237.359 730.018 236.126 730.628 235.246C731.142 234.471 732.105 234.048 732.875 233.485C733.389 234.365 734.031 235.21 734.352 236.161C734.545 236.69 734.32 237.5 734.031 238.063C731.399 243.347 732.298 247.82 736.76 251.589C736.953 251.518 737.595 251.554 737.723 251.272C740.998 244.368 746.681 244.72 752.46 245.39C752.909 245.425 753.712 245.39 753.744 245.495C754.258 248.102 755.285 250.814 754.9 253.279C754.515 255.78 752.685 257.999 751.497 260.324C750.951 259.126 749.827 257.858 749.988 256.766C750.213 254.829 751.24 253.033 752.139 250.567C749.956 250.426 748.671 250.321 747.387 250.25C746.103 250.145 744.851 250.039 742.636 249.828C743.47 251.765 744.048 252.786 744.337 253.878C744.819 255.78 745.589 257.823 745.365 259.655C744.787 264.515 746.071 266.03 750.277 264.903C751.593 264.55 753.038 264.656 754.868 264.515C754.45 266.593 754.162 267.967 753.905 269.235C760.668 274.471 762.851 278.44 760.454 281.14C763.023 284.381 762.124 285.719 758.367 286.881C755.478 287.797 752.877 290.227 750.469 292.446C749.635 293.221 749.763 295.229 749.281 297.483C753.873 295.898 757.565 294.665 762.156 293.08C761.353 295.123 760.583 297.025 759.844 298.892C764.788 299.667 766.747 297.307 769.347 286.67C770.311 288.466 770.76 289.629 771.434 290.58C772.462 291.988 773.457 293.679 774.838 294.454C775.512 294.841 777.92 293.433 777.952 292.763C778.048 290.861 777.374 288.889 776.828 286.987C776.635 286.283 775.993 285.754 775.03 284.451C776.957 283.641 778.465 283.007 779.814 282.443C784.533 288.854 779.493 294.56 779.557 300.477C779.557 304.563 778.401 308.684 778.819 312.664C779.3 317.489 782.992 315.869 786.524 314.953C785.625 316.538 785.208 317.384 784.694 318.088C782.671 320.976 782.382 322.667 786.62 322.737C788.193 322.737 789.991 323.97 791.276 325.203C792.175 326.083 792.399 327.845 792.913 329.183C791.661 329.218 790.28 329.606 789.125 329.218C786.267 328.267 786.171 328.338 785.143 335.03C784.052 334.114 783.121 333.304 782.158 332.494C781.837 332.635 781.483 332.776 781.162 332.917C781.548 334.678 781.933 336.404 782.318 338.235C776.154 344.293 775.544 344.329 768.128 339.996C767.164 339.433 765.431 339.468 764.5 340.031C763.825 340.489 763.376 342.567 763.761 343.448C764.211 344.469 765.591 345.174 766.715 345.597C768.449 346.231 770.279 346.759 772.076 346.865C773.971 346.935 775.993 346.794 777.759 346.125C780.296 345.139 782.671 343.554 785.657 341.933C786.428 345.702 787.038 348.626 788.033 353.381C782.992 347.005 778.819 346.865 775.287 352.676C778.947 356.128 782.639 359.58 786.556 363.243C785.143 364.933 784.116 366.201 783.795 366.554C784.244 370.005 784.758 372.506 784.822 375.042C784.887 378.459 786.074 379.903 789.317 380.29C791.629 380.572 793.78 382.263 796.027 383.249C797.472 383.883 798.917 384.446 800.426 384.799C802.737 385.362 805.113 385.714 807.457 386.137C807.457 386.877 807.521 387.581 807.553 388.321C805.081 388.92 802.641 389.554 799.463 390.329C804.214 396.704 798.917 403.889 801.549 411.391C802.577 410.616 803.765 409.278 805.209 408.82C806.751 408.327 809.64 407.975 809.993 408.679C812.401 413.646 814.97 414.632 818.951 408.82C819.143 411.11 819.368 412.096 819.304 413.082C819.079 416.463 818.79 419.845 818.469 423.226C818.405 424.001 818.405 425.058 817.988 425.515C811.823 432.102 815.226 440.379 813.685 448.797C812.818 447.142 811.566 445.662 811.245 443.972C810.154 438.407 809.351 432.771 808.645 427.136C808.484 425.903 809.319 424.529 809.544 423.226C809.736 422.169 809.929 421.042 809.704 420.056C809.608 419.563 808.131 418.929 807.938 419.105C807.264 419.774 806.622 420.76 806.43 421.711C805.563 426.326 804.856 431.01 804.118 435.659C800.297 433.088 800.201 432.208 803.476 426.854C801.678 425.621 799.88 424.424 797.729 422.944C796.509 425.973 795.193 428.509 794.55 431.257C794.294 432.349 795.578 433.863 796.252 435.166C797.344 437.209 798.467 439.217 799.591 441.26C799.077 441.753 798.532 442.246 798.018 442.739C796.316 441.33 794.647 439.921 792.11 437.773C792.785 440.203 793.523 441.858 793.619 443.584C793.716 444.888 793.009 446.226 792.656 447.564C791.757 446.966 790.73 446.508 789.991 445.698C787.905 443.373 785.978 440.872 783.891 438.548C783.474 438.055 782.511 437.632 782.029 437.843C781.516 438.09 780.938 439.146 781.034 439.745C781.323 441.506 781.869 443.197 782.414 444.888C784.309 450.734 786.235 456.581 787.359 463.027C783.859 458.695 780.392 454.362 776.668 449.713C778.305 448.621 779.397 447.881 780.809 446.895C779.525 444.606 778.273 442.352 777.502 440.943C775.094 441.154 773.329 441.295 771.563 441.471C771.98 439.393 772.365 437.28 772.943 434.462C770.985 434.568 768.641 434.673 767.036 434.744C760.807 426.924 754.836 419.175 748.543 411.744C747.708 410.757 744.562 410.652 743.599 411.568C734.802 419.809 726.679 428.685 720.804 439.851C717.689 445.768 713.676 451.122 710.305 456.898C709.535 458.202 710.08 460.315 709.631 461.935C709.117 463.696 708.539 465.95 707.319 466.796C703.691 469.332 701.155 471.762 704.815 476.376C704.911 476.482 704.944 476.658 705.008 476.834C706.26 480.251 711.044 485.041 713.997 485.921C714.222 485.992 714.383 486.379 714.8 486.872C713.997 487.823 713.163 488.81 712.328 489.831C712.456 490.324 712.585 490.817 712.713 491.346C714.511 491.099 716.277 490.817 717.978 490.606C717.176 495.924 720.611 499.447 726.711 499.094C736.375 498.566 746.007 497.932 755.638 497.368C756.184 497.368 756.73 497.615 757.276 497.756L757.757 499.306C754.515 500.574 751.336 502.441 747.965 503.004C742.989 503.814 737.82 503.356 732.811 504.025C727.995 504.659 723.212 505.963 718.428 506.984C718.46 507.653 718.492 508.287 718.524 508.957C720.9 508.957 723.308 509.203 725.652 508.886C728.894 508.428 732.041 507.512 735.283 506.914C736.503 506.702 737.788 506.667 738.976 506.914C739.264 506.984 739.553 509.238 739.361 509.344C738.237 509.872 737.017 510.119 735.797 510.401C735.38 510.471 734.93 510.295 734.481 510.26C736.311 519.382 729.665 510.401 729.087 512.831C730.532 516.283 732.041 519.136 732.811 522.235C733.132 523.539 731.976 525.3 730.885 526.99C728.22 522.094 728.798 514.099 720.515 515.578C726.23 517.339 726.39 521.496 726.005 526.99C725.459 534.316 727.45 541.361 731.912 547.877C731.688 543.615 731.495 539.776 731.334 536.747C734.513 538.367 737.499 539.811 740.388 541.431C741.255 541.889 742.218 542.629 742.636 543.545C743.952 546.433 745.044 549.427 746.328 552.632C745.332 552.949 744.145 552.984 743.502 553.653C742.796 554.393 742.122 555.943 742.379 556.753C742.668 557.634 744.112 558.69 744.979 558.585C750.02 558.056 752.267 559.113 753.166 564.15C753.776 567.496 755.028 569.257 757.789 570.56C758.721 570.983 758.913 573.378 759.459 574.857C758.078 574.892 756.666 575.174 755.349 574.928C754.194 574.681 753.134 573.836 751.754 573.765C755.125 581.127 763.087 581.373 768.93 586.375C769.155 586.269 770.311 585.776 772.879 584.649C771.531 587.607 770.728 589.333 769.701 591.552C771.145 591.623 772.141 591.517 773.04 591.764C774.517 592.186 776.924 592.539 777.181 593.49C777.727 595.603 777.92 598.562 776.957 600.287C775.415 603.07 775.865 604.021 777.952 606.205C783.378 611.911 791.211 615.046 793.651 624.098C794.229 626.281 796.958 627.69 798.564 629.627C804.471 636.672 810.635 643.47 815.997 650.972C817.955 653.719 818.18 658.157 818.694 661.891C818.854 662.948 817.57 664.814 816.511 665.484C810.988 668.935 805.37 672.105 799.751 675.346C799.238 675.628 798.628 675.804 798.05 675.839C797.665 675.839 797.247 675.592 796.316 675.311C797.536 674.289 798.532 673.655 799.302 672.775C801.293 670.52 804.535 669.428 804.118 664.92C803.957 663.229 806.173 661.257 807.971 658.334C805.563 657.876 803.733 657.312 801.87 657.206C798.885 657.065 795.931 657.77 795.128 652.909C794.904 651.43 792.431 650.373 790.73 648.894C790.345 651.677 790.409 654.424 789.831 654.635C787.134 655.516 783.795 656.819 781.516 655.762C778.498 654.389 776.7 654.706 774.292 656.678C771.916 658.58 769.123 659.883 766.522 661.433C764.949 662.384 763.151 663.018 761.899 664.321C757.083 669.288 751.497 672.141 744.241 672.176C743.663 666.611 743.47 660.588 742.282 654.776C741.801 652.381 739.297 650.479 737.723 648.366C737.242 648.718 736.792 649.035 736.311 649.387C736.6 650.444 736.889 651.5 736.889 651.5C733.55 655.199 730.243 658.263 727.578 661.926C725.555 664.673 724.239 668.09 722.858 671.366C722.345 672.598 722.056 674.5 722.57 675.592C723.79 678.304 723.822 680.664 721.061 681.51C718.043 682.425 714.832 682.496 711.654 682.672C711.461 682.672 710.723 680.242 711.044 679.255C711.686 677.142 712.874 675.24 713.773 673.373C713.612 671.612 713.419 669.745 713.163 667.139C715.924 669.217 717.593 670.485 719.263 671.753C719.584 671.436 719.873 671.119 720.194 670.802C719.616 669.428 719.038 668.055 718.428 666.575C720.804 663.3 723.533 660.235 725.523 656.643C730.628 647.344 735.476 637.869 731.206 626.317C729.825 622.583 728.702 618.744 727.706 614.869C725.588 606.768 723.918 598.526 721.478 590.531C716.63 574.787 711.076 559.324 702.792 545.271C697.656 536.535 693.064 527.307 687.221 519.171C674.764 501.842 663.11 483.667 647.828 468.909C637.586 459.012 627.762 448.621 617.552 438.724C599.926 421.606 580.663 407.2 559.088 396.704C548.429 391.491 537.673 386.489 526.886 381.558C524.317 380.396 521.396 380.149 518.763 379.057C511.186 375.923 503.673 372.471 496.096 369.371C494.459 368.702 492.565 368.667 490.799 368.667C479.594 368.561 468.421 368.526 457.216 368.491C456.317 368.491 455.354 368.737 454.552 368.42C443.411 364.335 432.399 368.773 421.354 369.195C412.558 369.548 403.728 369.829 395.028 371.097C377.723 373.633 361.124 378.741 345.778 388.427C337.077 393.921 327.927 398.535 318.777 403.079C312.998 405.967 306.577 407.376 300.99 410.581C292.996 415.125 285.451 420.655 277.746 425.797C271.421 429.989 265.096 434.18 258.771 438.442C257.648 439.182 255.914 439.921 255.657 441.013C253.667 449.466 246.892 453.975 242.333 460.104C229.427 477.362 216.52 494.551 207.467 514.698C201.816 527.237 196.904 540.128 191.606 552.843C191.061 554.147 190.386 555.415 189.584 556.542C185.346 562.494 182.296 568.905 180.305 576.336C178.443 583.346 173.788 589.369 171.412 596.272C169.518 601.767 166.211 607.614 169.839 613.883C170.545 615.081 171.187 616.595 172.215 617.229C181.846 622.97 191.51 628.571 201.206 634.171C203.293 635.369 207.499 633.572 206.439 637.905C210.838 640.899 214.594 643.752 218.607 646.111C224.836 649.775 230.422 654.741 238.128 655.304C242.012 655.586 245.737 658.545 249.589 660.165C250.52 660.552 251.644 660.834 252.575 660.658C261.982 658.967 271.004 660.834 279.833 664.286C280.475 664.533 281.213 665.026 281.502 665.624C284.295 671.295 289.111 670.732 293.542 669.851C298.904 668.794 303.719 670.732 307.765 673.585C311.425 676.156 314.09 678.938 318.36 675.17C319.515 674.148 321.506 673.866 323.079 674.007C329.532 674.5 335.986 675.768 342.439 675.768C347.319 675.768 351.46 676.86 355.185 680.277C355.731 680.77 357.175 680.981 357.721 680.559C360.9 678.058 363.917 677.741 367.128 680.488C367.481 680.77 368.605 679.925 369.375 679.678C370.339 679.361 371.366 678.762 372.265 678.903C379.2 680.066 386.135 681.369 393.037 682.602C393.455 682.672 393.968 682.672 394.354 682.496C401.417 679.396 408.544 680.7 415.768 681.686C420.552 682.355 425.464 681.686 430.28 682.214C435.834 682.813 441.388 683.905 446.846 685.208C448.002 685.49 448.837 687.568 449.8 688.836L449.928 688.695C448.997 689.047 448.034 689.435 447.521 689.646C448.419 693.203 449.254 696.444 450.089 699.719C449.511 700.248 448.901 700.811 448.323 701.34C447.649 699.896 447.296 698.029 446.236 697.078C443.475 694.577 440.425 692.428 437.439 690.209C437.118 689.963 436.316 689.892 436.187 690.104C433.105 694.753 430.472 691.301 427.551 688.941C427.23 690.703 427.037 691.865 426.78 693.45C424.597 692.182 422.703 691.09 420.712 689.963C419.364 692.957 418.144 695.739 416.506 699.438C415.319 697.007 414.709 695.81 414.002 694.366C413.264 694.507 412.525 694.542 411.883 694.824C408.523 696.279 406.425 694.988 405.591 690.949C404.916 687.673 402.38 686.124 399.94 688.096C397.018 690.456 391.946 692.217 395.734 698.24C396.087 698.768 395.253 700.213 394.771 701.938C392.331 698.346 389.923 698.346 387.066 701.727V694.366C385.139 695.458 383.791 696.232 382.763 696.831C380.933 693.661 379.168 690.632 376.856 686.617C374.737 689.364 372.939 691.689 371.591 693.45C368.83 689.963 366.55 686.793 363.95 683.975C363.147 683.095 360.835 682.461 360.257 682.989C355.281 687.885 351.268 682.249 348.025 681.932C345.81 683.799 344.301 685.102 342.439 686.687C341.347 681.263 340.545 681.122 336.563 684.75C338.779 690.28 345.585 692.217 345.874 699.543C339.806 692.675 333.706 686.124 324.042 684.327C325.005 686.159 325.648 687.356 326.29 688.519C326.097 689.012 325.936 689.505 325.744 690.033C323.817 689.329 321.377 689.188 320.093 687.779C317.91 685.384 315.695 684.539 312.741 683.658C310.237 682.883 307.476 681.686 304.779 680.84C302.853 680.242 300.862 679.079 299 679.291C291.616 680.101 284.263 681.157 276.943 682.566C274.728 682.989 272.77 684.926 269.431 686.899C274.503 688.836 279.062 690.597 283.621 692.323C283.493 692.851 283.364 693.344 283.236 693.873C281.92 693.556 280.603 693.274 279.287 692.957C274.15 691.759 268.435 691.689 263.973 689.082C257.487 685.278 250.841 688.906 244.517 686.828C243.618 686.546 242.333 687.603 241.21 688.026C242.173 689.082 243.04 690.879 244.099 690.984C247.47 691.407 250.873 691.161 254.277 691.301C256.01 691.372 257.712 691.654 259.381 692.992C248.273 694.718 237.229 693.027 226.152 693.873C226.088 693.309 226.024 692.781 225.992 692.217C230.037 691.055 234.114 689.857 238.16 688.695C238.095 688.167 238.031 687.603 237.967 687.075C231.899 687.673 225.863 688.307 219.795 688.906C219.667 688.484 219.538 688.026 219.41 687.603C220.63 686.406 221.85 685.173 223.07 683.975C227.34 684.151 231.45 683.764 236.041 680.383C233.183 679.643 231.417 679.15 229.587 678.727C225.542 677.776 223.808 679.255 223.198 684.151L223.231 684.257ZM508.65 303.4C506.306 307.698 506.659 313.016 509.677 315.975C510.191 316.503 511.635 316.75 512.021 316.362C512.599 315.799 513.016 314.355 512.727 313.615C511.475 310.163 509.966 306.817 508.553 303.436C507.719 296.849 506.852 290.227 506.017 283.641C505.375 283.711 504.765 283.782 504.123 283.852C504.123 288.114 503.609 292.517 504.315 296.638C504.733 299.103 507.141 301.146 508.585 303.4H508.65ZM735.572 377.719C735.283 369.865 732.105 365.356 727.45 367.857C730.275 371.203 733.004 374.408 735.701 377.613C736.696 378.776 737.756 379.868 738.655 381.136C741.448 385.045 744.626 388.744 746.809 393.041C748.928 397.232 753.68 399.345 757.115 396.281C758.239 395.295 759.427 393.146 759.17 391.843C758.849 390.258 757.308 388.462 755.863 387.757C753.263 386.489 750.213 386.348 747.644 385.045C745.75 384.094 743.438 382.439 742.764 380.502C740.709 374.549 740.549 374.267 735.604 377.719H735.572ZM204.32 674.219C210.26 674.606 215.91 673.726 221.529 668.654C219.249 668.407 217.869 668.02 216.52 668.125C211.961 668.513 207.435 669.252 202.876 669.569C200.468 669.745 197.995 669.041 195.588 669.217C190.804 669.534 185.956 669.886 181.236 670.873C178.443 671.436 175.875 673.197 173.21 674.43C173.37 674.923 173.531 675.381 173.692 675.874C180.016 675.099 186.341 674.043 192.666 673.655C196.551 673.409 200.468 674.113 204.385 674.395C201.046 674.958 197.707 675.522 194.079 676.156C199.44 680.876 203.068 680.066 204.288 674.289L204.32 674.219ZM680.8 434.568C682.213 435.871 683.272 436.857 684.364 437.808C687.189 440.379 690.079 442.598 694.06 440.908C697.624 439.358 701.187 437.738 704.783 436.399C719.198 430.975 730.564 420.408 741.993 410.018C744.466 407.764 745.011 405.016 741.993 401.776C737.081 396.457 733.036 390.188 728.188 384.799C724.913 381.171 720.804 378.459 717.272 375.042C711.943 369.935 706.838 364.511 701.54 359.368C695.472 353.486 694.895 353.345 690.785 361.2C682.662 376.698 674.764 392.336 667.252 408.151C665.518 411.779 663.367 416.745 667.476 420.479C670.783 423.473 674.315 426.466 678.2 428.298C685.391 431.679 693.032 430.447 700.577 429.284C704.269 428.721 707.994 428.298 711.718 427.805C711.846 428.368 711.975 428.967 712.135 429.531C711.076 430.059 710.048 430.764 708.925 431.045C701.605 432.877 694.284 434.603 686.964 436.364C686.451 432.243 683.369 434.708 680.8 434.568ZM672.677 337.531C670.719 336.509 669.114 335.77 667.573 334.854C666.609 334.29 665.775 333.445 664.908 332.705C663.656 331.613 662.596 330.204 661.184 329.465C657.459 327.528 653.542 326.013 649.85 324.041C648.887 323.512 648.502 321.786 647.667 320.8C646.832 319.814 645.259 318.053 644.874 318.299C641.695 320.307 639.833 317.947 637.811 316.08C636.109 314.531 634.504 312.84 632.738 311.325C630.362 309.318 628.564 309.74 627.89 313.157C626.798 318.652 625.257 324.146 624.808 329.711C624.134 338.411 623.235 347.217 626.124 355.811C626.574 357.114 625.289 359.087 625.033 360.777C624.712 362.855 624.102 365.11 624.487 367.082C625.097 370.182 626.317 373.211 627.537 376.134C627.89 376.979 629.11 377.402 630.747 378.635C629.206 374.126 628.051 370.851 626.927 367.575C627.28 367.399 627.633 367.258 627.986 367.082C630.747 371.767 633.22 376.698 636.398 380.995C638.71 384.094 642.241 386.067 644.81 388.99C647.089 391.597 648.213 390.646 649.529 388.18C658.294 371.872 667.059 355.564 675.92 339.362C677.686 336.122 677.172 333.727 674.283 330.662C673.608 333.586 673.095 335.875 672.742 337.46L672.677 337.531ZM27.5145 462.675C28.1566 464.295 28.3172 465.457 28.9272 466.162C38.7836 477.433 47.8374 489.831 61.1291 496.699C68.3529 500.433 75.5125 504.589 83.0573 507.336C93.3953 511.105 103.765 510.401 114.007 504.272C104.279 500.644 95.0648 497.228 85.8505 493.776C85.9468 493.353 86.0431 492.895 86.1394 492.473C87.2952 492.367 88.5795 491.803 89.5747 492.191C98.757 495.572 108.035 497.862 117.731 499.13C123.125 499.834 126.079 496.911 130.092 495.15C129.257 494.339 128.487 493.811 127.716 493.776C116.897 493.388 106.205 492.543 95.9959 487.823C90.4416 485.252 84.4699 483.773 78.7872 481.483C69.0592 477.609 60.1981 471.339 49.7316 469.261C42.5079 467.852 35.5088 465.07 27.5145 462.604V462.675ZM658.069 411.004C657.588 410.793 657.074 410.616 656.592 410.405C656.753 408.855 656.4 406.883 657.138 405.791C662.821 397.267 668.889 389.025 674.507 380.431C680.383 371.414 685.969 362.186 691.491 352.887C692.23 351.655 692.487 348.731 691.812 348.062C689.18 345.561 686.258 343.166 683.08 341.793C681.667 341.194 678.488 342.427 677.557 343.941C668.183 359.227 659.193 374.796 653.671 392.301C652.419 396.281 651.712 401.001 652.387 405.051C653.061 409.102 655.758 412.73 658.005 417.555C662.115 409.56 665.999 402.093 669.852 394.59C669.306 394.238 668.761 393.851 668.215 393.499C664.844 399.345 661.473 405.192 658.069 411.039V411.004ZM580.342 350.457C581.915 348.59 583.071 347.639 583.681 346.407C590.808 331.895 597.839 317.348 604.934 302.802C606.572 299.456 606.122 296.884 602.527 296.286C599.252 295.722 597.711 293.538 595.592 291.073C593.601 288.748 589.684 288.114 586.474 287.656C585.703 287.551 584.034 290.967 583.616 292.975C581.883 301.217 579.539 309.459 579.154 317.806C578.64 328.197 579.828 338.728 580.342 350.457ZM227.18 304.211L227.308 305.197C235.848 303.823 244.388 302.449 252.928 301.076C253.121 301.639 253.281 302.238 253.474 302.802C250.552 304.809 247.631 306.782 243.521 309.6C248.755 314.038 253.121 317.806 257.551 321.54C262.207 325.485 267.183 324.358 270.008 318.828C270.49 317.877 271.485 317.243 272.962 315.728C273.476 319.286 273.893 321.646 274.15 324.041C274.535 327.387 276.076 328.197 278.805 326.929C281.502 325.696 284.231 324.569 286.896 323.336C287.699 322.984 288.405 322.385 289.721 321.505C281.984 320.378 281.727 320.025 284.938 314.495C281.599 308.789 278.163 302.837 274.664 296.884C272.834 293.785 270.297 292.939 266.991 293.961C259.606 296.18 252.222 298.328 244.773 300.266C238.962 301.78 233.087 302.943 227.212 304.246L227.18 304.211ZM213.663 331.825C214.369 332.459 215.204 333.691 216.296 334.149C221.144 336.157 225.992 338.94 231.032 339.538C236.522 340.172 242.847 341.793 247.342 335.805C251.837 337.777 255.85 336.474 259.638 331.754C259.189 331.367 258.771 330.838 258.258 330.627C251.516 327.668 244.709 324.886 237.999 321.751C233.151 319.497 228.56 319.074 224.162 322.702C220.726 325.555 217.419 328.549 213.631 331.825H213.663ZM526.725 268.108C523.45 266.629 520.914 265.501 518.41 264.304C517.19 263.74 516.066 262.86 514.782 262.472C509.838 260.958 508.585 261.768 508.874 267.298C509.195 273.814 509.998 280.295 510.993 286.74C512.278 295.194 516.323 302.062 522.905 308.684C524.253 294.348 525.505 280.929 526.725 268.108ZM499.211 311.924C499.211 310.621 499.275 309.67 499.211 308.719C499.114 307.768 498.986 306.747 498.601 305.866C494.17 295.757 494.716 284.979 494.908 274.201C494.973 269.799 495.422 265.325 494.748 261.063C493.849 255.463 489.033 257.541 485.887 257.154C482.773 256.766 483.415 260.113 483.511 262.261C484.025 273.92 483.768 285.684 488.616 295.898C487.428 297.06 485.983 297.765 485.919 298.645C485.213 305.972 491.858 312.77 499.243 311.889L499.211 311.924ZM402.412 293.256C403.472 286.67 400.357 276.279 396.119 273.497C389.474 269.165 383.052 264.48 376.471 260.042C374.833 258.95 373.1 257.964 371.27 257.33C370.274 256.978 368.605 257.083 368.027 257.753C367.513 258.351 367.834 260.183 368.188 261.275C371.173 270.01 377.948 275.434 383.662 281.598C387.098 285.296 393.487 284.451 396.986 289.312C398.142 290.932 400.261 291.742 402.412 293.256ZM452.946 251.835C452.047 259.584 462.193 282.831 467.651 285.578C467.811 281.915 467.522 278.287 468.229 274.941C469.449 269.446 471.343 264.093 472.948 258.704C473.976 255.287 473.655 253.139 469.577 253.033C464.119 252.892 458.661 252.258 452.946 251.835ZM543.163 317.877C543.613 317.665 544.03 317.489 544.48 317.278C546.149 307.204 550.804 297.554 548.075 286.811C547.048 282.76 545.956 278.675 544.512 274.765C543.902 273.109 542.264 271.947 541.076 270.573C540.049 272.158 538.251 273.673 538.123 275.364C537.192 288.572 537.545 301.745 541.494 314.46C541.879 315.658 542.585 316.75 543.131 317.877H543.163ZM608.274 365.92L610.136 365.849C610.136 361.763 609.879 357.642 610.232 353.592C610.457 351.091 611.516 348.696 612.351 346.301C612.64 345.456 613.571 344.892 613.796 344.047C616.974 332.353 620.088 320.624 623.138 308.895C623.427 307.733 623.171 306.394 623.171 305.126C622.496 304.985 621.854 304.845 621.18 304.739C617.713 317.348 614.245 329.958 610.746 342.708C608.53 333.656 613.86 325.52 613.796 316.714C609.237 326.26 605.833 336.016 603.747 346.583C602.206 354.508 605.352 359.897 608.241 365.92H608.274ZM328.184 268.037C329.468 270.644 330.463 273.532 332.133 275.857C334.926 279.802 337.623 284.486 341.379 286.74C343.916 288.29 345.617 289.875 347.319 292.2C353.034 300.09 361.253 303.471 369.568 306.57C369.825 306.676 370.242 306.359 371.141 306.042C367.224 303.717 363.853 301.675 360.45 299.632C360.643 299.209 360.835 298.822 361.028 298.399C362.794 299.139 364.56 299.843 366.293 300.618C367.995 301.358 369.696 302.132 371.43 302.907C371.559 302.555 371.655 302.238 371.783 301.886C360.675 293.362 349.534 284.838 338.393 276.279C338.297 276.42 337.816 277.266 336.981 278.569C335.279 273.532 334.573 268.319 328.216 268.002L328.184 268.037ZM563.229 330.134C563.775 328.197 564.257 327.14 564.417 325.978C566.44 312.382 568.495 298.786 570.389 285.155C570.646 283.324 570.228 281.387 570.132 279.485C568.559 280.541 566.408 281.211 565.541 282.725C564.096 285.296 563.165 288.325 562.491 291.284C561.078 297.448 560.179 303.753 558.638 309.846C556.84 317.102 558.189 323.371 563.197 330.099L563.229 330.134ZM449.158 291.108C449.607 290.72 450.025 290.333 450.474 289.946C449.254 286.494 448.034 283.042 446.782 279.626C443.636 271.031 440.586 262.402 437.183 253.913C436.605 252.505 434.614 251.765 433.266 250.708C432.88 252.469 431.885 254.371 432.174 256.027C433.234 262.085 435.064 268.002 435.962 274.06C437.311 283.042 444.406 285.789 449.126 291.108H449.158ZM573.953 341.898C574.402 341.757 574.884 341.616 575.333 341.476C575.333 340.137 575.333 338.799 575.333 337.425C575.397 332.881 575.173 328.338 575.654 323.864C577.035 311.079 578.768 298.293 580.213 285.508C580.342 284.416 579.378 283.183 578.929 281.985C578.255 282.901 577.259 283.747 576.938 284.803C573.182 297.342 570.1 310.093 570.421 323.407C570.517 327.845 571.416 332.283 572.155 336.685C572.444 338.482 573.343 340.137 573.953 341.898ZM561.207 274.765C560.661 274.518 560.083 274.272 559.537 273.99C558.317 276.279 556.712 278.463 555.941 280.929C554.464 285.508 553.662 290.368 552.121 294.947C550.772 299.033 553.084 302.978 550.162 307.768C546.021 314.531 548.621 323.547 549.392 331.613C549.456 332.318 550.034 332.987 550.387 333.656C550.804 333.727 551.19 333.832 551.607 333.903C552.538 330.662 554.24 327.422 554.272 324.181C554.304 317.243 553.373 310.551 555.941 303.541C558.413 296.849 558.991 289.312 560.34 282.126C560.789 279.696 560.918 277.23 561.207 274.765ZM619.896 339.609C619.318 339.609 618.708 339.609 618.13 339.609C617.841 340.771 617.391 341.898 617.295 343.096C616.685 349.224 616.428 355.423 615.497 361.482C614.277 369.583 614.502 377.05 619.96 383.531C622.239 386.208 624.391 387.722 628.757 385.679C619.414 371.872 618.772 355.917 619.896 339.609ZM152.727 387.018C158.795 398.923 176.581 405.932 182.521 399.416C174.655 389.941 164.798 386.454 152.727 387.018ZM98.1148 472.431C98.2112 471.938 98.3396 471.41 98.4359 470.917C96.8627 470.107 95.3217 469.261 93.7485 468.486C86.6531 464.999 79.5257 461.548 72.4624 457.955C71.7561 457.603 71.2745 456.581 70.825 455.771C68.1603 451.016 64.1471 449.29 58.9781 449.607C60.1981 451.545 61.6749 453.165 63.3444 454.468C64.6608 455.489 67.1971 455.736 67.5182 456.898C69.1234 462.534 74.0677 464.154 77.4067 467.676C83.4747 474.051 90.859 472.924 98.1148 472.431ZM266.124 683.552C271.004 681.756 274.985 680.277 278.87 678.868C278.741 677.001 278.613 675.346 278.484 673.761C274.418 675.076 271.689 675.228 270.297 674.219C271.068 673.232 271.838 672.281 273.219 670.52C270.233 670.239 268.211 670.062 266.156 669.886L265.931 671.33C266.798 672.317 267.633 673.303 268.467 674.254C265.674 678.586 257.969 678.058 255.015 673.479C251.805 676.614 248.626 679.713 245.062 683.2C249.589 685.948 251.965 683.729 253.924 680.911C256.364 682.214 258.707 683.024 260.569 684.574C264.101 687.533 265.931 686.722 266.092 683.623L266.124 683.552ZM87.4558 460.421C87.231 460.702 86.9742 461.019 86.7494 461.301C91.5332 463.731 96.3811 465.95 101.036 468.592C107.425 472.255 112.98 471.058 117.924 465.669C118.662 464.859 119.016 463.626 119.561 462.604C118.502 462.146 117.507 461.442 116.415 461.336C114.521 461.125 112.562 461.442 110.668 461.266C105.531 460.808 100.426 459.998 95.2574 459.681C92.689 459.54 90.0563 460.139 87.4558 460.385V460.421ZM119.369 298.047C122.515 315.27 136.898 332.071 144.861 328.584C136.224 318.264 127.813 308.155 119.369 298.047ZM119.722 419.986C124.859 429.425 132.468 435.483 140.558 440.872C143.673 442.95 146.819 443.232 150.447 440.485C146.081 436.822 142.356 433.018 138.086 430.27C132.179 426.431 125.854 423.367 119.69 419.986H119.722ZM379.264 254.794C378.943 255.428 378.622 256.027 378.301 256.661C384.593 261.979 390.886 267.333 397.5 272.933C398.046 271.595 398.656 270.82 398.527 270.221C397.564 265.466 396.601 260.711 395.253 256.097C394.931 255.005 393.037 253.773 391.914 253.808C387.708 253.878 383.47 254.442 379.264 254.829V254.794ZM475.035 268.002C467.587 279.943 468.807 294.207 478.695 301.322C477.539 290.192 479.08 279.273 475.035 268.002ZM112.948 280.964C112.498 281.316 112.049 281.668 111.599 282.021C112.594 283.887 113.429 285.895 114.681 287.551C116.929 290.544 119.401 293.362 121.873 296.145C125.918 300.688 129.964 305.232 134.169 309.6C135.711 311.185 137.733 312.206 139.435 313.58C140.302 314.284 141.008 315.235 141.779 316.08C142.26 315.517 143.191 314.848 143.127 314.39C142.902 313.122 142.549 311.607 141.746 310.727C139.05 307.698 136.16 304.95 133.367 302.062C126.56 295.018 119.786 287.973 112.98 280.929L112.948 280.964ZM145.182 481.695C145.118 481.166 145.053 480.638 144.989 480.11C143.095 480.11 141.201 480.039 139.338 480.11C132.853 480.356 126.368 480.814 119.882 480.814C117.635 480.814 115.388 479.264 113.108 479.159C105.339 478.806 97.6975 483.28 89.7995 480.039C89.5747 479.934 89.1253 480.462 88.6758 480.779C90.7626 485.006 94.0695 484.724 97.569 484.372C101.197 484.019 104.825 483.914 108.453 483.808C110.219 483.773 111.984 484.125 113.75 484.09C120.396 483.984 127.01 484.019 133.656 483.597C137.541 483.35 141.393 482.329 145.278 481.659L145.182 481.695ZM763.89 394.731C761.771 396.95 760.037 398.359 758.721 400.156C755.574 404.523 755.767 406.002 759.941 409.208C762.348 411.074 764.949 412.695 767.582 414.174C768.577 414.737 769.925 414.526 771.113 414.667C771.145 413.188 771.434 411.673 771.21 410.264C770.76 407.693 770.022 405.192 769.38 402.692C769.251 402.234 769.123 401.776 768.93 401.142H765.077C764.724 399.24 764.403 397.584 763.857 394.731H763.89ZM608.177 312.946C607.503 312.593 606.861 312.276 606.187 311.924C603.971 316.609 601.66 321.258 599.541 326.048C598.513 328.373 595.656 330.557 598.77 333.586C599.059 333.868 598.224 335.558 597.903 336.58C596.298 342.145 594.661 347.675 593.12 353.275C592.959 353.838 593.409 354.649 593.601 355.318C594.115 355.459 594.661 355.564 595.174 355.705C596.972 350.352 598.899 345.033 600.568 339.644C601.21 337.566 602.366 334.572 601.563 333.234C599.926 330.451 601.531 329.218 602.398 327.246C604.485 322.561 606.251 317.736 608.145 312.946H608.177ZM428.675 302.661C423.088 291.39 417.823 280.189 408.994 271.524C410.856 277.442 413.521 282.831 416.314 288.149C418.369 292.024 421.515 295.546 422.542 299.667C423.698 304.281 425.336 304.175 428.642 302.661H428.675ZM314.571 298.54C310.815 291.671 308.31 285.508 303.976 280.541C301.472 277.653 299.417 278.851 297.427 280.4C296.72 280.964 296.335 283.535 296.881 284.24C301.504 290.227 306.962 295.053 314.571 298.54ZM157.189 464.788C157.574 465.457 158.056 466.267 158.891 467.712C156.611 467.958 154.749 468.24 152.887 468.31C150.19 468.416 147.461 468.099 144.829 468.486C143.512 468.698 142.324 470.107 141.072 470.987C142.517 471.797 143.93 473.241 145.406 473.312C154.492 473.805 162.294 468.205 170.93 466.373C171.059 466.373 171.091 465.81 171.348 464.788H157.189ZM193.115 373.492C192.634 371.696 192.666 370.956 192.377 370.78C187.818 368.068 183.259 365.286 178.507 362.996C178.122 362.82 176.132 365.779 175.425 367.505C175.2 368.033 176.645 369.865 177.608 370.358C180.819 372.013 184.094 373.669 187.529 374.62C189.166 375.077 191.157 373.915 193.083 373.457L193.115 373.492ZM722.377 433.053C722.088 432.771 721.767 432.489 721.478 432.172C714.543 436.012 710.53 444.43 702.504 446.649C701.894 446.825 701.316 448.48 701.251 449.502C701.059 451.826 701.187 454.221 701.187 456.546C701.669 456.793 702.118 457.074 702.6 457.321C709.214 449.22 715.795 441.119 722.409 433.018L722.377 433.053ZM53.2633 407.799C52.9101 408.292 52.5569 408.82 52.2038 409.313C60.1981 418.26 68.4813 426.819 79.3651 431.538L80.2641 430.2C71.2424 422.733 62.2528 415.266 53.2312 407.764L53.2633 407.799ZM540.242 324.604C537.834 312.065 535.618 300.724 533.307 288.642C530.546 295.722 534.944 319.638 540.242 324.604ZM278.709 289.558C278.227 289.77 277.746 289.981 277.264 290.192C277.457 291.46 277.264 293.08 277.906 293.961C281.952 299.491 286.125 304.88 290.363 310.198C290.877 310.832 292.161 310.691 293.092 310.938C292.932 309.811 293.092 308.402 292.579 307.627C289.818 303.647 286.896 299.808 283.942 295.969C282.273 293.785 280.443 291.742 278.709 289.629V289.558ZM511.025 299.878C512.246 302.907 513.177 305.479 514.3 307.944C515.456 310.515 517.19 312.875 517.928 315.587C518.57 317.982 518.41 321.011 521.364 320.624C522.23 320.483 522.905 316.996 523.322 314.989C523.515 314.002 523.226 312.453 522.616 311.783C518.956 307.838 515.135 304.07 511.058 299.913L511.025 299.878ZM365.683 295.123C366.293 289.136 353.387 277.9 344.461 277.054C351.364 282.936 358.235 288.783 365.683 295.123ZM340.448 264.797C345.681 269.517 350.305 274.131 356.694 277.935C354.222 266.769 347.158 261.204 340.448 264.797ZM127.427 450.312C120.621 445.24 112.594 446.05 104.921 445.24C111.439 451.615 119.497 450.594 127.427 450.312ZM50.149 348.872C49.8601 349.365 49.5711 349.858 49.2822 350.352C55.2217 358.312 61.1613 366.237 68.995 372.224C64.3076 364.511 59.0744 357.29 53.6806 350.246C52.9743 349.33 51.369 349.295 50.149 348.872ZM172.118 577.569C171.99 576.759 171.894 575.949 171.765 575.174C167.88 574.822 163.996 574.082 160.143 574.294C158.506 574.399 156.964 576.548 155.391 577.745C156.836 578.45 158.217 579.33 159.726 579.859C161.106 580.352 162.743 581.056 164.06 580.739C166.821 580.035 169.421 578.661 172.118 577.569ZM442.833 289.558C442.416 289.981 441.966 290.403 441.549 290.861C444.406 295.475 447.167 300.195 450.25 304.668C450.699 305.302 453.332 305.267 453.588 304.739C454.231 303.365 454.809 300.794 454.134 300.125C450.571 296.391 446.622 293.045 442.833 289.593V289.558ZM302.21 298.117C302.467 297.976 302.692 297.835 302.949 297.694C300.637 295.088 298.486 292.27 295.95 289.946C294.441 288.572 292.29 288.079 290.62 286.917C289.24 285.966 288.116 284.557 286.864 283.359L285.451 284.557C286.768 286.6 287.891 288.889 289.464 290.615C291.294 292.587 293.381 294.419 295.629 295.757C297.619 296.955 300.027 297.377 302.243 298.117H302.21ZM774.195 418.26C774.324 420.937 774.709 423.613 778.658 421.641C779.364 421.289 780.392 421.641 781.227 421.535C782.286 421.465 783.313 421.254 784.373 421.113C784.084 419.915 784.052 418.471 783.41 417.59C782.382 416.252 781.002 415.125 779.621 414.209C776.25 411.99 774.292 413.329 774.195 418.26ZM192.024 310.586C192.12 311.22 192.249 311.854 192.345 312.453C202.651 310.445 212.925 308.437 223.231 306.465C223.134 305.796 223.006 305.126 222.909 304.457C212.604 306.5 202.298 308.543 192.024 310.586ZM202.522 654.6C196.968 652.24 191.414 649.88 185.892 647.52C190.354 656.22 193.886 657.664 202.522 654.6ZM257.712 176.988C257.648 185.195 264.294 196.713 269.944 198.932C265.642 191.218 261.693 184.103 257.712 176.988ZM143.769 412.131C143.673 412.835 143.544 413.54 143.448 414.244C151.089 416.78 158.827 417.872 166.949 415.371L143.769 412.131ZM433.972 294.912C433.555 290.051 433.587 285.684 432.656 281.563C432.11 279.203 429.959 277.266 428.546 275.152C428.032 275.505 427.519 275.857 427.005 276.209C428.899 282.443 428.482 289.699 433.972 294.877V294.912ZM398.174 302.59C398.463 302.238 398.784 301.886 399.073 301.569C395.22 295.018 391.593 288.184 384.208 285.578C383.823 286.036 383.438 286.459 383.052 286.917C388.093 292.165 393.134 297.377 398.174 302.626V302.59ZM400.486 255.463C397.885 262.86 402.027 277.16 406.425 277.301C404.403 269.904 402.444 262.684 400.486 255.463ZM331.972 285.226C328.858 279.978 326.354 275.61 323.657 271.384C323.175 270.644 321.955 270.503 321.089 270.08C320.767 270.89 320.125 271.736 320.157 272.546C320.318 275.434 327.959 284.169 331.972 285.191V285.226ZM129.803 404.911C129.932 404.382 130.06 403.889 130.188 403.361C123.478 400.966 116.8 398.571 110.09 396.211C115.837 401.811 122.226 405.228 129.771 404.911H129.803ZM616.846 160.434L617.616 161.878C618.836 161.209 621.052 160.61 621.116 159.8C621.308 157.264 621.469 154.129 620.281 152.192C617.969 148.318 614.662 151.03 611.548 152.262C612.929 153.46 614.502 154.129 616.043 154.129C618.997 154.129 619.543 155.327 618.194 158.004C617.777 158.814 617.327 159.624 616.878 160.434H616.846ZM140.302 336.791C140.013 337.178 139.724 337.531 139.467 337.918C143.32 341.264 147.204 344.61 151.153 348.027C153.69 343.201 149.741 339.362 140.334 336.791H140.302ZM187.69 425.198H167.206C174.109 427.171 181.044 430.517 187.69 425.198ZM107.49 391.139C107.682 390.646 107.907 390.152 108.1 389.695C102.931 386.454 97.7938 383.178 92.6248 379.938C95.8353 387.053 101.229 389.906 107.49 391.174V391.139ZM370.916 270.89C368.252 266.629 365.619 262.331 362.665 257.577C360.546 263.529 363.404 268.39 370.916 270.89ZM771.916 303.506C768.609 305.091 766.618 306.077 764.628 307.028C766.008 308.754 767.229 310.656 768.802 312.136C769.476 312.77 770.856 312.417 771.916 312.523V303.541V303.506ZM336.467 285.613C337.559 292.693 344.205 298.962 350.915 300.336C345.874 295.194 341.155 290.403 336.467 285.613ZM118.727 431.433C118.341 431.891 117.956 432.349 117.603 432.806C120.814 436.399 123.96 440.062 127.299 443.479C127.78 444.007 129.161 443.479 130.092 443.479C130.092 442.598 130.381 441.295 129.964 440.943C126.304 437.667 122.483 434.568 118.727 431.398V431.433ZM341.219 303.647C341.668 303.083 342.118 302.52 342.567 301.956C339.935 296.391 334.894 294.207 330.207 291.46C329.853 291.953 329.5 292.446 329.147 292.904C333.16 296.497 337.206 300.054 341.219 303.647ZM682.02 182.659C681.057 182.73 680.062 182.8 679.099 182.906C678.97 185.442 678.842 187.942 678.713 190.478C680.286 190.549 681.892 190.619 683.465 190.655C682.983 187.978 682.534 185.336 682.052 182.659H682.02ZM549.52 271.665C549.071 276.103 548.685 279.837 548.204 284.698C553.405 280.682 553.887 274.554 549.52 271.665ZM388.864 128.03C388.125 128.135 387.387 128.241 386.648 128.347C387.676 135.285 388.735 142.189 389.762 149.128C390.148 149.057 390.501 148.987 390.886 148.952L388.864 128.03ZM235.11 446.649C235.27 447.424 235.431 448.163 235.591 448.938C241.242 447.001 246.924 445.064 252.575 443.162C252.415 442.598 252.286 442.035 252.126 441.471C246.443 443.197 240.792 444.923 235.11 446.649ZM150.222 404.277C152.052 408.961 158.184 410.581 161.78 407.517C157.928 406.425 154.075 405.368 150.222 404.277ZM125.533 474.721C125.565 475.319 125.629 475.918 125.661 476.482C129.257 476.059 132.821 475.637 136.417 475.179L136.256 473.453C132.372 470.001 129 472.924 125.533 474.686V474.721ZM322.212 295.511C322.886 294.982 323.561 294.454 324.203 293.926C321.442 290.122 318.681 286.318 315.92 282.549C315.438 282.972 314.956 283.394 314.443 283.817C317.043 287.727 319.612 291.636 322.212 295.546V295.511ZM318.713 276.632C318.231 277.125 317.717 277.583 317.236 278.076C320.318 281.845 323.4 285.613 326.45 289.382C326.964 288.889 327.478 288.361 328.023 287.867C324.941 284.134 321.827 280.4 318.745 276.632H318.713ZM408.673 252.998C407.87 253.35 407.035 253.667 406.233 254.019L412.461 268.495C412.814 268.319 413.167 268.143 413.553 268.002C411.915 263.001 410.31 257.999 408.673 253.033V252.998ZM151.763 393.675C151.539 394.097 151.346 394.52 151.121 394.943C153.658 399.839 158.506 400.05 162.583 401.776C162.808 401.283 163.032 400.825 163.289 400.332C159.437 398.113 155.584 395.858 151.763 393.639V393.675ZM590.07 346.442C592.092 341.616 593.826 337.46 595.977 332.283C590.712 335.946 588.689 340.912 590.07 346.442ZM331.138 306.747C333.61 313.227 336.981 315.904 341.797 314.707C338.554 312.276 335.311 309.846 331.138 306.747ZM323.143 678.41C327.349 680.559 330.688 682.285 334.027 684.01C334.22 683.553 334.38 683.13 334.573 682.672C331.17 681.122 329.404 675.346 323.143 678.41ZM247.47 667.914C247.47 667.456 247.406 667.033 247.374 666.575H235.11C235.11 667.28 235.174 667.984 235.206 668.724L247.502 667.949L247.47 667.914ZM362.601 312.84C362.922 312.241 363.243 311.607 363.596 311.008C360.161 308.86 356.726 306.747 353.323 304.598C353.034 305.126 352.745 305.619 352.488 306.148C355.859 308.367 359.262 310.621 362.633 312.84H362.601ZM375.989 287.797L374.544 289.875C377.916 292.693 381.319 295.475 384.69 298.293C385.075 297.765 385.428 297.201 385.813 296.673C382.539 293.714 379.264 290.756 375.989 287.797ZM255.657 191.218C253.41 196.713 254.084 198.016 260.601 200.341C258.643 196.748 257.295 194.282 255.657 191.218ZM244.484 322.103C244.709 321.399 244.966 320.694 245.191 319.99C241.755 318.264 238.352 316.538 234.917 314.812C234.66 315.446 234.371 316.08 234.114 316.714C237.582 318.511 241.017 320.307 244.484 322.103ZM769.347 646.816C766.426 641.075 765.976 640.863 762.573 643.998C764.243 646.323 765.431 649.352 769.347 646.816ZM382.121 682.637C381.479 683.024 380.837 683.447 380.163 683.834C380.548 687.251 382.763 689.364 384.947 691.477L386.488 690.421C385.043 687.814 383.566 685.208 382.121 682.602V682.637ZM313.062 311.431C312.773 312.241 312.484 313.051 312.195 313.861C315.085 314.918 317.974 316.01 320.864 317.067C321.056 316.503 321.249 315.94 321.41 315.341C318.616 314.038 315.855 312.734 313.062 311.431ZM387.258 113.166C386.648 113.236 386.006 113.307 385.396 113.377C385.557 116.547 385.749 119.682 385.91 122.852C386.552 122.817 387.162 122.746 387.804 122.711C387.611 119.541 387.451 116.336 387.258 113.166ZM640.251 190.408C639.962 189.527 639.641 188.647 639.352 187.766C636.719 188.893 634.119 190.056 631.486 191.183C631.679 191.782 631.871 192.416 632.064 193.014C634.793 192.134 637.49 191.253 640.219 190.408H640.251ZM788.097 423.508C787.583 423.79 787.07 424.071 786.556 424.353C787.648 426.537 788.771 428.685 790.312 431.715C792.785 426.783 790.537 425.093 788.129 423.508H788.097ZM720.707 239.226C721.574 239.226 722.473 239.261 723.34 239.296C723.34 237.359 723.436 235.422 723.244 233.52C723.244 233.238 721.799 233.132 721.028 232.921C720.9 235.034 720.804 237.112 720.675 239.226H720.707ZM124.281 513.113L125.051 515.367C127.427 514.31 129.803 513.289 132.179 512.232C131.954 511.563 131.729 510.929 131.473 510.26C129.065 511.211 126.689 512.162 124.281 513.113ZM420.456 252.469L418.465 252.927C418.979 255.675 419.492 258.387 420.006 261.134C420.648 260.993 421.29 260.852 421.964 260.711L420.488 252.469H420.456ZM633.284 383.425C632.866 383.989 632.417 384.517 632 385.08C634.054 386.947 636.109 388.779 638.164 390.646C638.517 390.188 638.87 389.73 639.223 389.237C637.233 387.299 635.274 385.362 633.284 383.425ZM148.071 574.399C147.044 576.196 145.984 577.323 145.952 578.45C145.952 579.189 147.429 579.964 148.264 580.739C148.938 579.612 149.869 578.555 150.126 577.358C150.254 576.794 149.131 575.879 148.071 574.434V574.399ZM150.929 400.332C148.328 399.557 146.209 398.958 144.122 398.324C144.026 398.747 143.93 399.134 143.833 399.557C146.744 401.905 149.109 402.163 150.929 400.332ZM400.486 293.714C399.779 294.419 399.073 295.158 398.399 295.863C400.646 297.835 402.926 299.773 405.173 301.745C405.398 301.534 405.623 301.322 405.88 301.111L400.518 293.714H400.486ZM531.22 319.286C530.61 319.673 529.968 320.025 529.358 320.413C530.257 322.456 531.188 324.534 532.087 326.577C532.761 326.189 533.435 325.802 534.109 325.449C533.146 323.407 532.183 321.328 531.22 319.286Z" fill="#0C081E"/>
<path d="M490.63 772.851C494.267 773.414 497.223 773.273 499.659 774.366C505.537 777.01 509.564 773.273 514.111 770.524C513.429 768.656 512.812 766.999 512.195 765.343C512.455 765.096 512.747 764.849 513.007 764.603C514.956 765.977 516.937 767.352 519.697 769.291C519.502 766.682 519.405 765.202 519.145 761.889C522.458 764.603 524.861 766.436 527.07 768.48C530.285 771.441 531.747 776.763 536.911 777.045C537.723 777.08 538.534 776.763 540.451 776.446C538.827 775.318 538.047 774.789 537.3 774.225C535.254 772.674 533.111 771.3 531.292 769.502C530.48 768.691 530.415 767.035 530.025 765.766C531.552 765.942 533.663 765.484 534.442 766.4C536.781 769.044 539.281 768.727 542.269 768.586C545.322 768.445 548.375 770.031 551.493 770.454C553.442 770.736 555.813 770.877 557.437 769.96C560.36 768.304 561.366 769.573 562.276 771.335C559.71 773.344 557.696 775.106 555.488 776.551C554.741 777.045 553.539 776.622 552.565 776.692C549.804 776.869 546.914 776.692 544.316 777.538C543.114 777.926 542.529 780.464 541.425 782.473C534.637 780.746 528.109 783.566 522.231 788.183C521.094 786.456 520.217 785.081 519.34 783.742C518.203 784.905 517.262 786.526 515.93 787.09C512.39 788.571 508.72 789.699 505.05 790.791C503.361 791.285 501.347 790.791 499.853 791.567C494.657 794.246 489.785 796.078 483.874 793.047C481.828 792.025 478.321 794.422 475.463 795.232C473.871 795.691 472.247 796.36 470.656 796.36C467.57 796.36 464.81 796.537 462.504 799.427C461.562 800.59 459.516 801.224 457.957 801.224C445.908 801.224 434.541 804.679 423.141 808.38C420.867 809.12 418.334 808.803 415.898 808.944C415.898 808.415 415.833 807.851 415.801 807.322C416.808 807.216 417.847 807.181 418.854 807.04C420.315 806.829 422.361 807.075 423.173 806.124C426.941 801.718 432.17 802.247 436.814 800.837C441.621 799.392 446.46 798.193 451.267 796.783C451.851 796.607 452.631 795.796 452.728 795.162C453.637 788.359 458.022 786.773 463.413 786.28C464.647 786.174 466.076 785.011 466.921 783.918C470.461 779.195 475.203 777.856 479.944 780.605C483.095 782.438 484.914 781.169 485.563 777.75C485.92 775.847 485.563 773.802 485.855 771.899C486.083 770.665 486.96 769.573 487.577 768.445C488.454 769.396 489.428 770.277 490.175 771.335C490.597 771.934 490.63 772.851 490.63 772.851Z" fill="#0C081E"/>
<path d="M624.677 682.184C633.365 682.054 642.085 681.828 650.773 681.796C654.139 681.796 657.538 681.958 660.872 682.475C662.122 682.669 663.18 684.155 664.335 685.06C663.02 685.545 661.738 686.417 660.423 686.482C656.929 686.644 653.434 686.644 649.972 686.353C648.08 686.191 646.253 685.319 643.688 685.545C645.451 687.678 647.183 689.779 648.978 691.976C644.233 693.915 639.873 692.461 637.821 687.678C636.41 684.414 634.711 684.026 631.601 684.64C629.389 685.092 626.953 684.511 624.645 684.414C624.645 683.67 624.645 682.927 624.677 682.184Z" fill="#0C081E"/>
<path d="M219.24 707.689C229.021 704.404 238.64 699.854 248.584 698.169C258.365 696.526 268.407 691.513 278.775 698.169C258.854 701.75 239.194 705.288 219.534 708.827C219.436 708.448 219.338 708.069 219.24 707.689Z" fill="#0C081E"/>
<path d="M638.788 754.323C632.147 757.958 626.276 761.899 619.891 764.447C614.79 766.451 609.079 766.723 603.657 767.776C601.732 768.15 599.807 768.524 597.914 768.897C597.689 768.388 597.465 767.878 597.24 767.369C599.069 766.417 600.93 764.651 602.759 764.685C607.411 764.787 610.972 762.884 614.341 759.827C616.105 758.23 617.87 756.225 620.436 759.011C620.821 759.453 623.26 758.569 624.03 757.618C625.826 755.512 635.644 752.76 638.82 754.357L638.788 754.323Z" fill="#0C081E"/>
<path d="M377.211 706.012L398.211 736.012L605.711 745.012L593.711 706.012H377.211Z" fill="#D9D9D9"/>
<path d="M591.271 765.764C584.54 767.757 577.809 769.859 571.046 771.708C569.468 772.143 567.729 771.708 566.055 771.708C566.28 770.294 566.055 768.409 566.828 767.612C567.923 766.452 569.629 765.836 571.175 765.437C573.913 764.712 576.682 764.169 579.484 763.843C582.543 763.48 585.635 763.48 588.727 763.299C590.176 763.19 591.625 762.828 593.074 762.9C594.137 762.936 595.2 763.516 596.295 763.879C595.425 764.785 594.652 765.872 593.622 766.525C593.074 766.887 592.173 766.488 591.432 766.416C591.367 766.198 591.335 765.981 591.271 765.764Z" fill="#0C081E"/>
<path d="M478.832 701.819C477.246 700.115 475.428 698.198 473.644 696.281C473.347 696.707 473.049 697.175 472.719 697.601C471.496 694.577 470.241 691.552 468.721 687.803C474.833 688.229 480.484 688.612 487.621 689.081C484.25 693.98 481.574 697.857 478.832 701.777V701.819Z" fill="#0C081E"/>
<path d="M516.914 689.302C520.773 687.113 524.694 686.087 529.136 687.352C533.454 688.584 537.957 689.097 542.429 690.806H516.945C516.945 690.293 516.945 689.781 516.914 689.268V689.302Z" fill="#0C081E"/>
<path d="M458.325 774.54C454.603 776.65 452.239 778.365 449.585 779.354C447.124 780.277 444.405 780.64 441.783 780.904C440.714 781.003 439.581 780.145 438.48 779.717C439.257 778.728 439.873 777.211 440.844 776.881C445.311 775.364 449.844 774.078 454.408 772.924C455.088 772.759 456.027 773.551 458.325 774.54Z" fill="#0C081E"/>
<path d="M682.29 684.686C680.335 685.466 678.132 686.668 675.751 687.188C673.335 687.708 670.492 688.131 668.289 687.448C667.4 687.188 666.69 682.769 667.578 682.087C669.142 680.917 672.198 680.494 674.259 681.014C677.244 681.729 679.909 683.549 682.29 684.686Z" fill="#0C081E"/>
<path d="M561.987 686.879C565.502 686.879 569.017 686.607 572.474 687.084C573.274 687.186 573.874 689.707 574.56 691.104C573.503 691.718 572.446 692.842 571.388 692.808C569.159 692.706 566.902 692.229 564.788 691.411C563.502 690.9 562.473 689.469 561.33 688.447C561.53 687.936 561.759 687.424 561.959 686.913L561.987 686.879Z" fill="#0C081E"/>
<path d="M25.7814 401.469C20.9788 391.128 16.1424 380.824 11.3398 370.483C11.9824 370.121 12.5912 369.794 13.2338 369.431C17.9688 379.772 22.6699 390.148 27.4048 400.489C26.8637 400.815 26.3226 401.142 25.7814 401.432V401.469Z" fill="#0C081E"/>
<path d="M596.295 687.918C590.332 696.276 584.075 688.326 578.34 689.855C579.904 686.525 584.857 685.982 596.295 687.918Z" fill="#0C081E"/>
<path d="M303.172 702.82C306.325 703.282 309.51 703.678 312.63 704.339C312.791 704.372 312.984 706.979 312.405 707.573C310.121 709.884 307.548 711.897 304.105 714.834C304.974 710.412 307.419 706.517 302.4 704.174C302.658 703.711 302.915 703.282 303.172 702.82Z" fill="#0C081E"/>
<path d="M547.941 688.847H554.696C556.734 690.711 558.235 691.968 559.593 693.354C560.559 694.308 561.381 695.435 562.274 696.475C560.88 697.298 559.022 699.249 558.164 698.729C554.339 696.432 550.8 693.441 547.154 690.711C547.405 690.061 547.655 689.454 547.941 688.804V688.847Z" fill="#0C081E"/>
<path d="M15.1196 436.738C13.1596 439.247 12.0046 440.768 10.6046 442.517C7.66465 437.916 4.75965 433.392 1.88965 428.868L3.07965 427.499C6.99965 430.503 10.9546 433.506 15.1196 436.7V436.738Z" fill="#0C081E"/>
<path d="M498.961 696.754C502.23 690.592 507.55 692.046 511.862 690.822C512.627 690.592 513.948 692.888 515.026 693.998C514.052 694.917 513.148 696.562 512.14 696.639C507.932 696.945 503.69 696.754 498.996 696.754H498.961Z" fill="#0C081E"/>
<path d="M449.82 687.903C452.793 689.704 455.798 691.439 458.645 693.374C459.146 693.707 459.428 695.142 459.177 695.776C458.958 696.343 457.863 696.71 457.112 696.777C452.449 697.177 450.196 694.308 449.945 687.803L449.82 687.936V687.903Z" fill="#0C081E"/>
<path d="M452.654 682.797C456.858 684.128 461.062 685.495 465.884 687.037C459.393 690.296 454.725 689.139 452.654 682.797Z" fill="#0C081E"/>
<path d="M48.1945 535.198C45.4548 537.273 41.6748 537.086 36.8545 534.64C39.2337 531.767 45.8771 531.967 48.1945 535.198Z" fill="#0C081E"/>
<path d="M129.616 228.267C131.466 232.605 133.316 236.943 135.134 241.282C128.276 239.668 130.987 232.784 127.574 229.271C128.244 228.948 128.914 228.589 129.584 228.267H129.616Z" fill="#0C081E"/>
<path d="M49.1406 431.503C53.0349 435.584 56.0706 438.775 59.5356 442.411C55.0281 443.259 50.8271 438.937 49.1406 431.503Z" fill="#0C081E"/>
<path d="M294.84 701.819C291.328 701.498 287.815 701.177 283.5 700.81C289.354 695.302 291.16 695.348 294.84 701.819Z" fill="#0C081E"/>
<path d="M51.0297 336.93C46.4307 338.513 44.5092 336.138 43.4697 328.383C45.9582 331.193 48.3837 333.923 51.0297 336.93Z" fill="#0C081E"/>
<path d="M92.6094 641.734C95.5479 639.577 98.453 637.388 102.059 634.74C101.024 640.1 98.6534 641.93 92.6094 641.734Z" fill="#0C081E"/>
<path d="M599.978 808.944C599.978 810.001 600.217 811.556 599.943 811.649C596.728 812.551 593.443 813.235 590.193 813.95C590.022 813.359 589.851 812.738 589.68 812.147C592.93 811.121 596.214 810.126 599.978 808.944Z" fill="#0C081E"/>
<path d="M46.0513 414.484C42.9749 412.285 39.9309 410.087 36.8545 407.852C37.3079 407.059 37.7612 406.266 38.247 405.473L47.2495 412.321C46.8609 413.042 46.4723 413.763 46.0837 414.484H46.0513Z" fill="#0C081E"/>
<path d="M567.327 778.039C569.205 777.652 571.083 777.294 572.962 776.906L573.615 778.069C572.417 779.053 571.301 780.394 569.94 780.871C569.178 781.14 568.007 779.977 567 779.44L567.299 778.039H567.327Z" fill="#0C081E"/>
<path d="M582.427 798.933C583.46 800.099 584.493 801.225 585.901 802.794C584.774 804.685 583.836 806.294 582.866 807.943C582.427 807.822 582.021 807.702 581.583 807.621L581.176 799.657C581.583 799.415 581.989 799.214 582.427 798.973V798.933Z" fill="#0C081E"/>
<path d="M301.87 688.804C299.632 687.807 297.335 686.847 295.155 685.666C294.861 685.518 294.773 683.561 294.89 683.488C295.715 683.118 296.834 682.528 297.452 682.934C299.19 684.041 300.751 685.629 302.4 687.032L301.899 688.804H301.87Z" fill="#0C081E"/>
<path d="M240.974 147.046C238.769 142.529 236.564 138.011 234.359 133.493C234.846 133.033 235.333 132.614 235.82 132.154C238.225 136.588 240.173 141.399 240.86 147.172L240.974 147.046Z" fill="#0C081E"/>
<path d="M59.5356 662.425C56.4916 665.221 53.48 667.987 50.4359 670.783C50.015 670.317 49.594 669.851 49.1406 669.385C52.3789 666.837 55.6173 664.32 58.8556 661.772C59.0823 661.99 59.2766 662.207 59.5032 662.425H59.5356Z" fill="#0C081E"/>
<path d="M86.4 401.469C83.9854 400.503 81.5348 399.537 78.4355 398.286C82.652 395.46 83.9133 395.853 86.9405 399.931C86.7604 400.431 86.5802 400.968 86.4 401.469Z" fill="#0C081E"/>
<path d="M427.14 785.698C425.034 786.118 422.958 786.499 420.852 786.919C420.733 786.27 420.644 785.66 420.525 785.012C422.572 784.325 424.589 783.601 426.636 782.914C426.784 783.829 426.962 784.783 427.111 785.698H427.14Z" fill="#0C081E"/>
<path d="M243.784 10.0117C166.135 112.092 134.048 207.212 127.711 242.012L182.245 209.229L277.806 164.846L335.843 123.994L549.478 84.6552L727.59 114.916H819.648L918.711 10.0117H243.784Z" fill="#D9D9D9"/>
<path d="M837.211 524.512L904.711 635.012H921.711L896.211 577.012L837.211 524.512Z" fill="#D9D9D9"/>
<path d="M53.7109 649.012V862.512H496.211L380.211 815.012L195.711 786.012L121.711 722.512L74.2109 649.012H53.7109Z" fill="#D9D9D9"/>
<path d="M698.711 705.012L681.211 745.512L796.211 733.012L865.711 700.512L871.211 674.512L827.711 688.012L745.711 705.012H698.711Z" fill="#D9D9D9"/>
<path d="M837.211 524.512L904.711 635.012H921.711L896.211 577.012L837.211 524.512Z" stroke="#0C081E"/>
<path d="M53.7109 649.012V862.512H496.211L380.211 815.012L195.711 786.012L121.711 722.512L74.2109 649.012H53.7109Z" stroke="#0C081E"/>
<path d="M698.711 705.012L681.211 745.512L796.211 733.012L865.711 700.512L871.211 674.512L827.711 688.012L745.711 705.012H698.711Z" stroke="#0C081E"/>
<path d="M281.711 437.012L234.711 528.012V598.012L260.211 660.012L418.711 687.012H492.211L571.211 612.012L565.711 524.512L532.711 395.012L463.211 363.012L389.211 371.012L305.711 409.012L281.711 437.012Z" fill="#D9D9D9"/>
<path d="M426.211 488.012L353.711 508.012V552.512L389.711 576.512L426.211 552.512V488.012Z" fill="#0C081E"/>
</svg>
