<svg width="270" height="156" viewBox="0 0 270 156" fill="none" xmlns="http://www.w3.org/2000/svg">
<path d="M264.599 80.8723C262.147 83.1168 259.875 85.1851 257.111 87.7173C260.224 89.7306 262.713 91.3361 265.515 93.1487C263.076 96.1212 261.107 98.5181 258.68 101.469C261.466 103.19 264.097 104.816 267.336 106.819C264.362 109.603 262.114 111.703 259.322 114.318C262.558 116.368 265.147 118.004 268.732 120.278C265.602 123.049 263.242 125.139 260.151 127.873C263.445 129.784 265.823 131.158 268.201 132.539C268.013 132.889 267.826 133.24 267.639 133.59C266.832 133.753 266.025 134.003 265.21 134.074C242.351 136.053 219.484 138.033 196.617 139.933C195.064 140.067 193.375 139.764 191.882 139.297C156.326 128.114 122.048 131.062 89.0232 148.405C88.0294 148.925 86.897 149.384 85.7895 149.479C62.3481 151.549 38.9084 153.558 15.4624 155.575C15.0306 155.612 14.5901 155.55 13.4851 155.511C15.5357 153 17.2693 150.884 19.4722 148.186C16.7805 146.424 14.2157 144.752 10.8247 142.528C13.7755 139.96 16.0999 137.94 18.587 135.773C15.5609 133.224 13.2461 131.276 10.3417 128.837C12.7278 126.718 15.0226 124.681 17.9561 122.074C14.4088 119.911 11.7871 118.31 8.06935 116.041C11.4605 113.208 13.8893 111.179 16.9272 108.644C13.3153 106.218 10.7831 104.516 7.55042 102.339C10.3655 99.7425 12.6151 97.6694 15.0471 95.4333C12.1056 92.9704 9.7914 91.0289 6.9479 88.6445C9.25046 86.4531 11.4624 84.3497 14.2252 81.7172C10.9599 79.6501 8.37017 78.0132 5.14255 75.9763C8.14942 73.1624 10.37 71.0783 13.0131 68.6034C9.73223 66.4373 7.19478 64.7557 3.69012 62.4349C6.94182 59.6936 9.35561 57.6531 12.4376 55.0601C8.78349 52.5515 6.25598 50.8223 3.05644 48.6225C5.66879 46.1167 7.88594 43.9928 10.7517 41.2511C7.58424 39.3429 4.94916 37.75 1.59673 35.7305C4.67211 32.8973 6.9217 30.8241 10.0302 27.968C6.71534 26.059 4.24892 24.6322 1.77554 23.2061C1.98495 22.867 2.18681 22.5218 2.39623 22.1827C3.24842 22.0559 4.08909 21.8766 4.94585 21.8029C27.5769 19.8564 50.2062 17.8899 72.8488 15.9959C74.423 15.8605 76.177 15.8568 77.6115 16.3823C101.012 24.8451 124.91 24.6559 149.068 19.6681C160.424 17.3201 171.143 13.2942 181.121 7.49926C182.17 6.88726 183.483 6.4867 184.708 6.37462C207.921 4.33127 231.132 2.35493 254.348 0.364699C254.892 0.317968 255.433 0.331601 256.68 0.30464C254.557 2.8753 252.796 5.00012 250.801 7.41936C253.471 9.2567 255.985 10.9871 259.237 13.2293C256.287 15.8845 253.949 17.992 251.09 20.5658C254.497 22.895 257.025 24.6308 260.135 26.7649C257.436 29.2446 255.166 31.3263 252.323 33.9321C255.638 35.995 258.233 37.6113 261.62 39.7147C258.497 42.4785 256.215 44.501 253.658 46.7545C256.835 49.4312 259.21 51.4277 262.175 53.9153C259.819 56.1315 257.585 58.2301 255.163 60.4987C257.994 62.8975 260.301 64.8463 263.11 67.227C260.83 69.4366 258.633 71.5521 256.249 73.8642C259.154 76.3035 261.551 78.3182 264.593 80.8795L264.599 80.8723Z" fill="#D9D9D9"/>
<path d="M201.978 18.3342L210.08 128.404" stroke="#712222" stroke-width="4"/>
<path d="M19.2578 69.9707L205.679 56.0722" stroke="#712222" stroke-width="4"/>
<g clip-path="url(#clip0_563_2167)">
<path d="M249.609 55.1946C237.144 56.1784 224.679 57.158 212.214 58.1417C211.644 58.1874 211.072 58.2334 210.387 58.2883L210.06 54.211L249.277 51.0635L249.609 55.1946Z" fill="#712222"/>
<path d="M250.173 62.2175C245.574 62.5574 240.974 62.8849 236.377 63.2455C228.418 63.8718 220.464 64.5227 212.506 65.1614L210.893 65.2908L210.647 62.2163L212.267 62.0862C224.247 61.1247 236.226 60.1633 248.205 59.1935C248.778 59.1476 249.34 59.0107 249.908 58.915C249.997 60.0172 250.085 61.1194 250.173 62.2175Z" fill="#712222"/>
<path d="M252.826 95.2546C252.251 95.2381 251.672 95.1678 251.105 95.2133C239.167 96.159 227.234 97.1209 215.297 98.079C214.73 98.1245 214.166 98.1697 213.537 98.2202L213.292 95.1622C213.867 95.1161 214.383 95.0746 214.901 95.033C226.927 94.0679 238.949 93.103 250.974 92.1379C251.504 92.0954 252.03 92.0156 252.558 91.9524C252.646 93.0546 252.735 94.1568 252.823 95.2548L252.826 95.2546Z" fill="#712222"/>
<path d="M248.085 36.1997C235.556 37.1886 223.03 38.1814 210.501 39.1745C209.977 39.2165 209.453 39.2586 208.841 39.3077L208.612 36.4569C208.944 36.3719 209.273 36.2413 209.61 36.2142C222.049 35.2075 234.486 34.2094 246.926 33.2193C247.231 33.1948 247.544 33.2781 247.854 33.3116C247.931 34.2771 248.008 35.2384 248.086 36.2038L248.085 36.1997Z" fill="#712222"/>
<path d="M253.455 103.102L214.216 106.251L213.989 103.421C214.271 103.345 214.557 103.217 214.854 103.193C227.421 102.177 239.989 101.168 252.558 100.167C252.777 100.15 253.001 100.194 253.223 100.21L253.455 103.102Z" fill="#712222"/>
<path d="M247.521 29.1768L208.293 32.3252C208.2 31.6362 208.122 31.0711 208.015 30.2707L247.355 27.1133L247.521 29.1768Z" fill="#712222"/>
<path d="M248.318 39.0879L209.082 42.237C208.997 41.5849 208.923 41.0237 208.815 40.1816L248.152 37.0244L248.318 39.0879Z" fill="#712222"/>
<path d="M248.648 43.2188C237.993 44.0531 227.335 44.8835 216.68 45.7219C214.297 45.909 211.915 46.1044 209.423 46.3044C209.329 45.6405 209.252 45.0795 209.145 44.3125L248.482 41.1553L248.648 43.2188Z" fill="#712222"/>
<path d="M249.212 50.2383C248.017 50.3009 246.823 50.3425 245.63 50.4341C234.313 51.3341 222.997 52.2506 211.681 53.1588L209.988 53.2947C209.895 52.6349 209.815 52.0783 209.709 51.332L249.047 48.1748L249.212 50.2383Z" fill="#712222"/>
<path d="M251.2 75.0213L211.927 78.1733L211.767 76.1844L213.377 76.0552C225.402 75.0901 237.427 74.125 249.452 73.1598C249.982 73.1173 250.508 73.0293 251.035 72.9619L251.201 75.0254L251.2 75.0213Z" fill="#712222"/>
<path d="M251.699 81.2158C250.504 81.2784 249.309 81.3201 248.116 81.4116C236.799 82.3116 225.483 83.2281 214.167 84.1364L212.474 84.2722C212.381 83.6125 212.301 83.0559 212.196 82.3095L251.533 79.1523L251.699 81.2158Z" fill="#712222"/>
<path d="M250.869 70.8901C250.523 70.9721 250.181 71.0955 249.833 71.1234C237.49 72.1223 225.15 73.1128 212.806 74.0993C212.105 74.1556 211.286 74.4423 211.525 72.4256C211.794 72.3581 212.084 72.2431 212.381 72.2193C224.943 71.2028 237.508 70.1984 250.071 69.1943C250.29 69.1767 250.515 69.2213 250.737 69.2368C250.781 69.7879 250.825 70.339 250.869 70.8901Z" fill="#712222"/>
<path d="M251.433 77.909C251.216 77.9639 251.002 78.0478 250.783 78.0654C238.175 79.0814 225.567 80.0933 212.959 81.1011C212.742 81.1185 212.519 81.0864 212.273 81.0769C211.765 79.7332 212.024 79.2161 212.942 79.1758C214.406 79.1125 215.863 78.9539 217.323 78.8367C228.118 77.9703 238.91 77.1041 249.706 76.2419C250.232 76.1996 250.766 76.2485 251.3 76.2557C251.344 76.8068 251.388 77.3579 251.433 77.909Z" fill="#712222"/>
<path d="M246.959 22.1571L207.167 25.3508C207.133 25.0909 207.098 24.8309 207.066 24.5666C207.562 24.4433 208.055 24.2453 208.558 24.205C220.761 23.213 232.966 22.2377 245.172 21.2455C245.739 21.2 246.298 21.03 246.859 20.9141L246.959 22.153L246.959 22.1571Z" fill="#712222"/>
<path d="M254.183 112.189C253.034 112.248 251.879 112.282 250.732 112.374C239.099 113.3 227.465 114.242 215.832 115.159C215.334 115.199 214.823 115.069 214.319 115.017L214.292 114.144L254.084 110.95C254.117 111.36 254.15 111.775 254.183 112.189Z" fill="#712222"/>
<path d="M247.289 26.2887C246.758 26.2854 246.222 26.2451 245.696 26.2873C233.616 27.2485 221.541 28.226 209.461 29.1788C208.961 29.2189 208.444 29.0853 207.937 29.0301C207.928 28.7555 207.922 28.4766 207.913 28.2021L247.189 25.0498L247.289 26.2887Z" fill="#712222"/>
<path d="M247.687 31.2438C242.377 31.645 237.066 32.0295 231.757 32.4473C224.456 33.0207 217.157 33.6191 209.857 34.1967C209.364 34.2362 208.868 34.1843 208.372 34.1782C208.345 33.9468 208.319 33.7154 208.295 33.4838C208.742 33.3603 209.181 33.1624 209.636 33.1218C221.756 32.1365 233.88 31.1676 246.001 30.1906C246.531 30.1481 247.06 30.0681 247.588 30.0049L247.687 31.2438Z" fill="#712222"/>
<path d="M249.775 57.2621C249.244 57.2588 248.708 57.2185 248.182 57.2607C236.102 58.2219 224.027 59.1994 211.947 60.1522C211.447 60.1923 210.93 60.0586 210.423 60.0076C210.414 59.7331 210.408 59.4542 210.4 59.1796L249.676 56.0273L249.775 57.2663L249.775 57.2621Z" fill="#712222"/>
<path d="M250.34 64.2812C249.765 64.2647 249.187 64.1944 248.617 64.2401C236.586 65.1933 224.556 66.1671 212.521 67.1163C212.016 67.1568 211.5 67.0314 210.987 66.9809C210.98 66.7187 210.972 66.4525 210.964 66.1904L250.24 63.0381C250.274 63.4566 250.307 63.8668 250.34 64.2812Z" fill="#712222"/>
<path d="M251.93 84.1044L212.656 87.2565C212.622 86.9965 212.588 86.7407 212.554 86.4807C213.052 86.3531 213.545 86.1509 214.05 86.1104C226.079 85.1324 238.11 84.171 250.14 83.193C250.709 83.1473 251.266 82.9775 251.83 82.8613C251.863 83.2757 251.896 83.6859 251.93 84.1003L251.93 84.1044Z" fill="#712222"/>
<path d="M252.494 91.1276L213.25 94.2773C213.202 94.1143 213.153 93.9472 213.103 93.7845C213.291 93.5776 213.456 93.2516 213.668 93.1845C214.051 93.0578 214.459 93.0834 214.858 93.0515C226.803 92.0928 238.745 91.1343 250.689 90.1673C251.261 90.1214 251.824 89.9845 252.392 89.8889C252.425 90.3032 252.458 90.7135 252.491 91.1278L252.494 91.1276Z" fill="#712222"/>
<path d="M253.056 98.1462C240.447 99.1415 227.838 100.141 215.228 101.132C214.736 101.172 214.238 101.137 213.743 101.139C213.719 100.907 213.695 100.676 213.669 100.444C214.161 100.313 214.645 100.099 215.145 100.059C227.222 99.0728 239.298 98.1077 251.377 97.1342C251.906 97.0917 252.43 96.9829 252.954 96.9074C252.988 97.3218 253.021 97.732 253.054 98.1464L253.056 98.1462Z" fill="#712222"/>
<path d="M253.621 105.166C244.107 105.909 234.594 106.647 225.081 107.394C221.939 107.642 218.8 107.902 215.657 108.142C215.213 108.178 214.76 108.127 214.312 108.117C214.286 107.889 214.257 107.662 214.23 107.431C214.677 107.303 215.118 107.097 215.573 107.056C227.118 106.113 238.665 105.195 250.213 104.259C251.318 104.171 252.418 104.037 253.523 103.923L253.623 105.162L253.621 105.166Z" fill="#712222"/>
<path d="M250.472 65.9347C249.592 66.0387 248.712 66.1677 247.829 66.2385C235.93 67.1977 224.028 68.153 212.128 69.1039C211.642 69.1429 211.15 69.0823 210.659 69.0675C210.647 68.8141 210.637 68.5605 210.625 68.3071L250.406 65.1143L250.472 65.9388L250.472 65.9347Z" fill="#712222"/>
<path d="M246.792 20.0934L207.016 23.2858C206.983 23.0758 206.95 22.8657 206.917 22.6557C207.356 22.5287 207.791 22.3186 208.238 22.2828C217.35 21.5348 226.463 20.7992 235.577 20.0802C239.291 19.7863 243.009 19.5379 246.726 19.2688L246.792 20.0934Z" fill="#712222"/>
<path d="M254.317 113.838C253.886 113.936 253.456 114.083 253.02 114.118C240.675 115.117 228.326 116.108 215.98 117.091C215.496 117.129 215.002 117.044 214.512 117.016C214.501 116.746 214.487 116.472 214.476 116.202L254.25 113.01C254.272 113.287 254.295 113.565 254.317 113.838Z" fill="#712222"/>
<path d="M250.636 67.9974L210.858 71.19C210.836 70.9166 210.813 70.6389 210.791 70.3655L250.57 67.1729L250.636 67.9974Z" fill="#712222"/>
<path d="M248.881 46.1119L209.621 49.2628C209.587 49.0445 209.551 48.8264 209.517 48.6122C209.958 48.4726 210.389 48.242 210.838 48.2018C217.12 47.6767 223.408 47.1805 229.692 46.6761C235.534 46.2072 241.377 45.7383 247.221 45.2776C247.747 45.2353 248.284 45.284 248.815 45.2914L248.881 46.116L248.881 46.1119Z" fill="#712222"/>
<path d="M252.329 89.0601L213.071 92.2108C213.038 91.9967 213.002 91.7827 212.969 91.5685C213.41 91.433 213.841 91.2107 214.29 91.1705C221.592 90.5678 228.894 89.9693 236.195 89.4041C241.55 88.991 246.906 88.6237 252.262 88.2355L252.329 89.0601Z" fill="#712222"/>
<path d="M253.919 108.883C253.481 108.956 253.048 109.061 252.607 109.097C240.438 110.078 228.269 111.058 216.096 112.027C215.612 112.066 215.117 112.001 214.628 111.982L214.593 111.213L253.854 108.063C253.875 108.332 253.897 108.609 253.919 108.883Z" fill="#712222"/>
</g>
<defs>
<clipPath id="clip0_563_2167">
<rect width="124.707" height="40.2394" fill="white" transform="translate(248.125 2.33399) rotate(85.4113)"/>
</clipPath>
</defs>
</svg>
