<svg width="324" height="199" viewBox="0 0 324 199" fill="none" xmlns="http://www.w3.org/2000/svg">
<path d="M295.391 21.4815C292.553 26.9463 295.134 29.0725 298.855 30.0617C298.029 32.2145 296.459 34.3135 296.754 36.1613C297.011 37.7576 299.384 39.0684 300.854 40.5397C300.313 42.2366 299.002 44.4179 299.143 46.5967C299.219 47.8443 301.659 49.0927 303.215 50.5084C299.784 54.7853 296.771 59.9238 298.467 67.4324C300.111 74.6693 304.537 78.3813 310.153 80.8624C306.593 86.3632 307.177 88.1207 313.043 90.213C308.77 96.3151 309.144 97.8964 315.409 100.287C311.281 105.67 311.347 106.305 316.64 110.823C312.154 117.696 307.752 124.631 303.122 131.359C302.238 132.651 300.571 133.542 299.097 133.881C233.368 149.062 167.627 164.15 101.877 179.241C101.573 179.311 101.23 179.26 101.373 178.269C99.2196 176.565 97.0591 174.874 94.9056 173.17C93.9209 175.418 92.9293 177.68 91.9447 179.928C92.3582 180.377 92.7717 180.826 93.1757 181.277C79.4562 184.431 65.7444 187.618 52.0043 190.682C50.9965 190.914 49.6704 190.545 48.6772 189.969C41.6038 185.849 34.5807 181.598 27.5489 177.397C29.7097 170.598 29.6201 170.382 23.6094 167.401C28.3364 162.708 27.8347 160.482 21.7443 157.72C22.6137 155.841 24.3171 153.889 24.1365 152.015C23.9877 150.453 21.6567 148.979 20.2696 147.429C29.175 134.22 26.552 123.768 12.6672 117.275C13.4623 115.378 15.2142 113.202 14.8027 111.629C14.33 109.834 11.9358 108.564 10.589 107.277C11.1593 105.491 12.5847 103.2 12.318 101.038C12.1413 99.6602 9.46275 98.5023 7.93786 97.2684C8.60369 95.8975 10.3502 93.9588 10.2865 91.9397C10.2422 90.3537 7.96507 88.6779 6.53236 86.8434C9.07576 82.9716 12.2768 79.0433 14.5332 74.4453C18.154 67.0742 23.733 64.3018 30.8201 63.0392C41.8518 61.0826 52.7021 58.1627 62.2953 55.9575C65.3141 58.2905 67.3822 59.8843 69.4382 61.4691C70.555 59.2732 71.6744 57.0885 72.7913 54.8926C72.4719 54.5049 72.1525 54.1172 71.8358 53.7407L78.4246 52.226C141.317 37.7683 204.208 23.3466 267.075 8.77655C270.603 7.9657 273.667 8.23093 276.975 10.3436C282.878 14.1184 288.921 17.5889 295.367 21.4634L295.391 21.4815ZM71.9354 73.3339C73.0825 70.268 74.575 68.2695 74.2041 66.6994C73.8504 65.1608 71.6142 64.0549 70.2052 62.7589C69.1441 64.4572 67.2777 66.0923 67.2682 67.8799C67.2678 69.228 69.6505 70.7968 71.9259 73.3361L71.9354 73.3339ZM87.6066 141.114C86.6374 144.387 85.1799 146.756 85.7508 148.02C86.4682 149.617 88.85 150.311 90.5081 151.384C91.2365 149.632 92.7782 147.717 92.4651 146.181C92.1469 144.622 89.9643 143.445 87.6066 141.114ZM71.9553 70.6335C70.6601 74.1001 69.1147 76.2171 69.5567 77.6172C70.0693 79.2375 72.3488 80.227 73.8504 81.4899C74.7904 79.8313 76.5349 78.1887 76.4415 76.5193C76.3608 75.0362 74.2607 73.5207 71.9458 70.6357L71.9553 70.6335ZM92.445 160.942C91.3228 164.203 89.7565 166.491 90.2868 167.752C90.9868 169.448 93.3079 170.357 94.9261 171.605C95.7478 169.867 97.3793 168.037 97.1484 166.423C96.9304 164.865 94.7688 163.518 92.445 160.942ZM89.8041 151.108C88.8858 154.429 87.4602 156.85 88.057 158.096C88.8272 159.704 91.1943 160.378 92.8835 161.456C93.5825 159.664 95.0949 157.708 94.762 156.129C94.4369 154.584 92.231 153.436 89.8041 151.108ZM87.7298 116.219C84.6515 114.716 82.7114 112.939 81.5141 113.391C80.1794 113.899 79.5168 116.416 78.5647 118.066C80.1078 119.248 81.7295 121.382 83.1726 121.346C84.4369 121.316 85.5159 118.868 87.7298 116.219ZM78.3418 100.854C77.3629 104.26 75.9868 106.503 76.5039 107.969C77.0236 109.446 79.6834 111.175 80.9669 110.88C82.1174 110.616 83.5115 107.623 83.2434 106.065C82.983 104.54 80.7634 103.289 78.3418 100.854ZM88.337 143.594C89.3842 140.137 90.7594 137.977 90.2647 136.565C89.7201 135.023 87.1313 132.993 86.0059 133.323C84.7379 133.685 83.2947 136.465 83.4547 138.119C83.5899 139.578 85.8353 140.941 88.3396 143.606L88.337 143.594ZM73.9054 80.8151C72.8202 84.2807 71.3958 86.4882 71.906 87.8371C72.4792 89.3725 74.9904 91.1955 76.2868 90.9566C77.4406 90.7505 78.8744 87.8433 78.6936 86.2295C78.53 84.7772 76.3519 83.4452 73.9029 80.8039L73.9054 80.8151ZM78.8441 103.257C80.0061 99.9512 81.4711 97.8763 81.0291 96.4762C80.5441 94.9323 78.0116 92.8422 76.8827 93.1135C75.5923 93.422 74.0326 96.0863 74.1399 97.7288C74.2292 99.1626 76.4591 100.589 78.8441 103.257ZM83.1192 121.157C82.0548 124.583 80.6208 126.792 81.1267 128.166C81.6826 129.67 84.2717 131.44 85.5483 131.158C86.7203 130.9 88.1497 128.018 87.943 126.422C87.7577 124.963 85.5494 123.673 83.1097 121.16L83.1192 121.157Z" fill="#FFCD45"/>
<path d="M101.654 135.367L281.962 93.7227" stroke="#712222" stroke-width="4"/>
<path d="M69.686 112.247C58.5789 114.893 47.4708 117.534 36.3637 120.18C35.8563 120.302 35.3465 120.424 34.7367 120.57L33.7838 116.596L68.7205 108.22L69.686 112.247Z" fill="#712222"/>
<path d="M71.3263 119.092C67.2246 120.046 63.12 120.987 59.0231 121.961C51.9309 123.648 44.8469 125.359 37.7576 127.059L36.3212 127.403L35.6026 124.406L37.0462 124.06C47.7183 121.502 58.3903 118.943 69.0605 116.376C69.5702 116.254 70.0563 116.044 70.5545 115.873C70.8121 116.947 71.0697 118.022 71.3263 119.092Z" fill="#712222"/>
<path d="M79.047 151.297C78.5251 151.358 77.9905 151.367 77.4855 151.488C66.8487 154.025 56.2181 156.578 45.5842 159.128C45.0791 159.249 44.5765 159.369 44.0167 159.503L43.302 156.522C43.8142 156.4 44.274 156.289 44.7361 156.179C55.4487 153.61 66.1588 151.043 76.8714 148.474C77.343 148.361 77.806 148.212 78.2728 148.079C78.5304 149.153 78.788 150.228 79.0446 151.298L79.047 151.297Z" fill="#712222"/>
<path d="M65.2462 93.731C54.0819 96.3904 42.921 99.0534 31.7577 101.717C31.2908 101.829 30.8239 101.941 30.2784 102.072L29.6121 99.2926C29.8987 99.1641 30.1747 98.9911 30.4748 98.9192C41.5547 96.2543 52.6341 93.5981 63.7178 90.9494C63.9894 90.8843 64.2861 90.9242 64.5712 90.9157C64.7969 91.8568 65.0215 92.7939 65.2472 93.735L65.2462 93.731Z" fill="#712222"/>
<path d="M80.8811 158.948L45.9253 167.328L45.264 164.569C45.5063 164.456 45.7441 164.292 46.0085 164.228C57.2027 161.536 68.3988 158.852 79.5969 156.176C79.7922 156.129 80.0021 156.143 80.2052 156.128L80.8811 158.948Z" fill="#712222"/>
<path d="M63.6051 86.8846L28.6589 95.2626C28.4638 94.5961 28.3026 94.0496 28.0766 93.2751L63.1229 84.873L63.6051 86.8846Z" fill="#712222"/>
<path d="M65.9215 96.5457L30.9681 104.925C30.7866 104.294 30.6287 103.751 30.3954 102.936L65.4393 94.5342L65.9215 96.5457Z" fill="#712222"/>
<path d="M66.8863 100.573C57.391 102.828 47.8923 105.08 38.3979 107.339C36.2745 107.844 34.1529 108.357 31.9328 108.889C31.7411 108.247 31.5808 107.705 31.3602 106.963L66.4041 98.5615L66.8863 100.573Z" fill="#712222"/>
<path d="M68.527 107.416C67.4568 107.638 66.3841 107.84 65.3207 108.091C55.2375 110.499 45.1582 112.924 35.0769 115.341L33.569 115.703C33.3783 115.065 33.2166 114.527 33.0008 113.806L68.0447 105.404L68.527 107.416Z" fill="#712222"/>
<path d="M74.319 131.574L39.3323 139.962L38.8674 138.023L40.3015 137.679C51.0141 135.111 61.7266 132.543 72.4392 129.974C72.9108 129.861 73.3718 129.704 73.8377 129.566L74.3199 131.578L74.319 131.574Z" fill="#712222"/>
<path d="M75.7672 137.612C74.697 137.834 73.6244 138.036 72.561 138.287C62.4777 140.696 52.3984 143.121 42.3171 145.538L40.8092 145.899C40.6185 145.261 40.4568 144.723 40.2411 144.002L75.285 135.601L75.7672 137.612Z" fill="#712222"/>
<path d="M73.3529 127.547C73.0535 127.674 72.7637 127.842 72.454 127.916C61.4599 130.561 50.4663 133.196 39.4693 135.828C38.8451 135.978 38.1508 136.371 38.0419 134.351C38.2743 134.248 38.5174 134.096 38.7818 134.033C49.9712 131.342 61.1659 128.662 72.3583 125.983C72.5536 125.936 72.7635 125.95 72.9666 125.935C73.0953 126.473 73.2241 127.01 73.3529 127.547Z" fill="#712222"/>
<path d="M74.9937 134.389C74.807 134.472 74.6272 134.583 74.4319 134.63C63.201 137.327 51.9691 140.02 40.7363 142.708C40.5433 142.755 40.3364 142.753 40.1128 142.777C39.4364 141.521 39.5879 140.976 40.4104 140.813C41.7236 140.554 43.0146 140.202 44.3153 139.89C53.932 137.584 63.5464 135.279 73.1641 132.978C73.6334 132.865 74.124 132.842 74.6073 132.777C74.7361 133.314 74.8649 133.851 74.9937 134.389Z" fill="#712222"/>
<path d="M61.9641 80.0418L26.5153 88.5404C26.4424 88.2888 26.3695 88.0372 26.298 87.781C26.7264 87.5928 27.1399 87.3314 27.5877 87.224C38.457 84.6054 49.3301 82.0029 60.2017 79.3837C60.7067 79.2626 61.1851 79.0198 61.6736 78.8301L61.9632 80.0378L61.9641 80.0418Z" fill="#712222"/>
<path d="M83.0042 167.805C81.9745 168.018 80.9366 168.207 79.9147 168.452C69.5504 170.928 59.1875 173.421 48.8213 175.889C48.3782 175.996 47.8954 175.936 47.431 175.954L47.2658 175.096L82.7146 166.598C82.8105 166.998 82.9074 167.401 83.0042 167.805Z" fill="#712222"/>
<path d="M62.93 84.069C62.45 84.1371 61.959 84.1694 61.4897 84.2819C50.7276 86.8535 39.9717 89.4407 29.2076 92.0042C28.7622 92.111 28.2737 92.0487 27.8059 92.0626C27.7539 91.7932 27.7033 91.5191 27.6513 91.2497L62.6404 82.8613L62.93 84.069Z" fill="#712222"/>
<path d="M64.0882 88.9001C59.3538 90.0095 54.6155 91.1027 49.885 92.2283C43.3788 93.7753 36.8784 95.3465 30.3732 96.8976C29.9349 97.0027 29.4777 97.0183 29.0287 97.079C28.9673 96.8545 28.906 96.63 28.847 96.4049C29.2316 96.223 29.5964 95.969 30.0004 95.8679C40.7958 93.2669 51.5975 90.6816 62.3948 88.0887C62.8665 87.9757 63.3318 87.8257 63.7986 87.6924L64.0882 88.9001Z" fill="#712222"/>
<path d="M70.1692 114.262C69.6893 114.33 69.1983 114.363 68.729 114.475C57.9668 117.047 47.211 119.634 36.4469 122.197C36.0014 122.304 35.5129 122.242 35.0462 122.26C34.9942 121.99 34.9436 121.716 34.8916 121.447L69.8807 113.059L70.1702 114.266L70.1692 114.262Z" fill="#712222"/>
<path d="M71.8079 121.104C71.286 121.165 70.7515 121.174 70.2441 121.296C59.5238 123.853 48.8085 126.43 38.0849 128.984C37.6347 129.092 37.1481 129.038 36.6765 129.057C36.6274 128.8 36.5774 128.538 36.5283 128.281L71.5174 119.893C71.6152 120.301 71.7111 120.7 71.8079 121.104Z" fill="#712222"/>
<path d="M76.4407 140.428L41.454 148.815C41.3811 148.564 41.3091 148.316 41.2362 148.065C41.6661 147.872 42.0786 147.606 42.5288 147.498C53.2432 144.917 63.9615 142.352 74.6759 139.77C75.1833 139.648 75.6593 139.406 76.1502 139.216C76.247 139.62 76.3429 140.02 76.4397 140.424L76.4407 140.428Z" fill="#712222"/>
<path d="M78.0823 147.274L43.1218 155.656C43.0521 155.501 42.9814 155.343 42.9093 155.19C43.0458 154.961 43.1424 154.617 43.3237 154.522C43.6492 154.346 44.0225 154.316 44.3774 154.231C55.0185 151.68 65.6572 149.13 76.2964 146.57C76.8061 146.448 77.2922 146.238 77.7904 146.067C77.8872 146.471 77.9831 146.871 78.0799 147.275L78.0823 147.274Z" fill="#712222"/>
<path d="M79.7229 154.116C68.4872 156.793 57.2524 159.473 46.0157 162.146C45.5774 162.251 45.1217 162.283 44.6746 162.352C44.6156 162.127 44.5567 161.902 44.4953 161.677C44.9194 161.482 45.3218 161.206 45.7673 161.099C56.5236 158.503 67.2824 155.928 78.0416 153.344C78.5133 153.231 78.9695 153.054 79.431 152.909C79.5279 153.313 79.6237 153.713 79.7206 154.116L79.7229 154.116Z" fill="#712222"/>
<path d="M81.3622 160.958C72.884 162.97 64.4049 164.977 55.9277 166.992C53.1277 167.659 50.3329 168.338 47.531 168.997C47.1356 169.091 46.7174 169.102 46.3113 169.152C46.2509 168.932 46.1881 168.712 46.1268 168.488C46.5104 168.302 46.8757 168.039 47.2797 167.938C57.5619 165.456 67.85 162.998 78.1366 160.523C79.1204 160.287 80.0936 160.007 81.074 159.746L81.3636 160.954L81.3622 160.958Z" fill="#712222"/>
<path d="M72.1954 122.716C71.4171 122.937 70.6421 123.182 69.856 123.371C59.2564 125.916 48.6534 128.458 38.0519 130.995C37.6183 131.099 37.1639 131.106 36.7178 131.157C36.6659 130.909 36.6163 130.66 36.5644 130.412L72.0037 121.916L72.1964 122.72L72.1954 122.716Z" fill="#712222"/>
<path d="M61.4792 78.0303L26.0446 86.5255C25.981 86.3229 25.9173 86.1203 25.8536 85.9177C26.2301 85.7335 26.5896 85.4679 26.9875 85.3725C35.102 83.4101 43.2194 81.4597 51.3407 79.5255C54.6505 78.7363 57.9709 77.9915 61.2865 77.2265L61.4792 78.0303Z" fill="#712222"/>
<path d="M83.3907 169.412C83.017 169.566 82.6524 169.769 82.2642 169.862C71.2677 172.507 60.2669 175.144 49.2665 177.773C48.8354 177.876 48.3752 177.858 47.9285 177.897C47.8751 177.632 47.8183 177.364 47.7649 177.099L83.1971 168.604C83.262 168.875 83.3268 169.146 83.3907 169.412Z" fill="#712222"/>
<path d="M72.6769 124.728L37.2399 133.223C37.176 132.957 37.1112 132.686 37.0472 132.42L72.4842 123.924L72.6769 124.728Z" fill="#712222"/>
<path d="M67.5627 103.392L32.5879 111.777C32.5223 111.566 32.4543 111.356 32.3897 111.15C32.7657 110.953 33.118 110.668 33.5172 110.568C39.1104 109.205 44.7128 107.871 50.3109 106.529C55.5159 105.281 60.7209 104.033 65.9278 102.793C66.3971 102.681 66.8901 102.656 67.371 102.592L67.5637 103.396L67.5627 103.392Z" fill="#712222"/>
<path d="M77.6001 145.259L42.6277 153.643C42.563 153.436 42.496 153.23 42.4313 153.024C42.8083 152.831 43.1625 152.554 43.5618 152.454C50.0636 150.878 56.5663 149.306 63.0745 147.767C67.8474 146.64 72.6286 145.558 77.4074 144.455L77.6001 145.259Z" fill="#712222"/>
<path d="M82.2326 164.582C81.8482 164.713 81.474 164.875 81.0809 164.969C70.2407 167.572 59.4005 170.175 48.555 172.767C48.1238 172.87 47.6661 172.873 47.2213 172.92L47.066 172.167L82.0408 163.782C82.1038 164.045 82.1686 164.315 82.2326 164.582Z" fill="#712222"/>
</svg>
