<svg width="768" height="786" viewBox="0 0 768 786" fill="none" xmlns="http://www.w3.org/2000/svg">
<path d="M462.626 210.509C458.652 214.416 454.971 218.017 450.492 222.423C456.085 225.127 460.555 227.283 465.587 229.718C461.719 234.769 458.595 238.843 454.745 243.859C459.741 246.15 464.459 248.318 470.266 250.986C465.453 255.822 461.817 259.469 457.299 264.01C463.106 266.753 467.754 268.943 474.188 271.986C469.106 276.824 465.274 280.472 460.255 285.246C466.147 287.761 470.399 289.569 474.654 291.387C474.37 291.968 474.087 292.548 473.803 293.129C472.431 293.507 471.069 294.023 469.673 294.256C430.498 300.816 391.312 307.378 352.117 313.814C349.455 314.258 346.509 314.035 343.884 313.524C281.346 301.252 222.603 311.057 167.639 343.358C165.985 344.328 164.085 345.221 162.187 345.538C122.021 352.328 81.8502 359.022 41.6696 365.729C40.9295 365.853 40.1634 365.82 38.2546 365.926C41.5058 361.66 44.2553 358.065 47.7479 353.482C42.9104 351.11 38.3018 348.861 32.2071 345.867C37.0034 341.376 40.7819 337.843 44.8241 334.054C39.3217 330.492 35.1128 327.77 29.8325 324.363C33.7061 320.666 37.4316 317.111 42.1936 312.561C35.8364 309.686 31.1378 307.558 24.4749 304.542C30.0001 299.566 33.9576 296.004 38.9075 291.551C32.4094 288.272 27.8536 285.971 22.0371 283.027C26.5961 278.511 30.2396 274.906 34.1793 271.016C28.8324 267.578 24.6252 264.866 19.4561 261.537C23.1775 257.737 26.7527 254.089 31.2178 249.525C25.3574 246.759 20.7097 244.569 14.9177 241.845C19.7828 236.958 23.3751 233.34 27.6515 229.042C21.7532 226.122 17.1906 223.854 10.8891 220.724C16.1844 215.915 20.1146 212.336 25.1342 207.786C18.5539 204.382 14.0031 202.038 8.24113 199.053C12.4611 194.711 16.043 191.03 20.6731 186.278C14.9992 183.748 10.2784 181.634 4.27321 178.956C9.2543 174.029 12.8978 170.423 17.9334 165.454C12.0054 162.945 7.59395 161.068 3.17058 159.193C3.4933 158.627 3.80232 158.052 4.12503 157.486C5.57945 157.158 7.00809 156.749 8.47637 156.504C47.2603 150.03 86.039 143.526 124.849 137.133C127.547 136.683 130.569 136.413 133.101 137.025C174.382 146.839 215.548 142.944 256.622 131.448C275.927 126.039 293.949 118.081 310.492 107.447C312.231 106.325 314.449 105.496 316.548 105.135C356.323 98.4212 396.103 91.8132 435.891 85.1825C436.822 85.0271 437.757 84.967 439.903 84.7369C436.534 89.1074 433.738 92.7209 430.572 96.8336C435.381 99.3272 439.908 101.676 445.766 104.72C440.98 109.348 437.188 113.021 432.551 117.507C438.685 120.665 443.237 123.02 448.837 125.915C444.465 130.229 440.788 133.851 436.183 138.385C442.127 141.137 446.781 143.294 452.856 146.099C447.785 150.924 444.08 154.455 439.927 158.391C445.704 162.131 450.023 164.919 455.412 168.393C451.6 172.241 447.988 175.884 444.069 179.824C449.217 183.178 453.414 185.901 458.522 189.23C454.842 193.056 451.294 196.72 447.447 200.722C452.727 204.129 457.086 206.943 462.616 210.522L462.626 210.509Z" fill="#0C081E"/>
<path d="M247.8 558.64C280.12 570.16 296.28 592.56 296.28 625.84V634.48C296.28 652.08 291.48 667.76 281.88 681.52C272.6 694.96 259.32 705.36 242.04 712.72C225.08 720.08 205.24 723.76 182.52 723.76C144.44 723.76 115.32 714.8 95.16 696.88C75.32 678.64 65.4 652.56 65.4 618.64V608.56H110.04V618.64C110.04 660.88 134.2 682 182.52 682C203.64 682 220.6 677.52 233.4 668.56C246.2 659.6 252.6 647.6 252.6 632.56V624.4C252.6 610.32 247.48 599.6 237.24 592.24C227 584.56 212.12 580.72 192.6 580.72H142.2V540.4H190.2C207.8 540.4 221.24 536.56 230.52 528.88C240.12 521.2 244.92 510.32 244.92 496.24V488.08C244.92 472.72 239.16 460.72 227.64 452.08C216.44 443.44 200.92 439.12 181.08 439.12C157.4 439.12 139.8 444.24 128.28 454.48C117.08 464.4 111.48 479.92 111.48 501.04V512.08H66.84V501.52C66.84 467.92 76.6 442.16 96.12 424.24C115.96 406.32 144.12 397.36 180.6 397.36C213.56 397.36 239.8 405.2 259.32 420.88C278.84 436.24 288.6 457.04 288.6 483.28V492.4C288.6 507.76 285.08 521.04 278.04 532.24C271 543.44 260.92 552.24 247.8 558.64Z" fill="#FFCD45"/>
<path d="M755.4 375.8V383H710.76L687.72 309.56H568.68L545.64 383H501V375.8L602.28 68.12H654.12L755.4 375.8ZM674.76 268.76L628.2 119.96L581.64 268.76H674.76Z" fill="#FFCD45"/>
<circle cx="564" cy="288" r="86" fill="#0C081E"/>
<mask id="mask0_587_2372" style="mask-type:alpha" maskUnits="userSpaceOnUse" x="501" y="68" width="255" height="315">
<path d="M755.4 375.8V383H710.76L687.72 309.56H568.68L545.64 383H501V375.8L602.28 68.12H654.12L755.4 375.8ZM674.76 268.76L628.2 119.96L581.64 268.76H674.76Z" fill="#FFCD45"/>
</mask>
<g mask="url(#mask0_587_2372)">
<circle cx="563" cy="284" r="86" fill="#712222"/>
</g>
<circle cx="95" cy="574" r="86" fill="#0C081E"/>
<mask id="mask1_587_2372" style="mask-type:alpha" maskUnits="userSpaceOnUse" x="65" y="397" width="232" height="327">
<path d="M247.8 558.64C280.12 570.16 296.28 592.56 296.28 625.84V634.48C296.28 652.08 291.48 667.76 281.88 681.52C272.6 694.96 259.32 705.36 242.04 712.72C225.08 720.08 205.24 723.76 182.52 723.76C144.44 723.76 115.32 714.8 95.16 696.88C75.32 678.64 65.4 652.56 65.4 618.64V608.56H110.04V618.64C110.04 660.88 134.2 682 182.52 682C203.64 682 220.6 677.52 233.4 668.56C246.2 659.6 252.6 647.6 252.6 632.56V624.4C252.6 610.32 247.48 599.6 237.24 592.24C227 584.56 212.12 580.72 192.6 580.72H142.2V540.4H190.2C207.8 540.4 221.24 536.56 230.52 528.88C240.12 521.2 244.92 510.32 244.92 496.24V488.08C244.92 472.72 239.16 460.72 227.64 452.08C216.44 443.44 200.92 439.12 181.08 439.12C157.4 439.12 139.8 444.24 128.28 454.48C117.08 464.4 111.48 479.92 111.48 501.04V512.08H66.84V501.52C66.84 467.92 76.6 442.16 96.12 424.24C115.96 406.32 144.12 397.36 180.6 397.36C213.56 397.36 239.8 405.2 259.32 420.88C278.84 436.24 288.6 457.04 288.6 483.28V492.4C288.6 507.76 285.08 521.04 278.04 532.24C271 543.44 260.92 552.24 247.8 558.64Z" fill="#712222"/>
</mask>
<g mask="url(#mask1_587_2372)">
<circle cx="94" cy="570" r="86" fill="#712222"/>
</g>
</svg>
