<svg width="234" height="156" viewBox="0 0 234 156" fill="none" xmlns="http://www.w3.org/2000/svg">
<path d="M229.125 28.6588C230.098 31.7411 230.882 34.2561 231.692 36.8437C227.35 40.1526 227.154 41.6015 230.838 46.5716C225.998 50.159 225.803 51.5966 229.424 56.6388C224.681 60.2279 224.458 61.8114 228.021 66.6269C223.477 69.9892 223.203 71.8194 226.779 76.994C221.249 79.3355 216.472 82.7817 215.407 90.856C214.359 98.8058 217.637 103.502 222.372 106.655C221.099 108.546 219.363 110.121 218.971 112.039C218.662 113.541 220.022 115.466 220.676 117.306C216.415 121.26 216.243 122.793 219.918 126.978C215.083 131.246 214.866 132.784 218.519 137.001C213.697 141.306 213.517 142.699 216.819 146.96C215.349 149.448 213.934 151.861 212.075 155.01L3.8254 126.865C3.08062 123.664 2.44289 120.915 1.76162 117.964C5.81969 114.467 6.01809 113.065 2.61448 108.248C7.14857 104.503 7.33876 103.031 3.97653 98.1042C8.45749 94.4912 8.67069 93.0447 5.44444 87.9636C9.91155 84.2565 10.1013 82.8529 6.53552 77.991C13.3104 76.7282 18.3625 72.7544 19.4876 63.5126C20.3293 56.63 17.3577 51.6294 10.8381 47.9243C15.4337 43.2664 15.5877 41.9963 12.0355 37.6895C16.7765 33.593 16.9765 32.1792 13.4456 27.518C18.1274 23.5979 18.3263 22.1264 14.8531 17.3001C19.4317 13.6196 19.6526 12.1165 16.534 7.81066C17.916 5.57693 19.2744 3.38612 21.0494 0.536986L229.133 28.66L229.125 28.6588Z" fill="#0C081E"/>
<g clip-path="url(#clip0_563_2165)">
<path d="M176.444 48.3378C176.336 49.2394 176.234 50.1422 176.115 51.0425C176.086 51.2643 176.156 51.3349 176.366 51.3492C176.668 51.3706 176.97 51.4053 177.268 51.4562C177.476 51.4914 177.569 51.4443 177.583 51.2177C177.602 50.9068 177.665 50.5989 177.685 50.2877C177.7 50.0508 177.807 49.9947 178.025 50.0282C178.342 50.0775 178.661 50.1159 178.981 50.1428C179.183 50.1595 179.245 50.2396 179.218 50.4429C179.114 51.2433 179.035 52.0472 178.923 52.8468C178.887 53.1056 178.966 53.1877 179.213 53.2021C179.524 53.2201 179.832 53.2772 180.143 53.3063C180.323 53.3232 180.378 53.4069 180.355 53.5795C180.308 53.916 180.279 54.2546 180.23 54.5901C180.203 54.7696 180.265 54.8341 180.441 54.8539C181.271 54.9457 182.1 55.0441 182.928 55.149C183.108 55.172 183.178 55.1115 183.195 54.9363C183.227 54.5987 183.269 54.2612 183.315 53.9252C183.336 53.7728 183.281 53.7058 183.129 53.69C182.791 53.6554 182.455 53.6034 182.117 53.5744C181.918 53.5574 181.843 53.4813 181.876 53.276C181.924 52.9774 181.931 52.6712 181.992 52.3759C182.051 52.0887 181.946 52.0013 181.675 51.9897C181.382 51.9766 181.093 51.9167 180.8 51.8931C180.605 51.8771 180.522 51.8096 180.557 51.5994C180.61 51.2737 180.648 50.9445 180.675 50.6157C180.691 50.4079 180.785 50.3568 180.981 50.3806C183.285 50.6579 185.591 50.9331 187.896 51.1994C188.134 51.227 188.174 51.3251 188.146 51.541C188.041 52.3413 187.96 53.1451 187.852 53.945C187.822 54.1662 187.885 54.2409 188.098 54.2562C188.409 54.2787 188.72 54.315 189.027 54.3664C189.248 54.4032 189.321 54.3191 189.337 54.1095C189.363 53.7806 189.415 53.4537 189.449 53.1251C189.465 52.9628 189.535 52.9022 189.701 52.9257C190.028 52.9723 190.358 52.9938 190.684 53.0485C190.894 53.084 190.983 53.0362 190.997 52.8109C191.018 52.4819 191.075 52.155 191.106 51.8262C191.121 51.6697 191.177 51.5892 191.348 51.6117C191.712 51.6588 192.076 51.7014 192.441 51.7419C192.603 51.7601 192.663 51.8399 192.635 52.002C192.61 52.1462 192.599 52.2931 192.582 52.4393C191.739 59.5458 190.896 66.6518 190.051 73.7582C190.005 74.1513 190.003 74.1522 189.616 74.1069C188.842 74.015 188.068 73.9155 187.292 73.8356C187.061 73.812 186.994 73.7224 187.03 73.5002C187.081 73.1831 187.116 72.8637 187.143 72.5438C187.16 72.3443 187.238 72.2747 187.443 72.3063C187.832 72.3656 188.223 72.4026 188.628 72.4506C188.651 72.3707 188.676 72.3132 188.684 72.2536C188.785 71.4156 188.879 70.5769 188.986 69.7396C189.01 69.5526 188.964 69.4811 188.769 69.4601C187.947 69.3726 187.127 69.2753 186.309 69.1682C186.101 69.1413 186.033 69.2093 186.018 69.4091C185.995 69.7289 185.938 70.0463 185.912 70.3664C185.896 70.5671 185.819 70.639 185.614 70.6069C185.288 70.5561 184.958 70.5319 184.631 70.4853C184.454 70.4599 184.381 70.5206 184.364 70.6979C184.334 71.0357 184.293 71.3734 184.244 71.7091C184.22 71.8777 184.281 71.94 184.444 71.9554C184.773 71.9866 185.099 72.0431 185.428 72.0661C185.651 72.0814 185.701 72.1723 185.673 72.3833C185.57 73.1655 185.483 73.9496 185.391 74.733C185.379 74.8316 185.367 74.9307 185.35 75.0752C185.747 75.1223 186.124 75.1837 186.504 75.2066C186.782 75.2235 186.872 75.3241 186.818 75.6019C186.76 75.8982 186.734 76.2015 186.709 76.5033C186.693 76.7007 186.617 76.7805 186.411 76.7489C186.076 76.698 185.738 76.659 185.4 76.6289C185.203 76.6116 185.157 76.5201 185.184 76.3373C185.233 76.0017 185.26 75.6624 185.308 75.3268C185.334 75.1488 185.272 75.0799 185.095 75.0643C184.766 75.0359 184.437 74.9996 184.111 74.9471C183.911 74.9145 183.85 74.9956 183.834 75.1757C183.804 75.4953 183.749 75.8129 183.726 76.1328C183.709 76.3662 183.609 76.4281 183.387 76.3906C183.08 76.3392 182.769 76.3034 182.458 76.2804C182.246 76.2648 182.168 76.1883 182.204 75.9683C182.258 75.6426 182.28 75.3121 182.327 74.9852C182.351 74.8171 182.314 74.7322 182.127 74.7117C181.288 74.6194 180.45 74.5188 179.613 74.4139C179.448 74.3933 179.376 74.4436 179.361 74.6089C179.327 74.9463 179.274 75.2826 179.246 75.6206C179.229 75.818 179.161 75.8887 178.952 75.8639C175.144 75.4077 171.336 74.9559 167.527 74.5084C167.337 74.4859 167.274 74.4095 167.301 74.2223C167.348 73.8954 167.372 73.5652 167.423 73.2391C167.454 73.0413 167.399 72.9609 167.191 72.939C166.379 72.8532 165.57 72.7439 164.758 72.6587C164.529 72.6349 164.47 72.553 164.498 72.3264C164.719 70.5328 164.933 68.7378 165.136 66.9421C165.165 66.6923 165.261 66.6383 165.492 66.6778C165.817 66.7331 166.146 66.7688 166.475 66.7917C166.541 66.7962 166.669 66.7131 166.676 66.6579C166.796 65.7401 166.902 64.8211 167.017 63.8564C166.616 63.809 166.238 63.7474 165.857 63.7245C165.584 63.7081 165.514 63.5977 165.564 63.3415C165.614 63.081 165.631 62.8137 165.662 62.5498C165.69 62.314 165.581 62.1816 165.336 62.1526C164.571 62.0618 163.807 61.96 163.04 61.8857C162.779 61.8603 162.715 61.7616 162.759 61.5164C162.813 61.2098 162.842 60.8979 162.87 60.5876C162.887 60.4003 162.963 60.3321 163.155 60.361C163.491 60.4114 163.83 60.4367 164.166 60.4865C164.347 60.5135 164.414 60.4481 164.43 60.273C164.46 59.944 164.497 59.6153 164.547 59.2893C164.576 59.1012 164.519 59.02 164.326 59.0032C163.998 58.9748 163.671 58.9188 163.342 58.892C163.134 58.875 163.079 58.7808 163.107 58.5855C163.156 58.2587 163.183 57.9294 163.229 57.6023C163.251 57.4488 163.224 57.3641 163.046 57.3441C162.198 57.2501 161.351 57.149 160.504 57.0425C160.327 57.0204 160.279 57.0974 160.265 57.2517C160.236 57.5531 160.179 57.8522 160.166 58.1543C160.153 58.4265 160.064 58.5108 159.778 58.473C158.531 58.3096 157.282 58.1708 156.034 58.0227C155.782 57.9928 155.641 58.1078 155.61 58.3677C155.58 58.6228 155.563 58.8807 155.515 59.132C155.47 59.3709 155.522 59.4703 155.788 59.4958C156.583 59.5707 157.374 59.685 158.167 59.7664C158.399 59.7901 158.46 59.8778 158.423 60.0994C158.369 60.4249 158.336 60.7541 158.305 61.0829C158.289 61.2465 158.216 61.3079 158.055 61.2881C156.706 61.1259 155.358 60.9654 154.009 60.8081C153.83 60.7869 153.784 60.701 153.806 60.5292C153.911 59.6917 154.011 58.8537 154.104 58.0147C154.126 57.818 154.217 57.7717 154.398 57.7969C154.733 57.8446 155.073 57.872 155.408 57.9213C155.588 57.9477 155.65 57.8839 155.67 57.7086C155.761 56.8789 155.859 56.0494 155.965 55.2215C155.988 55.0399 155.924 54.9724 155.752 54.9558C155.414 54.9225 155.078 54.8714 154.74 54.8392C154.555 54.8211 154.485 54.7484 154.515 54.5549C154.568 54.2197 154.605 53.8816 154.636 53.5438C154.652 53.3764 154.727 53.3214 154.887 53.3421C155.224 53.3859 155.562 53.415 155.898 53.4648C156.091 53.4933 156.184 53.4465 156.201 53.2343C156.234 52.8346 156.292 52.4373 156.344 52.0026C155.93 51.9536 155.543 51.896 155.153 51.8658C154.92 51.8482 154.827 51.7755 154.873 51.5261C154.931 51.211 154.959 50.8896 154.989 50.57C155.005 50.3948 155.08 50.3315 155.256 50.3531C156.103 50.458 156.95 50.559 157.798 50.6546C157.983 50.6754 158.023 50.7663 158 50.9333C157.953 51.2604 157.928 51.5905 157.877 51.9165C157.848 52.105 157.904 52.1833 158.096 52.2017C158.507 52.2415 158.915 52.2983 159.325 52.348C159.282 52.7488 159.227 53.1486 159.201 53.5508C159.185 53.8065 159.086 53.8697 158.836 53.835C158.036 53.7252 157.233 53.6448 156.432 53.5409C156.241 53.5161 156.169 53.5674 156.154 53.7605C156.131 54.0715 156.099 54.383 156.043 54.6889C155.999 54.9258 156.089 54.9858 156.307 55.0084C157.1 55.0909 157.891 55.2008 158.685 55.2805C158.933 55.3055 158.994 55.4005 158.954 55.6333C158.9 55.9495 158.881 56.2708 158.834 56.5884C158.809 56.7581 158.849 56.845 159.035 56.8616C159.373 56.8917 159.711 56.9311 160.046 56.9815C160.23 57.0095 160.291 56.9372 160.307 56.7653C160.336 56.4457 160.391 56.1286 160.414 55.8088C160.431 55.5753 160.512 55.4835 160.759 55.5272C161.075 55.5835 161.397 55.6001 161.714 55.6472C161.892 55.6733 161.964 55.6135 161.979 55.436C162.008 55.1074 162.047 54.7789 162.096 54.4528C162.123 54.2738 162.062 54.2039 161.885 54.1885C161.584 54.1622 161.285 54.1034 160.983 54.0887C160.711 54.0752 160.609 53.9809 160.663 53.6976C160.722 53.3921 160.736 53.0783 160.781 52.7701C160.807 52.5966 160.755 52.5182 160.573 52.5011C160.153 52.4607 159.735 52.405 159.316 52.3553C159.429 51.436 159.537 50.5161 159.657 49.5983C159.683 49.396 159.578 49.3697 159.425 49.352C158.605 49.2575 157.786 49.1531 156.965 49.0652C156.767 49.0439 156.69 48.9821 156.725 48.7729C156.778 48.4472 156.814 48.1185 156.842 47.7898C156.858 47.5941 156.926 47.5222 157.137 47.5477C158.948 47.7698 160.76 47.9843 162.573 48.1938C162.785 48.2184 162.859 48.2933 162.823 48.51C162.768 48.8443 162.731 49.1824 162.706 49.5204C162.701 49.5892 162.778 49.7193 162.832 49.7273C163.256 49.7937 163.683 49.8372 164.144 49.892C164.194 49.4715 164.251 49.083 164.283 48.6926C164.301 48.4616 164.393 48.3959 164.619 48.4349C164.935 48.4896 165.255 48.5204 165.575 48.5505C165.758 48.5678 165.834 48.6368 165.804 48.832C165.752 49.1761 165.713 49.5229 165.68 49.8699C165.665 50.0357 165.595 50.0901 165.431 50.0674C165.095 50.0198 164.756 49.9934 164.421 49.942C164.236 49.9134 164.148 49.9624 164.131 50.1568C164.1 50.4946 164.058 50.8316 164.012 51.1676C163.99 51.3315 164.05 51.3991 164.214 51.418C165.043 51.5114 165.872 51.607 166.699 51.7146C166.921 51.7436 166.963 51.6392 166.983 51.4573C167.079 50.6005 167.184 49.7451 167.285 48.8889C167.57 46.485 167.856 44.0806 168.141 41.6768C168.17 41.4363 168.304 41.3299 168.544 41.3576C169.919 41.5168 171.295 41.6756 172.67 41.8349C172.62 42.2448 172.558 42.6538 172.526 43.0647C172.508 43.3007 172.413 43.3556 172.193 43.3178C171.886 43.2653 171.573 43.2497 171.265 43.2011C171.071 43.1703 171.001 43.2391 170.985 43.4265C170.958 43.7463 170.902 44.0634 170.878 44.3837C170.862 44.596 170.782 44.6726 170.564 44.6374C170.238 44.5848 169.908 44.5617 169.582 44.5147C169.413 44.4902 169.33 44.5331 169.308 44.7171C169.096 46.5483 168.878 48.379 168.657 50.2097C168.637 50.3794 168.697 50.4398 168.857 50.4556C169.195 50.4884 169.533 50.5241 169.868 50.5766C170.068 50.6082 170.126 50.5244 170.141 50.3442C170.167 50.043 170.227 49.7436 170.241 49.4422C170.254 49.1645 170.376 49.103 170.629 49.149C170.899 49.1983 171.177 49.2041 171.447 49.2544C171.688 49.2997 171.797 49.2432 171.813 48.9787C171.838 48.5858 171.899 48.195 171.945 47.803C172.372 47.8536 172.799 47.9009 173.225 47.9581C173.385 47.9799 173.462 47.9346 173.478 47.7666C173.511 47.4208 173.55 47.0757 173.601 46.732C173.626 46.5634 173.563 46.4977 173.405 46.4806C173.06 46.4435 172.714 46.4069 172.371 46.3556C172.176 46.3269 172.116 46.4031 172.099 46.5876C172.061 46.9967 172.003 47.4046 171.954 47.8123C171.534 47.7648 171.116 47.7123 170.697 47.672C170.518 47.6552 170.461 47.5764 170.486 47.4022C170.534 47.0664 170.578 46.7297 170.605 46.3915C170.622 46.1792 170.723 46.1323 170.914 46.1605C171.213 46.2049 171.518 46.2167 171.813 46.2756C172.075 46.3278 172.152 46.2297 172.167 45.9867C172.186 45.6758 172.243 45.3678 172.27 45.0574C172.286 44.881 172.358 44.8185 172.536 44.8441C172.862 44.8917 173.193 44.9153 173.519 44.9668C173.724 44.9989 173.817 44.9488 173.84 44.7257C173.926 43.9142 174.022 43.1039 174.129 42.295C174.157 42.0829 174.081 42.0217 173.887 42.0009C173.477 41.9579 173.07 41.8956 172.661 41.8411C172.765 40.9479 172.862 40.0545 172.977 39.1627C173.004 38.9527 172.965 38.8621 172.738 38.849C172.418 38.8305 172.099 38.7865 171.782 38.7372C171.605 38.7101 171.532 38.7586 171.517 38.9417C171.489 39.2798 171.434 39.6158 171.403 39.9535C171.386 40.132 171.305 40.1918 171.132 40.169C170.777 40.122 170.422 40.0793 170.066 40.0426C169.899 40.025 169.852 39.945 169.874 39.7839C169.922 39.4387 169.951 39.0907 170.002 38.7459C170.028 38.5757 169.97 38.5178 169.805 38.5032C169.467 38.4732 169.131 38.4188 168.793 38.3888C168.607 38.3721 168.534 38.2992 168.562 38.1076C168.61 37.7808 168.657 37.4527 168.677 37.1236C168.693 36.8618 168.821 36.8398 169.042 36.8665C171.383 37.1498 173.724 37.4249 176.066 37.7027C176.968 37.8097 177.87 37.9167 178.772 38.0237C179.036 38.0551 179.153 38.1985 179.124 38.4541C179.09 38.746 179.064 39.0388 179.017 39.328C178.986 39.5225 179.056 39.5858 179.243 39.6064C180.055 39.6943 180.865 39.8009 181.676 39.8878C181.894 39.9108 181.987 39.9752 181.945 40.2128C181.889 40.5287 181.856 40.849 181.83 41.1691C181.814 41.3758 181.722 41.4333 181.524 41.4037C181.189 41.3533 180.851 41.3111 180.513 41.2898C180.44 41.2851 180.304 41.3767 180.295 41.4394C180.227 41.8544 180.186 42.2731 180.132 42.7319C180.536 42.7798 180.915 42.8375 181.295 42.8654C181.54 42.8834 181.622 42.9614 181.589 43.2229C181.367 45.0074 181.157 46.7929 180.952 48.5795C180.927 48.7958 180.862 48.8909 180.627 48.8508C180.301 48.7955 179.972 48.7625 179.643 48.7329C179.468 48.7172 179.403 48.6495 179.429 48.4694C179.478 48.1338 179.503 47.7942 179.553 47.4587C179.58 47.2859 179.537 47.2014 179.354 47.1836C179.016 47.1513 178.679 47.1101 178.343 47.0642C178.172 47.0411 178.09 47.0913 178.075 47.2755C178.046 47.6136 177.992 47.9491 177.959 48.2872C177.942 48.4612 177.871 48.5271 177.692 48.5015C177.274 48.4419 176.855 48.395 176.436 48.343C176.542 47.4417 176.654 46.5407 176.748 45.6381C176.772 45.4089 176.853 45.3513 177.079 45.3814C177.887 45.4895 178.699 45.5736 179.508 45.6774C179.697 45.7015 179.771 45.647 179.792 45.4557C179.883 44.6265 179.982 43.7978 180.086 42.9701C180.106 42.8088 180.064 42.7322 179.896 42.7155C179.549 42.6816 179.203 42.6405 178.858 42.5924C178.695 42.5697 178.622 42.6222 178.607 42.7891C178.578 43.0994 178.516 43.4078 178.504 43.718C178.494 44.0109 178.37 44.0578 178.104 44.0208C177.342 43.9142 176.574 43.8426 175.811 43.7382C175.558 43.7037 175.437 43.7498 175.425 44.0298C175.411 44.3402 175.35 44.6483 175.322 44.9587C175.306 45.135 175.236 45.1949 175.056 45.168C174.72 45.1171 174.382 45.0903 174.046 45.0427C173.887 45.0199 173.809 45.0589 173.793 45.2313C173.761 45.5784 173.719 45.9243 173.669 46.2693C173.646 46.4375 173.71 46.5001 173.871 46.5159C174.209 46.5487 174.544 46.6007 174.882 46.6314C175.062 46.6477 175.118 46.7232 175.092 46.8995C175.043 47.2444 175.013 47.5918 174.965 47.9369C174.942 48.1008 174.997 48.1701 175.162 48.1869C175.591 48.2299 176.018 48.2851 176.447 48.3354L176.444 48.3378ZM175.73 54.3022C175.834 53.4008 175.935 52.4989 176.047 51.5984C176.072 51.402 176.028 51.3119 175.818 51.2964C175.489 51.2718 175.161 51.2273 174.834 51.1814C174.667 51.1576 174.575 51.1973 174.555 51.3814C174.46 52.2195 174.36 53.0576 174.256 53.8947C174.236 54.0594 174.294 54.1268 174.457 54.1439C174.886 54.1882 175.314 54.2439 175.741 54.2946C175.689 54.7225 175.639 55.1508 175.582 55.5776C175.562 55.7224 175.602 55.8031 175.758 55.8216C177.106 55.9793 178.454 56.1381 179.801 56.3013C179.961 56.3203 180.014 56.2505 180.029 56.1063C180.065 55.7597 180.102 55.4132 180.152 55.0683C180.177 54.8931 180.122 54.8172 179.943 54.8014C179.614 54.7724 179.288 54.7165 178.959 54.6913C178.755 54.6761 178.69 54.6029 178.723 54.3968C178.783 54.0093 178.819 53.6178 178.87 53.1897C178.407 53.1347 177.973 53.076 177.538 53.041C177.487 53.0372 177.388 53.1587 177.376 53.2327C177.321 53.5583 177.281 53.8867 177.255 54.2155C177.239 54.4163 177.166 54.4858 176.96 54.4547C176.552 54.3931 176.141 54.3521 175.731 54.3029L175.73 54.3022ZM170.715 58.249C170.342 58.2075 169.966 58.1828 169.596 58.119C169.33 58.073 169.209 58.1247 169.201 58.419C169.192 58.7294 169.13 59.0385 169.098 59.3484C169.082 59.4953 169.015 59.5634 168.864 59.545C168.491 59.4996 168.115 59.4656 167.745 59.4022C167.677 59.3908 167.576 59.2605 167.581 59.1906C167.605 58.8248 167.663 58.4614 167.699 58.0965C167.714 57.9406 167.784 57.894 167.934 57.914C168.279 57.9599 168.627 57.989 168.972 58.0416C169.164 58.0705 169.232 58.0042 169.253 57.8162C169.342 57.0046 169.436 56.1936 169.542 55.384C169.57 55.1708 169.512 55.0906 169.295 55.0676C168.501 54.984 167.71 54.8751 166.916 54.7943C166.67 54.7694 166.574 54.6921 166.622 54.434C166.676 54.1368 166.684 53.8312 166.737 53.5333C166.777 53.311 166.718 53.2258 166.485 53.2019C165.672 53.1183 164.863 53.009 164.051 52.9221C163.85 52.9005 163.78 52.8328 163.814 52.627C163.867 52.3013 163.904 51.972 163.928 51.6429C163.934 51.5664 163.872 51.4224 163.824 51.4151C163.392 51.3472 162.957 51.3022 162.508 51.2489C162.488 51.362 162.47 51.441 162.46 51.5209C162.365 52.3135 162.281 53.1073 162.172 53.8978C162.14 54.137 162.2 54.2202 162.443 54.2452C163.246 54.3266 164.047 54.4344 164.849 54.5229C165.041 54.544 165.129 54.5994 165.093 54.8139C165.037 55.1482 165.003 55.4866 164.972 55.8249C164.956 55.9918 164.885 56.0467 164.723 56.0241C164.395 55.9791 164.065 55.9566 163.739 55.9024C163.528 55.8674 163.435 55.9246 163.418 56.1446C163.393 56.4648 163.354 56.7839 163.304 57.101C163.272 57.3026 163.336 57.3768 163.54 57.3988C164.352 57.4857 165.161 57.595 165.973 57.6792C166.204 57.7032 166.261 57.7882 166.231 58.0128C166.125 58.8042 166.048 59.5989 165.94 60.3893C165.906 60.6335 165.975 60.7078 166.214 60.7322C167.007 60.8125 167.799 60.9236 168.592 61.0039C168.838 61.0291 168.903 61.1207 168.862 61.3556C168.807 61.6623 168.775 61.9738 168.75 62.2845C168.734 62.4908 168.642 62.552 168.446 62.5238C168.11 62.4756 167.771 62.4454 167.435 62.3994C167.273 62.3774 167.2 62.4304 167.184 62.5978C167.153 62.9355 167.113 63.2733 167.064 63.6089C167.038 63.7846 167.09 63.8596 167.271 63.8756C167.609 63.9051 167.945 63.9589 168.283 63.9901C168.467 64.0068 168.539 64.0754 168.515 64.2707C168.408 65.108 168.31 65.9463 168.216 66.7851C168.196 66.9648 168.116 67.0187 167.944 66.9949C167.599 66.9467 167.251 66.9154 166.906 66.8673C166.743 66.8446 166.673 66.8963 166.654 67.0628C166.56 67.9016 166.461 68.7398 166.356 69.5773C166.336 69.7409 166.383 69.8142 166.549 69.8312C166.896 69.8656 167.242 69.9073 167.588 69.9544C167.754 69.9769 167.82 69.9142 167.836 69.7506C167.866 69.4217 167.923 69.0953 167.946 68.7661C167.961 68.5453 168.051 68.4904 168.263 68.5183C169.063 68.6227 169.867 68.7042 170.667 68.813C170.909 68.8462 170.989 68.7751 171.013 68.5365C171.096 67.7335 171.203 66.933 171.29 66.1306C171.312 65.9299 171.385 65.8598 171.589 65.8918C171.915 65.9432 172.245 65.9691 172.573 66.0124C172.732 66.0335 172.809 65.9827 172.826 65.8142C172.858 65.4672 172.911 65.122 172.945 64.7752C172.961 64.6106 173.033 64.5519 173.196 64.574C173.532 64.6195 173.869 64.6678 174.207 64.6913C174.441 64.7073 174.494 64.8036 174.465 65.0255C174.36 65.817 174.28 66.6114 174.174 67.402C174.142 67.6381 174.197 67.7251 174.442 67.7498C175.246 67.8301 176.046 67.9411 176.849 68.0247C177.066 68.0472 177.13 68.1242 177.094 68.3387C177.04 68.6642 177.02 68.9949 176.97 69.3216C176.943 69.501 177.004 69.5659 177.181 69.5836C177.673 69.6326 178.165 69.697 178.657 69.7554C180.461 69.9694 182.265 70.1796 184.068 70.4024C184.307 70.4319 184.403 70.3733 184.416 70.1289C184.431 69.8453 184.493 69.5645 184.508 69.281C184.521 69.0222 184.611 68.9274 184.883 68.9763C185.251 69.0427 185.626 69.07 186.042 69.1193C186.091 68.7049 186.127 68.3144 186.187 67.9274C186.22 67.7126 186.157 67.6363 185.94 67.6133C185.146 67.5302 184.355 67.4225 183.561 67.3389C183.322 67.3138 183.215 67.2456 183.268 66.9804C183.328 66.675 183.338 66.3603 183.386 66.0523C183.416 65.866 183.366 65.7829 183.17 65.7679C182.868 65.7449 182.566 65.714 182.268 65.6599C182.024 65.6153 181.927 65.676 181.901 65.9383C181.822 66.7417 181.713 67.5421 181.625 68.3443C181.603 68.5432 181.527 68.6142 181.323 68.5816C180.988 68.5285 180.649 68.4918 180.311 68.4617C180.129 68.445 180.08 68.3631 180.106 68.1908C180.149 67.9006 180.177 67.608 180.213 67.3163C180.242 67.0681 180.133 66.9294 179.886 66.9C178.62 66.7498 177.353 66.5973 176.087 66.4509C175.886 66.4276 175.758 66.3836 175.804 66.1309C175.861 65.8251 175.896 65.5129 175.914 65.2025C175.929 64.9511 176.039 64.9046 176.269 64.9353C177.069 65.0419 177.873 65.1245 178.673 65.2289C178.875 65.2551 178.958 65.2005 178.973 64.9953C178.998 64.6844 179.057 64.3762 179.077 64.0654C179.093 63.8175 179.2 63.763 179.434 63.7941C180.243 63.9012 181.055 63.987 181.865 64.0887C182.02 64.1081 182.109 64.086 182.129 63.9102C182.285 62.5707 182.443 61.231 182.605 59.8923C182.625 59.7286 182.57 59.6577 182.404 59.6419C182.066 59.6101 181.73 59.5564 181.392 59.5268C181.203 59.5105 181.137 59.4383 181.167 59.2458C181.218 58.9105 181.244 58.571 181.292 58.2353C181.317 58.0645 181.273 57.9782 181.089 57.9614C180.751 57.9307 180.413 57.8885 180.077 57.8425C179.9 57.8181 179.834 57.8853 179.815 58.0617C179.725 58.8827 179.629 59.7029 179.524 60.5215C179.5 60.708 179.547 60.7924 179.742 60.8089C180.07 60.8373 180.397 60.8911 180.726 60.9207C180.912 60.9377 180.984 61.0101 180.954 61.2031C180.904 61.5292 180.86 61.8575 180.838 62.187C180.823 62.4183 180.734 62.4761 180.509 62.446C179.709 62.3394 178.905 62.2574 178.105 62.1519C177.897 62.1244 177.804 62.1656 177.79 62.391C177.77 62.7113 177.71 63.0283 177.685 63.3484C177.669 63.5559 177.581 63.6136 177.383 63.5835C177.075 63.5359 176.764 63.4962 176.454 63.4749C176.207 63.4584 176.116 63.3688 176.16 63.1104C176.225 62.7339 176.255 62.3511 176.304 61.9427C175.876 61.8919 175.487 61.8357 175.095 61.8032C174.889 61.7859 174.835 61.7095 174.861 61.5061C174.968 60.6872 175.068 59.8674 175.152 59.0463C175.175 58.822 175.257 58.7723 175.467 58.8056C175.853 58.8658 176.242 58.9019 176.658 58.9512C176.714 58.4799 176.773 58.0545 176.805 57.6269C176.809 57.5674 176.688 57.4542 176.612 57.4407C176.278 57.3828 175.939 57.346 175.602 57.3153C175.426 57.2995 175.361 57.2336 175.391 57.0522C175.436 56.7716 175.46 56.4875 175.494 56.2056C175.525 55.9439 175.405 55.797 175.135 55.765C174.871 55.7336 174.608 55.6896 174.343 55.6743C174.107 55.6607 174.019 55.5765 174.062 55.3301C174.12 55.0055 174.138 54.6741 174.184 54.347C174.207 54.1842 174.156 54.1105 173.989 54.0951C173.688 54.0677 173.389 54.0083 173.087 53.9953C172.814 53.9834 172.733 53.8966 172.771 53.6096C172.937 52.3453 173.071 51.0771 173.234 49.8118C173.267 49.5548 173.195 49.4662 172.946 49.4512C172.653 49.4342 172.36 49.4005 172.072 49.3474C171.824 49.3014 171.73 49.3907 171.736 49.628C171.738 49.6826 171.727 49.7379 171.718 49.7918C171.665 50.1142 171.612 50.4359 171.558 50.7583C171.241 50.7323 170.923 50.7079 170.606 50.6797C170.461 50.667 170.318 50.646 170.129 50.6237C170.08 51.0381 170.023 51.426 169.992 51.816C169.973 52.0558 169.882 52.1272 169.642 52.0948C168.86 51.9898 168.074 51.9154 167.293 51.8055C167.024 51.7675 166.933 51.8483 166.921 52.109C166.909 52.3829 166.875 52.6586 166.824 52.9285C166.779 53.1691 166.859 53.2463 167.098 53.2725C168.393 53.415 169.686 53.5778 170.98 53.7242C171.179 53.7467 171.246 53.8124 171.22 54.0186C171.043 55.4294 170.876 56.8413 170.706 58.2529L170.713 58.2476L170.715 58.249ZM186.94 61.6618C187.379 61.7139 187.777 61.7677 188.176 61.8057C188.378 61.8247 188.445 61.912 188.416 62.1112C188.366 62.4467 188.328 62.7842 188.295 63.1217C188.279 63.2962 188.204 63.3618 188.027 63.3369C187.682 63.2882 187.336 63.2449 186.989 63.2148C186.791 63.1974 186.746 63.1072 186.774 62.9245C186.822 62.6071 186.842 62.2859 186.893 61.9694C186.927 61.7624 186.878 61.6655 186.652 61.6515C186.341 61.6324 186.033 61.5692 185.722 61.5495C185.487 61.535 185.434 61.4388 185.464 61.2152C185.57 60.4156 185.652 59.6126 185.758 58.8124C185.789 58.5845 185.719 58.4974 185.493 58.4822C185.191 58.462 184.89 58.4229 184.591 58.3764C184.401 58.3471 184.308 58.3883 184.283 58.6013C184.074 60.4141 183.859 62.2256 183.637 64.0369C183.611 64.2508 183.691 64.3114 183.883 64.3281C184.203 64.3555 184.52 64.4092 184.84 64.4366C185.045 64.4542 185.105 64.5447 185.075 64.7432C185.028 65.0419 185.014 65.3461 184.962 65.6435C184.92 65.8834 184.973 65.9818 185.238 66.0106C186.515 66.147 187.789 66.3005 189.063 66.4632C189.299 66.4934 189.38 66.4453 189.407 66.1987C189.557 64.8314 189.725 63.4668 189.887 62.1008C190.056 60.6802 190.221 59.2597 190.397 57.84C190.422 57.6397 190.377 57.5584 190.169 57.5441C189.858 57.5228 189.547 57.4876 189.24 57.4329C189.02 57.3934 188.954 57.4656 188.932 57.68C188.848 58.4917 188.74 59.3005 188.653 60.1118C188.631 60.3124 188.558 60.3831 188.355 60.3524C188.011 60.3004 187.664 60.2576 187.317 60.2348C187.245 60.2301 187.11 60.3207 187.1 60.3828C187.033 60.789 186.993 61.199 186.939 61.6605L186.94 61.6618ZM176.768 71.0569C176.717 71.4861 176.66 71.8751 176.629 72.2668C176.611 72.4939 176.525 72.5609 176.298 72.5306C175.507 72.4257 174.715 72.3289 173.921 72.2497C173.671 72.2245 173.596 72.1456 173.63 71.8899C173.74 71.0902 173.82 70.2869 173.925 69.4866C173.952 69.2838 173.896 69.2084 173.693 69.1864C172.881 69.0985 172.07 69.0034 171.261 68.8968C171.043 68.8682 170.974 68.9388 170.951 69.1504C170.868 69.9438 170.777 70.7369 170.668 71.5273C170.633 71.778 170.716 71.8523 170.949 71.866C171.233 71.8825 171.514 71.9457 171.797 71.9577C172.062 71.9686 172.116 72.0817 172.076 72.3256C172.013 72.7012 171.981 73.0821 171.935 73.4664L179.38 74.3497C179.429 73.9352 179.483 73.5381 179.52 73.1388C179.537 72.9516 179.608 72.8806 179.8 72.91C180.108 72.9565 180.421 72.9732 180.728 73.0268C180.959 73.0669 181.068 73.0133 181.083 72.7618C181.1 72.4602 181.139 72.1584 181.19 71.8607C181.226 71.6457 181.158 71.5727 180.94 71.5486C179.709 71.4125 178.48 71.2612 177.25 71.1152C177.106 71.0981 176.962 71.081 176.769 71.0581L176.768 71.0569ZM184.763 54.5955C184.684 55.2607 184.611 55.926 184.523 56.5901C184.497 56.7901 184.552 56.875 184.757 56.8916C185.077 56.9167 185.394 56.9743 185.714 56.9985C185.934 57.0151 185.993 57.1071 185.958 57.3194C185.906 57.6263 185.89 57.9398 185.84 58.2475C185.807 58.4523 185.877 58.5267 186.079 58.5423C186.408 58.5675 186.736 58.6098 187.063 58.658C187.232 58.6825 187.291 58.6184 187.31 58.4574C187.464 57.1272 187.621 55.7974 187.783 54.4676C187.803 54.3033 187.758 54.2337 187.59 54.2186C187.261 54.1891 186.935 54.1293 186.606 54.1091C186.366 54.0945 186.316 53.9887 186.35 53.7717C186.401 53.4459 186.426 53.1158 186.472 52.7886C186.495 52.6248 186.438 52.5541 186.272 52.5384C185.943 52.5077 185.614 52.472 185.288 52.4205C185.088 52.389 185.01 52.4497 184.989 52.6548C184.922 53.3026 184.839 53.9489 184.762 54.5955L184.763 54.5955ZM177.989 60.6103C178.038 60.1915 178.084 59.7716 178.14 59.3536C178.16 59.2039 178.117 59.1322 177.962 59.1159C177.606 59.0798 177.25 59.0388 176.896 58.989C176.72 58.9642 176.675 59.0482 176.658 59.2011C176.564 60.0304 176.466 60.8594 176.362 61.6876C176.341 61.8599 176.385 61.9418 176.569 61.958C176.906 61.9881 177.244 62.0281 177.579 62.0779C177.759 62.1048 177.825 62.0426 177.842 61.867C177.882 61.4471 177.938 61.0285 177.989 60.6098L177.989 60.6103ZM182.375 74.7201C182.837 74.7749 183.261 74.8313 183.688 74.868C183.743 74.8729 183.852 74.7814 183.859 74.724C183.972 73.8613 184.075 72.997 184.165 72.1316C184.171 72.0657 184.068 71.9346 184 71.9233C183.639 71.8616 183.275 71.8194 182.91 71.7933C182.845 71.7885 182.721 71.8831 182.713 71.9438C182.594 72.8512 182.49 73.7604 182.376 74.7196L182.375 74.7201ZM170.442 73.3048C170.496 72.846 170.553 72.4292 170.586 72.0112C170.591 71.9551 170.481 71.8449 170.414 71.8358C169.559 71.7238 168.702 71.6222 167.845 71.531C167.781 71.524 167.653 71.6115 167.643 71.6698C167.583 72.0406 167.54 72.4147 167.509 72.7897C167.505 72.8469 167.59 72.9592 167.644 72.9661C168.561 73.085 169.481 73.1913 170.441 73.3052L170.442 73.3048ZM182.801 58.1485C183.228 58.1991 183.656 58.2443 184.082 58.3031C184.247 58.326 184.314 58.2746 184.329 58.1082C184.36 57.7716 184.401 57.435 184.449 57.1003C184.471 56.9436 184.436 56.8657 184.263 56.8462C183.417 56.752 182.573 56.6507 181.729 56.5456C181.565 56.525 181.495 56.5762 181.479 56.7419C181.448 57.0791 181.41 57.4155 181.359 57.7498C181.331 57.9352 181.405 57.99 181.575 58.0069C181.985 58.0466 182.393 58.1011 182.802 58.1491L182.801 58.1485ZM178.068 40.9942C177.895 40.9737 177.721 40.9596 177.549 40.931C177.39 40.9043 177.312 40.9517 177.296 41.1224C177.263 41.4694 177.22 41.8152 177.173 42.1604C177.151 42.3221 177.201 42.3952 177.369 42.4102C177.707 42.4409 178.044 42.4803 178.38 42.5296C178.542 42.5532 178.621 42.511 178.633 42.3408C178.646 42.158 178.674 41.9765 178.695 41.7942C178.752 41.3172 178.543 41.0505 178.067 40.9941L178.068 40.9942ZM176.75 71.0342C176.804 70.5788 176.861 70.1631 176.895 69.7457C176.9 69.6857 176.8 69.5695 176.736 69.5591C176.375 69.4997 176.012 69.4549 175.648 69.43C175.578 69.4251 175.447 69.5245 175.436 69.5914C175.374 69.951 175.335 70.3156 175.303 70.6794C175.298 70.7409 175.358 70.8591 175.401 70.8658C175.84 70.9307 176.283 70.9782 176.751 71.0338L176.75 71.0342ZM161.924 49.6519C161.761 49.6325 161.595 49.6218 161.434 49.5915C161.25 49.5563 161.158 49.612 161.148 49.8079C161.139 49.9812 161.109 50.1531 161.089 50.3261C161.033 50.8009 161.243 51.0665 161.722 51.1229C162.225 51.1826 162.506 50.9621 162.566 50.4613C162.623 49.9792 162.409 49.7094 161.924 49.6519ZM175.996 39.245C175.942 39.6977 175.885 40.1134 175.852 40.5303C175.847 40.5891 175.949 40.7028 176.014 40.7133C176.385 40.7728 176.758 40.8177 177.132 40.8432C177.197 40.8476 177.319 40.7415 177.33 40.6724C177.39 40.3208 177.43 39.9647 177.456 39.6092C177.461 39.5443 177.378 39.42 177.321 39.4111C176.896 39.3451 176.469 39.3016 175.995 39.2454L175.996 39.245ZM173.38 48.7094C173.32 49.2163 173.538 49.4994 174.033 49.5585C174.506 49.6147 174.771 49.405 174.828 48.9294C174.888 48.425 174.67 48.1436 174.174 48.0852C173.701 48.029 173.436 48.2371 173.38 48.7094ZM190.068 54.5155C189.895 54.495 189.721 54.4809 189.549 54.4523C189.39 54.4256 189.308 54.4719 189.297 54.6433C189.285 54.8262 189.256 55.0076 189.235 55.19C189.152 55.8852 189.152 55.8891 189.854 55.9662C190.096 55.9928 190.407 56.0919 190.564 55.9822C190.699 55.8877 190.664 55.5438 190.693 55.3086C190.78 54.5994 190.778 54.5992 190.068 54.5149L190.068 54.5155Z" fill="#FFCD45"/>
<path d="M166.622 41.9024C166.428 43.5327 166.231 45.1625 166.047 46.794C166.019 47.0411 165.947 47.1146 165.689 47.0835C162.411 46.6863 159.132 46.2978 155.852 45.9153C155.612 45.8868 155.551 45.808 155.58 45.5677C155.977 42.2899 156.366 39.0106 156.748 35.7311C156.776 35.4962 156.848 35.4221 157.093 35.4517C160.371 35.8478 163.65 36.2374 166.93 36.6176C167.189 36.6479 167.24 36.7395 167.21 36.9851C167.006 38.6236 166.816 40.2632 166.621 41.9028L166.622 41.9024ZM160.95 44.984C162.098 45.1202 163.246 45.252 164.393 45.3969C164.605 45.4238 164.684 45.3737 164.709 45.1536C164.973 42.866 165.245 40.5798 165.524 38.294C165.551 38.0658 165.493 37.9928 165.267 37.9665C162.979 37.7028 160.693 37.431 158.407 37.1526C158.195 37.1269 158.121 37.1675 158.095 37.3915C157.832 39.6793 157.562 41.9655 157.281 44.2511C157.25 44.5028 157.33 44.5612 157.561 44.5864C158.692 44.7094 159.821 44.8495 160.95 44.9835L160.95 44.984Z" fill="#FFCD45"/>
<path d="M157.588 73.3256C155.958 73.1322 154.328 72.9333 152.697 72.7508C152.429 72.7207 152.369 72.6276 152.401 72.3676C152.796 69.0985 153.184 65.8291 153.564 62.5583C153.593 62.3196 153.667 62.2529 153.909 62.2822C157.187 62.6783 160.466 63.0674 163.746 63.4487C164.001 63.4784 164.058 63.5634 164.028 63.8124C163.634 67.0629 163.251 70.3151 162.865 73.5664C162.835 73.8189 162.697 73.931 162.452 73.9026C160.831 73.7103 159.209 73.5179 157.588 73.3256ZM157.797 71.8048C158.936 71.9399 160.075 72.0712 161.213 72.2139C161.419 72.2401 161.502 72.1995 161.528 71.9743C161.792 69.6779 162.066 67.3825 162.344 65.0871C162.367 64.8862 162.317 64.8119 162.111 64.7881C159.815 64.5217 157.518 64.2504 155.224 63.9704C155.003 63.9437 154.938 64.0059 154.914 64.2167C154.647 66.5129 154.375 68.809 154.096 71.1037C154.071 71.3067 154.119 71.3751 154.325 71.3979C155.483 71.5258 156.639 71.668 157.796 71.8053L157.797 71.8048Z" fill="#FFCD45"/>
<path d="M182.999 43.8523C183.194 42.2039 183.395 40.5556 183.581 38.906C183.608 38.6627 183.691 38.6049 183.929 38.6336C187.207 39.0292 190.486 39.4183 193.765 39.8007C194 39.8286 194.074 39.9007 194.045 40.1459C193.648 43.433 193.257 46.7211 192.874 50.0099C192.847 50.2453 192.758 50.2914 192.539 50.2649C189.251 49.8699 185.964 49.4787 182.675 49.0962C182.422 49.0668 182.385 48.9703 182.414 48.7416C182.615 47.1123 182.805 45.4815 182.999 43.8512L182.999 43.8523ZM184.509 44.0314C184.373 45.1702 184.243 46.3095 184.099 47.4471C184.072 47.6598 184.124 47.7376 184.343 47.7625C186.631 48.0267 188.917 48.2974 191.203 48.5764C191.432 48.6042 191.504 48.5449 191.53 48.3187C191.794 46.0311 192.065 43.7449 192.343 41.459C192.369 41.2445 192.324 41.1736 192.103 41.1485C189.815 40.8854 187.529 40.6147 185.243 40.3341C184.99 40.303 184.933 40.385 184.908 40.6147C184.784 41.7546 184.643 42.8927 184.508 44.0314L184.509 44.0314Z" fill="#FFCD45"/>
<path d="M189.078 75.5159C189.582 75.5757 189.803 75.8576 189.743 76.3616C189.722 76.5433 189.695 76.7244 189.68 76.907C189.666 77.0725 189.585 77.1261 189.424 77.1048C189.061 77.0568 188.698 77.0142 188.334 76.9754C188.181 76.959 188.131 76.8848 188.15 76.7366C188.199 76.3649 188.231 75.99 188.293 75.6205C188.305 75.553 188.43 75.4591 188.505 75.4574C188.695 75.4528 188.886 75.4938 189.077 75.5164L189.078 75.5159Z" fill="#FFCD45"/>
<path d="M170.709 58.2546C171.092 58.2967 171.474 58.3382 171.856 58.3819C172.211 58.4223 172.21 58.4233 172.253 58.0554C172.289 57.7548 172.33 57.4549 172.359 57.1536C172.375 56.9828 172.441 56.9107 172.624 56.9385C172.959 56.9888 173.296 57.0305 173.635 57.0584C173.835 57.0744 173.872 57.1677 173.851 57.3478C173.631 59.1687 173.413 60.9894 173.205 62.8116C173.179 63.0362 173.084 63.0838 172.88 63.0506C172.59 63.0036 172.295 62.9918 172.007 62.9399C171.774 62.8978 171.67 62.9537 171.656 63.2053C171.64 63.5159 171.58 63.8241 171.553 64.1346C171.537 64.3182 171.473 64.3954 171.276 64.3654C170.932 64.3129 170.585 64.274 170.238 64.2412C170.064 64.225 169.997 64.1592 170.023 63.9781C170.074 63.6332 170.114 63.2871 170.147 62.9402C170.164 62.7634 170.239 62.7012 170.415 62.726C170.751 62.7731 171.089 62.8016 171.425 62.8503C171.607 62.8763 171.692 62.8298 171.713 62.6324C171.802 61.8119 171.9 60.9924 172.004 60.1737C172.029 59.9818 171.965 59.9059 171.778 59.8881C171.44 59.8564 171.104 59.8054 170.767 59.7721C170.592 59.7547 170.529 59.6811 170.554 59.5032C170.615 59.0862 170.662 58.6671 170.715 58.2487L170.708 58.254L170.709 58.2546Z" fill="#FFCD45"/>
<path d="M163.645 41.5286C163.566 42.1932 163.481 42.8565 163.413 43.5218C163.391 43.7275 163.312 43.7791 163.112 43.7544C161.794 43.5907 160.474 43.4336 159.154 43.2847C158.933 43.2596 158.885 43.1717 158.91 42.9638C159.072 41.6633 159.227 40.3622 159.373 39.0598C159.4 38.8193 159.491 38.7546 159.727 38.7843C161.018 38.9463 162.311 39.1002 163.604 39.2437C163.841 39.2702 163.914 39.3494 163.88 39.5912C163.789 40.2355 163.722 40.8826 163.645 41.5292L163.645 41.5286Z" fill="#FFCD45"/>
<path d="M160.462 68.3598C160.384 69.0151 160.298 69.6694 160.233 70.3262C160.21 70.5577 160.119 70.6119 159.898 70.5845C158.597 70.4225 157.296 70.2675 155.993 70.1213C155.767 70.0955 155.7 70.0099 155.728 69.7844C155.891 68.4747 156.045 67.164 156.195 65.8532C156.217 65.6549 156.286 65.5876 156.492 65.6126C157.82 65.7768 159.149 65.9339 160.478 66.0855C160.668 66.1069 160.726 66.1771 160.701 66.3673C160.614 67.0304 160.54 67.6956 160.461 68.3602L160.462 68.3598Z" fill="#FFCD45"/>
<path d="M190.474 44.7367C190.397 45.392 190.313 46.0466 190.244 46.703C190.223 46.9081 190.142 46.9618 189.942 46.937C188.623 46.7744 187.303 46.6162 185.983 46.4689C185.759 46.4441 185.716 46.3573 185.742 46.1499C185.904 44.8402 186.06 43.5296 186.208 42.2187C186.232 42.0094 186.301 41.936 186.52 41.9637C187.83 42.1268 189.141 42.2829 190.452 42.4301C190.684 42.456 190.74 42.5526 190.711 42.7718C190.623 43.4259 190.552 44.082 190.474 44.7372L190.474 44.7367Z" fill="#FFCD45"/>
</g>
<defs>
<clipPath id="clip0_563_2165">
<rect width="38.26" height="38.26" fill="white" transform="translate(156.508 35) rotate(6.76622)"/>
</clipPath>
</defs>
</svg>
