<svg width="366" height="153" viewBox="0 0 366 153" fill="none" xmlns="http://www.w3.org/2000/svg">
<g clip-path="url(#clip0_508_3234)">
<path d="M42.1039 0.456326C39.3522 1.11714 37.8935 1.91708 36.3022 3.62129C33.6501 6.3689 32.8212 9.39474 32.8212 16.2464C32.8212 26.0195 34.081 29.254 42.0707 39.9662C48.1044 48.0352 49.2647 50.1567 49.7952 53.9129C50.2593 57.4257 49.9609 62.2949 49.1653 63.7209C48.0049 65.8076 45.0544 65.8772 43.6289 63.86C42.9658 62.9209 42.9327 62.3644 42.8332 54.8868L42.7006 46.9222L32.1582 46.9222L32.1582 55.5128C32.1914 65.0425 32.4566 67.2336 34.0147 70.1899C36.2359 74.5374 40.5789 76.3807 47.6403 76.0677C53.674 75.7547 57.1881 73.6331 59.3761 69.0074C60.868 65.8076 61.299 63.1644 61.3321 57.2518C61.3321 47.3396 60.3707 44.8354 52.0495 33.532C48.8669 29.1845 45.8832 24.7674 45.187 23.3067L43.9272 20.6982L43.9272 16.2812C43.9272 12.0728 43.9604 11.7946 44.7229 10.9598C45.6843 9.88166 47.6071 9.74254 48.7011 10.6468C49.762 11.5511 50.0272 13.4292 50.0604 19.5157L50.0604 25.0109L60.4039 25.0109L60.2712 16.7333C60.1718 9.11651 60.1055 8.35135 59.3761 6.47324C58.5805 4.31689 57.0223 2.43878 55.2653 1.49972C52.6462 0.0389681 45.9495 -0.44795 42.1039 0.456326Z" fill="#0C081E"/>
<path d="M1.45849e-07 37.8785L2.91698e-07 75.0929L10.6087 75.0929L10.6087 42.3999L17.9022 42.3999L17.9022 75.0929L28.8424 75.0929L28.8424 0.664064L17.9022 0.664064L17.9022 30.5747L10.6087 30.5747L10.6087 0.664064L0 0.664064L1.45849e-07 37.8785Z" fill="#0C081E"/>
<path d="M64.9785 37.8785L64.9785 75.0929L89.8426 75.0929L89.8426 63.9634L75.5872 63.9634L75.5872 42.3999L86.1959 42.3999L86.1959 30.9225L75.5872 30.9225L75.5872 11.4458L89.1796 11.4458L89.1796 0.664064L64.9785 0.664064L64.9785 37.8785Z" fill="#0C081E"/>
<path d="M108.574 1.08142C108.508 1.32488 106.585 17.6366 104.265 37.3568C101.977 57.0422 100.021 73.5974 99.9216 74.1191L99.7227 75.0929L109.602 75.0929L110.199 68.9021C110.53 65.5285 110.862 62.3983 110.961 61.9461C111.127 61.2158 111.26 61.181 115.072 61.181C117.99 61.181 119.017 61.2853 119.017 61.5983C119.017 61.8418 119.316 64.6938 119.68 67.9631C120.045 71.1976 120.343 74.1539 120.343 74.4669C120.343 75.0234 120.807 75.0929 125.648 75.0929L130.985 75.0929L130.786 73.9452C130.488 72.1714 121.669 1.74224 121.669 1.18576C121.669 0.733624 120.642 0.664064 115.205 0.664064C110.298 0.664064 108.674 0.768403 108.574 1.08142ZM116.332 36.1047C117.094 43.0607 117.691 49.0428 117.691 49.3906C117.691 49.9819 117.393 50.0514 114.873 50.0514C113.315 50.0514 112.055 50.0167 112.055 49.9471C112.055 49.9123 112.652 44.1041 113.381 37.0438C114.111 29.9487 114.707 23.9318 114.707 23.6535C114.707 23.3753 114.774 23.2362 114.84 23.3057C114.94 23.3753 115.603 29.1488 116.332 36.1047Z" fill="#0C081E"/>
<path d="M132.609 37.8433L132.609 75.0925L143.55 75.0925L143.55 42.0517L146.003 42.0517C147.926 42.0517 148.622 42.1908 149.219 42.7125L150.014 43.3733L150.213 58.12C150.346 68.9017 150.512 73.1449 150.81 73.9448L151.241 75.0925L156.678 75.0925C159.662 75.0925 162.115 75.023 162.115 74.9534C162.115 74.8491 161.916 74.3622 161.717 73.8057C161.419 73.1101 161.253 68.3453 161.12 56.4853L160.954 40.1388L160.126 38.5737C159.662 37.739 158.7 36.5565 157.971 36L156.645 34.9566L158.302 33.1828C159.231 32.209 160.192 30.8178 160.424 30.0527C161.054 28.1745 161.319 12.8366 160.822 9.35865C160.192 5.25463 158.833 3.16784 155.65 1.63752C154.059 0.872367 153.661 0.837587 143.318 0.733247L132.609 0.628908L132.609 37.8433ZM149.252 11.7237C150.014 12.4888 150.014 12.6627 150.014 20.8708L150.014 29.2527L148.92 30.2613C147.959 31.1656 147.594 31.27 145.704 31.27L143.55 31.27L143.55 10.6803L146.036 10.8194C148.058 10.9237 148.655 11.0629 149.252 11.7237Z" fill="#0C081E"/>
<path d="M162.777 6.05494L162.777 11.4458L171.728 11.4458L171.728 75.0929L182.337 75.0929L182.337 11.4458L191.288 11.4458L191.288 0.664064L162.777 0.664064L162.777 6.05494Z" fill="#0C081E"/>
<path d="M207.068 1.42922C206.969 1.88136 205.013 18.2627 202.726 37.8785C200.438 57.4943 198.482 73.8756 198.383 74.293L198.25 75.0929L208.096 75.0929L208.66 69.2499C208.958 66.0502 209.29 62.92 209.422 62.2939L209.588 61.181L217.412 61.181L217.578 62.2939C217.71 62.92 218.042 66.0502 218.34 69.2499L218.904 75.0929L229.479 75.0929L229.28 73.7713C229.015 72.0671 220.13 1.22054 220.13 0.907523C220.13 0.768403 217.213 0.664064 213.666 0.664064C207.234 0.664064 207.201 0.664064 207.068 1.42922ZM214.959 37.009L216.351 50.0514L210.483 50.0514L210.682 48.9037C210.881 47.6169 213.168 25.01 213.202 23.8622C213.268 21.9145 213.666 24.9404 214.959 37.009Z" fill="#0C081E"/>
<path d="M231.402 37.8785L231.402 75.0929L241.016 75.0929L241.083 53.9468L241.182 32.8354L245.923 52.6599C248.542 63.546 250.796 73.0757 250.995 73.7713L251.327 75.0929L259.913 75.0929L259.913 0.664064L250.299 0.664064L250.233 20.3842L250.133 40.1392L245.691 20.8364C243.238 10.2285 241.182 1.32488 241.083 1.08142C240.983 0.768403 239.69 0.664064 236.176 0.664064L231.402 0.664064L231.402 37.8785Z" fill="#0C081E"/>
<path d="M264.555 37.8797L264.555 75.1289L274.766 75.0246C284.347 74.9202 285.043 74.8854 286.468 74.1898C288.524 73.1812 290.447 71.3031 291.342 69.3902C293.066 65.8427 293.099 64.9384 292.999 36.5233C292.867 7.37777 292.966 8.59507 290.645 4.97796C289.817 3.65633 289.054 2.99551 287.297 2.05646L285.01 0.839163L274.799 0.734824L264.555 0.595705L264.555 37.8797ZM279.937 11.0992C280.401 11.2731 281.031 11.9339 281.363 12.56C281.926 13.6381 281.96 15.238 281.96 37.358C281.96 63.0951 281.993 62.7821 280.103 63.7907C279.606 64.0689 278.28 64.3124 277.153 64.3124L275.163 64.3124L275.163 10.7514L277.119 10.7514C278.213 10.7514 279.473 10.8905 279.937 11.0992Z" fill="#0C081E"/>
<path d="M69.6862 77.3541C65.1444 78.4323 62.1275 81.5277 61.0667 86.223C60.0058 90.9182 60.3705 99.1611 61.8292 103.648C62.9564 107.126 64.5808 109.838 70.3161 117.525C73.1672 121.351 75.8194 125.281 76.383 126.568C77.4107 128.793 77.4107 128.898 77.4107 134.254C77.4107 140.097 77.1786 141.14 75.6868 141.836C73.9629 142.671 72.1064 142.079 71.2112 140.375C70.9129 139.853 70.714 137.141 70.6145 131.785L70.4487 123.959L65.2107 123.855L59.9727 123.75L60.1053 133.593C60.2047 144.236 60.3042 144.897 62.0944 147.644C64.614 151.609 67.5314 152.826 74.427 152.826C80.1623 152.792 82.0852 152.166 84.7042 149.383C88.0857 145.836 89.014 142.392 89.014 133.697C88.9808 123.716 88.2183 121.768 79.5656 110.047C76.4824 105.839 73.4987 101.457 72.9352 100.274C71.7748 97.8742 71.3439 94.7788 71.6422 90.7791C71.7748 88.6575 71.9737 88.1011 72.5705 87.5794C73.565 86.7099 75.6205 86.7099 76.6151 87.5794C77.4107 88.2402 77.4107 88.3793 77.5102 95.057L77.6096 101.874L88.1852 101.874L88.1852 95.6483C88.1852 85.7013 87.5221 82.5015 84.9362 79.8582C83.0134 77.8758 80.527 77.0759 75.7531 76.9715C73.1341 76.902 71.0455 77.0063 69.6862 77.3541Z" fill="#0C081E"/>
<path d="M116.795 77.2141C113.248 77.9445 110.198 80.3095 108.64 83.5093C106.783 87.335 106.75 87.9263 106.75 115.959C106.75 143.991 106.75 143.817 108.64 147.539C112.585 155.086 122.497 154.704 126.741 146.774L127.768 144.826L128.233 146.565C128.465 147.539 128.896 149.139 129.161 150.147L129.658 151.991L132.708 151.886L135.758 151.782L135.758 106.916L128.233 106.812L120.674 106.742L120.674 118.22L125.315 118.22L125.315 139.157L124.188 140.34C123.227 141.348 122.829 141.522 121.536 141.522C119.646 141.522 118.585 140.583 118.022 138.461C117.79 137.453 117.69 129.836 117.757 113.802C117.856 91.0913 117.856 90.5348 118.519 89.3523C119.381 87.822 121.072 87.2655 122.663 87.9611C124.354 88.6915 124.652 89.9435 124.652 95.9604L124.652 101.177L135.36 101.177L135.161 94.291C134.929 85.4569 134.432 83.3701 131.813 80.3791C130.487 78.8488 128.266 77.6662 125.813 77.2141C123.591 76.762 118.851 76.762 116.795 77.2141Z" fill="#0C081E"/>
<path d="M191.123 77.3183C184.194 78.8138 181.177 84.6916 181.807 95.6473C182.072 100.377 182.967 104.029 184.691 107.403C185.42 108.864 188.404 113.246 191.321 117.176C194.239 121.106 197.09 125.314 197.687 126.532C198.681 128.653 198.748 129.036 198.847 133.453C198.946 136.374 198.847 138.635 198.615 139.47C197.952 141.765 195.896 142.809 193.841 141.835C192.25 141.07 192.117 140.478 191.951 131.957L191.786 123.958L181.177 123.958L181.077 130.566C180.912 141.904 181.707 146.148 184.592 149.278C187.177 152.13 190.89 153.208 196.891 152.93C202.958 152.617 206.074 150.739 208.295 145.974C209.721 142.878 210.152 140.757 210.417 135.783C210.749 128.897 209.688 123.436 207.168 119.054C206.538 118.011 203.621 113.802 200.67 109.768C197.687 105.699 194.836 101.525 194.305 100.482C192.217 96.3777 192.018 89.1782 193.974 87.5088C194.338 87.1958 195.167 86.9175 195.764 86.9175C198.615 86.9175 198.913 87.7175 198.913 95.6125L198.913 101.873L209.522 101.873L209.522 96.2037C209.522 84.3786 208.395 80.6224 204.251 78.3965C201.333 76.8662 195.532 76.3792 191.123 77.3183Z" fill="#0C081E"/>
<path d="M222.12 77.3885C216.948 78.8492 214.197 82.7794 213.467 89.8049C213.268 91.6482 213.169 102.604 213.235 117.107C213.368 143.261 213.368 143.053 215.191 146.774C216.219 148.896 218.54 151.122 220.728 152.026C222.385 152.722 223.181 152.826 227.59 152.826C232.397 152.826 232.629 152.791 234.652 151.817C237.768 150.322 239.525 147.992 240.884 143.609C241.348 142.009 241.481 139.992 241.614 130.636L241.746 119.611L231.071 119.611L231.071 129.176C231.071 139.366 230.905 140.688 229.48 141.488C228.618 141.975 226.596 141.975 225.8 141.523C225.468 141.349 224.938 140.549 224.64 139.784C224.176 138.531 224.109 135.749 224.142 114.638C224.142 89.318 224.176 88.9354 225.767 88.0311C226.993 87.3703 229.016 87.7529 230.043 88.7963L230.905 89.7006L231.005 97.6999L231.104 105.699L241.746 105.699L241.58 96.3783C241.481 89.318 241.315 86.7095 240.917 85.4922C238.895 79.0579 235.281 76.7972 227.126 76.8668C225.369 76.8668 223.115 77.1102 222.12 77.3885Z" fill="#0C081E"/>
<path d="M287.761 77.2851C282.257 78.6415 279.207 82.502 278.146 89.3537C277.616 93.0403 277.715 137.559 278.312 140.932C279.738 149.314 284.147 153.001 292.733 153.001C299.496 153.001 303.375 150.879 305.497 145.975C307.32 141.767 307.353 141.245 307.254 113.56C307.155 88.4494 307.155 88.1016 306.425 85.9105C305.63 83.4063 304.071 80.9022 302.613 79.6501C300.524 77.8763 297.872 77.0764 293.562 76.972C291.109 76.9025 288.888 77.0068 287.761 77.2851ZM294.192 88.032C294.656 88.2407 295.319 88.832 295.618 89.3189C296.181 90.1536 296.214 91.9622 296.314 114.047C296.38 130.568 296.314 138.289 296.049 139.158C295.518 141.071 294.557 141.871 292.8 141.871C291.043 141.871 290.247 141.454 289.518 140.028C288.954 138.984 288.921 137.176 288.921 114.917C288.921 88.9363 288.921 89.1798 290.711 88.1364C291.772 87.5451 293.098 87.4756 294.192 88.032Z" fill="#0C081E"/>
<path d="M320.316 77.3529C315.31 78.5007 312.393 81.9787 311.133 88.2043C310.404 91.717 310.404 138.113 311.133 141.696C311.829 145.208 313.487 148.339 315.542 150.112C318.095 152.303 320.117 152.825 325.72 152.79C329.698 152.79 330.626 152.686 332.218 152.025C336.163 150.391 338.749 146.669 339.644 141.313C340.34 137.244 340.34 91.6475 339.644 88.2043C338.682 83.4394 336.561 80.0658 333.511 78.3963C330.792 76.9008 324.46 76.4139 320.316 77.3529ZM327.742 88.6912C328.173 89.1085 328.67 90.0476 328.869 90.7084C329.3 92.2735 329.3 137 328.903 138.844C328.438 140.93 327.411 141.87 325.554 141.87C324.692 141.87 323.731 141.626 323.267 141.313C321.576 140.061 321.576 140.2 321.576 114.811C321.576 98.1513 321.675 90.8475 321.941 90.0824C322.736 87.6826 325.952 86.9174 327.742 88.6912Z" fill="#0C081E"/>
<path d="M1.45985e-07 114.741L2.91971e-07 151.991L10.2109 151.886C20.0902 151.782 20.4549 151.747 22.1125 150.947C24.4 149.869 26.5549 147.4 27.4832 144.791C27.9473 143.574 28.3451 141.348 28.5109 139.261C28.9087 134.531 28.8755 93.8735 28.4777 89.3869C28.113 84.9003 27.0853 82.257 24.9636 80.3094C22.3114 77.8748 21.6815 77.7356 10.2109 77.5965L0 77.4922L1.45985e-07 114.741ZM15.681 87.9957C17.4712 88.8304 17.4049 88.0305 17.5043 113.524C17.5707 129.697 17.5043 137.592 17.2391 138.461C16.7087 140.444 15.5484 141.174 13.062 141.174L10.9402 141.174L10.9402 87.6131L12.9293 87.6131C13.9902 87.6131 15.25 87.787 15.681 87.9957Z" fill="#0C081E"/>
<path d="M32.8203 114.742L32.8203 151.956L57.6844 151.956L57.6844 140.827L43.429 140.827L43.429 119.263L54.0377 119.263L54.0377 107.786L43.429 107.786L43.429 88.3091L57.0214 88.3091L57.0214 77.5273L32.8203 77.5273L32.8203 114.742Z" fill="#0C081E"/>
<path d="M92.1621 114.742L92.1621 151.956L102.771 151.956L102.771 77.5273L92.1621 77.5273L92.1621 114.742Z" fill="#0C081E"/>
<path d="M139.238 114.742L139.238 151.956L149.184 151.956L149.217 130.984L149.25 110.046L154.256 130.984L159.295 151.956L168.081 151.956L168.081 77.5273L158.135 77.5273L158.069 96.8997L157.969 116.272L153.527 96.8997L149.051 77.5273L139.238 77.5273L139.238 114.742Z" fill="#0C081E"/>
<path d="M244.994 114.742L244.994 151.956L255.603 151.956L255.603 119.263L262.896 119.263L262.896 151.956L273.837 151.956L273.837 77.5273L262.896 77.5273L262.896 107.473L259.349 107.368L255.769 107.264L255.669 92.3783L255.603 77.5273L244.994 77.5273L244.994 114.742Z" fill="#0C081E"/>
<path d="M344.119 114.742L344.119 151.956L366 151.956L366 140.479L355.059 140.479L355.059 77.5273L344.119 77.5273L344.119 114.742Z" fill="#0C081E"/>
</g>
<defs>
<clipPath id="clip0_508_3234">
<rect width="366" height="153" fill="white"/>
</clipPath>
</defs>
</svg>
