<svg width="344" height="344" viewBox="0 0 344 344" fill="none" xmlns="http://www.w3.org/2000/svg">
<path d="M129.101 28.9025L160.839 41.0815L192.328 66.1814L202.998 77.2726L228.616 89.3333L225.045 98.1081L198.694 88.7545L191.947 85.9028L200.564 97.6346L200.103 121.436L197.813 134.318L187.028 93.9713L183.457 102.746L182.734 140.149L176.613 140.03L174.945 85.574L164.653 90.137L166.491 135.753L161.143 130.887L159.826 93.4452L157.211 87.9522L151.82 120.502L147.818 116.343L148.266 93.2216L148.726 69.4199L128.482 60.8647L100.732 53.525L129.101 28.9025Z" fill="#D9D9D9"/>
<path d="M97.6673 60.2408C96.638 57.4995 97.1133 54.5091 98.0948 51.7294C99.2716 48.4433 100.818 45.257 102.439 42.1496C103.065 40.9557 104.171 39.7401 105.357 39.1755C110.929 36.4846 116.518 33.7476 122.297 31.5401C127.438 29.5676 132.571 30.3627 137.355 33.2384C141.956 36.0023 146.883 37.8758 152.284 38.4132C155.834 38.7602 158.819 40.3023 160.728 43.1533C156.838 43.6192 152.87 44.0991 148.887 44.5787C148.882 44.8415 148.908 45.1048 148.903 45.3676C149.517 45.5805 150.116 45.7776 150.731 45.9905C150.728 46.1451 150.756 46.2848 150.768 46.4396C150.224 46.5992 149.665 46.743 148.965 46.9459C149.19 47.3059 149.349 47.8965 149.641 47.9795C150.871 48.3125 152.136 48.4916 153.383 48.7322L153.581 48.133C153.928 48.5727 154.275 48.9969 154.804 49.6565C155.409 48.7096 155.936 47.8848 156.589 46.8615C157.002 47.1168 157.903 47.6755 158.499 48.0426L158.452 50.4847C159.153 50.2354 159.839 49.9394 160.553 49.7677C161.47 49.538 162.416 49.3863 163.347 49.2033C163.452 49.3754 163.541 49.5626 163.646 49.7348C162.017 50.8165 160.373 51.8825 158.682 52.994C159.692 53.5238 161.119 54.108 162.308 54.9969C163.238 55.6798 165.219 55.5635 164.668 57.6557C164.085 59.8091 162.29 59.1095 160.627 59.5567C160.874 58.7883 161.022 58.3119 161.285 57.5129C160.367 57.8044 159.714 58.0082 158.734 58.314C159.534 59.2881 160.325 59.9528 160.711 60.8107C161.023 61.4662 160.959 62.3772 160.836 63.117C160.592 64.5657 159.744 66.0491 159.949 67.3983C160.197 68.9802 159.799 69.6065 158.445 70.0442C156.547 70.6569 154.663 71.3162 152.484 72.0472C153.378 72.2036 153.979 72.308 154.796 72.4475C153.872 74.6562 153.028 76.6809 152.072 78.9662C154.337 80.1852 152.792 82.521 152.693 84.4055C152.448 89.0857 151.71 93.6637 149.892 98.128C148.984 100.337 149.748 103.212 149.682 105.793C149.669 106.458 149.317 107.1 149.319 107.765C149.312 108.167 149.69 108.577 149.883 108.998C150.178 108.942 150.488 108.886 150.783 108.83C150.481 110.834 149.87 112.878 149.986 114.86C150.106 116.64 148.916 119.045 152.297 120.1C149.494 120.293 147.556 119.003 147.333 116.911C146.889 112.682 146.369 108.435 146.481 104.201C146.638 97.7249 147.598 91.2494 147.63 84.7714C147.644 81.6483 146.329 78.515 145.601 75.3776C145.072 73.1253 144.606 70.8588 143.922 68.6654C143.674 67.8721 143 66.7767 142.338 66.6247C136.225 65.3005 130.245 63.4685 123.79 63.8539C122.118 63.9607 120.283 61.3276 118.531 59.9485C117.222 58.9181 115.992 57.7502 114.571 56.8723C113.959 56.5048 112.954 56.5317 112.193 56.7026C107.378 57.8155 102.577 59.0369 97.6209 60.2399L97.6673 60.2408ZM130.833 53.0739C133.764 43.0492 146.55 37.4828 158.115 41.5102C151.975 38.3918 145.691 38.7341 139.802 41.8363C135.334 44.1929 131.664 47.6782 130.833 53.0739Z" fill="#712222"/>
<path d="M178.626 105.038C178.834 104.671 179.027 104.288 179.25 103.921C179.826 102.959 180.407 101.671 181.779 102.672C182.846 103.465 183.943 104.306 182.656 106.137C181.559 107.677 180.243 107.744 178.742 107.808C179.052 111.772 179.364 115.613 179.646 119.453C179.683 119.933 179.534 120.441 179.478 120.934C179.296 122.353 179.039 123.647 180.959 124.318C181.911 124.646 182.586 125.741 183.451 126.562C181.515 128.349 182.286 130.853 183.134 131.751C185.24 134.003 184.7 136.312 184.672 138.569C184.323 137.449 184.18 136.039 183.473 135.005C183.067 134.409 181.769 134.4 180.877 134.135C180.694 134.796 180.465 135.457 180.344 136.119C180.225 136.689 180.321 137.309 180.156 137.863C179.757 139.278 179.376 140.569 181.027 141.591C181.47 141.862 181.482 142.821 181.701 143.521C177.545 144.121 175.55 142.567 175.794 138.706C176.659 125.163 174.614 111.795 173.59 98.3693C173.515 97.4711 172.556 96.664 172.063 95.7886C171.839 95.3822 171.616 94.8986 171.595 94.4343C171.504 91.9277 172.011 89.6646 173.446 87.4348C174.881 85.1897 175.982 82.6442 175.359 79.6944C175.132 78.6386 175.758 77.4137 176.065 75.9507C175.712 75.8357 175.051 75.6064 174.498 75.4102C173.668 72.7656 172.853 70.1522 171.964 67.3363C170.655 68.6717 172.214 71.2067 169.669 71.6832C169.277 71.1499 168.871 70.5854 168.403 69.9579C166.225 72.2505 165.233 74.798 165.144 77.8114C165.079 79.542 164.551 81.248 164.394 82.9922C164.336 83.5787 164.803 84.2216 164.992 84.8438C165.239 85.668 165.733 86.528 165.625 87.3145C165.338 89.3499 164.697 91.3322 164.363 93.3667C164.276 93.8753 164.601 94.6701 165.012 95.0028C166.701 96.4116 167.093 98.5529 166.082 100.42C165.377 101.736 165.206 103.387 164.378 104.592C162.262 107.659 164.296 111.255 162.904 114.475C162.499 115.395 163.706 116.965 164.083 118.271C164.329 119.141 164.574 120.043 164.572 120.94C164.556 122.563 164.308 124.197 164.261 125.82C164.185 128.199 164.061 130.578 164.216 132.947C164.286 134.123 164.898 135.264 165.262 136.431C162.207 136.928 160.088 135.356 159.992 132.293C159.883 129.152 160.052 126.001 160.051 122.862C160.024 113.059 159.997 103.271 159.846 93.4803C159.833 92.5524 158.892 91.6528 158.026 90.8475C157.818 87.2253 158.458 83.7278 161.603 81.0055C162.845 79.9317 163.467 78.1501 164.441 76.5763L163.158 76.5515C162.894 72.6036 162.643 68.795 162.369 64.5995C162.558 64.4022 163.141 63.8104 163.741 63.1881C166.398 64.1053 169.04 65.0223 172.25 66.1358C171.707 64.6255 171.311 63.52 170.841 62.2585L176.05 62.3592C176.293 62.5495 177.056 63.1054 177.818 63.6768C177.783 63.8462 177.75 64.0002 177.715 64.1696C176.607 63.9317 175.501 63.5392 174.389 63.4868C172.504 63.4039 172.494 64.7335 172.711 66.2994C173.134 66.0138 173.479 65.773 174.152 65.3222C174.076 66.0475 174.021 66.4948 173.965 67.0194C175.133 67.3513 176.395 67.7003 177.64 68.0491C177.104 68.6109 176.243 69.1199 176.154 69.7522C176.083 70.2147 177.17 70.7614 177.452 71.4008C177.955 72.5393 178.612 73.7889 178.589 74.9791C178.46 79.2132 178.038 83.4417 177.802 87.6737C177.776 88.2298 178.12 88.7931 178.279 89.3683C179.015 92.1039 180.123 94.7848 178.213 97.5774C177.832 98.1267 178.367 99.2503 178.381 100.101C178.396 101.709 178.319 103.3 178.288 104.908C178.411 104.941 178.534 104.99 178.657 105.023L178.626 105.038Z" fill="#712222"/>
<path d="M198.854 74.5823C201.15 76.544 202.274 79.2098 206.26 78.5911C210.137 77.9857 213.504 80.5712 216.371 83.4253C218.131 85.1756 220.285 86.547 222.344 87.9939C223.595 88.8685 225.21 89.3327 226.241 90.3886C226.877 91.0503 227.095 92.5698 226.86 93.5548C226.471 95.2481 225.229 96.3065 223.311 96.3776C219.752 96.4943 216.541 95.4581 213.498 93.6675C208.606 90.7897 203.666 87.9883 198.79 85.0798C198.163 84.7121 197.653 83.8827 197.435 83.1673C196.535 80.1347 197.054 77.2688 198.838 74.582L198.854 74.5823Z" fill="#712222"/>
<path d="M195.854 136.095C195.037 135.167 193.801 134.355 193.481 133.282C192.843 131.089 192.455 128.778 192.376 126.488C192.268 123.285 192.423 120.041 192.655 116.845C193.136 110.36 190.558 104.543 188.741 98.5548C188.538 97.8706 187.215 97.5357 186.008 96.7857C185.269 92.5966 185.617 88.2121 189.903 84.0584C191.08 86.3541 192.14 88.2919 193.076 90.2737C193.774 91.787 194.779 93.3681 194.81 94.9459C194.865 97.6992 195.873 98.3372 198.404 97.8295C199.071 97.7032 200.138 98.497 200.682 99.1569C200.969 99.5026 200.7 100.626 200.319 101.129C199.525 102.196 198.335 102.962 197.633 104.077C196.868 105.283 196.067 106.69 195.964 108.049C195.753 110.936 195.96 113.863 196.089 116.757C196.124 117.376 196.415 118.294 196.859 118.519C198.574 119.402 198.175 120.817 198.071 122.207C198.03 122.732 197.739 123.376 197.949 123.735C199.027 125.534 198.748 126.41 196.896 127.828C195.561 128.853 195.325 131.462 194.916 133.433C194.796 134.034 195.724 134.856 196.189 135.576C196.078 135.744 195.966 135.896 195.855 136.064L195.854 136.095Z" fill="#712222"/>
<path d="M169.234 51.7918C169.822 51.7413 170.395 51.706 171.231 51.6449C170.886 51.097 170.601 50.6431 170.332 50.1895C170.52 50.054 170.708 49.9184 170.88 49.7981C171.694 50.9116 172.492 52.0094 173.305 53.123C173.271 53.2924 173.221 53.477 173.187 53.6464C171.834 53.2646 170.481 52.8673 169.127 52.4855C169.163 52.2543 169.214 52.0233 169.249 51.7921L169.234 51.7918Z" fill="#712222"/>
<path d="M184.862 61.7103C186.54 62.856 188.219 64.0172 189.897 65.163C189.801 65.3466 189.689 65.5455 189.593 65.7292C188.626 65.3239 187.66 64.9187 186.341 64.352C185.934 63.8339 185.239 62.97 184.56 62.1065C184.656 61.9692 184.766 61.8321 184.862 61.6948L184.862 61.7103Z" fill="#712222"/>
<path d="M183.043 69.3443C182.009 70.8396 181.165 72.0911 180.306 73.3424C178.596 71.423 179.011 70.7506 183.043 69.3443Z" fill="#712222"/>
</svg>
