<svg width="1512" height="308" viewBox="0 0 1512 308" fill="none" xmlns="http://www.w3.org/2000/svg">
<path d="M-65 179.939L1587 179.939" stroke="#FFCD45" stroke-width="2"/>
<path d="M-13 277.064L1663 275.939" stroke="#FFCD45" stroke-width="2"/>
<path d="M-3 48.0645L1527 47.0645" stroke="#FFCD45" stroke-width="2"/>
<path d="M-18.7574 86.5137L1640.05 81.3686" stroke="#FFCD45" stroke-width="2"/>
<path d="M562.181 28.5944C557.026 37.092 561.378 40.2238 567.752 41.5614C566.224 44.8952 563.416 48.1817 563.837 50.9955C564.205 53.4264 568.238 55.32 570.704 57.5021C569.69 60.1247 567.326 63.5249 567.465 66.8527C567.538 68.7584 571.688 70.5533 574.307 72.6463C568.183 79.3541 562.741 87.3606 565.312 98.7714C567.805 109.769 575.268 115.24 584.84 118.771C578.436 127.358 579.361 130.02 589.384 132.944C581.722 142.485 582.292 144.887 592.99 148.25C585.612 156.683 585.696 157.652 594.615 164.316C586.548 175.045 578.625 185.868 570.318 196.384C568.73 198.402 565.812 199.845 563.253 200.433C449.117 226.778 334.967 252.983 220.8 279.192C220.272 279.313 219.684 279.251 219.977 277.728C216.342 275.222 212.694 272.737 209.059 270.23C207.253 273.718 205.435 277.226 203.629 280.713C204.322 281.381 205.014 282.048 205.69 282.719C181.867 288.196 158.057 293.723 134.203 299.063C132.453 299.465 130.182 298.963 128.496 298.129C116.486 292.158 104.569 285.986 92.6342 279.89C96.6846 269.382 96.5401 269.056 86.3098 264.778C94.6885 257.372 93.9283 253.99 83.5501 250.051C85.1392 247.134 88.1709 244.066 87.9481 241.206C87.7652 238.823 83.813 236.677 81.4928 234.372C97.4847 213.735 93.4537 197.863 69.8028 188.585C71.2646 185.644 74.3906 182.23 73.755 179.843C73.0243 177.118 68.9534 175.287 66.6903 173.382C67.759 170.621 70.3271 167.048 69.9693 163.752C69.7297 161.652 65.1626 160.006 62.5898 158.19C63.8036 156.061 66.9091 153.011 66.8947 149.924C66.8934 147.499 63.0436 145.042 60.6583 142.303C65.2303 136.257 70.9398 130.093 75.0508 122.95C81.6477 111.498 91.4055 106.991 103.694 104.723C122.822 101.206 141.683 96.2236 158.34 92.3944C163.439 95.8219 166.932 98.1631 170.404 100.491C172.435 97.0776 174.47 93.6812 176.501 90.2678C175.969 89.6895 175.436 89.1113 174.907 88.5501L186.348 85.9201C295.554 60.8159 404.756 35.7667 513.923 10.4919C520.048 9.08392 525.323 9.34472 530.931 12.4213C540.938 17.9186 551.201 22.9437 562.14 28.5679L562.181 28.5944ZM174.151 118.531C176.276 113.784 178.946 110.655 178.38 108.27C177.843 105.932 174.036 104.345 171.667 102.429C169.755 105.078 166.457 107.669 166.356 110.405C166.292 112.468 170.329 114.756 174.135 118.534L174.151 118.531ZM197.982 221.518C196.155 226.573 193.528 230.267 194.453 232.175C195.615 234.585 199.692 235.534 202.502 237.098C203.842 234.382 206.593 231.378 206.126 229.042C205.65 226.672 201.94 224.974 197.982 221.518ZM174.314 114.397C171.914 119.764 169.148 123.077 169.844 125.198C170.652 127.654 174.538 129.06 177.069 130.922C178.77 128.339 181.858 125.742 181.776 123.192C181.707 120.926 178.155 118.706 174.297 114.401L174.314 114.397ZM205.392 251.633C203.301 256.678 200.49 260.252 201.345 262.158C202.473 264.719 206.435 266.001 209.168 267.834C210.668 265.135 213.57 262.258 213.248 259.799C212.946 257.425 209.28 255.465 205.392 251.633ZM201.301 236.709C199.559 241.835 196.984 245.607 197.955 247.486C199.208 249.911 203.26 250.83 206.124 252.399C207.415 249.623 210.118 246.558 209.618 244.158C209.13 241.809 205.378 240.156 201.301 236.709ZM199.374 183.414C194.133 181.259 190.87 178.631 188.782 179.38C186.455 180.221 185.193 184.104 183.472 186.674C186.078 188.41 188.776 191.599 191.267 191.476C193.45 191.369 195.428 187.573 199.374 183.414ZM183.902 160.344C182.052 165.602 179.571 169.101 180.394 171.319C181.221 173.555 185.728 176.076 187.957 175.564C189.955 175.104 192.502 170.458 192.113 168.086C191.736 165.765 187.965 163.955 183.902 160.344ZM199.125 225.279C201.096 219.94 203.571 216.568 202.784 214.431C201.917 212.097 197.547 209.113 195.589 209.671C193.384 210.285 190.762 214.607 190.96 217.131C191.124 219.357 194.934 221.338 199.129 225.297L199.125 225.279ZM177.196 129.886C175.16 135.242 172.597 138.687 173.414 140.727C174.33 143.05 178.577 145.721 180.825 145.294C182.826 144.924 185.437 140.407 185.202 137.946C184.988 135.731 181.293 133.796 177.192 129.869L177.196 129.886ZM184.655 163.997C186.817 158.883 189.443 155.638 188.747 153.517C187.983 151.177 183.712 148.098 181.751 148.567C179.51 149.1 176.692 153.251 176.8 155.76C176.886 157.95 180.666 160.027 184.655 163.997ZM191.184 191.189C189.185 196.482 186.606 199.932 187.414 202.01C188.302 204.285 192.686 206.871 194.902 206.379C196.937 205.929 199.54 201.45 199.258 199.017C199.008 196.793 195.258 194.924 191.168 191.193L191.184 191.189Z" fill="#D9D9D9"/>
</svg>
