<svg width="457" height="275" viewBox="0 0 457 275" fill="none" xmlns="http://www.w3.org/2000/svg">
<path d="M436.206 197.412C431.32 199.608 426.8 201.626 421.292 204.104C425.487 208.353 428.843 211.744 432.617 215.569C427.453 218.824 423.284 221.447 418.148 224.677C421.937 228.361 425.513 231.844 429.915 236.131C423.964 238.884 419.469 240.958 413.881 243.544C418.259 247.898 421.764 251.378 426.613 256.206C420.416 258.873 415.743 260.883 409.625 263.514C414.154 267.692 417.425 270.7 420.695 273.719C420.247 274.146 419.8 274.573 419.353 274.999C417.983 274.889 416.578 274.905 415.233 274.657C377.511 267.714 339.778 260.769 302.078 253.709C299.515 253.235 296.913 252.073 294.696 250.756C241.911 219.32 185.356 208.881 124.882 219.808C123.063 220.135 121.045 220.312 119.218 219.975C80.5196 212.913 41.8494 205.765 3.16577 198.625C2.45324 198.493 1.76799 198.214 5.26682e-05 197.684C4.34689 194.93 8.01906 192.612 12.689 189.653C9.07074 185.949 5.62057 182.429 1.06389 177.756C6.8878 175.306 11.4738 173.381 16.3836 171.312C12.5505 166.325 9.61763 162.513 5.93569 157.737C10.6621 155.696 15.2077 153.733 21.0195 151.219C16.1858 146.567 12.614 143.126 7.54864 138.248C14.1929 135.602 18.9513 133.709 24.9022 131.343C20.0723 126.284 16.6869 122.735 12.3666 118.198C17.9831 115.648 22.4706 113.613 27.3199 111.421C23.5877 106.595 20.653 102.793 17.0467 98.1231C21.6685 95.9399 26.1076 93.8451 31.6546 91.2213C27.2363 86.8293 23.7311 83.3497 19.3612 79.0176C25.377 76.2358 29.8221 74.1728 35.1107 71.7254C30.7082 67.1835 27.3058 63.6617 22.6058 58.8C28.9869 56.2282 33.726 54.3112 39.7719 51.8813C34.9081 46.6837 31.5415 43.0972 27.2842 38.5414C32.5359 36.0362 36.9919 33.9141 42.75 31.1764C38.4242 27.0562 34.8276 23.6208 30.249 19.2604C36.3834 16.4801 40.8709 14.4453 47.0681 11.646C42.5046 7.46155 39.1118 4.3389 35.7074 1.21414C36.1854 0.813304 36.6538 0.400488 37.1318 -0.00035262C38.56 0.181748 39.9912 0.282898 41.4047 0.543826C78.7437 7.43615 116.088 14.2989 153.424 21.2722C156.021 21.7516 158.854 22.4987 160.953 23.8745C195.237 46.1592 233.896 56.138 274.957 59.285C294.258 60.7589 313.225 59.5323 331.726 55.4276C333.672 54.9921 335.957 54.9757 337.981 55.3392C376.298 62.3407 414.586 69.4387 452.888 76.5191C453.785 76.6845 454.653 76.9366 456.677 77.4324C452.189 80.2416 448.469 82.5607 444.25 85.2054C447.802 89.0095 451.146 92.5918 455.471 97.2315C449.611 99.8079 444.967 101.855 439.289 104.352C443.828 109.184 447.193 112.781 451.333 117.203C445.952 119.633 441.428 121.671 435.764 124.223C440.263 128.629 443.785 132.082 448.386 136.579C442.202 139.238 437.684 141.185 432.626 143.349C436.65 148.586 439.661 152.494 443.42 157.365C438.701 159.561 434.229 161.639 429.382 163.883C432.962 168.568 435.883 172.378 439.434 177.028C434.841 179.247 430.421 181.366 425.619 183.689C429.301 188.465 432.34 192.409 436.193 197.42L436.206 197.412Z" fill="#0C081E"/>
</svg>
