<svg width="198" height="215" viewBox="0 0 198 215" fill="none" xmlns="http://www.w3.org/2000/svg">
<path d="M39.9444 147.674L54.5066 105.217L86.1294 62.4769L100.257 47.8711L114.954 13.4959L126.701 17.7912L115.611 53.0045L112.169 62.0435L127.24 50.1165L158.667 49.5934L175.772 52.0032L123.049 68.1496L134.797 72.445L184.182 71.6229L184.317 79.7042L112.543 84.4916L119.052 97.8558L179.153 93.2628L172.988 100.551L123.647 104.067L116.523 107.778L159.728 113.346L154.43 118.823L123.901 119.331L92.4735 119.854L82.1468 146.971L73.7803 183.936L39.9444 147.674Z" fill="#D9D9D9"/>
<path d="M82.7879 187.657C79.2198 189.146 75.2515 188.66 71.5372 187.497C67.1454 186.101 62.8678 184.212 58.6906 182.22C57.0855 181.451 55.4291 180.049 54.6278 178.511C50.8126 171.287 46.9359 164.043 43.7486 156.523C40.9018 149.833 41.7071 143.022 45.2742 136.573C48.7026 130.372 50.9405 123.781 51.3931 116.629C51.6823 111.929 53.5752 107.917 57.2464 105.263C58.0459 110.374 58.8676 115.586 59.6896 120.819C60.0365 120.813 60.3828 120.766 60.7297 120.761C60.9815 119.94 61.2131 119.14 61.4648 118.319C61.6689 118.316 61.8519 118.272 62.0557 118.248C62.292 118.959 62.5084 119.69 62.8094 120.603C63.2736 120.289 64.0454 120.052 64.141 119.663C64.522 118.023 64.6982 116.346 64.9564 114.688L64.1564 114.457C64.7201 113.978 65.2633 113.499 66.1085 112.771C64.8303 112.016 63.717 111.361 62.3358 110.547C62.6531 109.991 63.3474 108.775 63.8035 107.971L67.028 107.917C66.6658 107.005 66.2427 106.114 65.9822 105.179C65.6356 103.98 65.3904 102.739 65.1047 101.519C65.3268 101.372 65.5697 101.246 65.7918 101.099C67.2965 103.197 68.7811 105.316 70.328 107.495C70.9791 106.137 71.6822 104.227 72.7986 102.616C73.6554 101.356 73.4078 98.7474 76.1946 99.3747C79.0636 100.041 78.2258 102.444 78.8948 104.617C77.8693 104.328 77.2336 104.155 76.1669 103.846C76.5951 105.043 76.8951 105.895 77.3451 107.174C78.5924 106.071 79.4319 104.996 80.5455 104.447C81.3955 104.004 82.6006 104.045 83.5826 104.171C85.5057 104.425 87.5033 105.474 89.2738 105.138C91.3493 104.736 92.1945 105.233 92.8363 106.998C93.7349 109.473 94.6944 111.928 95.7624 114.768C95.9263 113.581 96.0355 112.783 96.1808 111.699C99.1389 112.813 101.851 113.829 104.911 114.983C106.412 111.937 109.568 113.864 112.059 113.904C118.246 114.006 124.321 114.762 130.298 116.949C133.256 118.043 137.014 116.898 140.422 116.862C141.3 116.847 142.164 117.282 143.041 117.247C143.572 117.238 144.094 116.719 144.641 116.445C144.553 116.058 144.464 115.651 144.376 115.265C147.035 115.568 149.762 116.278 152.371 116.03C154.714 115.787 157.944 117.244 159.175 112.732C159.563 116.421 157.953 119.04 155.204 119.433C149.644 120.22 144.065 121.109 138.473 121.161C129.921 121.262 121.331 120.303 112.782 120.568C108.661 120.698 104.589 122.582 100.484 123.692C97.537 124.496 94.5686 125.219 91.707 126.226C90.6719 126.59 89.2586 127.533 89.0896 128.413C87.6326 136.542 85.4994 144.518 86.3145 153.017C86.5349 155.218 83.1477 157.765 81.4113 160.142C80.114 161.919 78.6313 163.597 77.5404 165.514C77.0846 166.338 77.1679 167.663 77.4295 168.659C79.1266 174.959 80.9663 181.237 82.7889 187.718L82.7879 187.657ZM71.7562 144.237C58.3898 140.846 50.4378 124.239 55.2024 108.788C51.3794 117.037 52.1296 125.313 56.5026 132.936C59.8242 138.719 64.5973 143.396 71.7562 144.237Z" fill="#712222"/>
<path d="M138.052 78.7112C137.558 78.454 137.044 78.2176 136.549 77.9401C135.251 77.2268 133.525 76.5206 134.78 74.6625C135.776 73.2169 136.834 71.7295 139.31 73.3418C141.395 74.7157 141.546 76.4483 141.702 78.4259C146.918 77.8287 151.97 77.2343 157.024 76.6806C157.655 76.6089 158.332 76.7813 158.986 76.8317C160.867 77.0045 162.586 77.2821 163.381 74.7172C163.768 73.4451 165.181 72.5029 166.223 71.322C168.673 73.7921 171.941 72.6558 173.085 71.4936C175.956 68.6082 179.028 69.2103 182.007 69.1403C180.546 69.6546 178.693 69.91 177.362 70.8916C176.595 71.4555 176.644 73.1695 176.338 74.3586C177.219 74.5685 178.101 74.8396 178.981 74.9678C179.739 75.0981 180.552 74.9417 181.291 75.1335C183.176 75.5921 184.898 76.0329 186.168 73.8071C186.505 73.2095 187.77 73.1476 188.683 72.8262C189.672 78.2807 187.716 80.9874 182.611 80.8479C164.699 80.3499 147.158 83.6835 129.492 85.6719C128.311 85.8141 127.291 87.1171 126.159 87.8096C125.634 88.1246 125.006 88.4412 124.395 88.4922C121.092 88.7309 118.081 88.1686 115.071 86.3815C112.041 84.5947 108.63 83.2633 104.767 84.2258C103.385 84.5754 101.739 83.8067 99.7941 83.4716C99.6591 83.9434 99.3879 84.8257 99.1553 85.5645C95.7052 86.7855 92.2957 87.9854 88.6225 89.2918C90.4466 90.9558 93.7174 88.7783 94.467 92.1137C93.782 92.6559 93.0564 93.2191 92.2506 93.8654C95.3792 96.6304 98.7877 97.8189 102.768 97.7935C105.054 97.7963 107.331 98.4116 109.639 98.5365C110.416 98.5848 111.242 97.9382 112.054 97.6593C113.13 97.2944 114.241 96.6022 115.284 96.7074C117.983 96.9891 120.629 97.7412 123.33 98.0841C124.005 98.1749 125.038 97.7086 125.458 97.1505C127.236 94.8549 130.043 94.2366 132.554 95.4809C134.324 96.3496 136.511 96.497 138.141 97.5313C142.288 100.177 146.936 97.3237 151.251 99.0075C152.484 99.4973 154.497 97.8307 156.203 97.2715C157.34 96.9056 158.518 96.5389 159.701 96.4988C161.844 96.4427 164.012 96.6925 166.155 96.6772C169.299 96.6657 172.443 96.7154 175.561 96.3982C177.11 96.2499 178.586 95.3883 180.108 94.8527C180.91 98.8609 178.937 101.731 174.899 102.003C170.76 102.296 166.594 102.222 162.453 102.373C149.519 102.874 136.605 103.375 123.694 104.039C122.47 104.1 121.328 105.385 120.307 106.565C115.537 107.012 110.892 106.334 107.151 102.314C105.675 100.726 103.294 99.9894 101.172 98.7795L101.2 100.473C96.0032 101.009 90.9899 101.521 85.4671 102.083C85.1977 101.842 84.3892 101.1 83.5396 100.339C84.6237 96.789 85.7081 93.2598 87.0249 88.9713C85.0578 89.7594 83.618 90.3345 81.9758 91.0151L81.8613 84.1375C82.1008 83.8069 82.7981 82.7746 83.5158 81.742C83.741 81.7791 83.9458 81.8165 84.1709 81.8536C83.9097 83.3277 83.4443 84.8053 83.428 86.2753C83.4082 88.7662 85.163 88.7165 87.2188 88.3557C86.8218 87.8111 86.4878 87.3676 85.861 86.5002C86.8215 86.5659 87.4144 86.6173 88.1093 86.6669C88.4916 85.1091 88.8923 83.4285 89.2934 81.7683C90.0601 82.4496 90.7726 83.5605 91.6111 83.6486C92.2247 83.7201 92.8944 82.2595 93.7247 81.8579C95.203 81.1392 96.8207 80.214 98.3921 80.1879C103.985 80.156 109.584 80.5119 115.18 80.6229C115.915 80.6311 116.642 80.1495 117.393 79.9124C120.967 78.8118 124.452 77.2228 128.228 79.6096C128.97 80.0872 130.428 79.328 131.549 79.2685C133.671 79.172 135.774 79.1982 137.896 79.1629C137.935 78.9989 137.993 78.8346 138.031 78.6707L138.052 78.7112Z" fill="#712222"/>
<path d="M96.9063 53.4702C99.3856 50.3464 102.85 48.7373 101.844 43.5076C100.861 38.4205 104.113 33.8549 107.742 29.9363C109.968 27.5312 111.675 24.6244 113.487 21.8384C114.581 20.1462 115.117 17.9939 116.461 16.5833C117.304 15.7119 119.299 15.3521 120.61 15.6161C122.862 16.0481 124.318 17.6366 124.503 20.1648C124.826 24.8546 123.611 29.1414 121.393 33.2407C117.828 39.8325 114.366 46.4838 110.76 53.0558C110.305 53.9004 109.235 54.6123 108.301 54.934C104.343 56.2656 100.537 55.7165 96.9066 53.4906L96.9063 53.4702Z" fill="#712222"/>
<path d="M178.212 54.504C177.026 55.626 176.013 57.2964 174.612 57.7689C171.75 58.7147 168.718 59.3368 165.701 59.5503C161.48 59.8451 157.192 59.794 152.964 59.6398C144.385 59.3131 136.831 62.9908 129.017 65.6727C128.123 65.9733 127.745 67.7352 126.812 69.3634C121.32 70.5368 115.518 70.2863 109.834 64.8284C112.807 63.1662 115.314 61.675 117.884 60.3462C119.848 59.354 121.886 57.9524 123.966 57.8361C127.597 57.6328 128.391 56.2723 127.601 52.9579C127.402 52.0834 128.399 50.6379 129.244 49.8889C129.686 49.4937 131.182 49.7954 131.863 50.274C133.309 51.2706 134.375 52.8043 135.88 53.6775C137.509 54.6303 139.403 55.6194 141.201 55.6916C145.021 55.8321 148.872 55.421 152.684 55.1126C153.5 55.0378 154.697 54.6096 154.973 54.013C156.057 51.7086 157.943 52.1671 159.781 52.2386C160.476 52.2678 161.339 52.6209 161.804 52.3274C164.126 50.8189 165.295 51.1465 167.254 53.5228C168.67 55.2344 172.124 55.4219 174.744 55.8682C175.542 55.9978 176.583 54.7352 177.511 54.0869C177.738 54.2261 177.944 54.3655 178.171 54.5046L178.212 54.504Z" fill="#712222"/>
<path d="M68.2418 93.6308C68.1473 92.8567 68.0735 92.1027 67.9531 91.0025C67.2467 91.4837 66.6613 91.8813 66.0757 92.2584C65.8879 92.0166 65.7002 91.7748 65.5332 91.553C66.9637 90.427 68.3742 89.3216 69.8047 88.1956C70.0299 88.2326 70.2758 88.2898 70.5009 88.3269C70.0614 90.1305 69.6016 91.9344 69.1621 93.738C68.8553 93.7023 68.5482 93.6461 68.2414 93.6104L68.2418 93.6308Z" fill="#712222"/>
<path d="M80.5876 72.5405C82.0195 70.2713 83.4718 68.0018 84.9037 65.7326C85.1506 65.851 85.4183 65.9894 85.6652 66.1078C85.1764 67.4019 84.6877 68.696 84.0027 70.4628C83.3384 71.025 82.2317 71.9824 81.1246 72.9194C80.9389 72.8 80.7529 72.6602 80.5672 72.5408L80.5876 72.5405Z" fill="#712222"/>
<path d="M90.7461 74.5762C92.768 75.8693 94.4594 76.923 96.151 77.9971C93.6998 80.3445 92.7931 79.8289 90.7461 74.5762Z" fill="#712222"/>
</svg>
