<svg width="1512" height="857" viewBox="0 0 1512 857" fill="none" xmlns="http://www.w3.org/2000/svg">
<rect width="1512" height="857" fill="#0C081E"/>
<rect x="8" y="29" width="1496" height="802" stroke="#712222" stroke-width="16"/>
<path d="M469.75 373.41L254.433 270.38L236.511 271.698L206.08 281.074L184.97 286.675L174.944 289.893L154.509 295.408L138.39 384.041L138.146 393.117L280.605 583.298L292.838 569.462L322.358 505.608L392.581 434.299L469.75 373.41Z" fill="#D9D9D9" stroke="black"/>
<path d="M331.323 437.296C343.465 441.432 350.935 431.132 353.153 425.465L375.657 413.548C386.745 418.335 398.274 408.723 402.653 403.318L401.84 393.408L421.203 393.844C426.575 392.642 426.129 388.047 425.234 385.9C436.763 388.563 441.648 383.805 442.649 381.093L454.606 375.69L470.443 373.346C471.241 384.357 465.401 388.526 462.381 389.235C465.056 399.748 459.061 404.949 455.729 406.236C458.196 418.068 451.444 423.043 447.759 424.051C449.33 434.188 442.845 439.538 439.405 440.946C440.228 452.471 435.058 456.469 432.37 457.027C434.04 469.219 427.711 473.128 424.339 473.558C425.113 484.055 419.48 487.854 416.568 488.441C418.85 502.105 409.854 504.158 405.071 503.476L403.461 505.296C406.958 515.963 398.266 517.266 393.482 516.584C387.339 530.032 379.906 528.332 376.957 525.801C378.859 537.187 366.947 536.446 360.753 534.652C358.522 544.758 350.626 545.205 346.956 544.166C339.893 555.405 332.782 555.236 330.109 553.746C323.377 566.235 317.227 565.835 314.994 564.074C307.048 579.561 299.102 577.086 296.122 573.913C291.464 590.013 282.714 586.823 278.922 583.215C288.697 577.574 285.436 570.431 282.585 567.564L288.149 563.301L281.402 549.948L292.946 542.983L292.224 534.999L297.621 534.31C303.09 523.792 299.796 518.311 297.465 516.886L304.899 494.939C315.262 490.257 314.612 482.824 312.992 479.693L320.871 474.165L320.056 450.04L331.323 437.296Z" fill="#86857D"/>
<path d="M312.787 433.179L404.082 503.926L403.789 504.931C406.086 513.662 401.469 515.872 398.874 515.886L393.81 516.219C391.26 525.578 383.831 527.506 380.435 527.301L377.303 525.449C378.312 535.637 369.665 536.112 365.216 535.075L361.118 534.316C359.317 548.221 350.241 545.72 345.928 542.731C342.418 554.794 334.183 554.892 330.504 553.434C327.884 567.187 318.642 565.503 314.348 562.941C311.915 574.865 304.477 576.58 301.062 575.947L296.553 573.628C295.97 584.538 288.116 586.544 284.262 586.183L278.963 581.387L276.442 563.333L283.369 515.034L309 461.091L312.787 433.179Z" fill="#D9D9D9"/>
<path d="M321.897 497.345L382.82 459.004L407.838 386.978L362.422 417.872L339.857 434.684L323.74 444.539L308.621 501.894L321.897 497.345Z" fill="#FFCD45"/>
<path d="M304.988 516.37L313.082 519.704L327.598 513.828L328.739 504.237L336.651 494.422L346.233 497.155L348.466 496.251L348.185 486.291L361.288 486.968L372.825 482.297L381.884 469.815L373.853 462.048L387.997 456.323L381.478 438.813L399.85 429.487L396.794 421.279L401.359 416.283L399.627 411.632L397.387 405.614L403.573 398.072L400.188 398.184L370.995 417.557L317.127 473.048L300.608 504.605L304.988 516.37Z" fill="#FFCD45"/>
<path d="M288.779 552.744C289.288 555.864 289.839 559.302 290.397 562.732C289.71 562.982 289.029 563.224 288.335 563.467C239.781 502.161 191.234 440.86 142.262 379.026C140.843 381.442 140.015 382.84 139.186 384.251C138.858 384.202 138.517 384.155 138.188 384.107C138.61 380.571 138.868 377.029 139.473 373.515C143.578 349.525 147.745 325.547 151.911 301.556C152.091 300.5 152.324 299.423 152.71 298.405C154.178 294.483 156.784 293.621 159.88 296.198C165.265 300.679 170.413 305.43 175.857 309.845C215.156 341.696 254.48 373.517 293.856 405.28C305.462 414.64 317.248 423.809 329.015 433C337.503 439.631 334.542 454.772 324.301 459.154C323.883 464.189 323.476 469.009 323.082 473.827C322.445 473.992 321.809 474.158 321.178 474.316C265.749 421.801 210.321 369.3 154.757 316.654C151.279 322.402 151.78 328.754 156.063 333.44C173.552 352.594 190.97 371.801 208.72 390.728C227.571 410.819 246.728 430.631 265.827 450.51C279.662 464.916 293.628 479.214 307.515 493.575C308.436 494.523 309.161 495.639 308.704 496.724C308.16 498.816 307.526 500.887 307.09 502.991C306.38 506.447 306.24 510.032 305.055 513.362C303.301 518.257 300.1 518.736 296.703 514.97C285.114 502.113 273.518 489.262 261.968 476.374C234.688 445.93 207.407 415.472 180.172 384.99C172.378 376.261 164.72 367.418 156.996 358.622C156.602 358.175 156.282 357.602 155.774 357.337C153.63 356.215 151.437 355.19 149.255 354.125C149.093 356.852 147.792 360.288 148.969 362.192C153.605 369.715 158.593 377.096 164.208 383.946C202.144 430.158 240.257 476.224 278.344 522.32C283.61 528.697 289.053 534.941 294.366 541.293C297.079 544.532 294.94 549.321 288.813 552.759L288.779 552.744ZM301.685 417.26C301.295 417.769 300.905 418.264 300.515 418.773C303.205 420.671 305.895 422.557 308.585 424.456C308.987 423.933 309.383 423.404 309.792 422.874C307.09 421.003 304.394 419.137 301.692 417.266L301.685 417.26Z" fill="#712222"/>
<path d="M376.745 413.03C375.023 415.194 373.802 417.036 372.261 418.59C370.286 420.58 368.318 423.131 365.886 424.068C359.334 426.578 353.479 426.608 347.623 422.09C293.74 380.607 239.587 339.43 185.492 298.187C181.948 295.48 178.225 292.99 174.502 290.338C181.179 285.37 189.949 284.548 195.645 288.408C222.706 306.754 249.767 325.112 276.739 343.572C307.787 364.826 338.758 386.181 369.736 407.528C372.431 409.381 374.876 411.543 376.738 413.011L376.745 413.03Z" fill="#712222"/>
<path d="M422.066 394.149C417.937 395.232 413.816 396.32 409.07 397.559C408.899 398.104 408.765 399.543 408.023 400.639C406.394 403.037 404.513 404.73 401.405 402.75C380.643 389.531 359.894 376.286 338.985 363.261C296.895 337.032 254.722 310.924 212.568 284.795C210.463 283.493 208.224 282.383 205.52 280.894C214.423 277.322 221.734 275.523 229.871 280.344C263.923 300.543 298.476 320.013 332.762 339.866C360.376 355.866 387.883 372.042 415.42 388.155C417.724 389.502 419.901 391.021 422.141 392.454C422.114 393.013 422.086 393.572 422.072 394.129L422.066 394.149Z" fill="#712222"/>
<path d="M235.905 272.261C244.224 268.821 250.753 267.975 258.228 271.867C316.182 302.002 374.452 331.631 432.622 361.428C439.482 364.946 446.393 368.393 453.063 372.207C454.787 373.195 455.673 375.414 456.947 377.061C454.729 378.377 452.582 380.454 450.267 380.866C443.504 382.058 437.466 381.388 431.307 377.929C387.916 353.579 344.269 329.584 300.491 305.82C280.062 294.73 259.127 284.428 238.42 273.762C237.78 273.43 237.17 273.023 235.905 272.261Z" fill="#712222"/>
<path d="M279.298 582.125C278.43 581.131 277.495 580.184 276.705 579.128C231.32 518.232 185.942 457.341 140.642 396.388C139.213 394.47 136.178 392.583 139.18 388.957C186.409 453.211 233.442 517.198 280.476 581.199C280.083 581.508 279.691 581.816 279.305 582.13L279.298 582.125Z" fill="#0C081E"/>
<path d="M314.176 426.863L306.617 417.813L298.307 414.351L295.854 419.833L314.176 426.863Z" fill="#712222"/>
<path d="M983.729 413.519L1165.09 287.564L1182.08 285.87L1212.31 289.333L1233.11 290.933L1243.09 292.189L1263.25 293.821L1295.33 369.98L1297.3 378.004L1200.74 569.73L1186.66 559.394L1146.81 507.39L1067.52 455.271L983.729 413.519Z" fill="#D9D9D9" stroke="black"/>
<path d="M1125.32 448.137C1114.77 453.753 1105.81 445.797 1102.65 441.117L1079.34 434.129C1069.9 440.154 1057.28 433.459 1052.16 429.358L1051.01 420.424L1033.01 423.908C1027.76 423.699 1027.29 419.545 1027.72 417.495C1017.46 421.704 1011.98 418.258 1010.52 416.009L998.315 413.122L983.07 413.571C984.439 423.48 990.696 426.251 993.654 426.397C993.174 436.164 999.774 439.826 1003.13 440.436C1003.1 451.342 1010.36 454.682 1014 454.989C1014.48 464.245 1021.57 467.961 1025.05 468.662C1026.49 479.031 1032.09 481.756 1034.71 481.822C1035.49 492.919 1042.16 495.38 1045.39 495.223C1046.68 504.672 1052.67 507.146 1055.51 507.202C1056 519.705 1064.8 520.09 1069.14 518.72L1070.99 520.08C1069.77 530.114 1078.14 529.882 1082.48 528.512C1090.8 539.475 1097.42 536.776 1099.69 534.057C1100.1 544.476 1111.08 541.913 1116.53 539.329C1120.55 547.949 1128.01 547.085 1131.24 545.575C1140 554.429 1146.61 553.142 1148.82 551.391C1157.51 561.409 1163.18 560.071 1164.92 558.15C1175.32 570.636 1182.27 567.167 1184.44 563.872C1191.89 577.43 1199.45 573.197 1202.3 569.385C1192.08 565.937 1193.76 559.07 1195.87 556.068L1189.85 553.17L1193.59 540.229L1181.47 535.888L1180.61 528.68L1175.44 528.931C1168.31 520.461 1170.33 515.066 1172.24 513.427L1161.08 495.12C1150.5 492.617 1149.68 485.91 1150.59 482.869L1142.16 479.218L1138.29 457.657L1125.32 448.137Z" fill="#86857D"/>
<path d="M1141.84 441.514L1070.14 518.959L1070.61 519.805C1070.14 527.929 1074.88 529.154 1077.31 528.751L1082.1 528.237C1086.28 536.144 1093.59 536.669 1096.72 535.944L1099.3 533.798C1100.31 543.01 1108.48 542.049 1112.44 540.416L1116.12 539.087C1120.47 551.152 1128.47 547.478 1131.93 544.133C1137.52 554.288 1145.23 553.059 1148.39 551.175C1153.48 562.974 1161.79 560 1165.31 557.038C1169.87 567.241 1177.15 567.575 1180.22 566.467L1183.99 563.687C1186.63 573.285 1194.35 573.811 1197.88 572.874L1201.91 567.766L1200.8 551.325L1185.05 509.527L1150.74 465.704L1141.84 441.514Z" fill="#D9D9D9"/>
<path d="M1154.89 500.844L1091.25 477.539L1055.23 417.979L1103.08 437.406L1127.11 448.357L1143.89 454.267L1168.09 502.542L1154.89 500.844Z" fill="#FFCD45"/>
<path d="M1168.8 510.601L1161.83 514.99L1147.23 512.332L1144.48 504.015L1135.37 496.693L1126.9 500.811L1124.65 500.402L1123.17 491.506L1111.05 494.419L1099.45 492.306L1088.8 482.818L1094.93 474.503L1080.72 471.912L1083.73 455.21L1064.93 450.168L1066.34 442.339L1061.2 438.707L1062 434.27L1063.04 428.529L1055.93 422.922L1059.12 422.424L1089.79 434.481L1149.85 474.264L1170.82 499.379L1168.8 510.601Z" fill="#FFCD45"/>
<path d="M1187.24 543.892C1187.36 546.746 1187.51 549.888 1187.64 553.024C1188.33 553.136 1189.02 553.242 1189.71 553.348C1223.29 491.123 1256.87 428.904 1290.75 366.143C1292.54 368.063 1293.58 369.172 1294.62 370.293C1294.92 370.197 1295.23 370.101 1295.53 370.006C1294.45 366.932 1293.53 363.827 1292.29 360.802C1283.85 340.147 1275.35 319.512 1266.85 298.866C1266.48 297.956 1266.06 297.037 1265.5 296.194C1263.38 292.945 1260.78 292.595 1258.38 295.38C1254.21 300.222 1250.31 305.265 1246.07 310.058C1215.48 344.636 1184.85 379.192 1154.17 413.704C1145.13 423.875 1135.88 433.905 1126.65 443.951C1119.99 451.199 1125.67 464.176 1136.08 466.432C1137.43 470.837 1138.74 475.054 1140.03 479.272C1140.66 479.317 1141.29 479.362 1141.9 479.401C1183.6 423.887 1225.3 368.385 1267.09 312.733C1271.45 317.283 1272.2 323.006 1269.1 327.854C1256.44 347.665 1243.86 367.513 1230.91 387.165C1217.16 408.027 1203.07 428.69 1189.04 449.403C1178.88 464.412 1168.58 479.348 1158.37 494.325C1157.69 495.315 1157.23 496.422 1157.86 497.313C1158.77 499.085 1159.76 500.823 1160.57 502.622C1161.9 505.579 1162.72 508.741 1164.47 511.51C1167.05 515.578 1170.13 515.492 1172.58 511.603C1180.94 498.328 1189.3 485.059 1197.61 471.762C1217.25 440.355 1236.89 408.937 1256.48 377.503C1262.08 368.502 1267.54 359.422 1273.06 350.373C1273.34 349.913 1273.53 349.353 1273.96 349.037C1275.74 347.697 1277.6 346.436 1279.43 345.14C1280.11 347.538 1281.98 350.381 1281.25 352.261C1278.36 359.686 1275.12 367.04 1271.19 374.023C1244.63 421.141 1217.87 468.158 1191.14 515.197C1187.45 521.704 1183.56 528.121 1179.82 534.613C1177.9 537.925 1180.82 541.837 1187.21 543.911L1187.24 543.892ZM1149.16 425.599C1149.62 425.989 1150.08 426.366 1150.54 426.756C1148.39 428.873 1146.24 430.978 1144.09 433.095C1143.62 432.694 1143.15 432.288 1142.66 431.882C1144.83 429.788 1146.99 427.7 1149.15 425.605L1149.16 425.599Z" fill="#712222"/>
<path d="M1078.22 433.843C1080.25 435.49 1081.74 436.931 1083.48 438.065C1085.71 439.517 1088.04 441.469 1090.49 441.912C1097.09 443.094 1102.57 442.184 1107.17 437.234C1149.54 391.768 1192.22 346.529 1234.84 301.242C1237.63 298.271 1240.63 295.463 1243.59 292.512C1236.4 289.167 1228.05 289.839 1223.47 294.179C1201.72 314.803 1179.96 335.438 1158.31 356.15C1133.39 379.995 1108.55 403.918 1083.72 427.834C1081.55 429.911 1079.69 432.223 1078.23 433.825L1078.22 433.843Z" fill="#712222"/>
<path d="M1032.26 424.315C1036.32 424.617 1040.38 424.925 1045.06 425.266C1045.32 425.723 1045.72 426.98 1046.63 427.835C1048.61 429.705 1050.69 430.909 1053.21 428.652C1070.07 413.59 1086.91 398.505 1103.94 383.592C1138.22 353.562 1172.61 323.626 1206.97 293.673C1208.69 292.18 1210.56 290.837 1212.8 289.081C1203.8 287.331 1196.63 286.902 1189.95 292.486C1162.02 315.875 1133.48 338.695 1105.26 361.813C1082.54 380.443 1059.95 399.211 1037.32 417.928C1035.42 419.493 1033.68 421.19 1031.86 422.821C1032 423.313 1032.13 423.806 1032.25 424.299L1032.26 424.315Z" fill="#712222"/>
<path d="M1182.76 286.271C1174.33 284.546 1168.07 284.838 1161.83 289.49C1113.48 325.527 1064.73 361.165 1016.11 396.936C1010.38 401.158 1004.59 405.325 999.088 409.78C997.668 410.933 997.266 413.046 996.393 414.713C998.717 415.528 1001.12 417.029 1003.36 417.025C1009.91 417.003 1015.42 415.442 1020.51 411.385C1056.37 382.815 1092.54 354.521 1128.87 326.41C1145.83 313.292 1163.4 300.793 1180.7 288.006C1181.23 287.609 1181.73 287.15 1182.76 286.271Z" fill="#712222"/>
<path d="M1201.74 568.476C1202.36 567.454 1203.05 566.463 1203.59 565.399C1234.29 504.045 1264.99 442.697 1295.6 381.306C1296.57 379.374 1299.04 377.213 1295.54 374.471C1263.76 439.103 1232.11 503.466 1200.46 567.842C1200.89 568.053 1201.31 568.264 1201.74 568.482L1201.74 568.476Z" fill="#0C081E"/>
<path d="M1139.34 436.128L1144.66 426.88L1151.76 422.476L1155.1 426.953L1139.34 436.128Z" fill="#712222"/>
</svg>
