<svg width="1342" height="591" viewBox="0 0 1342 591" fill="none" xmlns="http://www.w3.org/2000/svg">
<path d="M3.67813 135.347C24.3481 122.141 21.759 109.621 2.06525 97.2076C23.1597 83.9486 24.051 70.4255 2.06525 57.1136C16.878 44.6998 24.7726 32.9727 6.09743 18.9741C3.84793 17.2837 5.41833 7.82803 5.16367 0.749512L930.94 0.749512C929.879 2.49273 928.861 4.28877 927.8 6.03199C935.906 14.5896 943.207 26.1583 952.544 30.2258C955.897 31.7049 964.301 15.1707 970.413 6.87721C969.097 4.86986 967.739 2.80973 966.423 0.802388L1334.54 0.802388C1349.43 18.8156 1300.16 40.104 1341.41 54.9478C1324.14 69.4218 1313.7 82.3638 1339.46 94.5135C1326.94 108.987 1312.93 122.088 1337.42 134.079C1280.84 195.673 1280.59 402.271 1336.95 456.627C1323.75 468.935 1315.9 482.511 1340.14 494.767C1323.75 508.079 1315.73 521.338 1340.6 535.548C1306.1 552.134 1345.32 571.838 1334.83 590.749H974.275C964.386 577.807 958.316 563.439 950.082 561.273C944.65 559.794 936.203 575.747 929.115 583.882L932.893 590.38H0.707031C7.03111 578.705 13.9918 571.152 15.0105 562.541C15.9442 554.512 10.5115 545.32 7.41317 535.072C17.6279 521.69 16.3404 508.748 3.5508 496.246C19.2549 484.149 27.3192 470.573 3.97526 457.948C62.1652 403.38 62.6745 185.319 3.67813 135.294V135.347ZM973.172 341.205C962.391 332.595 954.836 322.03 949.955 323.72C943.504 325.886 939.132 337.666 933.869 345.326C939.769 351.4 945.626 362.124 951.568 362.177C957.383 362.23 963.282 351.453 973.172 341.205ZM973.342 294.667C962.434 285.634 954.878 274.91 950.04 276.548C943.546 278.713 939.132 290.493 933.827 298.1C939.684 304.122 945.456 314.687 951.441 314.898C957.255 315.057 963.282 304.598 973.342 294.667ZM973.129 201.853C963.07 191.87 956.321 180.354 951.356 181.41C944.777 182.784 939.557 194.088 933.742 201.114C939.09 207.717 944.098 218.969 949.955 219.655C955.812 220.395 962.476 210.622 973.129 201.853ZM973.214 388.8C962.646 380.137 956.024 370.364 950.082 370.998C944.268 371.632 939.132 382.725 933.742 389.276C939.514 396.46 944.692 407.817 951.313 409.349C956.237 410.511 963.07 398.837 973.214 388.8ZM973.214 155.896C963.325 145.331 956.958 133.498 951.865 134.291C945.286 135.294 939.769 146.44 933.742 153.255C938.92 160.016 943.631 171.268 949.446 172.272C955.303 173.275 962.264 164.031 973.214 155.896ZM973.214 107.456C962.9 97.4189 956.025 85.903 951.059 87.0652C944.48 88.5971 939.429 100.06 933.742 107.244C939.217 113.53 944.395 124.307 950.294 124.941C956.152 125.575 962.688 116.066 973.257 107.456H973.214ZM973.172 248.128C962.858 238.514 955.94 227.368 950.931 228.583C944.395 230.115 939.387 241.472 933.742 248.603C939.259 255.101 944.48 266.247 950.337 266.828C956.152 267.409 962.646 257.32 973.172 248.128ZM973.129 435.92C962.518 427.257 955.982 417.643 950.125 418.329C944.268 418.963 939.175 429.845 933.742 436.29C939.472 443.421 944.607 454.778 951.186 456.31C956.109 457.473 962.943 445.904 973.087 435.92H973.129ZM949.106 512.569C957.043 500.208 965.489 492.759 965.532 485.364C965.532 478.444 955.897 465.291 951.695 465.977C945.201 467.034 936.288 476.595 934.845 484.413C933.699 490.647 942.145 499.68 949.106 512.622V512.569ZM973.723 59.702C962.476 49.8766 955.812 39.5229 949.955 40.2096C944.14 40.8435 939.132 52.6234 933.784 59.4906C939.217 65.8824 944.31 76.7644 950.167 77.5039C956.025 78.1906 962.603 68.6822 973.723 59.702ZM950.082 559.847C957.892 546.06 966.211 537.713 965.532 530.793C964.81 523.609 955.473 513.044 949.658 512.78C944.522 512.569 935.27 524.085 934.76 531.216C934.251 538.295 942.358 546.324 950.082 559.9V559.847Z" fill="#712222"/>
</svg>
