<svg width="505" height="235" viewBox="0 0 505 235" fill="none" xmlns="http://www.w3.org/2000/svg">
<path d="M22.7045 49.164C32.1592 46.4094 37.7991 41.2488 39.6242 32.648C42.7803 32.4155 45.8816 32.1831 49.4769 31.9157C49.7787 29.5214 50.012 27.2434 50.3551 24.9769C52.3036 11.82 65.1478 1.60358 80.7639 0.801605C83.4947 0.662132 86.2529 0.708603 88.9973 0.708603C198.31 0.708603 307.609 0.708603 416.921 0.708603C440.661 0.708603 452.792 9.98359 455.111 29.9631C455.179 30.5094 455.454 31.0441 455.742 31.939C458.596 32.125 461.492 32.3109 464.373 32.4969C470.837 44.5729 472.085 45.6074 483.365 48.1295C483.694 49.8497 484.038 51.6861 484.367 53.4062C501.163 56.4281 504.47 59.9499 504.47 74.4435C504.47 103.5 504.47 132.546 504.47 161.603C504.47 174.957 500.353 179.141 484.902 181.489C485.259 181.942 485.616 182.407 485.959 182.861C483.063 184.709 480.086 186.452 477.3 188.416C474.02 190.718 469.725 192.705 468.01 195.715C465.334 200.399 464.236 205.583 457.512 203.038C454.054 210.395 452.064 217.485 447.673 223.261C441.457 231.432 431.302 234.396 419.776 234.384C347.747 234.303 275.704 234.349 203.675 234.349C165.253 234.349 126.844 234.349 88.421 234.361C64.1324 234.361 52.8389 225.911 49.916 205.525C49.8062 204.781 49.4357 204.072 49.1338 203.166C46.1149 202.991 43.192 202.817 40.0084 202.619C37.8128 194.925 33.3942 189.172 23.5004 187.335C21.8949 187.033 21.0578 183.79 19.6443 181.547C3.72637 178.514 0.43303 175.213 0.378141 160.835C0.268362 131.011 0.268335 101.176 0.350669 71.3518C0.378114 60.9378 5.24958 56.4165 17.1332 54.0455C19.3288 53.6038 20.8794 50.8608 22.7319 49.1872L22.7045 49.164Z" fill="#D9D9D9"/>
<path d="M48 57V189" stroke="#0C081E" stroke-width="6"/>
<path d="M462 52V184" stroke="#0C081E" stroke-width="6"/>
</svg>
