<svg width="495" height="290" viewBox="0 0 495 290" fill="none" xmlns="http://www.w3.org/2000/svg">
<path d="M29.9724 289.307C27.4158 270.764 17.3913 260.469 0.00645876 257.773C0.00645876 237.125 -0.0339085 216.736 0.0871932 196.348C0.0871932 194.834 1.00218 193.19 1.83644 191.849C17.3509 166.962 17.5258 123.387 2.2132 98.6877C1.25784 97.1593 0.141016 95.2992 0.12756 93.5978C-0.0204527 73.2237 0.0333702 52.8496 0.0333702 32.2304C17.2971 29.3321 27.5234 19.2821 29.9993 0.0038133C32.381 0.0038133 34.7761 0.0038133 37.1847 0.0038133C71.4833 0.0038133 105.782 -0.0250248 140.081 0.0759085C142.422 0.0759085 145.396 0.148004 146.983 1.57549C164.22 17.1769 184.794 24.1557 206.417 28.1353C242.277 34.7248 277.989 33.8309 312.651 21.3296C324.303 17.1192 334.731 9.05897 345.805 2.93088C348.254 1.57549 351.067 0.162423 353.731 0.148004C388.918 -0.0394438 424.118 -0.0394438 459.318 0.191261C461.269 0.191261 464.633 2.28202 464.929 3.91137C468.078 20.8682 478.21 29.3177 494.424 32.1583C494.424 40.5934 494.424 49.1583 494.424 57.7232C494.424 63.015 494.424 68.2924 494.424 73.5841C494.424 85.2347 492.769 95.7895 488.234 107.195C476.972 135.485 477.039 164.597 492.661 192.065C493.751 193.983 494.303 196.564 494.316 198.828C494.451 216.837 494.33 234.861 494.464 252.87C494.491 256.706 493.267 258.263 489.661 259.013C476.151 261.839 468.159 270.75 465.077 285.155C464.673 287.044 461.861 289.697 460.152 289.711C424.064 289.985 387.976 289.956 351.887 289.87C350.246 289.87 348.254 289.178 347.003 288.053C326.079 269.423 300.89 263.036 274.867 259.734C242.452 255.624 210.266 257.513 179.385 269.539C168.418 273.807 158.582 281.391 148.181 287.375C146.311 288.457 144.212 289.812 142.22 289.826C105.688 289.956 69.142 289.884 32.6097 289.841C31.9638 289.841 31.3045 289.581 30.0128 289.307H29.9724Z" fill="#FFCD45"/>
<path d="M46 246H447.5" stroke="#0C081E" stroke-width="6"/>
<path d="M46 44H447.5" stroke="#0C081E" stroke-width="6"/>
</svg>
