<svg width="321" height="194" viewBox="0 0 321 194" fill="none" xmlns="http://www.w3.org/2000/svg">
<path d="M294.218 18.7588C291.38 24.2236 293.961 26.3499 297.682 27.3391C296.855 29.4919 295.286 31.5908 295.58 33.4386C295.837 35.0349 298.211 36.3457 299.68 37.817C299.139 39.514 297.829 41.6952 297.969 43.8741C298.046 45.1216 300.485 46.37 302.042 47.7858C298.61 52.0627 295.597 57.2012 297.293 64.7098C298.937 71.9467 303.364 75.6587 308.979 78.1397C305.419 83.6405 306.003 85.3981 311.869 87.4904C307.597 93.5925 307.97 95.1738 314.235 97.5645C310.107 102.948 310.173 103.583 315.466 108.101C310.98 114.973 306.578 121.909 301.949 128.637C301.064 129.928 299.397 130.82 297.924 131.158C232.194 146.339 166.453 161.428 100.703 176.519C100.399 176.589 100.057 176.537 100.199 175.547C98.0459 173.842 95.8855 172.152 93.732 170.447C92.7473 172.696 91.7557 174.957 90.771 177.206C91.1845 177.654 91.598 178.103 92.002 178.554C78.2825 181.708 64.5708 184.896 50.8307 187.96C49.8229 188.191 48.4968 187.822 47.5036 187.246C40.4302 183.126 33.4071 178.876 26.3753 174.675C28.5361 167.876 28.4464 167.66 22.4357 164.678C27.1627 159.985 26.6611 157.76 20.5707 154.998C21.4401 153.119 23.1434 151.166 22.9629 149.292C22.814 147.73 20.4831 146.256 19.0959 144.707C28.0014 131.498 25.3784 121.045 11.4936 114.553C12.2886 112.656 14.0406 110.479 13.629 108.907C13.1563 107.112 10.7622 105.841 9.41535 104.554C9.98566 102.768 11.4111 100.477 11.1444 98.3158C10.9677 96.9375 8.28912 95.7797 6.76423 94.5458C7.43006 93.1748 9.17661 91.2362 9.11287 89.2171C9.06858 87.631 6.79144 85.9552 5.35872 84.1207C7.90212 80.249 11.1032 76.3206 13.3595 71.7226C16.9804 64.3515 22.5593 61.5792 29.6465 60.3165C40.6782 58.36 51.5285 55.4401 61.1217 53.2348C64.1405 55.5678 66.2086 57.1616 68.2646 58.7464C69.3814 56.5505 70.5008 54.3658 71.6176 52.17C71.2983 51.7822 70.9789 51.3945 70.6621 51.018L77.2509 49.5034C140.144 35.0457 203.035 20.6239 265.902 6.0539C269.429 5.24304 272.493 5.50827 275.802 7.62098C281.704 11.3957 287.747 14.8663 294.194 18.7407L294.218 18.7588ZM70.7618 70.6113C71.9088 67.5453 73.4014 65.5468 73.0305 63.9767C72.6768 62.4381 70.4406 61.3323 69.0315 60.0363C67.9705 61.7345 66.1041 63.3697 66.0946 65.1573C66.0942 66.5053 68.4769 68.0741 70.7523 70.6135L70.7618 70.6113ZM86.433 138.391C85.4637 141.664 84.0063 144.033 84.5771 145.297C85.2946 146.894 87.6763 147.588 89.3345 148.661C90.0629 146.909 91.6046 144.994 91.2915 143.458C90.9733 141.9 88.7907 140.722 86.433 138.391ZM70.7817 67.9108C69.4865 71.3774 67.9411 73.4945 68.3831 74.8945C68.8957 76.5148 71.1752 77.5043 72.6767 78.7672C73.6168 77.1086 75.3613 75.466 75.2678 73.7967C75.1872 72.3136 73.087 70.7981 70.7722 67.913L70.7817 67.9108ZM91.2713 158.219C90.1492 161.481 88.5829 163.768 89.1131 165.03C89.8132 166.725 92.1343 167.634 93.7525 168.882C94.5742 167.144 96.2057 165.315 95.9748 163.7C95.7568 162.143 93.5951 160.795 91.2713 158.219ZM88.6305 148.386C87.7122 151.707 86.2866 154.127 86.8834 155.373C87.6535 156.982 90.0206 157.655 91.7098 158.733C92.4089 156.941 93.9213 154.985 93.5884 153.406C93.2632 151.861 91.0573 150.713 88.6305 148.386ZM86.5562 113.497C83.4778 111.993 81.5378 110.216 80.3405 110.669C79.0058 111.177 78.3432 113.694 77.3911 115.343C78.9342 116.526 80.5558 118.66 81.999 118.624C83.2632 118.593 84.3423 116.146 86.5562 113.497ZM77.1682 98.1314C76.1893 101.537 74.8132 103.781 75.3303 105.246C75.8499 106.723 78.5098 108.453 79.7933 108.158C80.9437 107.893 82.3379 104.901 82.0697 103.342C81.8094 101.818 79.5897 100.566 77.1682 98.1314ZM87.1634 140.872C88.2106 137.415 89.5858 135.254 89.0911 133.843C88.5464 132.301 85.9577 130.271 84.8323 130.6C83.5642 130.963 82.1211 133.742 82.2811 135.396C82.4162 136.855 84.6617 138.219 87.166 140.883L87.1634 140.872ZM72.7318 78.0924C71.6466 81.5581 70.2221 83.7655 70.7324 85.1144C71.3056 86.6499 73.8168 88.4729 75.1132 88.234C76.267 88.0279 77.7008 85.1206 77.52 83.5068C77.3563 82.0546 75.1783 80.7226 72.7292 78.0812L72.7318 78.0924ZM77.6705 100.534C78.8325 97.2285 80.2975 95.1536 79.8555 93.7535C79.3705 92.2097 76.8379 90.1196 75.7091 90.3909C74.4186 90.6994 72.8589 93.3636 72.9662 95.0062C73.0556 96.44 75.2854 97.8665 77.6705 100.534ZM81.9456 118.435C80.8811 121.86 79.4471 124.07 79.9531 125.443C80.509 126.947 83.098 128.717 84.3746 128.435C85.5466 128.178 86.9761 125.295 86.7694 123.699C86.5841 122.24 84.3757 120.95 81.9361 118.437L81.9456 118.435Z" fill="#FFCD45"/>
<path d="M105.125 129.745L286.011 90.6876" stroke="#712222" stroke-width="4"/>
<path d="M69.3271 108.696C60.4065 110.687 51.4851 112.673 42.5645 114.663C42.157 114.755 41.7476 114.847 41.2579 114.957L40.3606 110.97L68.418 104.656L69.3271 108.696Z" fill="#712222"/>
<path d="M70.8732 115.565C67.5782 116.276 64.2805 116.976 60.9901 117.708C55.294 118.977 49.6053 120.269 43.912 121.55L42.7584 121.81L42.0818 118.803L43.2411 118.542C51.8118 116.614 60.3824 114.685 68.9512 112.749C69.3606 112.657 69.748 112.476 70.1465 112.335C70.389 113.413 70.6316 114.491 70.8732 115.565Z" fill="#712222"/>
<path d="M78.1427 147.874C77.7216 147.905 77.2886 147.883 76.883 147.975C68.3402 149.884 59.803 151.809 51.263 153.731C50.8574 153.822 50.4538 153.913 50.0042 154.014L49.3313 151.024C49.7426 150.931 50.1118 150.848 50.483 150.764C59.0861 148.829 67.6873 146.893 76.2905 144.957C76.6693 144.872 77.0399 144.75 77.4141 144.645C77.6566 145.723 77.8992 146.801 78.1408 147.875L78.1427 147.874Z" fill="#712222"/>
<path d="M65.148 90.1206C56.1815 92.1211 47.2179 94.1253 38.2524 96.1299C37.8774 96.2142 37.5024 96.2986 37.0643 96.3972L36.437 93.6092C36.6653 93.4982 36.8835 93.3427 37.1246 93.2884C46.0224 91.2778 54.9202 89.2757 63.8217 87.2812C64.0398 87.2322 64.2816 87.2884 64.5125 87.2961C64.7249 88.2403 64.9364 89.1804 65.1489 90.1246L65.148 90.1206Z" fill="#712222"/>
<path d="M79.8697 155.549L51.7971 161.866L51.1743 159.098C51.3672 158.999 51.5548 158.85 51.7672 158.803C60.7569 156.771 69.7484 154.748 78.7417 152.733C78.8986 152.698 79.0691 152.723 79.2333 152.72L79.8697 155.549Z" fill="#712222"/>
<path d="M63.6025 83.2514L35.5375 89.5664C35.3585 88.8957 35.2106 88.3457 35.0031 87.5665L63.1484 81.2334L63.6025 83.2514Z" fill="#712222"/>
<path d="M65.7822 92.9448L37.7115 99.2611C37.5445 98.626 37.3994 98.0796 37.1847 97.2594L65.3281 90.9268L65.7822 92.9448Z" fill="#712222"/>
<path d="M66.6924 96.9848C59.0661 98.6796 51.437 100.371 43.8116 102.069C42.1061 102.449 40.4025 102.837 38.6195 103.238C38.444 102.592 38.297 102.046 38.0949 101.299L66.2383 94.9668L66.6924 96.9848Z" fill="#712222"/>
<path d="M68.2373 103.849C67.3768 104.009 66.5136 104.148 65.6594 104.335C57.5614 106.149 49.4671 107.979 41.3709 109.801L40.1599 110.073C39.9853 109.431 39.8374 108.89 39.6398 108.164L67.7832 101.831L68.2373 103.849Z" fill="#712222"/>
<path d="M73.6895 128.086L45.592 134.409L45.1543 132.463L46.306 132.204C54.9092 130.269 63.5123 128.333 72.1155 126.397C72.4942 126.312 72.863 126.182 73.2363 126.072L73.6904 128.09L73.6895 128.086Z" fill="#712222"/>
<path d="M75.0537 134.145C74.1932 134.305 73.33 134.443 72.4758 134.631C64.3778 136.445 56.2835 138.275 48.1873 140.097L46.9763 140.369C46.8017 139.727 46.6538 139.186 46.4562 138.46L74.5996 132.127L75.0537 134.145Z" fill="#712222"/>
<path d="M72.7804 124.046C72.5416 124.155 72.312 124.304 72.0633 124.36C63.2343 126.356 54.4054 128.342 45.5737 130.325C45.0725 130.438 44.522 130.788 44.3703 128.782C44.5554 128.694 44.7477 128.557 44.96 128.509C53.9459 126.479 62.9364 124.46 71.925 122.442C72.0818 122.406 72.2524 122.432 72.4166 122.429C72.5378 122.968 72.6591 123.507 72.7804 124.046Z" fill="#712222"/>
<path d="M74.3265 130.911C74.1779 130.983 74.0356 131.083 73.8787 131.118C64.8594 133.152 55.8392 135.182 46.8181 137.207C46.6632 137.242 46.4953 137.229 46.3149 137.24C45.7271 135.958 45.8329 135.428 46.4944 135.313C47.5508 135.131 48.5862 134.855 49.6308 134.62C57.3539 132.882 65.0751 131.145 72.7992 129.411C73.1761 129.326 73.573 129.331 73.9627 129.294C74.084 129.833 74.2053 130.372 74.3265 130.911Z" fill="#712222"/>
<path d="M62.0568 76.3876L33.5881 82.7934C33.5211 82.5403 33.4541 82.2871 33.3881 82.0295C33.7295 81.8675 34.0564 81.6322 34.4161 81.5512C43.1447 79.5744 51.8769 77.6138 60.6074 75.6365C61.013 75.5453 61.3931 75.332 61.7832 75.1719L62.0558 76.3835L62.0568 76.3876Z" fill="#712222"/>
<path d="M81.8703 164.435C81.0423 164.588 80.2069 164.716 79.3862 164.901C71.0624 166.765 62.7404 168.646 54.4148 170.502C54.059 170.582 53.6658 170.496 53.2899 170.487L53.129 169.629L81.5977 163.224C81.6879 163.625 81.7791 164.03 81.8703 164.435Z" fill="#712222"/>
<path d="M62.966 80.4275C62.5791 80.4677 62.1821 80.4719 61.8052 80.5567C53.1619 82.493 44.5243 84.4451 35.8792 86.3733C35.5215 86.4538 35.1235 86.3646 34.7448 86.3519C34.6942 86.0823 34.6446 85.8082 34.5939 85.5386L62.6934 79.2158L62.966 80.4275Z" fill="#712222"/>
<path d="M64.0578 85.2741C60.2548 86.1043 56.4482 86.9183 52.6489 87.7646C47.4235 88.9277 42.2035 90.115 36.9789 91.2821C36.6269 91.3613 36.2568 91.3509 35.8947 91.3856C35.8379 91.1599 35.7811 90.9343 35.7263 90.7082C36.0323 90.5499 36.3201 90.3192 36.6444 90.2419C45.3137 88.2784 53.9885 86.3307 62.6596 84.3754C63.0384 84.2901 63.4109 84.168 63.7852 84.0625L64.0578 85.2741Z" fill="#712222"/>
<path d="M69.7815 110.718C69.3946 110.759 68.9976 110.763 68.6207 110.848C59.9774 112.784 51.3398 114.736 42.6947 116.664C42.337 116.745 41.939 116.655 41.5612 116.647C41.5106 116.377 41.461 116.103 41.4103 115.833L69.5098 109.511L69.7824 110.722L69.7815 110.718Z" fill="#712222"/>
<path d="M71.3263 117.583C70.9051 117.614 70.4721 117.592 70.0646 117.684C61.4549 119.608 52.8497 121.553 44.2372 123.474C43.8756 123.555 43.4795 123.474 43.0979 123.466C43.05 123.209 43.0012 122.947 42.9533 122.69L71.0527 116.367C71.1448 116.776 71.2351 117.178 71.3263 117.583Z" fill="#712222"/>
<path d="M75.6896 136.969L47.5921 143.291C47.5251 143.038 47.459 142.789 47.3919 142.536C47.7344 142.369 48.0604 142.13 48.422 142.048C57.0262 140.1 65.6341 138.167 74.2383 136.218C74.6458 136.126 75.024 135.914 75.416 135.753C75.5072 136.158 75.5975 136.559 75.6887 136.965L75.6896 136.969Z" fill="#712222"/>
<path d="M77.2355 143.838L49.1591 150.155C49.0977 149.999 49.0355 149.838 48.9722 149.682C49.0757 149.463 49.1431 149.128 49.2871 149.045C49.5455 148.889 49.8471 148.881 50.1322 148.817C58.6779 146.894 67.2218 144.971 75.7657 143.04C76.1751 142.948 76.5625 142.767 76.961 142.626C77.0522 143.032 77.1424 143.433 77.2336 143.838L77.2355 143.838Z" fill="#712222"/>
<path d="M78.7785 150.702C69.7546 152.715 60.7317 154.733 51.7069 156.742C51.3549 156.821 50.9865 156.828 50.6263 156.87C50.5714 156.644 50.5165 156.418 50.4597 156.193C50.7974 156.023 51.1149 155.773 51.4727 155.692C60.1105 153.732 68.7509 151.792 77.3914 149.843C77.7702 149.758 78.1344 149.608 78.5039 149.491C78.5951 149.896 78.6854 150.297 78.7766 150.702L78.7785 150.702Z" fill="#712222"/>
<path d="M80.3244 157.567C73.515 159.078 66.7046 160.585 59.8962 162.099C57.6474 162.601 55.4032 163.115 53.1526 163.608C52.835 163.68 52.4964 163.667 52.1688 163.693C52.1129 163.472 52.0551 163.251 51.9983 163.025C52.3035 162.863 52.5913 162.623 52.9156 162.546C61.1727 160.671 69.4352 158.821 77.696 156.953C78.4861 156.775 79.2662 156.553 80.0527 156.351L80.3254 157.562L80.3244 157.567Z" fill="#712222"/>
<path d="M71.6903 119.2C71.0663 119.374 70.4458 119.574 69.8145 119.716C61.3022 121.635 52.787 123.551 44.2729 125.463C43.9247 125.541 43.5565 125.522 43.1965 125.547C43.1466 125.299 43.0987 125.05 43.0488 124.802L71.5098 118.397L71.6912 119.204L71.6903 119.2Z" fill="#712222"/>
<path d="M61.6036 74.3691L33.1465 80.7724C33.0885 80.5683 33.0305 80.3642 32.9725 80.1601C33.2719 79.9991 33.555 79.7566 33.8745 79.6847C40.3907 78.2014 46.9096 76.7303 53.4321 75.2755C56.0903 74.6816 58.7585 74.1323 61.4222 73.5627L61.6036 74.3691Z" fill="#712222"/>
<path d="M82.2331 166.049C81.935 166.18 81.6459 166.36 81.334 166.43C72.5031 168.425 63.6685 170.413 54.834 172.393C54.4877 172.471 54.1141 172.427 53.7532 172.44C53.7016 172.175 53.6472 171.906 53.5955 171.641L82.0508 165.238C82.1119 165.51 82.173 165.781 82.2331 166.049Z" fill="#712222"/>
<path d="M72.1443 121.218L43.6853 127.621C43.6251 127.354 43.564 127.082 43.5038 126.815L71.9629 120.411L72.1443 121.218Z" fill="#712222"/>
<path d="M67.329 99.8131L39.241 106.133C39.1812 105.921 39.1195 105.709 39.0606 105.501C39.3592 105.328 39.6358 105.065 39.9563 104.989C44.4475 103.957 48.947 102.953 53.4428 101.941C57.6229 101.001 61.803 100.06 65.9849 99.1278C66.3617 99.043 66.7606 99.0469 67.1484 99.0108L67.3299 99.8172L67.329 99.8131Z" fill="#712222"/>
<path d="M76.7806 141.815L48.6946 148.135C48.6357 147.927 48.5749 147.719 48.516 147.511C48.8155 147.342 49.094 147.087 49.4144 147.011C54.6354 145.819 59.8573 144.631 65.0846 143.476C68.9183 142.631 72.76 141.83 76.5991 141.009L76.7806 141.815Z" fill="#712222"/>
<path d="M81.1415 161.202C80.834 161.309 80.5358 161.449 80.2201 161.52C71.5146 163.483 62.809 165.446 54.0988 167.397C53.7526 167.475 53.3816 167.452 53.0226 167.474L52.873 166.72L80.9609 160.399C81.0202 160.663 81.0813 160.934 81.1415 161.202Z" fill="#712222"/>
</svg>
